<svg width="379" height="275" viewBox="0 0 379 275" fill="none" xmlns="http://www.w3.org/2000/svg">
<rect width="379" height="275" rx="12" fill="white"/>
<g clip-path="url(#clip0_297_15789)">
<path fill-rule="evenodd" clip-rule="evenodd" d="M51.8277 152.225L70.8905 141.253C73.4117 139.801 73.4117 136.176 70.8905 134.728L52.2384 123.99C48.8844 122.06 46.253 124.597 46.253 127.073V148.908C46.253 151.539 49.0327 153.655 51.8277 152.225ZM55.06 119.331L79.5264 133.416C81.0665 134.303 82.9678 134.303 84.5079 133.416L84.6752 133.317C87.1964 131.869 87.1964 128.241 84.6752 126.792L52.2346 108.119C49.3065 106.246 46.2492 108.438 46.2492 111.202V111.566C46.2492 112.241 45.519 112.661 44.9334 112.324L41.3931 110.288C41.0661 110.102 40.895 109.727 40.9672 109.359C42.1765 103.186 49.3369 99.9145 55.0562 103.459L87.4056 122.083C93.5393 125.613 93.5583 134.432 87.4702 138V138.004L48.9072 160.199C47.2607 161.147 46.2454 162.898 46.2454 164.794C46.2454 167.558 49.3027 169.753 52.2308 167.877L84.6714 149.204C87.1926 147.755 87.1926 144.127 84.6714 142.678L84.3558 142.496C83.7702 142.159 83.7702 141.317 84.3558 140.98L87.8885 138.944C88.2155 138.758 88.6262 138.796 88.9076 139.042C93.5012 143.058 92.9993 150.694 87.4017 153.916L55.0524 172.536C48.8122 176.407 40.8456 172.153 40.7885 164.874L40.7847 164.877V120.1C40.7847 118.428 39.8911 116.885 38.4423 116.051C35.5142 114.178 32.4568 116.369 32.4568 119.133V156.843C32.4568 159.607 35.5142 161.803 38.4423 159.926C39.0279 159.588 39.758 160.009 39.758 160.684V164.737C39.758 165.116 39.5184 165.45 39.1572 165.571C33.3429 167.494 27 163.372 27 156.843V119.133C27 111.986 34.6016 107.725 40.7885 111.111C45.5495 113.852 50.3028 116.589 55.06 119.331Z" fill="#46237A"/>
<path d="M51.2686 144.844C51.2686 145.864 52.3941 146.671 53.4741 145.981L65.4335 139.1C66.3614 138.565 66.3614 137.227 65.4335 136.692L53.4741 129.811C52.3941 129.121 51.2686 129.928 51.2686 130.948V144.844Z" fill="#18F040"/>
<path d="M122.634 123.725L117.648 126.671C116.717 125.06 115.827 124.006 114.983 123.517C114.104 122.955 112.971 122.675 111.579 122.675C109.872 122.675 108.457 123.156 107.332 124.119C106.206 125.067 105.643 126.258 105.643 127.695C105.643 129.678 107.119 131.27 110.073 132.48L114.135 134.137C117.439 135.467 119.858 137.094 121.386 139.016C122.915 140.935 123.679 143.289 123.679 146.076C123.679 149.81 122.432 152.897 119.934 155.331C117.42 157.784 114.298 159.012 110.571 159.012C107.039 159.012 104.118 157.97 101.814 155.884C99.5475 153.799 98.1291 150.861 97.5663 147.077L103.791 145.708C104.073 148.093 104.563 149.742 105.267 150.652C106.533 152.404 108.377 153.283 110.803 153.283C112.72 153.283 114.31 152.643 115.576 151.365C116.842 150.087 117.473 148.464 117.473 146.5C117.473 145.712 117.363 144.988 117.143 144.332C116.922 143.676 116.58 143.069 116.116 142.516C115.648 141.962 115.047 141.446 114.31 140.965C113.572 140.483 112.693 140.025 111.67 139.585L107.742 137.955C102.168 135.604 99.3802 132.169 99.3802 127.646C99.3802 124.593 100.548 122.046 102.886 119.994C105.225 117.924 108.134 116.893 111.617 116.893C116.333 116.889 119.998 119.168 122.634 123.725ZM129.965 113.864H135.901V134.796C138.012 132.904 140.339 131.956 142.89 131.956C145.792 131.956 148.112 132.893 149.853 134.77C151.329 136.4 152.07 139.005 152.07 142.58V158.281H146.134V143.134C146.134 141.082 145.769 139.596 145.039 138.675C144.309 137.754 143.134 137.295 141.518 137.295C139.441 137.295 137.985 137.936 137.141 139.213C136.316 140.51 135.901 142.736 135.901 145.894V158.281H129.965V113.864ZM158.687 122.015C158.687 120.98 159.063 120.085 159.82 119.335C160.577 118.58 161.482 118.205 162.535 118.205C163.607 118.205 164.52 118.58 165.277 119.335C166.034 120.07 166.41 120.973 166.41 122.042C166.41 123.111 166.034 124.025 165.277 124.775C164.539 125.53 163.634 125.905 162.562 125.905C161.489 125.905 160.573 125.53 159.82 124.775C159.067 124.025 158.687 123.103 158.687 122.015ZM165.516 132.665V158.277H159.58V132.665H165.516ZM178.97 172.218H173.034V132.665H178.97V135.452C181.309 133.12 183.963 131.956 186.937 131.956C190.47 131.956 193.382 133.253 195.668 135.846C197.987 138.425 199.151 141.674 199.151 145.602C199.151 149.443 197.999 152.639 195.694 155.198C193.409 157.738 190.527 159.012 187.043 159.012C184.035 159.012 181.347 157.81 178.974 155.41V172.218H178.97ZM193.078 145.632C193.078 143.179 192.409 141.181 191.074 139.638C189.72 138.08 188.013 137.299 185.956 137.299C183.777 137.299 182.009 138.053 180.655 139.558C179.301 141.067 178.624 143.046 178.624 145.5C178.624 147.903 179.301 149.882 180.655 151.441C181.99 152.965 183.75 153.727 185.929 153.727C187.986 153.727 189.682 152.957 191.021 151.414C192.394 149.875 193.078 147.945 193.078 145.632ZM205.422 132.665H211.358V134.952C212.449 133.81 213.415 133.033 214.259 132.612C215.119 132.173 216.141 131.956 217.32 131.956C218.883 131.956 220.518 132.464 222.226 133.481L219.511 138.899C218.385 138.091 217.286 137.689 216.214 137.689C212.978 137.689 211.361 140.127 211.361 144.999V158.277H205.425V132.665H205.422ZM223.937 145.287C223.937 141.587 225.264 138.44 227.918 135.846C230.573 133.253 233.809 131.956 237.623 131.956C241.456 131.956 244.707 133.264 247.38 135.873C250.019 138.485 251.335 141.693 251.335 145.496C251.335 149.337 250.008 152.552 247.354 155.145C244.681 157.723 241.403 159.012 237.516 159.012C233.664 159.012 230.44 157.697 227.838 155.069C225.237 152.476 223.937 149.215 223.937 145.287ZM230.002 145.393C230.002 147.953 230.687 149.977 232.059 151.467C233.466 152.976 235.322 153.727 237.623 153.727C239.942 153.727 241.798 152.984 243.186 151.49C244.574 150 245.27 148.009 245.27 145.522C245.27 143.031 244.574 141.045 243.186 139.555C241.779 138.046 239.923 137.295 237.623 137.295C235.356 137.295 233.516 138.049 232.109 139.555C230.706 141.064 230.002 143.009 230.002 145.393ZM277.608 133.773V141.636C276.254 139.987 275.041 138.857 273.969 138.243C272.915 137.613 271.676 137.295 270.25 137.295C268.018 137.295 266.162 138.076 264.686 139.634C263.211 141.196 262.469 143.149 262.469 145.5C262.469 147.903 263.181 149.875 264.607 151.418C266.048 152.961 267.884 153.731 270.12 153.731C271.546 153.731 272.801 153.424 273.893 152.809C274.946 152.214 276.186 151.058 277.612 149.337V157.147C275.201 158.391 272.794 159.012 270.387 159.012C266.413 159.012 263.089 157.735 260.416 155.172C257.743 152.593 256.408 149.397 256.408 145.572C256.408 141.75 257.762 138.523 260.469 135.896C263.177 133.264 266.5 131.953 270.44 131.953C272.965 131.956 275.357 132.563 277.608 133.773ZM290.689 113.864V140.95L299.051 132.665H307.018L295.861 143.422L307.835 158.281H300.135L291.644 147.471L290.693 148.419V158.281H284.757V113.864H290.689ZM334.18 146.868H315.772C315.931 148.973 316.616 150.645 317.829 151.892C319.042 153.12 320.597 153.731 322.499 153.731C323.974 153.731 325.198 153.382 326.164 152.681C327.115 151.979 328.195 150.682 329.408 148.791L334.42 151.577C333.644 152.893 332.827 154.019 331.967 154.955C331.104 155.892 330.184 156.665 329.199 157.268C328.214 157.875 327.149 158.315 326.008 158.595C324.864 158.876 323.624 159.016 322.289 159.016C318.456 159.016 315.38 157.788 313.06 155.335C310.741 152.863 309.577 149.583 309.577 145.5C309.577 141.45 310.703 138.171 312.954 135.664C315.22 133.192 318.228 131.956 321.974 131.956C325.754 131.956 328.743 133.158 330.941 135.558C333.119 137.943 334.211 141.246 334.211 145.473L334.18 146.868ZM328.089 142.027C327.263 138.872 325.267 137.295 322.103 137.295C321.381 137.295 320.704 137.405 320.072 137.625C319.441 137.845 318.863 138.159 318.346 138.573C317.829 138.986 317.384 139.479 317.015 140.059C316.646 140.639 316.365 141.295 316.171 142.03H328.089V142.027ZM347.262 138.19V158.281H341.326V138.19H338.793V132.665H341.326V123.278H347.262V132.665H351.878V138.186L347.262 138.19Z" fill="#353535"/>
</g>
<defs>
<clipPath id="clip0_297_15789">
<rect width="324.878" height="72" fill="white" transform="translate(27 102)"/>
</clipPath>
</defs>
</svg>
