<svg width="379" height="275" viewBox="0 0 379 275" fill="none" xmlns="http://www.w3.org/2000/svg">
<rect width="379" height="275" rx="12" fill="white"/>
<g clip-path="url(#clip0_297_15805)">
<mask id="mask0_297_15805" style="mask-type:luminance" maskUnits="userSpaceOnUse" x="83" y="120" width="214" height="36">
<path d="M297 120H83V156H297V120Z" fill="white"/>
</mask>
<g mask="url(#mask0_297_15805)">
<path fill-rule="evenodd" clip-rule="evenodd" d="M109.448 136.716C115.04 130.13 109.736 120 100.535 120C95.436 120 90.7175 120 85.7349 120C84.2245 120 83 121.24 83 122.769V153.231C83 154.76 84.2245 156 85.7349 156C90.5328 156 95.1008 156 100.012 156C111.947 156 117.157 142.786 109.448 136.716Z" fill="#0045FF"/>
<path d="M101.519 126.971H93.6451C93.3248 126.971 93.0474 127.196 92.9778 127.512L90.9186 136.87C90.8234 137.303 91.1484 137.713 91.5859 137.713H94.6912L92.1168 148.306C91.9375 149.044 92.8929 149.493 93.3339 148.878L100.555 138.812C100.883 138.355 100.56 137.713 100.001 137.713H98.0446L102.148 127.934C102.34 127.477 102.009 126.971 101.519 126.971Z" fill="white"/>
<path d="M123.339 121.385C124.094 121.385 124.706 122.005 124.706 122.769V153.231C124.706 154.76 123.482 156 121.971 156H119.236C118.481 156 117.869 155.38 117.869 154.615V124.154C117.869 122.624 119.094 121.385 120.604 121.385H123.339Z" fill="#0045FF"/>
<path d="M152.738 129.692C153.494 129.692 154.105 130.312 154.105 131.077V152.902C154.105 154.432 152.881 155.672 151.371 155.672H148.9C148.145 155.672 147.533 155.052 147.533 154.287V152.389C146.693 153.515 145.59 154.406 144.223 155.062C142.886 155.687 141.426 156 139.841 156C137.821 156 136.034 155.578 134.48 154.734C132.926 153.858 131.699 152.592 130.797 150.935C129.927 149.247 129.492 147.246 129.492 144.933V132.462C129.492 130.932 130.717 129.692 132.227 129.692H134.651C135.406 129.692 136.018 130.312 136.018 131.077V143.995C136.018 146.058 136.531 147.653 137.557 148.778C138.582 149.872 139.981 150.42 141.752 150.42C143.555 150.42 144.969 149.872 145.994 148.778C147.02 147.653 147.533 146.058 147.533 143.995V132.462C147.533 130.932 148.757 129.692 150.267 129.692H152.738Z" fill="#0045FF"/>
<path d="M170.79 156C168.554 156 166.533 155.597 164.726 154.79C162.949 153.983 161.541 152.821 160.499 151.304C159.701 150.141 159.2 148.817 158.995 147.331C158.89 146.566 159.516 145.93 160.279 145.93H164.504C165.223 145.93 165.797 146.504 165.992 147.205C166.217 148.008 166.606 148.681 167.161 149.222C168.018 150.029 169.182 150.433 170.652 150.433C172.153 150.433 173.332 150.061 174.189 149.319C175.047 148.544 175.476 147.544 175.476 146.317C175.476 145.317 175.185 144.494 174.603 143.848C174.021 143.203 173.286 142.703 172.398 142.348C171.541 141.96 170.346 141.541 168.815 141.089C166.732 140.443 165.032 139.814 163.715 139.201C162.429 138.555 161.311 137.603 160.361 136.344C159.442 135.053 158.983 133.343 158.983 131.213C158.983 129.211 159.458 127.469 160.407 125.984C161.357 124.499 162.689 123.37 164.404 122.595C166.119 121.788 168.08 121.385 170.285 121.385C173.592 121.385 176.273 122.24 178.324 123.951C180.056 125.346 181.143 127.211 181.582 129.544C181.731 130.334 181.095 131.019 180.301 131.019H175.992C175.265 131.019 174.695 130.425 174.429 129.74C174.194 129.137 173.808 128.612 173.271 128.162C172.413 127.388 171.264 127.001 169.825 127.001C168.569 127.001 167.559 127.339 166.793 128.017C166.058 128.695 165.691 129.679 165.691 130.971C165.691 131.874 165.966 132.633 166.517 133.246C167.099 133.827 167.804 134.311 168.631 134.698C169.488 135.053 170.682 135.473 172.214 135.957C174.297 136.603 175.996 137.248 177.314 137.894C178.631 138.539 179.764 139.507 180.713 140.798C181.663 142.089 182.137 143.784 182.137 145.882C182.137 147.689 181.693 149.367 180.805 150.917C179.917 152.466 178.615 153.709 176.9 154.645C175.185 155.548 173.148 156 170.79 156Z" fill="#0045FF"/>
<path d="M218.797 129.692C221.947 129.692 224.479 130.675 226.394 132.641C228.34 134.576 229.313 137.291 229.313 140.786V154.635C229.313 155.389 228.702 156 227.948 156H225.558C224.05 156 222.827 154.777 222.827 153.269V141.676C222.827 139.647 222.317 138.103 221.299 137.042C220.279 135.949 218.889 135.403 217.129 135.403C215.368 135.403 213.963 135.949 212.913 137.042C211.894 138.103 211.384 139.647 211.384 141.676V154.635C211.384 155.389 210.773 156 210.019 156H207.629C206.121 156 204.899 154.777 204.899 153.269V141.676C204.899 139.647 204.389 138.103 203.37 137.042C202.35 135.949 200.961 135.403 199.2 135.403C197.409 135.403 195.988 135.949 194.938 137.042C193.919 138.103 193.409 139.647 193.409 141.676V154.635C193.409 155.389 192.798 156 192.044 156H189.655C188.146 156 186.923 154.777 186.923 153.269V133.48C186.923 131.595 188.452 130.067 190.337 130.067H192.044C192.798 130.067 193.409 130.678 193.409 131.432V133.203C194.243 132.111 195.308 131.253 196.606 130.628C197.934 130.004 199.385 129.692 200.961 129.692C202.968 129.692 204.759 130.129 206.334 131.003C207.91 131.846 209.129 133.063 209.994 134.654C210.828 133.156 212.033 131.955 213.608 131.05C215.214 130.145 216.944 129.692 218.797 129.692Z" fill="#0045FF"/>
<path d="M234.099 142.754C234.099 140.179 234.594 137.894 235.585 135.901C236.605 133.908 237.972 132.375 239.682 131.302C241.424 130.229 243.36 129.692 245.491 129.692C247.352 129.692 248.973 130.076 250.354 130.842C251.765 131.609 252.891 132.574 253.731 133.74V132.837C253.731 131.329 254.906 130.106 256.355 130.106H258.768C259.493 130.106 260.08 130.718 260.08 131.472V152.855C260.08 154.363 258.905 155.586 257.456 155.586H255.043C254.318 155.586 253.731 154.975 253.731 154.221V151.861C252.921 153.056 251.795 154.053 250.354 154.85C248.943 155.617 247.307 156 245.446 156C243.345 156 241.424 155.448 239.682 154.344C237.972 153.24 236.605 151.692 235.585 149.699C234.594 147.675 234.099 145.36 234.099 142.754ZM253.731 142.846C253.731 141.282 253.431 139.949 252.83 138.845C252.23 137.71 251.419 136.852 250.399 136.269C249.378 135.656 248.282 135.349 247.112 135.349C245.941 135.349 244.861 135.641 243.87 136.223C242.879 136.806 242.069 137.664 241.439 138.799C240.838 139.903 240.538 141.221 240.538 142.754C240.538 144.287 240.838 145.636 241.439 146.801C242.069 147.936 242.879 148.81 243.87 149.423C244.891 150.036 245.972 150.343 247.112 150.343C248.282 150.343 249.378 150.052 250.399 149.469C251.419 148.856 252.23 147.997 252.83 146.893C253.431 145.759 253.731 144.41 253.731 142.846Z" fill="#0045FF"/>
<path d="M271.35 134.029C272.184 132.652 273.264 131.572 274.592 130.79C275.583 130.219 276.672 129.857 277.86 129.702C278.609 129.605 279.224 130.238 279.224 131.005V133.861C279.224 135.212 277.947 136.202 276.626 136.367C274.96 136.576 273.584 137.32 272.878 137.973C271.859 138.943 271.35 140.633 271.35 143.043V152.528C271.35 154.446 269.819 156 267.932 156H266.233C265.478 156 264.866 155.378 264.866 154.611V133.463C264.866 131.546 266.397 129.992 268.284 129.992H269.983C270.738 129.992 271.35 130.613 271.35 131.38V134.029Z" fill="#0045FF"/>
<path d="M291.365 133.282V147.434C291.365 148.369 291.562 149.054 291.956 149.488C292.38 149.889 293.077 150.089 294.046 150.089H294.323C295.801 150.089 297 151.405 297 153.029V154.53C297 155.342 296.401 156 295.662 156H293.001C287.639 156 284.958 153.128 284.958 147.384V133.282H284.635C283.157 133.282 281.958 131.966 281.958 130.342V128.991C281.958 128.179 282.557 127.521 283.297 127.521H284.958V122.855C284.958 122.043 285.557 121.385 286.296 121.385H288.689C290.167 121.385 291.365 122.701 291.365 124.324V127.521H294.323C295.801 127.521 297 128.837 297 130.461V131.812C297 132.624 296.401 133.282 295.662 133.282H291.365Z" fill="#0045FF"/>
</g>
</g>
<defs>
<clipPath id="clip0_297_15805">
<rect width="214" height="36" fill="white" transform="translate(83 120)"/>
</clipPath>
</defs>
</svg>
