<svg width="16" height="16" viewBox="0 0 16 16" fill="none" xmlns="http://www.w3.org/2000/svg">
<g clip-path="url(#clip0_297_14952)">
<path d="M11.3333 14V12.6667C11.3333 11.9594 11.0524 11.2811 10.5523 10.781C10.0522 10.281 9.37391 10 8.66667 10H3.33333C2.62609 10 1.94781 10.281 1.44771 10.781C0.947618 11.2811 0.666666 11.9594 0.666666 12.6667V14" stroke="white" stroke-width="1.5" stroke-linecap="round" stroke-linejoin="round"/>
<path d="M6 7.33333C7.47276 7.33333 8.66667 6.13943 8.66667 4.66667C8.66667 3.19391 7.47276 2 6 2C4.52724 2 3.33333 3.19391 3.33333 4.66667C3.33333 6.13943 4.52724 7.33333 6 7.33333Z" stroke="white" stroke-width="1.5" stroke-linecap="round" stroke-linejoin="round"/>
<path d="M15.3333 13.9998V12.6664C15.3329 12.0756 15.1362 11.5016 14.7742 11.0346C14.4122 10.5677 13.9054 10.2341 13.3333 10.0864" stroke="white" stroke-width="1.5" stroke-linecap="round" stroke-linejoin="round"/>
<path d="M10.6667 2.08643C11.2403 2.23329 11.7487 2.56689 12.1118 3.03463C12.4748 3.50237 12.6719 4.07765 12.6719 4.66976C12.6719 5.26187 12.4748 5.83715 12.1118 6.30489C11.7487 6.77262 11.2403 7.10623 10.6667 7.25309" stroke="white" stroke-width="1.5" stroke-linecap="round" stroke-linejoin="round"/>
</g>
<defs>
<clipPath id="clip0_297_14952">
<rect width="16" height="16" fill="white"/>
</clipPath>
</defs>
</svg>
