<svg width="509" height="403" viewBox="0 0 509 403" fill="none" xmlns="http://www.w3.org/2000/svg">
<g opacity="0.24">
<path d="M215.962 129.308H73.2115V220.531H215.962V129.308Z" fill="#303778"/>
</g>
<g opacity="0.85">
<path d="M495.63 139.928H352.88V254.331H495.63V139.928Z" fill="#303778"/>
</g>
<g opacity="0.46">
<path d="M249.696 0H21.5157V107.496H249.696V0Z" fill="#E1E7F8"/>
</g>
<path d="M141.535 22.645L134.889 31.7687L445.168 28.4329L451.094 359.931L458.716 354.685L456.32 19.0098L141.535 22.645Z" fill="#101010"/>
<path d="M435.885 346.317L148.337 326.052L150.312 44.7915L435.393 40.8926L435.885 346.317Z" fill="#C9D5F4"/>
<path d="M181.386 106.855V186.117C181.386 188.876 179.183 191.107 176.473 191.107H44.5825C41.8658 191.107 39.6696 188.876 39.6696 186.117V106.855C39.6696 104.096 41.8729 101.865 44.5825 101.865H176.466C179.183 101.865 181.386 104.096 181.386 106.855Z" fill="#F2F4FC"/>
<path d="M181.386 106.855V114.617H39.6696V106.855C39.6696 104.096 41.8729 101.865 44.5825 101.865H176.466C179.183 101.865 181.386 104.096 181.386 106.855Z" fill="#7997E1"/>
<path d="M73.7534 126.756H57.6101V129.187H73.7534V126.756Z" fill="#3940A0"/>
<path d="M110.831 126.756H80.3342V129.186H110.831V126.756Z" fill="#3940A0"/>
<path d="M126.376 126.756H120.393V129.186H126.376V126.756Z" fill="#3940A0"/>
<path d="M144.309 126.756H132.95V129.186H144.309V126.756Z" fill="#3940A0"/>
<path d="M163.446 126.756H150.89V129.186H163.446V126.756Z" fill="#3940A0"/>
<path d="M88.7058 134.347H57.6101V136.778H88.7058V134.347Z" fill="#3940A0"/>
<path d="M163.446 134.347H98.2672V136.777H163.446V134.347Z" fill="#3940A0"/>
<path d="M67.1791 141.932H57.6101V144.362H67.1791V141.932Z" fill="#3940A0"/>
<path d="M103.051 141.931H76.7402V144.362H103.051V141.931Z" fill="#3940A0"/>
<path d="M126.375 141.931H109.633V144.362H126.375V141.931Z" fill="#3940A0"/>
<path d="M150.89 141.931H132.95V144.362H150.89V141.931Z" fill="#3940A0"/>
<path d="M163.453 141.931H157.47V144.362H163.453V141.931Z" fill="#3940A0"/>
<path d="M82.7234 149.523H57.6101V151.954H82.7234V149.523Z" fill="#3940A0"/>
<path d="M113.812 149.522H89.2973V151.953H113.812V149.522Z" fill="#3940A0"/>
<path d="M163.446 149.522H120.393V151.953H163.446V149.522Z" fill="#3940A0"/>
<path d="M86.31 157.114H57.6101V159.544H86.31V157.114Z" fill="#3940A0"/>
<path d="M129.962 157.113H101.262V159.544H129.962V157.113Z" fill="#3940A0"/>
<path d="M163.447 157.113H136.536V159.544H163.447V157.113Z" fill="#3940A0"/>
<path d="M67.1791 164.705H57.6101V167.136H67.1791V164.705Z" fill="#3940A0"/>
<path d="M144.908 164.705H73.7533V167.136H144.908V164.705Z" fill="#3940A0"/>
<path d="M163.447 164.705H151.489V167.136H163.447V164.705Z" fill="#3940A0"/>
<path d="M79.7358 172.289H57.6101V174.72H79.7358V172.289Z" fill="#3940A0"/>
<path d="M101.262 172.289H86.3095V174.72H101.262V172.289Z" fill="#3940A0"/>
<path d="M113.22 172.289H107.836V174.72H113.22V172.289Z" fill="#3940A0"/>
<path d="M163.447 172.289H128.165V174.72H163.447V172.289Z" fill="#3940A0"/>
<path d="M48.3832 107.525C48.3832 108.701 47.4348 109.649 46.2583 109.649C45.0818 109.649 44.1335 108.701 44.1335 107.525C44.1335 106.349 45.0818 105.401 46.2583 105.401C47.4277 105.401 48.3832 106.356 48.3832 107.525Z" fill="white"/>
<path d="M54.7579 109.649C55.9314 109.649 56.8828 108.698 56.8828 107.525C56.8828 106.352 55.9314 105.401 54.7579 105.401C53.5844 105.401 52.633 106.352 52.633 107.525C52.633 108.698 53.5844 109.649 54.7579 109.649Z" fill="white"/>
<path d="M239.321 69.9892V114.802C239.321 116.363 238.059 117.625 236.497 117.625H160.765C159.204 117.625 157.942 116.363 157.942 114.802V69.9892C157.942 68.4281 159.204 67.1665 160.765 67.1665H236.504C238.059 67.1665 239.321 68.4281 239.321 69.9892Z" fill="white"/>
<path d="M239.321 69.9892V74.3728H157.942V69.9892C157.942 68.4281 159.204 67.1665 160.765 67.1665H236.504C238.059 67.1665 239.321 68.4281 239.321 69.9892Z" fill="#7997E1"/>
<path d="M177.508 81.2441H168.238V82.6198H177.508V81.2441Z" fill="#3940A0"/>
<path d="M198.799 81.2441H181.286V82.6198H198.799V81.2441Z" fill="#3940A0"/>
<path d="M207.734 81.2441H204.297V82.6198H207.734V81.2441Z" fill="#3940A0"/>
<path d="M218.03 81.2441H211.506V82.6198H218.03V81.2441Z" fill="#3940A0"/>
<path d="M229.018 81.2441H221.809V82.6198H229.018V81.2441Z" fill="#3940A0"/>
<path d="M186.092 85.5356H168.238V86.9113H186.092V85.5356Z" fill="#3940A0"/>
<path d="M229.017 85.5356H191.59V86.9113H229.017V85.5356Z" fill="#3940A0"/>
<path d="M173.735 89.8262H168.238V91.2019H173.735V89.8262Z" fill="#3940A0"/>
<path d="M194.335 89.8257H179.226V91.2014H194.335V89.8257Z" fill="#3940A0"/>
<path d="M207.726 89.8257H198.114V91.2014H207.726V89.8257Z" fill="#3940A0"/>
<path d="M221.809 89.8257H211.505V91.2014H221.809V89.8257Z" fill="#3940A0"/>
<path d="M229.025 89.8257H225.588V91.2014H229.025V89.8257Z" fill="#3940A0"/>
<path d="M182.663 94.1172H168.238V95.4929H182.663V94.1172Z" fill="#3940A0"/>
<path d="M200.516 94.1172H186.441V95.4929H200.516V94.1172Z" fill="#3940A0"/>
<path d="M229.017 94.1172H204.296V95.4929H229.017V94.1172Z" fill="#3940A0"/>
<path d="M184.723 98.4082H168.238V99.7839H184.723V98.4082Z" fill="#3940A0"/>
<path d="M209.794 98.4082H193.309V99.7839H209.794V98.4082Z" fill="#3940A0"/>
<path d="M229.017 98.4082H213.566V99.7839H229.017V98.4082Z" fill="#3940A0"/>
<path d="M173.736 102.7H168.238V104.075H173.736V102.7Z" fill="#3940A0"/>
<path d="M218.379 102.699H177.515V104.075H218.379V102.699Z" fill="#3940A0"/>
<path d="M229.018 102.699H222.151V104.075H229.018V102.699Z" fill="#3940A0"/>
<path d="M180.944 106.991H168.238V108.366H180.944V106.991Z" fill="#3940A0"/>
<path d="M193.309 106.991H184.724V108.367H193.309V106.991Z" fill="#3940A0"/>
<path d="M200.175 106.991H197.087V108.367H200.175V106.991Z" fill="#3940A0"/>
<path d="M229.017 106.991H208.76V108.367H229.017V106.991Z" fill="#3940A0"/>
<path d="M155.389 137.954C156.054 137.954 156.593 137.415 156.593 136.75C156.593 136.084 156.054 135.545 155.389 135.545C154.723 135.545 154.184 136.084 154.184 136.75C154.184 137.415 154.723 137.954 155.389 137.954Z" fill="white"/>
<path d="M161.399 136.75C161.399 137.412 160.864 137.954 160.194 137.954C159.532 137.954 158.99 137.42 158.99 136.75C158.99 136.08 159.524 135.545 160.194 135.545C160.864 135.545 161.399 136.087 161.399 136.75Z" fill="white"/>
<path d="M29.5738 286.885C29.4169 286.885 29.2815 286.764 29.2601 286.607C29.1959 286.023 22.8926 227.951 31.2494 201.963C31.2994 201.799 31.4776 201.706 31.6416 201.763C31.8056 201.813 31.8983 201.992 31.8413 202.156C23.5343 228.016 29.8162 285.958 29.8804 286.543C29.9018 286.714 29.7735 286.871 29.6023 286.892C29.6023 286.885 29.5881 286.885 29.5738 286.885Z" fill="#111111"/>
<path d="M27.8334 223.076C27.7692 223.076 27.7122 223.054 27.6552 223.019C27.5125 222.919 27.4769 222.726 27.5696 222.584C27.648 222.47 35.4558 210.98 40.8036 206.354C40.932 206.239 41.1316 206.254 41.2457 206.389C41.3598 206.517 41.3455 206.717 41.21 206.831C35.9264 211.4 28.1614 222.826 28.0901 222.94C28.0331 223.026 27.9332 223.076 27.8334 223.076Z" fill="#111111"/>
<path d="M27.2703 237.068C27.1562 237.068 27.0493 237.011 26.9923 236.904C26.8924 236.711 16.6246 217.716 14.129 213.881C14.0363 213.738 14.072 213.539 14.2217 213.446C14.3643 213.353 14.564 213.389 14.6567 213.539C17.1737 217.395 27.4486 236.412 27.5484 236.605C27.634 236.754 27.5769 236.947 27.4201 237.032C27.3702 237.054 27.3202 237.068 27.2703 237.068Z" fill="#111111"/>
<path d="M44.1596 212.218C48.9699 211.379 52.4473 208.279 51.9265 205.293C51.4058 202.307 47.0841 200.566 42.2737 201.405C37.4634 202.244 33.986 205.345 34.5068 208.331C35.0276 211.317 39.3493 213.057 44.1596 212.218Z" fill="#303778"/>
<path d="M0.502853 213.966C1.02337 216.953 5.34439 218.692 10.1574 217.851C14.9704 217.01 18.4501 213.909 17.9295 210.93C17.409 207.943 13.088 206.204 8.27498 207.045C3.46196 207.879 -0.0176663 210.98 0.502853 213.966Z" fill="#303778"/>
<path d="M27.5055 195.612C26.5144 199.354 27.9548 202.982 30.7285 203.716C33.4951 204.45 36.5398 202.005 37.5309 198.263C38.522 194.521 37.0817 190.893 34.3079 190.159C31.5414 189.425 28.4895 191.862 27.5055 195.612Z" fill="#303778"/>
<path d="M1.82938 225.085C2.10033 226.632 4.33214 227.53 6.82065 227.095C9.30916 226.66 11.106 225.057 10.8422 223.517C10.5713 221.97 8.33944 221.072 5.85093 221.507C3.35529 221.935 1.55842 223.538 1.82938 225.085Z" fill="#303778"/>
<path d="M48.9187 218.222C49.0613 219.049 50.2521 219.526 51.5854 219.291C52.9117 219.063 53.8743 218.207 53.7317 217.381C53.5891 216.554 52.3983 216.076 51.0649 216.311C49.7387 216.547 48.7761 217.395 48.9187 218.222Z" fill="#303778"/>
<path d="M28.0908 297.876C28.0765 297.876 28.0622 297.876 28.048 297.868C27.9268 297.847 27.8483 297.733 27.8769 297.612C27.9553 297.206 35.8486 257.147 46.8295 241.544C46.9008 241.444 47.0362 241.423 47.1361 241.487C47.2359 241.558 47.2573 241.693 47.186 241.793C36.2551 257.318 28.3831 297.291 28.3047 297.69C28.2904 297.804 28.1977 297.876 28.0908 297.876Z" fill="#111111"/>
<path d="M40.2121 254.937C40.148 254.937 40.0838 254.909 40.041 254.852C39.9626 254.759 39.984 254.617 40.0767 254.545C40.1551 254.481 47.7561 248.444 52.2839 246.47C52.3909 246.42 52.5263 246.47 52.5762 246.584C52.6262 246.698 52.5762 246.826 52.4622 246.876C47.9843 248.829 40.426 254.831 40.3476 254.895C40.312 254.923 40.262 254.937 40.2121 254.937Z" fill="#111111"/>
<path d="M36.9249 264.161C36.8251 264.161 36.7324 264.09 36.711 263.983C36.6825 263.833 33.7875 249.021 32.9176 245.942C32.882 245.828 32.9533 245.707 33.0674 245.671C33.1814 245.636 33.3027 245.707 33.3383 245.821C34.2154 248.915 37.1103 263.748 37.1388 263.897C37.1602 264.019 37.0818 264.133 36.9677 264.154C36.9534 264.161 36.9392 264.161 36.9249 264.161Z" fill="#111111"/>
<path d="M47.6708 246.491C47.3998 248.594 49.9169 250.654 53.3038 251.096C56.6907 251.538 59.657 250.191 59.928 248.095C60.1989 245.992 57.6819 243.932 54.2949 243.491C50.908 243.049 47.9418 244.389 47.6708 246.491Z" fill="#303778"/>
<path d="M23.8124 243.162C23.5414 245.265 26.0585 247.325 29.4454 247.767C32.8324 248.209 35.7986 246.862 36.0696 244.766C36.3405 242.663 33.8235 240.603 30.4365 240.161C27.0567 239.719 24.0905 241.06 23.8124 243.162Z" fill="#303778"/>
<path d="M51.7922 240.39C53.2327 238.096 53.0271 235.374 51.333 234.31C49.639 233.246 47.0979 234.243 45.6574 236.537C44.217 238.831 44.4226 241.553 46.1166 242.617C47.8107 243.681 50.3517 242.684 51.7922 240.39Z" fill="#303778"/>
<path d="M22.3788 250.86C22.2362 251.944 23.541 253.013 25.2951 253.241C27.0492 253.469 28.5822 252.77 28.7248 251.687C28.8674 250.603 27.5626 249.534 25.8085 249.306C24.0544 249.078 22.5214 249.769 22.3788 250.86Z" fill="#303778"/>
<path d="M55.2288 256.078C55.1504 256.656 55.8491 257.226 56.7832 257.347C57.7173 257.468 58.5373 257.098 58.6086 256.52C58.687 255.943 57.9883 255.373 57.0542 255.251C56.1272 255.13 55.3072 255.501 55.2288 256.078Z" fill="#303778"/>
<path d="M35.3631 327.65C34.5146 319.103 34.2936 308.59 35.8837 296.75C36.4398 292.602 37.1671 288.689 37.9871 285.039C38.3793 283.321 38.7929 281.66 39.2207 280.057C39.7127 278.232 40.2118 276.486 40.7323 274.825H20.0613C20.5818 276.493 21.081 278.232 21.5729 280.057C22.0008 281.66 22.4143 283.321 22.8065 285.039C23.6265 288.696 24.3538 292.602 24.91 296.75C26.4929 308.59 26.279 319.103 25.4305 327.65C25.2736 329.211 25.1025 330.708 24.91 332.133L24.8315 332.632L14.9417 394.93H45.852L35.9621 332.632L35.8837 332.133C35.6911 330.708 35.5129 329.211 35.3631 327.65Z" fill="#7997E1"/>
<path d="M21.5724 280.049C22.0002 281.653 22.4138 283.313 22.806 285.031H37.9795C38.3716 283.313 38.7852 281.653 39.213 280.049H21.5724Z" fill="white"/>
<path d="M24.8318 332.632H35.9624L35.884 332.133C35.6914 330.707 35.5203 329.21 35.3634 327.649H25.4308C25.2739 329.21 25.1028 330.707 24.9103 332.133L24.8318 332.632Z" fill="white"/>
<path d="M391.469 393.661C391.776 393.661 392.068 393.433 392.211 393.034L421.667 310.172C424.44 302.367 430.401 297.327 436.861 297.327H447.015C453.589 297.327 459.593 302.502 462.324 310.5L490.261 392.471C490.446 393.02 490.938 393.262 491.345 393.012C491.758 392.763 491.937 392.114 491.751 391.558L463.814 309.587C460.82 300.806 454.231 295.132 447.015 295.132H436.861C429.774 295.132 423.235 300.663 420.191 309.224L390.735 392.086C390.542 392.635 390.714 393.283 391.12 393.547C391.227 393.625 391.348 393.661 391.469 393.661Z" fill="#020617"/>
<path d="M334.99 393.582C335.296 393.582 335.589 393.354 335.731 392.955L365.187 310.093C367.961 302.288 373.922 297.249 380.382 297.249H390.536C397.11 297.249 403.114 302.416 405.845 310.421L433.782 392.392C433.967 392.941 434.459 393.183 434.865 392.934C435.279 392.684 435.457 392.036 435.272 391.48L407.335 309.509C404.34 300.727 397.752 295.053 390.536 295.053H380.382C373.294 295.053 366.756 300.584 363.711 309.145L334.255 392.007C334.063 392.556 334.234 393.205 334.64 393.468C334.747 393.547 334.869 393.582 334.99 393.582Z" fill="#020617"/>
<path d="M361.615 318.69H465.64C466.089 318.69 466.46 318.198 466.46 317.592C466.46 316.986 466.096 316.494 465.64 316.494H361.615C361.165 316.494 360.794 316.986 360.794 317.592C360.794 318.198 361.158 318.69 361.615 318.69Z" fill="#020617"/>
<path d="M484.272 231.601L481.783 241.957L479.566 251.195L472.3 281.503C470.353 289.501 463.187 295.125 454.951 295.125H397.459L410.479 220.003C412.404 208.898 420.497 200.943 429.874 200.943H465.248C478.446 200.95 487.951 216.268 484.272 231.601Z" fill="#3940A0"/>
<path d="M469.034 251.202V288.26C465.726 292.487 460.592 295.132 454.959 295.132H370.107C360.253 295.132 352.274 287.149 352.274 277.291C352.274 270.091 355.197 263.562 359.918 258.836C364.638 254.118 371.155 251.195 378.364 251.195H469.034V251.202Z" fill="#3940A0"/>
<path d="M403.589 251.077L398.71 279.24L400.164 279.492L405.043 251.329L403.589 251.077Z" fill="white"/>
<path d="M410.715 278.624H352.502V280.099H410.715V278.624Z" fill="white"/>
<path d="M322.918 161.447L329.634 187.884L355.896 219.411L336.929 224.665C331.688 220.153 325.962 214.685 320.151 208.149C315.409 202.825 311.352 197.621 307.894 192.753C306.375 190.614 305.298 188.191 304.728 185.611L294.617 139.849L294.788 139.842C307.922 139.407 319.595 148.374 322.918 161.447Z" fill="#FAC137"/>
<path d="M332.558 176.63C325.292 181.405 318.033 184.292 311.916 186.017C302.682 188.64 296.079 188.64 296.079 188.64L295.344 185.96L287.316 156.8C286.845 155.11 286.581 153.4 286.51 151.71C286.096 142.808 290.831 134.197 299.002 130.483C302.047 129.093 305.206 128.538 308.115 129.664C316.828 133.007 327.774 162.73 331.36 173.094C332.13 175.297 332.558 176.63 332.558 176.63Z" fill="white"/>
<path d="M332.558 176.63C325.292 181.405 318.033 184.292 311.915 186.017C302.682 188.64 296.079 188.64 296.079 188.64L295.344 185.96C308.849 181.798 322.504 176.608 331.36 173.08C332.13 175.297 332.558 176.63 332.558 176.63Z" fill="#020617"/>
<path d="M289.912 346.602L290.717 379.219C288.628 380.538 284.286 382.883 278.346 383.197C273.804 383.439 270.167 382.391 268.021 381.586C267.765 371.136 267.508 360.687 267.251 350.237L289.912 346.602Z" fill="#FAC137"/>
<path d="M259.821 394.929H319.788V390.674C318.861 389.968 317.449 388.935 315.652 387.837C309.485 384.066 305.62 383.653 301.178 381.458C298.39 380.075 294.639 377.623 290.839 372.947C290.817 372.947 287.459 373.047 287.437 373.047H287.402C285.298 373.111 283.359 374.237 282.225 376.062L280.721 378.471C280.057 379.533 278.795 380.025 277.619 379.661C276.785 379.412 276.114 378.777 275.815 377.929C274.859 375.306 272.414 373.567 269.704 373.567H269.512C269.034 373.581 268.57 373.595 268.093 373.61L261.476 390.674L259.821 394.929Z" fill="#020617"/>
<path d="M300.179 281.075C299.893 306.051 299.601 331.041 299.323 356.018H252.961C252.762 336.751 252.576 317.484 252.376 298.225V298.217C252.334 293.705 252.284 289.201 252.241 284.689C250.665 278.409 249.096 272.122 247.521 265.85C244.298 252.984 241.075 240.118 237.845 227.259C236.768 222.961 235.691 218.656 234.615 214.357L232.996 207.892C235.656 207.629 238.322 207.372 240.982 207.108C255.378 205.704 269.775 204.293 284.171 202.889C284.927 206.51 285.697 210.123 286.453 213.744C290.895 234.857 295.33 255.977 299.779 277.097C300.065 278.409 300.193 279.742 300.179 281.075Z" fill="#7997E1"/>
<path d="M253.04 232.171C254.708 237.431 256.192 243.504 257.083 250.325C259.721 270.569 255.878 287.533 252.384 298.218C252.341 293.706 252.291 289.201 252.249 284.689C247.457 265.544 242.658 246.398 237.852 227.26C239.934 224.252 243.656 222.933 247.072 223.981C250.566 225.057 253.004 228.386 253.04 232.171Z" fill="#020617"/>
<path d="M209.844 350.451L201.808 382.014C199.448 382.684 194.635 383.689 188.852 382.291C184.424 381.222 181.215 379.184 179.369 377.787C181.943 367.672 184.524 357.565 187.098 347.45L209.844 350.451Z" fill="#FAC137"/>
<path d="M260.335 211.157L258.795 217.729L247.521 265.849L226.045 357.522H184.46C192.61 307.455 200.76 257.403 208.903 207.336C209.26 205.105 209.623 202.874 209.987 200.65C220.319 202.81 230.644 204.963 240.976 207.123C247.436 208.463 253.889 209.81 260.335 211.157Z" fill="#7997E1"/>
<path d="M173.008 394.929H232.975V390.674C232.048 389.968 230.636 388.935 228.839 387.837C222.672 384.066 218.807 383.653 214.365 381.458C211.577 380.075 207.826 377.623 204.026 372.947C204.004 372.947 200.646 373.047 200.624 373.047H200.589C198.485 373.111 196.546 374.237 195.412 376.062L193.907 378.471C193.244 379.533 191.982 380.025 190.806 379.661C189.972 379.412 189.301 378.777 189.002 377.929C188.046 375.306 185.601 373.567 182.891 373.567H182.699C182.221 373.581 181.757 373.595 181.28 373.61L174.663 390.674L173.008 394.929Z" fill="#020617"/>
<path d="M173.008 394.93H232.975V390.674H174.663L173.008 394.93Z" fill="#020617"/>
<path d="M259.821 394.929H319.781V390.674H261.476L259.821 394.929Z" fill="#020617"/>
<path d="M264 354.407L263.272 354.4L263.301 351.392L264.028 351.399L264 354.407ZM264.064 348.391L263.336 348.384L263.365 345.376L264.092 345.383L264.064 348.391ZM264.121 342.382L263.393 342.375L263.422 339.367L264.149 339.374L264.121 342.382ZM264.171 336.366L263.443 336.359L263.465 333.351L264.192 333.358L264.171 336.366ZM264.213 330.358L263.486 330.35L263.508 327.342L264.235 327.35L264.213 330.358ZM264.249 324.342L263.522 324.334L263.536 321.326L264.263 321.334L264.249 324.342ZM264.278 318.326H263.55L263.565 315.318H264.292L264.278 318.326ZM264.299 312.317H263.572L263.579 309.309H264.306L264.299 312.317ZM263.943 306.308H263.579V303.307H264.306V306.265L263.943 306.308ZM263.572 300.299C263.572 299.273 263.565 298.275 263.557 297.298L264.285 297.291C264.292 298.268 264.292 299.273 264.299 300.292L263.572 300.299ZM263.536 294.297C263.529 293.25 263.515 292.252 263.508 291.297L264.235 291.289C264.249 292.245 264.256 293.25 264.263 294.297H263.536ZM263.458 288.296C263.436 287.198 263.415 286.193 263.386 285.295L264.114 285.273C264.142 286.172 264.164 287.177 264.185 288.281L263.458 288.296ZM263.265 282.308L263.258 282.166C263.201 281.268 263.101 280.334 262.959 279.35L263.679 279.243C263.821 280.248 263.921 281.203 263.978 282.066L263.992 282.265L263.265 282.308ZM262.459 276.406C262.281 275.487 262.067 274.503 261.825 273.484L262.531 273.306C262.773 274.332 262.987 275.323 263.165 276.25L262.459 276.406ZM261.097 270.59C260.841 269.628 260.577 268.665 260.299 267.71L260.998 267.496C261.276 268.459 261.547 269.428 261.796 270.398L261.097 270.59ZM259.45 264.838C259.151 263.861 258.844 262.906 258.545 261.987L259.236 261.751C259.536 262.678 259.843 263.64 260.142 264.617L259.45 264.838ZM257.596 259.143C257.254 258.137 256.919 257.189 256.612 256.313L257.297 256.056C257.611 256.933 257.939 257.881 258.288 258.893L257.596 259.143ZM255.593 253.504C254.944 251.751 254.53 250.703 254.53 250.703L255.208 250.418C255.208 250.418 255.629 251.473 256.277 253.233L255.593 253.504Z" fill="#020617" stroke="#020617" stroke-miterlimit="10"/>
<path d="M286.46 213.752C278.809 217.302 268.997 218.235 258.801 217.729C250.686 217.323 242.33 216.004 234.629 214.358C224.062 212.112 214.721 209.261 208.924 207.33C209.28 205.099 209.644 202.867 210.008 200.644C220.34 202.803 230.664 204.956 240.996 207.116C255.393 205.712 269.789 204.3 284.185 202.896C284.934 206.517 285.697 210.131 286.46 213.752Z" fill="#020617"/>
<path d="M317.498 151.026C317.498 151.026 311.402 171.491 311.188 186.773C301.954 189.396 295.351 189.396 295.351 189.396L286.581 157.556C286.117 155.866 285.854 154.156 285.775 152.459L317.498 151.026Z" fill="#020617"/>
<path d="M190.598 357.593L189.885 357.451L190.035 356.645L190.748 356.788L190.598 357.593ZM191.304 353.837L190.591 353.694L191.14 350.743L191.853 350.886L191.304 353.837ZM192.402 347.942L191.689 347.8L192.238 344.849L192.951 344.991L192.402 347.942ZM193.508 342.047L192.795 341.905L193.344 338.954L194.057 339.096L193.508 342.047ZM194.613 336.146L193.9 336.003L194.449 333.052L195.162 333.195L194.613 336.146ZM195.711 330.251L194.998 330.108L195.547 327.157L196.26 327.3L195.711 330.251ZM196.816 324.356L196.103 324.213L196.652 321.262L197.365 321.405L196.816 324.356ZM197.921 318.461L197.208 318.319L197.757 315.368L198.47 315.51L197.921 318.461ZM199.019 312.559L198.306 312.417L198.855 309.466L199.568 309.608L199.019 312.559ZM200.125 306.664L199.412 306.522L199.961 303.571L200.674 303.713L200.125 306.664ZM201.23 300.77L200.517 300.627L201.066 297.676L201.779 297.819L201.23 300.77ZM202.328 294.875L201.615 294.732L202.164 291.781L202.877 291.924L202.328 294.875ZM203.433 288.973L202.72 288.83L203.269 285.879L203.982 286.022L203.433 288.973ZM204.538 283.078L203.825 282.936L204.374 279.985L205.087 280.127L204.538 283.078ZM205.636 277.183L204.923 277.041L205.472 274.09L206.185 274.232L205.636 277.183ZM206.742 271.289L206.029 271.146L206.578 268.195L207.291 268.338L206.742 271.289ZM207.847 265.387L207.134 265.244L207.683 262.293L208.396 262.436L207.847 265.387ZM208.945 259.492L208.232 259.349L208.781 256.398L209.494 256.541L208.945 259.492ZM210.05 253.597L209.337 253.455L209.886 250.504L210.599 250.646L210.05 253.597ZM211.155 247.702L210.442 247.56L210.991 244.609L211.704 244.751L211.155 247.702ZM212.253 241.8L211.54 241.658L212.089 238.707L212.802 238.849L212.253 241.8ZM213.359 235.906L212.646 235.763L213.195 232.812L213.908 232.955L213.359 235.906ZM214.464 230.011L213.751 229.868L214.3 226.917L215.013 227.06L214.464 230.011ZM215.562 224.116L214.849 223.973L215.398 221.023L216.111 221.165L215.562 224.116ZM216.667 218.214L215.954 218.072L216.503 215.121L217.216 215.263L216.667 218.214ZM217.772 212.319L217.059 212.177L217.608 209.226L218.321 209.368L217.772 212.319ZM218.87 206.425L218.157 206.282L218.706 203.331L219.419 203.474L218.87 206.425Z" fill="#020617" stroke="#020617" stroke-miterlimit="10"/>
<path d="M321.271 147.512C314.198 163.229 307.124 178.946 300.037 194.656C298.126 198.904 296.208 203.153 294.297 207.401C293.733 208.648 293.177 209.889 292.614 211.136C287.694 212.105 281.64 213.018 274.674 213.424C267.401 213.873 259.137 213.766 250.124 212.654C231.92 210.388 217.588 204.814 208.154 200.273C212.575 191.385 219.1 177.77 226.251 160.699C235.564 138.495 235.956 126.798 247.086 119.863C256.235 114.161 267.936 114.018 269.911 113.99C271.594 113.968 277.212 114.952 288.457 116.926C294.568 117.995 299.473 118.958 304.379 122.728C305.456 123.555 306.426 124.503 307.702 125.779C315.538 133.598 319.389 142.166 321.271 147.512Z" fill="white"/>
<path d="M294.296 207.408C293.733 208.655 293.177 209.895 292.613 211.143C287.693 212.112 281.64 213.024 274.673 213.431C271.279 211.107 266.737 207.657 261.931 202.881C258.359 199.339 248.968 190.023 243.699 177.363C235.478 157.633 240.683 138.003 242.972 130.825C257.275 153.029 271.586 175.246 285.89 197.45C288.685 200.764 291.494 204.086 294.296 207.408Z" fill="#020617"/>
<path d="M272.042 117.668C278.702 128.188 285.355 138.702 292.015 149.223C295.58 141.888 299.145 134.547 302.71 127.212C302.332 126.385 297.284 115.793 286.168 114.275C279.08 113.298 273.675 116.584 272.042 117.668Z" fill="#020617"/>
<path d="M279.387 119.528C283.686 125.102 287.993 130.669 292.293 136.243C294.696 132.965 297.099 129.693 299.501 126.414C299.551 125.231 299.608 124.055 299.658 122.871C299.844 118.837 300.022 114.81 300.207 110.775C300.3 108.694 300.4 106.613 300.485 104.531C299.309 103.769 297.961 102.756 296.585 101.445C294.738 99.6843 293.405 97.9095 292.464 96.4482C288.107 104.139 283.75 111.83 279.387 119.528Z" fill="#FAC137"/>
<path d="M291.423 110.525C291.423 110.525 293.441 118.409 299.666 122.871C299.851 118.837 300.029 114.809 300.215 110.775L297.363 108.893L291.423 110.525Z" fill="#020617"/>
<path d="M291.08 97.8587C290.802 99.8402 290.303 103.454 292.036 106.925C293.74 110.34 296.635 111.658 298.368 112.442C300.614 113.462 302.967 114.538 305.562 113.533C308.236 112.492 309.598 109.848 311.801 105.557C314.055 101.173 314.475 97.8373 314.575 96.818C314.711 95.5064 314.689 94.4729 314.682 93.9525C314.625 90.0037 313.805 84.2158 309.705 81.9135C306.225 79.9604 302.318 81.5927 301.491 81.9349C294.995 84.6435 291.822 92.5127 291.08 97.8587Z" fill="#FAC137"/>
<path d="M299.337 82.0416C299.487 83.6169 310.646 92.6907 317.47 86.7959C324.294 80.894 316.807 74.3221 308.143 78.9695L299.337 82.0416Z" fill="#020617"/>
<path d="M316.807 82.9687C316.807 82.9687 304.172 71.7565 294.66 76.0546C285.148 80.3528 291.801 88.3075 291.801 88.3075C293.013 88.7922 298.154 90.674 303.338 88.1365C305.227 87.2098 306.568 85.9696 307.459 84.9645C310.575 84.2945 313.691 83.6316 316.807 82.9687Z" fill="#020617"/>
<path d="M305.641 94.5805C305.291 94.1314 304.486 93.2475 303.181 92.8413C300.535 92.0144 298.296 93.9033 298.097 94.0673C298.325 94.3096 300.2 96.2484 302.846 95.892C304.243 95.7067 305.213 94.9654 305.641 94.5805Z" fill="white"/>
<path d="M309.284 95.1864C309.512 95.4359 311.395 97.3604 314.033 97.0111C314.197 96.9897 314.361 96.9612 314.511 96.9256C314.561 96.2128 314.596 95.2006 314.554 94.0245C314.489 94.0031 314.432 93.9746 314.368 93.9604C314.147 93.8891 313.926 93.8392 313.712 93.8107C313.37 93.7537 313.042 93.7465 312.721 93.7679C310.846 93.8677 309.434 95.051 309.284 95.1864Z" fill="white"/>
<path d="M314.454 98.2511C314.283 101.558 313.798 106.113 312.422 111.388C311.559 114.695 310.981 115.85 310.404 116.491C310.34 116.563 310.211 116.691 310.061 116.819C307.958 118.658 304.093 117.839 302.46 117.468C299.038 116.698 295.095 115.807 292.492 112.343C290.182 109.257 290.21 105.821 290.246 100.667C290.267 97.6167 290.66 95.1148 291.002 93.4326C292.349 94.3165 293.697 95.2003 295.045 96.0842C296.278 98.6788 297.868 100.047 298.781 100.696C299.851 101.459 302.289 102.015 307.174 103.127C307.879 103.283 308.593 103.44 309.462 103.212C310.696 102.884 311.509 101.965 312.764 100.504C313.491 99.6482 314.047 98.8712 314.454 98.2511Z" fill="#020617"/>
<path d="M293.676 90.902C293.676 90.902 290.917 84.6864 288.179 88.7921C285.441 92.8978 285.305 96.7112 291.216 97.6949C291.216 97.6949 296.029 98.2509 293.676 90.902Z" fill="#FAC137"/>
<path d="M296.735 87.1819C296.114 87.9945 295.009 89.6695 294.674 92.0574C294.096 96.1844 296.271 99.2637 296.749 99.9123C294.774 99.6842 292.791 99.4561 290.816 99.2281C291.201 94.6092 291.594 89.9831 291.979 85.3643L296.735 87.1819Z" fill="#020617"/>
<path d="M301.269 94.1885C301.177 95.0225 301.718 95.7709 302.474 95.8565C303.229 95.942 303.914 95.3361 304.006 94.5022C304.099 93.6682 303.557 92.9269 302.802 92.8342C302.039 92.7487 301.355 93.3546 301.269 94.1885Z" fill="#020617"/>
<path d="M311.773 95.044C311.681 95.878 312.222 96.6193 312.978 96.7119C313.734 96.7975 314.418 96.1916 314.511 95.3576C314.603 94.5237 314.061 93.7824 313.306 93.6897C312.55 93.6042 311.866 94.21 311.773 95.044Z" fill="#020617"/>
<path d="M308.772 102.029C308.636 102.029 308.501 102.021 308.365 102.014C307.388 101.972 306.64 101.537 306.176 101.18C306.055 101.088 306.034 100.909 306.126 100.788C306.219 100.667 306.383 100.639 306.504 100.731C306.903 101.038 307.552 101.416 308.387 101.458C308.829 101.48 309.242 101.501 309.428 101.294C309.699 100.995 309.428 100.19 309.007 98.9707C308.914 98.6927 308.807 98.4004 308.707 98.0725C308.322 96.9107 307.98 95.6989 307.681 94.4801C307.645 94.3304 307.731 94.1807 307.88 94.1379C308.023 94.1023 308.173 94.1878 308.208 94.3375C308.501 95.5493 308.843 96.7396 309.228 97.8872C309.335 98.208 309.435 98.5002 309.527 98.7782C310.027 100.239 310.333 101.123 309.834 101.672C309.563 101.972 309.178 102.029 308.772 102.029Z" fill="#111111" stroke="#020617" stroke-miterlimit="10"/>
<path d="M304.871 90.3109C303.873 89.2417 302.083 89.5554 301.227 89.705C299.259 90.0472 297.398 91.0878 297.505 91.4585C297.591 91.7436 298.774 91.3088 301.406 91.3658C303.687 91.4157 305.085 91.7935 305.306 91.2732C305.441 90.9239 304.964 90.4107 304.871 90.3109Z" fill="#020617"/>
<path d="M314.161 90.696C313.412 89.7266 311.915 90.1542 311.202 90.3538C309.562 90.8243 307.965 91.9647 308.029 92.314C308.079 92.5849 309.077 92.0788 311.237 91.9576C313.113 91.8507 314.232 92.1215 314.446 91.6012C314.589 91.2519 314.232 90.7886 314.161 90.696Z" fill="#020617"/>
<path d="M305.078 94.2452C305.006 94.2452 304.935 94.2167 304.878 94.1597C304.793 94.067 302.796 91.9786 298.532 94.0742C298.397 94.1383 298.233 94.0813 298.168 93.9459C298.104 93.8033 298.161 93.6394 298.297 93.5752C302.939 91.2943 305.178 93.6821 305.27 93.7819C305.37 93.896 305.363 94.067 305.256 94.174C305.213 94.2239 305.142 94.2452 305.078 94.2452Z" fill="#111111" stroke="#020617" stroke-miterlimit="10"/>
<path d="M309.983 94.9582C309.926 94.9582 309.869 94.9439 309.819 94.9012C309.698 94.8085 309.676 94.6374 309.762 94.5163C309.812 94.445 311.102 92.7129 314.661 94.1242C314.803 94.1813 314.867 94.3381 314.817 94.4878C314.76 94.6303 314.603 94.7016 314.468 94.6446C311.324 93.3972 310.247 94.7871 310.204 94.8441C310.147 94.9226 310.061 94.9582 309.983 94.9582Z" fill="#111111" stroke="#020617" stroke-miterlimit="10"/>
<path d="M290.517 95.2715C290.489 95.2715 290.46 95.2643 290.431 95.2572C289.669 94.9935 289.048 94.4232 288.727 93.6819C288.442 93.0262 288.428 92.3134 288.677 91.7146C289.098 90.7167 290.218 90.1251 291.387 90.2677C291.537 90.2819 291.644 90.4245 291.622 90.5742C291.608 90.731 291.465 90.8379 291.323 90.8165C290.389 90.7096 289.49 91.1729 289.169 91.9356C288.977 92.3847 288.998 92.9406 289.219 93.4538C289.476 94.0526 289.982 94.5159 290.595 94.7297C290.738 94.7796 290.817 94.9364 290.767 95.0861C290.738 95.1931 290.631 95.2715 290.517 95.2715Z" fill="#111111" stroke="#020617" stroke-miterlimit="10"/>
<path d="M302.767 102.699C302.767 102.699 303.359 107.004 307.559 105.686L302.767 102.699Z" fill="white"/>
<path d="M263.486 181.512C263.486 182.731 262.53 183.715 261.346 183.715C260.163 183.715 259.207 182.731 259.207 181.512C259.207 180.293 260.163 179.31 261.346 179.31C262.53 179.31 263.486 180.293 263.486 181.512Z" fill="#111111"/>
<path d="M279.886 197.657C281.068 197.657 282.025 196.671 282.025 195.454C282.025 194.238 281.068 193.252 279.886 193.252C278.705 193.252 277.747 194.238 277.747 195.454C277.747 196.671 278.705 197.657 279.886 197.657Z" fill="#111111"/>
<path d="M278.46 155.089C278.46 156.308 277.505 157.292 276.321 157.292C275.137 157.292 274.182 156.308 274.182 155.089C274.182 153.87 275.137 152.887 276.321 152.887C277.505 152.894 278.46 153.878 278.46 155.089Z" fill="#111111"/>
<path d="M237.852 133.093L256.605 184.528C257.226 186.238 258.174 187.799 259.379 189.139L298.396 232.156L310.069 221.65L279.43 171.362L261.19 124.824L237.852 133.093Z" fill="#FAC137"/>
<path d="M283.081 164.605C264.848 176.608 246.608 176.608 246.608 176.608L245.247 171.655L237.845 144.768C234.943 134.233 239.799 122.878 249.532 118.445C252.577 117.055 255.735 116.506 258.645 117.625C267.101 120.868 277.654 148.952 281.547 160.086C282.524 162.88 283.081 164.605 283.081 164.605Z" fill="white"/>
<path d="M306.261 220.146C312.743 223.054 319.224 225.962 325.706 228.863L336.658 229.747C337.706 229.832 338.526 230.852 338.526 232.078C338.526 233.361 337.635 234.408 336.53 234.408C323.859 234.408 311.196 234.401 298.525 234.401C296.97 231.978 295.416 229.561 293.861 227.138C297.99 224.814 302.126 222.476 306.261 220.146Z" fill="#FAC137"/>
<path d="M326.077 234.03H325.428C325.428 232.519 323.995 231.258 322.098 231.087L312.593 230.231L312.65 229.568L322.155 230.424C324.394 230.623 326.077 232.177 326.077 234.03Z" fill="#020617" stroke="#020617" stroke-miterlimit="10"/>
<path d="M334.106 234.779H333.457C333.457 233.275 332.024 232.007 330.127 231.836L320.622 230.98L320.679 230.317L330.184 231.173C332.416 231.379 334.106 232.926 334.106 234.779Z" fill="#020617" stroke="#020617" stroke-miterlimit="10"/>
<path d="M304.892 225.926L304.315 225.627C305.071 224.073 309.427 221.628 309.919 221.357L310.226 221.942C308.928 222.655 305.449 224.772 304.892 225.926Z" fill="#020617" stroke="#020617" stroke-miterlimit="10"/>
<path d="M283.08 164.605C264.848 176.609 246.608 176.609 246.608 176.609L245.246 171.655C250.559 170.842 262.78 168.241 281.547 160.079C282.524 162.88 283.08 164.605 283.08 164.605Z" fill="#020617"/>
<path d="M282.746 164.968C282.567 164.968 282.418 164.818 282.418 164.633C282.418 156.015 270.332 133.591 270.21 133.363C270.125 133.199 270.182 132.999 270.339 132.907C270.496 132.814 270.695 132.871 270.781 133.035C271.28 133.962 283.074 155.837 283.074 164.633C283.066 164.818 282.924 164.968 282.746 164.968Z" fill="#020617" stroke="#020617" stroke-miterlimit="10"/>
<path d="M127.609 380.965C120.329 381.934 114.596 383.346 110.71 384.443C103.252 386.56 95.6436 388.114 88.2066 390.296C86.2956 390.859 85.005 391.258 83.3151 390.894C81.1831 390.445 78.823 388.87 72.7122 376.282C68.6479 367.907 68.3627 365.868 68.3199 364.186C68.22 360.266 69.2397 352.724 72.3628 352.924C75.3861 353.116 85.6325 369.639 89.8465 369.539C94.0606 369.446 118.432 362.796 118.432 362.796C121.506 368.862 124.557 374.913 127.609 380.965Z" fill="#F08D5F"/>
<path d="M74.2176 360.137C74.1106 360.137 74.0108 360.073 73.968 359.973C72.9626 357.607 69.483 355.989 69.4473 355.968C69.3119 355.903 69.2548 355.747 69.3119 355.611C69.376 355.476 69.5329 355.412 69.6684 355.476C69.8181 355.547 73.3762 357.201 74.46 359.76C74.517 359.895 74.4529 360.059 74.3174 360.116C74.2889 360.13 74.2532 360.137 74.2176 360.137Z" fill="#111111"/>
<path d="M71.1011 361.456C71.0013 361.456 70.9014 361.399 70.8586 361.306C70.6519 360.871 70.2454 360.259 69.5467 359.817C69.2686 359.638 68.9548 359.503 68.634 359.41C68.4914 359.368 68.4058 359.218 68.4486 359.075C68.4914 358.933 68.6411 358.847 68.7837 358.89C69.1616 358.997 69.5181 359.154 69.839 359.353C70.6519 359.866 71.1153 360.572 71.3506 361.071C71.4148 361.207 71.3578 361.37 71.2223 361.435C71.1795 361.449 71.1367 361.456 71.1011 361.456Z" fill="#111111"/>
<path d="M157.799 363.979C147.161 366.895 132.223 369.774 114.282 369.496C98.6383 369.254 85.4827 366.674 75.6713 363.979L78.773 340.7L79.429 335.796L81.1475 322.93H148.066L151.118 335.796L152.273 340.7L157.799 363.979Z" fill="#4659CA"/>
<path d="M116.272 352.34C90.845 348.455 70.1169 346.887 55.0789 346.21C44.0339 345.718 32.6609 345.554 28.6822 352.34C25.1526 358.363 29.2098 366.866 29.8801 368.271C37.5239 384.273 59.3072 388.257 77.2758 391.55C87.9358 393.503 103.594 395.257 122.868 393.389C120.664 379.704 118.468 366.025 116.272 352.34Z" fill="#111111"/>
<path d="M113.769 352.34C137.734 348.455 157.257 346.887 171.425 346.21C181.836 345.718 192.553 345.554 196.296 352.34C199.626 358.363 195.797 366.866 195.163 368.271C187.961 384.273 167.44 388.257 150.505 391.55C140.458 393.503 125.705 395.257 107.544 393.389C109.619 379.704 111.694 366.025 113.769 352.34Z" fill="#111111"/>
<path d="M197.936 344.591C193.473 341.206 188.56 342.047 186.963 342.417C159.361 347.236 131.759 352.054 104.165 356.88C107.865 369.19 111.566 381.493 115.274 393.803C115.866 395.791 116.472 397.787 117.071 399.776C120.885 399.091 192.738 385.848 201.231 372.134C203.42 368.605 204.097 364.464 204.097 364.464C204.111 364.4 204.119 364.343 204.126 364.272C205.045 358.363 203.983 349.175 197.936 344.591Z" fill="#4659CA"/>
<path d="M204.126 364.265C204.112 364.329 204.104 364.393 204.097 364.457C204.097 364.457 203.42 368.598 201.231 372.127C192.739 385.848 120.878 399.085 117.071 399.769C116.472 397.78 115.873 395.784 115.274 393.796C126.996 393.617 144.017 392.042 163.326 385.427C181.309 379.262 194.97 370.894 204.126 364.265Z" fill="#020617"/>
<path d="M84.97 382.804C90.7884 385.014 95.5087 386.589 98.6104 387.58C109.064 390.915 113.549 391.628 117.805 396.033C119.738 398.029 119.666 398.77 121.235 399.569C123.182 400.552 126.005 400.809 138.655 394.829C147.069 390.851 148.573 389.44 149.664 388.157C152.416 384.907 155.44 379.012 153.572 376.845C150.997 373.851 142.584 382.048 128.615 381.442C124.23 381.25 119.781 379.725 110.882 376.667C102.226 373.694 95.252 370.708 90.4176 368.484C88.6065 373.252 86.7882 378.028 84.97 382.804Z" fill="#FAC137"/>
<path d="M147.804 381.364C147.711 381.364 147.611 381.314 147.568 381.222C147.497 381.093 147.547 380.929 147.682 380.858C150.128 379.547 153.943 380.48 154.1 380.523C154.242 380.559 154.335 380.709 154.299 380.851C154.264 380.994 154.114 381.079 153.971 381.051C153.936 381.044 150.206 380.124 147.939 381.336C147.889 381.35 147.846 381.364 147.804 381.364Z" fill="#020617" stroke="#020617" stroke-miterlimit="10"/>
<path d="M149.4 384.344C149.301 384.344 149.201 384.287 149.158 384.187C149.094 384.052 149.151 383.888 149.286 383.823C149.785 383.588 150.591 383.325 151.539 383.439C151.924 383.481 152.295 383.581 152.659 383.738C152.794 383.795 152.859 383.959 152.802 384.094C152.744 384.23 152.58 384.294 152.445 384.237C152.131 384.101 151.81 384.016 151.482 383.98C150.655 383.88 149.956 384.109 149.522 384.322C149.479 384.337 149.436 384.344 149.4 384.344Z" fill="#020617" stroke="#020617" stroke-miterlimit="10"/>
<path d="M122.975 359.645C119.41 370.102 115.837 380.566 112.265 391.023C111.031 394.651 109.798 398.272 108.557 401.9C104.707 401.03 32.2119 384.365 24.012 370.252C22.6715 367.935 21.9442 365.398 21.6019 363.865C21.4094 362.988 21.331 362.447 21.331 362.447C20.5252 356.509 21.8515 347.229 28.1975 342.888C32.8323 339.723 37.7879 340.799 39.4065 341.241C67.265 347.371 95.1234 353.508 122.975 359.645Z" fill="#4659CA"/>
<path d="M108.464 402C108.429 402 108.386 401.993 108.35 401.978C108.172 401.914 108.079 401.722 108.143 401.543L122.725 359.631L70.0814 347.628C69.896 347.585 69.782 347.4 69.8247 347.222C69.8675 347.036 70.0529 346.922 70.2312 346.965L123.246 359.054C123.338 359.075 123.424 359.14 123.467 359.218C123.517 359.303 123.524 359.403 123.488 359.496L108.778 401.772C108.735 401.914 108.607 402 108.464 402Z" fill="#020617" stroke="#020617" stroke-miterlimit="10"/>
<path d="M112.272 391.023C111.038 394.651 109.805 398.272 108.564 401.9C104.713 401.03 32.2187 384.365 24.0187 370.252C22.6782 367.935 21.9509 365.398 21.6087 363.865C26.3789 369.546 36.7822 379.112 55.1429 383.282C76.8479 388.214 102.917 390.367 112.272 391.023Z" fill="#020617"/>
<path d="M190.221 308.004C189.366 321.433 185.151 331.291 179.305 332.431C178.014 332.688 174.099 332.738 161.4 318.19C159.033 315.467 156.345 312.159 153.535 308.211C149.307 302.259 144.808 294.853 140.729 285.865C140.793 277.96 140.857 270.062 140.914 262.171C142.476 262.264 144.922 262.542 147.724 263.476C153.015 265.236 157.029 268.472 168.687 282.686C174.527 289.799 175.212 291.075 180.203 296.877C183.148 300.299 186.478 304.027 190.221 308.004Z" fill="#020617"/>
<path d="M190.221 308.003C189.366 321.432 185.151 331.29 179.305 332.431C178.014 332.687 174.099 332.737 161.4 318.189C159.033 315.466 156.345 312.159 153.535 308.21C154.042 307.176 154.669 306.129 155.411 305.067C163.304 293.826 172.303 293.412 180.196 296.87C183.148 300.298 186.478 304.026 190.221 308.003Z" fill="#4659CA"/>
<path d="M79.4217 305.374C77.7247 307.875 75.8637 310.278 73.86 312.509C58.7721 329.359 48.0765 342.196 36.8746 336.736C31.4769 334.106 35.5484 323.136 41.9943 310.983C48.9108 297.939 58.5724 283.534 62.2018 276.62C69.211 263.269 88.1779 261.829 88.1779 261.829C94.9589 268.415 90.5523 289.029 79.4217 305.374Z" fill="#020617"/>
<path d="M153.863 344.035C141.734 345.012 128.75 345.696 114.981 345.91C101.49 346.124 88.7269 345.86 76.7835 345.282C77.4324 332.196 77.518 321.475 77.468 313.905V313.456C77.4395 309.429 77.3682 305.958 77.3254 302.629C77.2613 297.14 77.2969 292.023 77.7604 285.408C78.3665 276.769 79.4218 269.719 80.2346 265.043C84.7482 262.77 91.0443 260.154 98.8806 258.457C100.998 258.001 103.216 257.616 105.555 257.324C115.944 256.012 125.277 256.953 132.928 258.664C141.335 260.531 147.717 263.318 151.268 265.043C151.111 279.135 151.089 291.082 151.125 300.348C151.161 310.755 151.253 316.821 151.81 324.69C152.387 332.773 153.214 339.438 153.863 344.035Z" fill="#020617"/>
<path d="M144.415 261.829C145.62 265.479 146.519 269.228 147.232 273.013C147.945 276.798 148.408 280.633 148.622 284.482C148.715 286.406 148.715 288.338 148.644 290.269C148.572 292.194 148.408 294.126 148.08 296.029C147.481 299.835 146.305 303.606 144.265 306.878C145.164 305.174 145.87 303.392 146.397 301.553C146.954 299.728 147.317 297.846 147.567 295.95C148.08 292.165 148.152 288.331 147.945 284.51C147.788 280.69 147.317 276.883 146.718 273.098C146.426 271.202 146.077 269.321 145.684 267.439C145.321 265.564 144.886 263.697 144.415 261.829Z" fill="white" stroke="white" stroke-miterlimit="10"/>
<path d="M172.858 302.558C172.858 302.558 167.346 299.6 161.884 295.651C156.415 291.702 153.556 288.944 153.214 292.65C152.871 296.357 156.465 297.932 158.654 301.246C160.836 304.561 169.428 305.979 172.858 302.558Z" fill="#FAC137"/>
<path d="M162.676 286.05L152.587 318.054C152.352 318.795 151.731 319.28 151.032 319.273L136.337 319.002C135.246 318.981 134.49 317.769 134.847 316.6L144.572 284.588C144.801 283.84 145.428 283.341 146.127 283.355L161.186 283.633C162.291 283.648 163.047 284.881 162.676 286.05Z" fill="#020617"/>
<path d="M164.438 286.085L154.348 318.09C154.113 318.831 153.492 319.316 152.794 319.308L138.098 319.038C137.007 319.016 136.251 317.804 136.608 316.636L146.334 284.624C146.562 283.876 147.189 283.377 147.888 283.391L162.947 283.669C164.053 283.683 164.808 284.909 164.438 286.085Z" fill="#BFE8E4"/>
<path d="M157.278 287.019L155.36 293.805C155.125 294.631 155.745 295.458 156.608 295.465L158.804 295.48C159.389 295.48 159.902 295.102 160.066 294.539C160.729 292.286 161.392 290.034 162.048 287.781C162.291 286.955 161.678 286.128 160.822 286.106L158.562 286.064C157.963 286.056 157.442 286.448 157.278 287.019Z" fill="#111111"/>
<path d="M163.91 301.31C163.91 301.31 140.936 292.586 139.075 294.624C138.618 295.13 138.583 295.629 138.583 295.629C138.583 295.629 138.554 296.192 139.082 296.798C139.816 297.639 144.693 300.291 151.51 303.584C151.51 303.791 151.51 303.997 151.51 304.204C139.146 300.448 135.809 300.462 135.374 301.389C135.267 301.624 135.274 302.051 135.374 302.386C135.374 302.386 135.638 303.263 138.825 304.76C137.691 304.511 136.536 305.052 136.001 306.064C135.452 307.112 135.709 308.431 136.629 309.208C136.294 309.55 135.032 310.904 135.338 312.387C135.531 313.314 136.258 313.884 136.643 314.169C141.299 317.626 145.342 318.488 145.342 318.488C154.12 320.363 158.505 321.297 160.238 320.306C164.651 317.769 166.192 309.928 163.91 301.31Z" fill="#FAC137"/>
<path d="M159.453 300.113L172.702 302.451C172.702 302.451 175.076 315.944 171.097 320.235L159.86 320.734C158.683 320.784 157.728 319.786 157.828 318.617L159.453 300.113Z" fill="#FAC137"/>
<path d="M149.891 308.859C149.863 308.859 149.834 308.852 149.806 308.845C144.978 307.305 138.91 305.053 138.846 305.031C138.697 304.974 138.618 304.803 138.675 304.654C138.732 304.504 138.896 304.426 139.053 304.483C139.117 304.504 145.178 306.749 149.984 308.289C150.141 308.339 150.226 308.503 150.176 308.659C150.127 308.781 150.012 308.859 149.891 308.859Z" fill="#020617" stroke="#020617" stroke-miterlimit="10"/>
<path d="M147.717 313.691C147.702 313.691 147.681 313.691 147.667 313.684C142.141 312.708 136.707 309.251 136.657 309.215C136.522 309.13 136.479 308.944 136.572 308.809C136.657 308.673 136.843 308.631 136.978 308.723C137.028 308.759 142.369 312.152 147.774 313.107C147.931 313.135 148.038 313.285 148.009 313.449C147.98 313.592 147.859 313.691 147.717 313.691Z" fill="#020617" stroke="#020617" stroke-miterlimit="10"/>
<path d="M77.4683 319.202V318.71C77.4398 314.312 77.3685 310.513 77.3257 306.878L90.3458 287.618C90.3458 289.557 90.2175 291.61 89.9108 293.77C88.1995 305.659 81.8963 314.291 77.4683 319.202Z" fill="#020617"/>
<path d="M79.4217 305.374C77.7247 307.875 75.8637 310.278 73.86 312.509C58.7721 329.359 48.0765 342.196 36.8746 336.736C31.4769 334.106 35.5484 323.136 41.9943 310.983C50.9501 304.711 64.0201 299.514 79.4217 305.374Z" fill="#4659CA"/>
<path d="M157.906 316.401C159.218 318.674 161.486 322.623 164.238 327.649C168.951 336.252 170.071 338.825 173.379 341.006C174.199 341.548 179.982 345.247 184.966 343.394C194.507 339.837 197.138 317.384 188.86 309.365C186.849 307.419 184.339 306.065 179.718 303.741C174.699 301.218 170.242 299.721 167.055 298.823C164.003 304.682 160.958 310.542 157.906 316.401Z" fill="#FAC137"/>
<path d="M58.5868 312.494C68.1415 309.493 77.7034 306.492 87.2581 303.484C92.0355 308.773 96.82 314.062 101.597 319.351C92.8555 324.255 48.8894 348.604 38.6359 342.681C36.9531 341.711 36.1474 340.293 36.1474 340.293C34.5359 337.449 35.6055 333.521 37.6733 329.63C42.0585 321.375 49.6666 315.295 58.5868 312.494Z" fill="#FAC137"/>
<path d="M136.066 279.179L129.035 276.363L126.219 294.646L114.261 279.179L109.334 284.097L98.8806 258.622C100.998 258.123 103.223 257.702 105.555 257.374C115.944 255.949 125.277 256.975 132.928 258.843C134.811 266.968 136.066 279.179 136.066 279.179Z" fill="white"/>
<path d="M131.774 221.898C132.03 231.478 132.287 241.051 132.551 250.631C131.61 250.745 130.554 250.809 129.413 250.795C127.003 250.759 124.936 250.36 123.317 249.904C123.559 246.832 123.802 243.752 124.044 240.68C122.932 243.147 121.812 245.62 120.7 248.086C118.718 246.91 114.939 244.244 113.149 239.519C110.368 232.162 113.548 222.846 121.335 216.645L131.774 221.898Z" fill="#020617"/>
<path d="M133.542 229.689C133.713 228.856 135.167 221.207 130.304 216.239C124.657 210.48 113.327 211.207 108.086 218.249C102.631 225.591 105.598 237.359 113.484 240.667C120.621 243.667 130.647 239.255 133.542 229.689Z" fill="#020617"/>
<path d="M123.288 265.592C123.302 268.957 123.081 272.008 122.753 274.709C120.479 271.765 117.983 268.707 115.245 265.592C112.699 262.699 110.19 260.018 107.737 257.552C109.312 250.745 110.888 243.931 112.464 237.124C112.507 237.138 112.55 237.159 112.592 237.181C113.648 237.644 114.746 238.1 115.894 238.549C116.3 238.713 116.707 238.863 117.099 239.005C118.076 239.369 119.031 239.697 119.958 239.996C119.965 240.032 119.972 240.053 119.972 240.089C120.094 240.837 120.222 241.586 120.336 242.327C120.735 244.722 121.128 247.117 121.513 249.505C121.641 250.267 121.762 251.03 121.891 251.793C122.183 253.532 122.461 255.278 122.746 257.018C123.06 259.576 123.274 262.449 123.288 265.592Z" fill="#FAC137"/>
<path d="M121.52 249.498C120.144 248.949 117.698 247.737 115.666 245.185C113.277 242.199 112.714 238.984 112.6 237.174C112.564 236.725 112.564 236.361 112.564 236.104C114.076 237.067 115.594 238.036 117.106 238.991C117.398 239.177 117.677 239.362 117.969 239.54L119.98 240.068C120.101 240.816 120.229 241.564 120.343 242.306C120.735 244.722 121.128 247.11 121.52 249.498Z" fill="#020617"/>
<path d="M112.414 233.297C112.208 237.36 114.34 240.375 114.974 241.273C115.751 242.378 118.083 245.314 122.126 246.476C123.474 246.861 124.607 247.182 126.012 246.89C130.048 246.034 131.938 240.995 132.815 238.65C133.977 235.535 134.055 232.954 134.062 232.27C134.091 229.946 134.169 224.123 130.433 221.728C127.866 220.089 124.757 220.865 123.253 221.236C118.176 222.505 112.721 227.152 112.414 233.297Z" fill="#FAC137"/>
<path d="M126.019 231.051C125.741 230.651 125.092 229.846 123.973 229.418C121.713 228.549 119.63 230.017 119.452 230.145C119.638 230.366 121.163 232.127 123.495 231.992C124.729 231.92 125.62 231.35 126.019 231.051Z" fill="white"/>
<path d="M129.17 231.793C129.356 232.014 130.882 233.774 133.213 233.639C133.356 233.624 133.506 233.617 133.641 233.596C133.727 232.997 133.819 232.135 133.848 231.13C133.798 231.108 133.741 231.08 133.691 231.066C133.499 230.994 133.313 230.937 133.128 230.902C132.835 230.83 132.543 230.802 132.265 230.802C130.611 230.766 129.306 231.686 129.17 231.793Z" fill="white"/>
<path d="M114.639 226.446C114.639 226.446 112.6 220.994 109.954 224.308C107.309 227.623 106.967 230.859 112.072 232.063C112.072 232.063 116.243 232.833 114.639 226.446Z" fill="#F08D5F"/>
<path d="M122.219 230.445C122.091 231.151 122.518 231.814 123.174 231.935C123.83 232.056 124.464 231.578 124.593 230.88C124.721 230.174 124.293 229.511 123.637 229.39C122.982 229.269 122.347 229.739 122.219 230.445Z" fill="#020617"/>
<path d="M131.359 231.821C131.231 232.526 131.659 233.189 132.315 233.311C132.97 233.432 133.605 232.954 133.733 232.256C133.861 231.55 133.434 230.887 132.778 230.766C132.122 230.645 131.488 231.122 131.359 231.821Z" fill="#020617"/>
<path d="M128.094 237.131C127.659 237.131 126.995 237.031 125.954 236.76C125.826 236.724 125.748 236.596 125.783 236.468C125.819 236.339 125.947 236.261 126.076 236.297C128.236 236.86 128.464 236.596 128.471 236.582C128.471 236.546 128.386 236.403 128.315 236.282C128.193 236.076 128.029 235.79 127.873 235.384C127.573 234.614 127.516 233.987 127.466 233.424C127.395 232.626 127.43 231.82 127.58 231.022C127.602 230.894 127.73 230.808 127.858 230.829C127.987 230.851 128.072 230.979 128.051 231.107C127.908 231.856 127.873 232.619 127.944 233.374C127.994 233.902 128.044 234.493 128.322 235.199C128.471 235.577 128.621 235.84 128.735 236.033C128.899 236.318 129.028 236.546 128.906 236.788C128.807 236.981 128.621 237.131 128.094 237.131Z" fill="#020617" stroke="#020617" stroke-miterlimit="10"/>
<path d="M122.846 226.631C122.739 226.631 122.618 226.617 122.454 226.631C120.714 226.802 119.017 227.565 119.088 227.886C119.088 227.893 119.096 227.9 119.096 227.907C119.274 228.242 121.563 227.807 122.789 227.658C125.62 227.316 127.324 227.993 127.367 227.772C127.424 227.522 125.092 226.667 122.846 226.631Z" fill="#020617"/>
<path d="M134.02 228.877C134.127 228.749 133.599 228.221 133.086 227.879C132.922 227.772 132.365 227.408 131.602 227.259C130.162 226.981 128.95 227.658 129.064 227.886C129.107 227.972 129.314 227.957 130.69 228.143C131.545 228.257 131.973 228.321 132.315 228.399C133.392 228.656 133.92 228.998 134.02 228.877Z" fill="#020617"/>
<path d="M125.563 230.73C125.491 230.73 125.427 230.701 125.377 230.644C125.313 230.559 123.687 228.656 119.837 230.174C119.716 230.217 119.573 230.16 119.53 230.039C119.48 229.917 119.545 229.775 119.666 229.732C123.866 228.078 125.677 230.252 125.755 230.345C125.841 230.445 125.819 230.595 125.719 230.68C125.67 230.716 125.62 230.73 125.563 230.73Z" fill="#020617" stroke="#020617" stroke-miterlimit="10"/>
<path d="M133.834 231.678C133.798 231.678 133.763 231.671 133.734 231.656C131.06 230.402 130.034 231.514 129.991 231.564C129.905 231.664 129.755 231.671 129.656 231.585C129.556 231.5 129.542 231.35 129.627 231.25C129.677 231.193 130.903 229.803 133.934 231.222C134.055 231.279 134.105 231.421 134.048 231.535C134.012 231.621 133.927 231.678 133.834 231.678Z" fill="#020617" stroke="#020617" stroke-miterlimit="10"/>
<path d="M125.184 239.747C124.422 239.747 123.844 239.547 123.466 239.155C122.824 238.478 123.024 237.501 123.038 237.458C123.067 237.33 123.195 237.252 123.323 237.28C123.452 237.309 123.53 237.437 123.509 237.565C123.509 237.572 123.352 238.342 123.823 238.834C124.229 239.255 124.985 239.376 126.069 239.198C126.204 239.176 126.318 239.262 126.34 239.39C126.361 239.518 126.275 239.64 126.147 239.661C125.798 239.718 125.477 239.747 125.184 239.747Z" fill="#020617" stroke="#020617" stroke-miterlimit="10"/>
<path d="M111.622 229.96C111.594 229.96 111.558 229.953 111.53 229.939C110.881 229.668 110.368 229.14 110.133 228.492C109.926 227.914 109.955 227.309 110.204 226.817C110.632 225.997 111.644 225.562 112.663 225.755C112.791 225.776 112.877 225.904 112.856 226.033C112.834 226.161 112.713 226.247 112.578 226.225C111.779 226.068 110.952 226.418 110.632 227.038C110.439 227.408 110.418 227.879 110.582 228.328C110.774 228.848 111.181 229.276 111.708 229.497C111.829 229.547 111.886 229.689 111.836 229.81C111.808 229.903 111.715 229.96 111.622 229.96Z" fill="#111111"/>
<path d="M129.52 215.519C130.554 215.882 132.365 216.688 133.898 218.449C137.043 222.055 136.387 226.638 136.265 227.373L128.151 226.09L125.891 218.534L126.204 225.968L117.741 227.194C117.741 227.194 117.348 224.878 117.341 222.219C117.334 219.639 117.591 216.795 119.266 215.198C121.356 213.21 125.534 213.409 129.52 215.519Z" fill="#020617"/>
<path d="M120.764 214.058C116.507 212.233 113.826 212.661 112.229 213.302C108.949 214.607 108.022 217.629 103.523 223.296C101.277 226.118 99.2444 228.207 97.9823 229.454C98.1035 230.873 98.5171 232.655 99.1374 234.686C99.9859 237.459 101.369 240.531 103.523 241.764L107.216 236.839L105.369 242.997C105.662 243.867 106.204 245.043 107.216 246.155C109.926 249.12 113.805 249.163 114.603 249.156C116.657 237.452 118.71 225.755 120.764 214.058Z" fill="#020617"/>
<path d="M112.443 216.339C111.715 217.871 110.845 219.34 109.94 220.772C109.034 222.212 108.036 223.588 106.988 224.935C105.925 226.268 104.806 227.551 103.594 228.749C102.375 229.939 101.077 231.051 99.665 231.999C100.271 231.4 100.913 230.851 101.483 230.231C102.089 229.647 102.653 229.019 103.223 228.399C104.335 227.131 105.426 225.855 106.467 224.529C107.516 223.21 108.514 221.856 109.519 220.494C110.018 219.817 110.51 219.126 110.988 218.427C111.487 217.743 111.958 217.037 112.443 216.339Z" fill="#020617"/>
<path d="M119.088 224.408C118.881 224.536 118.753 224.757 118.639 224.964C118.518 225.17 118.425 225.391 118.332 225.619C118.154 226.069 118.004 226.525 117.883 226.995C117.605 227.922 117.405 228.87 117.22 229.818C116.863 231.721 116.542 233.631 116.293 235.549C116.143 236.504 116.029 237.466 115.908 238.428C115.772 239.391 115.665 240.353 115.544 241.315C115.423 242.277 115.295 243.24 115.188 244.209C115.059 245.171 114.952 246.141 114.803 247.103C114.817 246.126 114.874 245.157 114.91 244.188C114.959 243.218 115.038 242.249 115.109 241.279C115.166 240.31 115.273 239.341 115.373 238.371C115.473 237.402 115.594 236.44 115.73 235.47C115.993 233.539 116.336 231.621 116.799 229.718C117.042 228.77 117.291 227.829 117.626 226.902C117.79 226.439 117.983 225.99 118.204 225.555C118.318 225.334 118.432 225.121 118.575 224.921C118.703 224.714 118.86 224.508 119.088 224.408Z" fill="#020617"/>
<path d="M117.063 230.666C116.828 232.191 116.471 233.688 116.086 235.178C115.701 236.668 115.231 238.143 114.717 239.59C114.19 241.037 113.605 242.477 112.885 243.846C112.164 245.207 111.366 246.568 110.268 247.659C110.482 247.338 110.696 247.017 110.917 246.704L111.487 245.706C111.844 245.029 112.2 244.359 112.493 243.653C113.113 242.256 113.676 240.838 114.19 239.398C114.717 237.965 115.195 236.511 115.68 235.05C115.922 234.323 116.15 233.588 116.379 232.854L117.063 230.666Z" fill="#020617"/>
<path d="M83.0375 306.771C86.1749 303.97 89.9968 300.926 94.5389 297.946C99.2021 294.889 103.63 292.544 107.53 290.754C108.921 291.603 111.274 293.306 113.085 296.279C116.101 301.225 115.531 306.243 115.295 307.769C110.939 311.461 106.589 315.146 102.24 318.838C99.2877 321.34 94.8597 320.955 92.3855 317.983C89.2624 314.248 86.1464 310.513 83.0375 306.771Z" fill="#FAC137"/>
<path d="M103.373 293.948C102.81 293.67 102.803 292.864 103.359 292.572C104.379 292.052 105.405 291.538 106.439 291.025C112.293 288.131 118.055 285.522 123.681 283.163C124.13 283.341 124.672 283.634 124.814 284.14C125.007 284.795 124.543 285.779 122.347 287.461C118.347 290.54 110.832 294.247 107.338 295.915L103.373 293.948Z" fill="#FAC137"/>
<path d="M107.965 293.698C107.965 293.698 117.163 292.743 121.285 294.568C125.399 296.4 130.761 297.633 130.241 299.714C129.727 301.803 128.173 301.125 128.173 301.125C128.173 301.125 130.084 303.164 127.538 304.554C127.538 304.554 118.483 303.292 113.719 304.54C113.719 304.54 123.096 304.262 124.993 305.944C126.889 307.626 112.921 309.836 112.921 309.836C112.921 309.836 103.445 301.425 107.965 293.698Z" fill="#FAC137"/>
<path d="M128.437 301.41C128.401 301.41 128.358 301.403 128.322 301.389C128.251 301.367 121.149 298.922 119.003 298.787C116.835 298.644 113.284 298.851 113.249 298.851C113.035 298.873 112.892 298.716 112.878 298.523C112.864 298.331 113.013 298.16 113.206 298.153C113.356 298.145 116.835 297.939 119.053 298.088C121.292 298.238 128.265 300.626 128.558 300.726C128.743 300.79 128.836 300.99 128.779 301.175C128.715 301.317 128.579 301.41 128.437 301.41Z" fill="#020617" stroke="#020617" stroke-miterlimit="10"/>
<path d="M98.3747 321.276C98.3676 321.276 98.3676 321.276 98.3605 321.276C98.2179 321.269 94.8238 321.091 91.5367 315.602C91.4368 315.438 91.4939 315.218 91.6579 315.118C91.829 315.018 92.0429 315.075 92.1428 315.239C95.216 320.364 98.3605 320.571 98.389 320.571C98.5815 320.578 98.7313 320.742 98.7241 320.934C98.717 321.127 98.5672 321.276 98.3747 321.276Z" fill="#020617" stroke="#020617" stroke-miterlimit="10"/>
<path d="M182.421 303.35L172.288 347.25C172.025 348.384 171.019 349.182 169.864 349.182H101.006C99.4014 349.182 98.2178 347.692 98.5814 346.131L108.714 302.23C108.978 301.097 109.983 300.299 111.138 300.299H179.996C181.594 300.299 182.777 301.789 182.421 303.35Z" fill="#F66B00"/>
<path d="M170.513 352.162H79.4505C78.7446 352.162 78.167 351.591 78.167 350.879V349.867C78.167 349.161 78.7374 348.583 79.4505 348.583H170.513C171.219 348.583 171.796 349.154 171.796 349.867V350.879C171.796 351.584 171.219 352.162 170.513 352.162Z" fill="#F66B00"/>
<path d="M177.601 301.803H112.914C111.823 301.803 110.881 302.558 110.632 303.613L101.113 344.855C100.778 346.324 101.89 347.721 103.395 347.721H168.082C169.172 347.721 170.114 346.965 170.363 345.91L179.882 304.668C180.217 303.2 179.105 301.803 177.601 301.803ZM179.348 304.54L169.828 345.782C169.643 346.602 168.923 347.172 168.082 347.172H103.395C102.846 347.172 102.332 346.922 101.99 346.495C101.648 346.067 101.519 345.511 101.648 344.977L111.167 303.734C111.352 302.915 112.072 302.344 112.914 302.344H177.601C178.15 302.344 178.663 302.594 179.005 303.022C179.348 303.456 179.469 304.005 179.348 304.54Z" fill="white" stroke="white" stroke-miterlimit="10"/>
<path d="M113.67 213.816C113.67 213.816 117.677 207.914 108.721 205.996C107.809 205.797 104.386 205.212 103.316 206.902C102.254 208.577 104.186 211.378 104.885 212.39C106.718 215.042 109.227 216.296 110.639 216.866C111.652 215.847 112.664 214.828 113.67 213.816Z" fill="#020617"/>
<path d="M123.737 214.222C123.737 214.222 119.245 208.683 128.001 206.003C128.9 205.732 132.251 204.856 133.463 206.445C134.668 208.02 132.978 210.979 132.365 212.048C130.768 214.849 128.372 216.31 127.01 216.994C125.926 216.075 124.835 215.148 123.737 214.222Z" fill="#020617"/>
<path d="M88.1853 261.829C88.5489 265.778 88.5846 269.755 88.4349 273.726C88.2851 277.696 87.8644 281.659 87.2084 285.579C86.474 289.485 85.5114 293.377 83.9712 297.062C82.4453 300.733 80.3205 304.24 77.3257 306.87C78.7233 305.459 79.914 303.877 80.9123 302.173C81.9319 300.484 82.7876 298.702 83.4792 296.863C84.8982 293.192 85.8608 289.343 86.5382 285.458C87.2441 281.573 87.6576 277.639 87.9143 273.69C88.0498 271.716 88.1354 269.741 88.171 267.76C88.2281 265.792 88.2281 263.811 88.1853 261.829Z" fill="white" stroke="white" stroke-miterlimit="10"/>
<path d="M346.976 351.962L353.33 384.722L376.839 380.16L371.07 350.451L346.976 351.962Z" fill="#FAC137"/>
<path d="M384.041 394.316H320.915V389.961C321.885 389.234 323.375 388.186 325.272 387.06C331.768 383.203 335.839 382.783 340.509 380.53C343.447 379.119 347.397 376.603 351.39 371.827C351.412 371.827 354.949 371.927 354.97 371.927H355.006C357.216 371.991 359.262 373.146 360.453 375.006L362.036 377.472C362.735 378.563 364.061 379.062 365.302 378.691C366.179 378.435 366.885 377.786 367.206 376.924C368.211 374.236 370.785 372.462 373.644 372.462H373.844C374.343 372.476 374.835 372.49 375.342 372.504L382.308 389.953L384.041 394.316Z" fill="#3940A0"/>
<path d="M384.041 394.316H320.915V389.961H382.301L384.041 394.316Z" fill="#020617"/>
<path d="M354.121 386.511C354.157 386.511 354.2 386.504 354.235 386.489C354.392 386.425 354.463 386.254 354.399 386.097C354.371 386.026 351.34 378.87 343.183 379.575C343.019 379.59 342.898 379.739 342.912 379.903C342.927 380.067 343.069 380.188 343.24 380.174C350.977 379.49 353.822 386.254 353.85 386.325C353.886 386.44 354 386.511 354.121 386.511Z" fill="#020617" stroke="#020617" stroke-miterlimit="10"/>
<path d="M473.855 161.112C468.036 165.831 462.225 170.55 456.407 175.269L462.325 191.527C462.767 192.311 463.231 193.103 463.723 193.894C465.412 196.609 467.181 198.997 468.942 201.086C474.154 197.372 480.222 192.561 486.533 186.438C496.016 177.243 508.002 165.624 504.965 157.691C503.917 154.947 501.414 153.557 499.667 152.616C483.773 144.07 465.869 136.058 457.847 132.537L455.708 131.496C450.496 130.833 445.861 134.026 444.863 138.332C444.121 141.525 445.447 145.032 448.185 147.363C456.742 151.953 465.298 156.529 473.855 161.112Z" fill="#FAC137"/>
<path d="M412.142 130.484C416.021 132.38 419.935 134.347 423.878 136.378C423.914 136.4 423.95 136.414 423.978 136.435C426.673 137.818 429.333 139.215 431.957 140.612C431.843 140.969 431.871 140.89 431.75 141.24C429.561 140.997 427.814 140.748 426.702 140.584C425.525 140.406 424.477 140.256 423.543 140.121C420.085 139.6 418.309 139.329 418.024 139.244C418.024 139.244 416.734 138.852 413.546 138.895C413.404 138.902 413.019 138.909 412.619 139.13C412.227 139.344 411.807 139.757 411.721 140.213C411.585 140.926 412.277 141.881 413.546 142.166C416.748 142.929 419.949 143.692 423.151 144.447C427.108 145.395 431.08 146.336 435.044 147.277C435.087 147.291 435.13 147.305 435.173 147.305C435.686 147.434 436.2 147.548 436.713 147.676C436.713 147.676 438.439 148.417 441.226 149.187C442.952 149.665 445.084 150.149 447.473 150.47C448.906 150.67 450.432 150.798 452.008 150.848L456.557 136.236C457.284 133.876 456.136 131.339 453.883 130.334C453.448 130.134 452.992 129.942 452.514 129.742C447.009 127.411 443.002 126.542 439.201 125.494C435.722 124.539 430.766 122.978 424.812 120.419C424.591 120.433 424.228 120.497 423.907 120.761C423.907 120.761 423.401 121.175 423.301 122.073C423.122 123.627 432.478 127.64 435.529 128.915L435.23 129.4C429.411 127.996 423.6 126.592 417.782 125.188C417.04 125.145 414.074 125.024 413.803 125.957C413.746 126.164 413.782 126.563 414.573 127.255C413.703 126.82 412.755 126.855 412.156 127.376C411.799 127.689 411.664 128.074 411.628 128.231C411.329 129.215 411.792 130.312 412.142 130.484Z" fill="#FAC137"/>
<path d="M431.08 158.874C431.201 159.009 431.329 159.102 431.472 159.137C431.878 159.251 432.214 158.924 432.67 158.36C433.219 157.683 433.953 156.678 435.223 155.759C436.014 155.188 436.684 154.868 437.383 154.647C438.731 154.198 440.164 154.062 442.66 153.043C443.857 152.558 445.54 151.76 447.458 150.477C447.508 150.448 447.551 150.413 447.601 150.384C446.211 148.239 444.506 146.585 442.767 145.644C441.412 144.917 440.036 144.625 438.766 144.882C437.618 145.117 436.67 145.773 436.485 145.901C435.864 146.343 435.472 146.792 435.158 147.312C434.959 147.633 434.795 147.975 434.617 148.353C434.609 148.36 434.609 148.367 434.609 148.367C434.21 149.244 433.754 150.334 432.798 151.781C431.493 153.763 430.88 153.941 430.588 155.303C430.324 156.635 430.524 158.225 431.08 158.874Z" fill="#FAC137"/>
<path d="M428.427 133.42C428.563 133.42 428.698 133.335 428.748 133.2C428.82 133.021 428.734 132.822 428.556 132.75L414.145 126.998C413.967 126.927 413.767 127.013 413.696 127.191C413.625 127.369 413.71 127.568 413.889 127.64L428.299 133.392C428.342 133.413 428.385 133.42 428.427 133.42Z" fill="#020617" stroke="#020617" stroke-miterlimit="10"/>
<path d="M448.392 150.42C448.449 150.42 448.513 150.406 448.571 150.37C449.54 149.8 450.931 148.759 452.029 147.041C453.17 145.26 453.526 143.485 453.619 142.323C453.633 142.13 453.491 141.966 453.298 141.952C453.113 141.938 452.941 142.08 452.927 142.273C452.842 143.363 452.506 145.01 451.444 146.678C450.417 148.282 449.127 149.251 448.221 149.786C448.057 149.886 448 150.092 448.1 150.263C448.157 150.356 448.271 150.42 448.392 150.42Z" fill="#020617" stroke="#020617" stroke-miterlimit="10"/>
<path d="M434.623 148.717C434.73 148.717 434.823 148.667 434.887 148.589L434.944 148.539L434.965 148.418C434.973 148.375 435.08 148.018 435.351 147.412C436.199 145.545 438.324 141.974 443.009 139.116C443.173 139.016 443.222 138.802 443.123 138.638C443.023 138.474 442.809 138.424 442.645 138.524C437.803 141.482 435.593 145.189 434.709 147.127C434.502 147.591 434.374 147.947 434.31 148.147L434.281 148.168L434.26 148.332C434.245 148.524 434.388 148.688 434.58 148.703C434.602 148.717 434.609 148.717 434.623 148.717Z" fill="#020617" stroke="#020617" stroke-miterlimit="10"/>
<path d="M429.019 131.153V137.76C429.047 137.775 429.076 137.782 429.104 137.796C431.443 138.737 433.761 139.699 436.035 140.662C435.971 140.961 435.985 140.897 435.907 141.203C434.067 141.168 432.605 141.089 431.664 141.039C430.673 140.982 429.789 140.94 429.012 140.89V144.511C432.37 144.995 435.728 145.487 439.094 145.965C438.916 146.485 438.844 146.82 438.837 146.884C438.83 146.891 438.83 146.898 438.83 146.898C438.566 147.661 438.267 148.595 437.582 149.871C436.648 151.61 436.149 151.81 436.014 152.957C435.885 154.076 436.178 155.381 436.684 155.88L437.967 155.331L439.336 154.739C439.336 154.739 440.37 153.634 441.597 151.895C442.524 150.584 443.565 148.909 444.363 147.084C444.798 146.093 445.162 145.074 445.39 144.026C445.996 141.282 445.74 138.445 443.6 136.085C437.126 128.936 429.019 131.153 429.019 131.153Z" fill="#020617"/>
<path d="M422.744 170.335C411.885 166.622 401.025 162.915 390.166 159.201L395.335 109.912L378.13 102.335L360.924 166.059C360.838 166.971 360.817 168.332 361.252 169.858C363.12 176.38 371.398 179.202 375.185 180.535C385.388 184.135 399.392 189.816 417.218 197.115C419.058 188.191 420.905 179.267 422.744 170.335Z" fill="#FAC137"/>
<path d="M379.42 351.962L385.78 384.722L409.282 380.16L403.514 350.451L379.42 351.962Z" fill="#FAC137"/>
<path d="M416.485 394.316H353.359V389.961C354.329 389.234 355.819 388.186 357.716 387.06C364.212 383.203 368.283 382.783 372.954 380.53C375.891 379.119 379.842 376.603 383.835 371.827C383.856 371.827 387.393 371.927 387.414 371.927H387.45C389.66 371.991 391.707 373.146 392.897 375.006L394.48 377.472C395.179 378.563 396.505 379.062 397.746 378.691C398.623 378.435 399.329 377.786 399.65 376.924C400.655 374.236 403.229 372.462 406.089 372.462H406.288C406.787 372.476 407.279 372.49 407.786 372.504L414.752 389.953L416.485 394.316Z" fill="#3940A0"/>
<path d="M416.485 394.316H353.359V389.961H414.745L416.485 394.316Z" fill="#020617"/>
<path d="M386.565 386.511C386.601 386.511 386.644 386.504 386.679 386.489C386.836 386.425 386.908 386.254 386.843 386.097C386.815 386.026 383.792 378.87 375.627 379.575C375.463 379.59 375.342 379.739 375.356 379.903C375.371 380.067 375.513 380.188 375.684 380.174C383.421 379.49 386.266 386.254 386.294 386.325C386.337 386.44 386.444 386.511 386.565 386.511Z" fill="#020617" stroke="#020617" stroke-miterlimit="10"/>
<path d="M353.43 390.559C353.508 390.559 353.594 390.524 353.651 390.46C354.107 389.961 354.592 389.469 355.105 389.006C358.571 385.862 362.057 384.821 365.744 383.724C368.91 382.783 372.183 381.806 375.719 379.454C377.302 378.399 378.807 377.152 380.19 375.726C380.304 375.605 380.304 375.42 380.183 375.299C380.062 375.184 379.876 375.184 379.755 375.306C378.4 376.696 376.924 377.922 375.377 378.948C371.912 381.25 368.689 382.213 365.566 383.146C361.808 384.265 358.264 385.327 354.699 388.564C354.171 389.041 353.672 389.547 353.201 390.06C353.087 390.182 353.102 390.374 353.223 390.481C353.287 390.538 353.358 390.559 353.43 390.559Z" fill="#020617" stroke="#020617" stroke-miterlimit="10"/>
<path d="M326.926 282.023C333.094 308.838 339.276 335.654 345.444 362.469H381.538C377.452 339.16 373.366 315.845 369.281 292.544C375.156 292.601 381.046 292.665 386.921 292.722C403.065 292.879 419.208 293.05 435.344 293.214L429.212 256.904C413.261 257.204 397.296 257.503 381.338 257.802C374.115 257.938 366.885 258.073 359.655 258.209C354.963 258.294 350.285 258.387 345.593 258.472C333.215 258.708 324.188 270.105 326.926 282.023Z" fill="#4659CA"/>
<path d="M355.533 282.344C361.701 309.501 367.883 336.644 374.051 363.801H410.145C406.316 341.691 402.494 319.594 398.665 297.483C398.415 296.008 398.152 294.532 397.902 293.064C397.895 293.043 397.895 293.014 397.888 293C415.429 293.178 432.969 293.356 450.51 293.541C458.831 293.627 465.484 286.492 464.657 278.209C464.65 278.145 464.643 278.081 464.636 278.017C463.637 268.423 460.243 261.159 457.819 256.911C429.953 257.446 402.073 257.966 374.201 258.501C361.822 258.729 352.788 270.276 355.533 282.344Z" fill="#7997E1"/>
<path d="M383.748 291.881L398.665 297.476C398.416 296.001 398.152 294.525 397.902 293.057L383.748 291.881Z" fill="#111111"/>
<path d="M387.128 115.964C385.188 117.268 382.579 116.919 381.046 115.144C380.753 114.802 380.447 114.446 380.133 114.068C376.525 109.706 374.643 106.313 372.66 103.155C370.849 100.268 368.09 96.1912 364.147 91.4867C364.104 91.28 364.061 90.9379 364.211 90.5744C364.211 90.5744 364.453 89.997 365.245 89.662C366.607 89.0775 372.782 96.462 374.771 98.8855L375.127 98.4792C372.275 93.5895 369.423 88.6997 366.564 83.81C366.329 83.1542 365.402 80.4884 366.179 79.9965C366.35 79.8825 366.721 79.8112 367.569 80.3387C366.935 79.6687 366.714 78.7919 367.02 78.1076C367.206 77.7014 367.519 77.4733 367.648 77.3877C368.453 76.8603 369.573 76.9814 369.83 77.2523C372.625 80.2745 375.498 83.311 378.443 86.3689C380.432 88.436 382.422 90.4675 384.404 92.4561C384.696 92.2566 384.632 92.2993 384.925 92.0997C384.105 90.1752 383.406 88.657 382.957 87.6947C380.703 82.8905 379.577 80.4955 379.384 80.1961C379.384 80.1961 378.678 79.1341 377.851 76.233C377.816 76.1047 377.716 75.7554 377.816 75.3278C377.901 74.9215 378.165 74.4225 378.55 74.2229C379.17 73.9022 380.219 74.2728 380.817 75.3349C384.582 81.8355 388.347 88.3362 392.112 94.844C392.112 94.844 394.444 97.6239 396.69 101.993C398.33 105.179 397.296 109.1 394.322 111.103L387.128 115.964Z" fill="#FAC137"/>
<path d="M397.517 104.017C398.201 101.865 398.472 100.068 398.593 98.8138C398.964 94.9576 398.151 93.8528 399.035 91.3366C399.941 88.7563 401.559 87.7584 401.082 87.0171C400.625 86.3114 398.729 86.5253 397.374 87.2594C396.219 87.8938 396.212 88.4997 394.779 90.2246C392.532 92.9119 391.163 93.0758 390.45 95.1643C390.386 95.3639 390.037 96.4046 390.137 97.5094C390.379 100.289 393.395 102.813 397.517 104.017Z" fill="#FAC137"/>
<path d="M376.611 91.6579C376.682 91.6579 376.753 91.6365 376.818 91.5866C376.96 91.4726 376.982 91.2658 376.868 91.1233L367.734 79.626C367.619 79.4834 367.413 79.462 367.27 79.5761C367.127 79.6901 367.106 79.8968 367.22 80.0394L376.354 91.5367C376.418 91.6222 376.511 91.6579 376.611 91.6579Z" fill="#020617" stroke="#020617" stroke-miterlimit="10"/>
<path d="M391.72 111.673C391.762 111.673 391.798 111.666 391.841 111.651C392.875 111.245 394.379 110.447 395.691 108.929C396.69 107.774 397.41 106.377 397.773 104.887C397.816 104.709 397.709 104.531 397.531 104.488C397.36 104.445 397.174 104.552 397.132 104.73C396.896 105.7 396.361 107.132 395.192 108.501C393.973 109.919 392.568 110.668 391.598 111.046C391.427 111.11 391.349 111.302 391.413 111.473C391.463 111.594 391.584 111.673 391.72 111.673Z" fill="#020617" stroke="#020617" stroke-miterlimit="10"/>
<path d="M385.745 103.162C385.887 103.162 386.023 103.063 386.058 102.92C387.862 96.0345 392.305 93.1049 392.348 93.0764C392.497 92.9766 392.547 92.777 392.447 92.6202C392.348 92.4705 392.148 92.4278 391.991 92.5204C391.798 92.6416 387.292 95.6068 385.424 102.756C385.381 102.934 385.481 103.113 385.659 103.155C385.688 103.155 385.716 103.162 385.745 103.162Z" fill="#020617" stroke="#020617" stroke-miterlimit="10"/>
<path d="M403.207 247.352C403.357 251.786 403.685 255.421 403.942 257.823C423.85 260.568 443.765 263.305 463.673 266.049C463.003 252.627 462.874 237.844 463.673 221.92C464.372 207.942 465.698 194.941 467.359 183.03C466.661 182.025 460.493 173.579 450.047 168.14C444.449 165.225 437.626 163.172 429.754 163.585C426.238 163.771 423.022 164.426 420.135 165.324C412.391 167.748 407.022 172.01 404.676 174.049C406.722 197.764 405.924 212.183 404.676 221.165C404.262 224.201 402.758 234.087 403.207 247.352Z" fill="white"/>
<path d="M454.988 195.832C455.352 196.659 455.73 197.493 456.143 198.327C457.562 201.193 459.095 203.744 460.642 205.997C461.555 207.323 462.461 208.549 463.366 209.668C469.613 204.628 475.866 199.596 482.112 194.556C477.442 184.977 472.771 175.389 468.101 165.81C461.954 166.544 455.808 167.285 449.669 168.019C449.498 174.406 450.097 184.706 454.988 195.832Z" fill="white"/>
<path d="M416.912 166.145L395.3 160.563L381.545 183.793L417.126 205.705C417.126 205.712 429.739 177.328 416.912 166.145Z" fill="white"/>
<path d="M464.414 165.061L479.16 198.969L485.798 191.598L474.739 160.635L464.414 165.061Z" fill="#7997E1"/>
<path d="M400.298 161.846L384.034 187.913L378.515 183.137L392.148 156.949L400.298 161.846Z" fill="#7997E1"/>
<path d="M430.488 180.543L428.277 198.234C428.277 198.234 424.591 198.234 424.591 196.025C424.591 193.815 426.067 179.809 426.067 179.809L430.488 180.543Z" fill="#7997E1"/>
<path d="M420.135 165.303L426.06 179.802L429.012 183.487L430.231 182.596L450.047 168.076C444.449 165.204 437.625 163.179 429.753 163.586C426.238 163.771 423.022 164.412 420.135 165.303Z" fill="#7997E1"/>
<path d="M445.091 169.78C439.558 172.923 434.032 176.059 428.498 179.203C427.35 176.067 426.202 172.937 425.054 169.801C425.297 168.867 425.525 167.941 425.767 167.007C426.573 163.828 427.386 160.642 428.199 157.463C428.62 155.823 429.033 154.177 429.454 152.537C430.695 152.11 431.985 151.632 433.311 151.083C434.445 150.62 435.529 150.142 436.563 149.672C439.408 156.372 442.253 163.079 445.091 169.78Z" fill="#FAC137"/>
<path d="M435.301 159.409C435.301 159.409 431.821 165.047 425.774 167.007C426.58 163.828 427.393 160.642 428.206 157.463L430.93 156.693L435.301 159.409Z" fill="#020617"/>
<path d="M438.574 149.643C438.324 151.254 437.868 154.191 435.665 156.465C433.49 158.703 430.859 159.024 429.29 159.216C427.251 159.466 425.112 159.722 423.272 158.311C421.375 156.85 420.912 154.462 420.163 150.584C419.4 146.621 419.857 143.927 420.014 143.107C420.213 142.052 420.477 141.254 420.612 140.848C421.589 137.79 423.622 133.492 427.451 132.693C430.702 132.023 433.44 134.247 434.018 134.71C438.574 138.403 439.244 145.302 438.574 149.643Z" fill="#FAC137"/>
<path d="M433.74 133.413C433.119 134.539 421.618 137.626 418.274 130.961C414.93 124.297 422.802 121.866 427.957 128.203L433.74 133.413Z" fill="#020617"/>
<path d="M421.504 131.789C421.504 131.789 434.274 126.15 440.87 131.81C447.466 137.47 440.257 142.039 440.257 142.039C439.173 142.117 434.609 142.331 431.059 139.095C429.768 137.919 428.984 136.621 428.513 135.623C426.174 134.34 423.843 133.064 421.504 131.789Z" fill="#020617"/>
<path d="M427.692 143.542C428.077 143.278 428.933 142.787 430.074 142.787C432.384 142.787 433.739 144.804 433.853 144.982C433.61 145.117 431.649 146.165 429.617 145.246C428.541 144.754 427.942 143.941 427.692 143.542Z" fill="white"/>
<path d="M424.627 143.122C424.384 143.257 422.424 144.298 420.391 143.385C420.263 143.328 420.142 143.264 420.028 143.2C420.156 142.637 420.37 141.839 420.684 140.933C420.741 140.933 420.791 140.926 420.848 140.926C421.04 140.926 421.233 140.941 421.411 140.969C421.696 141.005 421.967 141.083 422.21 141.176C423.693 141.717 424.541 142.979 424.627 143.122Z" fill="white"/>
<path d="M419.764 144.248C419.115 146.864 418.431 150.52 418.281 154.961C418.188 157.748 418.374 158.781 418.687 159.423C418.723 159.494 418.794 159.622 418.88 159.758C420.128 161.704 423.415 162.003 424.812 162.117C427.729 162.352 431.109 162.623 434.004 160.563C436.585 158.724 437.376 156.051 438.567 152.031C439.273 149.651 439.551 147.612 439.672 146.222C438.382 146.578 437.098 146.942 435.807 147.298C434.203 149.016 432.606 149.693 431.722 149.978C430.688 150.313 428.599 150.149 424.427 149.822C423.821 149.772 423.215 149.722 422.573 149.33C421.661 148.774 421.233 147.861 420.57 146.422C420.199 145.573 419.942 144.825 419.764 144.248Z" fill="#020617"/>
<path d="M439.407 143.328C439.407 143.328 443.087 139.166 444.313 143.029C445.532 146.892 444.734 149.893 439.771 149.216C439.771 149.209 435.792 148.468 439.407 143.328Z" fill="#FAC137"/>
<path d="M436.577 139.957C436.884 140.741 437.369 142.309 437.069 144.248C436.549 147.598 434.082 149.459 433.547 149.851C435.187 150.157 436.82 150.457 438.46 150.763C439.244 147.071 440.029 143.386 440.813 139.693L436.577 139.957Z" fill="#111111"/>
<path d="M431.285 144.298C431.157 144.968 430.551 145.417 429.924 145.296C429.297 145.182 428.898 144.54 429.019 143.87C429.147 143.2 429.753 142.751 430.38 142.872C431.007 142.993 431.414 143.628 431.285 144.298Z" fill="#020617"/>
<path d="M422.672 142.401C422.544 143.071 421.938 143.52 421.311 143.399C420.683 143.285 420.284 142.644 420.405 141.974C420.534 141.304 421.14 140.855 421.767 140.976C422.394 141.097 422.793 141.731 422.672 142.401Z" fill="#020617"/>
<path d="M424.227 150.029C424.719 150.029 425.14 149.915 425.453 149.801C425.646 149.729 425.739 149.515 425.667 149.323C425.596 149.131 425.382 149.038 425.19 149.109C424.819 149.252 424.241 149.38 423.607 149.209C423.328 149.138 423.015 149.052 422.865 148.845C422.637 148.532 422.822 147.805 423.5 146.422C424.099 145.196 424.819 143.984 425.639 142.844C425.76 142.68 425.717 142.445 425.553 142.331C425.389 142.217 425.154 142.252 425.04 142.416C424.198 143.592 423.457 144.832 422.844 146.101C422.109 147.605 421.781 148.61 422.273 149.28C422.573 149.694 423.058 149.822 423.414 149.922C423.699 149.993 423.97 150.029 424.227 150.029Z" fill="#020617" stroke="#020617" stroke-miterlimit="10"/>
<path d="M430.481 138.966C431.622 138.595 432.827 139.529 433.404 139.971C434.723 140.997 435.7 142.473 435.479 142.701C435.308 142.872 434.602 142.095 432.641 141.09C430.937 140.22 429.768 139.942 429.803 139.479C429.825 139.18 430.374 139.002 430.481 138.966Z" fill="#020617"/>
<path d="M421.789 137.976C422.409 137.184 423.664 137.526 424.263 137.683C425.639 138.061 426.98 138.981 426.93 139.266C426.887 139.487 426.046 139.08 424.242 138.988C422.673 138.909 421.732 139.13 421.553 138.71C421.432 138.432 421.732 138.054 421.789 137.976Z" fill="#020617"/>
<path d="M433.654 145.075C433.754 145.075 433.853 145.032 433.925 144.954C434.06 144.804 434.053 144.569 433.903 144.433C430.652 141.454 428.206 142.822 428.106 142.879C427.928 142.979 427.871 143.207 427.971 143.386C428.071 143.564 428.299 143.621 428.47 143.521C428.556 143.471 430.581 142.395 433.404 144.982C433.476 145.046 433.561 145.075 433.654 145.075Z" fill="#020617" stroke="#020617" stroke-miterlimit="10"/>
<path d="M424.191 142.922C424.234 142.922 424.277 142.915 424.32 142.901C424.512 142.83 424.605 142.623 424.541 142.438C424.512 142.359 423.849 140.606 420.569 140.848C420.37 140.862 420.213 141.041 420.227 141.24C420.241 141.447 420.419 141.597 420.619 141.582C423.307 141.39 423.828 142.637 423.842 142.687C423.899 142.837 424.042 142.922 424.191 142.922Z" fill="#020617" stroke="#020617" stroke-miterlimit="10"/>
<path d="M440.969 147.498C440.976 147.498 440.976 147.498 440.969 147.498C441.646 147.477 442.281 147.185 442.716 146.686C443.101 146.244 443.279 145.695 443.222 145.168C443.122 144.291 442.366 143.557 441.397 143.379C441.276 143.357 441.155 143.436 441.133 143.564C441.112 143.685 441.19 143.806 441.319 143.828C442.088 143.963 442.701 144.555 442.773 145.218C442.815 145.617 442.673 146.037 442.373 146.386C442.024 146.786 441.511 147.028 440.969 147.042C440.841 147.049 440.748 147.149 440.748 147.277C440.748 147.406 440.848 147.498 440.969 147.498Z" fill="#020617"/>
<path d="M440.969 147.498C440.976 147.498 440.976 147.498 440.969 147.498ZM440.969 147.498C441.646 147.477 442.281 147.185 442.716 146.686C443.101 146.244 443.279 145.695 443.222 145.168C443.122 144.291 442.366 143.557 441.397 143.379C441.276 143.357 441.155 143.436 441.133 143.564C441.112 143.685 441.19 143.806 441.319 143.828C442.088 143.963 442.701 144.555 442.773 145.218C442.815 145.617 442.673 146.037 442.373 146.386C442.024 146.786 441.511 147.028 440.969 147.042C440.841 147.049 440.748 147.149 440.748 147.277C440.748 147.406 440.848 147.498 440.969 147.498Z" stroke="#020617" stroke-miterlimit="10"/>
<path d="M421.639 153.229C421.732 153.229 421.824 153.193 421.903 153.122C423.778 151.247 427.001 152.502 427.037 152.516C427.222 152.587 427.443 152.502 427.514 152.31C427.593 152.117 427.5 151.903 427.308 151.832C427.158 151.775 423.6 150.385 421.382 152.602C421.24 152.744 421.24 152.98 421.382 153.122C421.453 153.193 421.546 153.229 421.639 153.229Z" fill="#FAC137"/>
<path d="M423.087 154.519C423.158 154.519 423.222 154.498 423.286 154.462C423.771 154.149 424.633 154.241 424.926 154.306C425.125 154.348 425.318 154.22 425.36 154.02C425.403 153.821 425.275 153.628 425.082 153.586C425.025 153.571 423.735 153.3 422.894 153.842C422.723 153.949 422.673 154.177 422.78 154.348C422.844 154.455 422.965 154.519 423.087 154.519Z" fill="#FAC137"/>
<path d="M479.873 251.202L472.571 281.51C471.958 284.034 470.817 286.315 469.291 288.26C465.968 292.487 460.813 295.132 455.152 295.132H410.387V277.291C410.387 262.878 422.116 251.195 436.598 251.195H479.873V251.202Z" fill="#3940A0"/>
<path d="M409.974 295.139H411.45V276.221C411.45 272.5 412.241 268.929 413.731 265.893C417.51 258.223 424.47 254.545 429.646 252.806C432.064 251.993 434.645 251.58 437.304 251.58H479.98V250.104H437.304C434.481 250.104 431.75 250.539 429.176 251.409C423.735 253.241 416.405 257.125 412.405 265.244C410.808 268.48 409.966 272.272 409.966 276.221V295.139H409.974Z" fill="white"/>
<path d="M314.476 182.026L324.722 226.404C324.986 227.545 326.005 228.357 327.175 228.357H396.782C398.4 228.357 399.598 226.853 399.235 225.271L388.988 180.892C388.724 179.752 387.705 178.939 386.535 178.939H316.928C315.31 178.939 314.112 180.451 314.476 182.026Z" fill="#F66B00"/>
<path d="M326.511 231.365H418.565C419.278 231.365 419.862 230.788 419.862 230.068V229.041C419.862 228.329 419.285 227.744 418.565 227.744H326.511C325.798 227.744 325.214 228.322 325.214 229.041V230.068C325.221 230.788 325.798 231.365 326.511 231.365Z" fill="#F66B00"/>
<path d="M317.042 183.359L326.668 225.05C326.918 226.126 327.873 226.882 328.971 226.882H394.364C395.883 226.882 397.01 225.463 396.667 223.988L387.041 182.297C386.792 181.22 385.836 180.465 384.738 180.465H319.345C317.827 180.458 316.7 181.876 317.042 183.359ZM317.934 181.698C318.283 181.263 318.796 181.014 319.353 181.014H384.745C385.594 181.014 386.321 181.591 386.514 182.418L396.14 224.109C396.268 224.651 396.14 225.207 395.79 225.642C395.441 226.076 394.928 226.326 394.372 226.326H328.979C328.13 226.326 327.403 225.749 327.21 224.922L317.584 183.231C317.456 182.689 317.584 182.133 317.934 181.698Z" fill="white" stroke="white" stroke-miterlimit="10"/>
<path d="M346.904 200.523C347.083 201.292 347.767 201.834 348.559 201.834H357.529C358.62 201.834 359.425 200.822 359.183 199.753C359.005 198.983 358.32 198.434 357.529 198.434H348.559C347.461 198.441 346.655 199.46 346.904 200.523Z" fill="#BFE8E4"/>
<path d="M261.816 240.489L254.774 394.747L255.508 394.781L262.549 240.523L261.816 240.489Z" fill="#020617" stroke="#020617" stroke-miterlimit="10"/>
<path d="M475.305 240.488L474.572 240.521L481.521 394.779L482.254 394.746L475.305 240.488Z" fill="#020617" stroke="#020617" stroke-miterlimit="10"/>
<path d="M243.961 240.494L236.917 394.752L237.651 394.785L244.694 240.528L243.961 240.494Z" fill="#020617" stroke="#020617" stroke-miterlimit="10"/>
<path d="M493.318 240.486L492.584 240.519L499.533 394.777L500.266 394.744L493.318 240.486Z" fill="#020617" stroke="#020617" stroke-miterlimit="10"/>
<path d="M509 231.451H232.091V240.525H509V231.451Z" fill="#303778"/>
<path d="M494.989 275.68H242.687V276.414H494.989V275.68Z" fill="#020617" stroke="#020617" stroke-miterlimit="10"/>
<circle cx="427.451" cy="57" r="28" fill="#7997E1"/>
<path d="M414.475 57.488V58.136C414.475 59.336 414.091 60.308 413.323 61.052C412.555 61.796 411.563 62.168 410.347 62.168C409.051 62.168 407.975 61.748 407.119 60.908C406.271 60.06 405.847 59.028 405.847 57.812C405.847 56.588 406.267 55.552 407.107 54.704C407.955 53.856 409.003 53.432 410.251 53.432C411.035 53.432 411.751 53.612 412.399 53.972C413.047 54.324 413.551 54.796 413.911 55.388L412.495 56.204C412.295 55.86 411.991 55.58 411.583 55.364C411.183 55.148 410.735 55.04 410.239 55.04C409.439 55.04 408.779 55.304 408.259 55.832C407.747 56.352 407.491 57.012 407.491 57.812C407.491 58.604 407.751 59.26 408.271 59.78C408.799 60.292 409.495 60.548 410.359 60.548C410.999 60.548 411.527 60.408 411.943 60.128C412.367 59.84 412.655 59.448 412.807 58.952H410.263V57.488H414.475ZM420.813 61.256C420.197 61.864 419.445 62.168 418.557 62.168C417.669 62.168 416.917 61.864 416.301 61.256C415.693 60.64 415.389 59.888 415.389 59C415.389 58.112 415.693 57.364 416.301 56.756C416.917 56.14 417.669 55.832 418.557 55.832C419.445 55.832 420.197 56.14 420.813 56.756C421.429 57.364 421.737 58.112 421.737 59C421.737 59.888 421.429 60.64 420.813 61.256ZM417.393 60.188C417.705 60.5 418.093 60.656 418.557 60.656C419.021 60.656 419.409 60.5 419.721 60.188C420.033 59.876 420.189 59.48 420.189 59C420.189 58.52 420.033 58.124 419.721 57.812C419.409 57.5 419.021 57.344 418.557 57.344C418.093 57.344 417.705 57.5 417.393 57.812C417.089 58.124 416.937 58.52 416.937 59C416.937 59.48 417.089 59.876 417.393 60.188ZM424.674 60.416H427.878V62H423.018V53.6H424.674V60.416ZM433.31 56H434.858V62H433.31V61.292C432.846 61.876 432.194 62.168 431.354 62.168C430.554 62.168 429.866 61.864 429.29 61.256C428.722 60.64 428.438 59.888 428.438 59C428.438 58.112 428.722 57.364 429.29 56.756C429.866 56.14 430.554 55.832 431.354 55.832C432.194 55.832 432.846 56.124 433.31 56.708V56ZM430.454 60.224C430.766 60.536 431.162 60.692 431.642 60.692C432.122 60.692 432.518 60.536 432.83 60.224C433.15 59.904 433.31 59.496 433.31 59C433.31 58.504 433.15 58.1 432.83 57.788C432.518 57.468 432.122 57.308 431.642 57.308C431.162 57.308 430.766 57.468 430.454 57.788C430.142 58.1 429.986 58.504 429.986 59C429.986 59.496 430.142 59.904 430.454 60.224ZM439.717 55.832C440.373 55.832 440.913 56.052 441.337 56.492C441.769 56.932 441.985 57.54 441.985 58.316V62H440.437V58.508C440.437 58.108 440.329 57.804 440.113 57.596C439.897 57.38 439.609 57.272 439.249 57.272C438.849 57.272 438.529 57.396 438.289 57.644C438.049 57.892 437.929 58.264 437.929 58.76V62H436.381V56H437.929V56.672C438.305 56.112 438.901 55.832 439.717 55.832ZM448.023 56H449.535V61.712C449.535 62.64 449.227 63.348 448.611 63.836C448.003 64.324 447.267 64.568 446.403 64.568C445.755 64.568 445.183 64.444 444.687 64.196C444.199 63.948 443.823 63.584 443.559 63.104L444.879 62.348C445.183 62.908 445.707 63.188 446.451 63.188C446.939 63.188 447.323 63.06 447.603 62.804C447.883 62.548 448.023 62.184 448.023 61.712V61.064C447.567 61.672 446.927 61.976 446.103 61.976C445.255 61.976 444.543 61.68 443.967 61.088C443.399 60.488 443.115 59.76 443.115 58.904C443.115 58.056 443.403 57.332 443.979 56.732C444.555 56.132 445.263 55.832 446.103 55.832C446.927 55.832 447.567 56.136 448.023 56.744V56ZM445.131 60.092C445.451 60.396 445.855 60.548 446.343 60.548C446.831 60.548 447.231 60.396 447.543 60.092C447.863 59.78 448.023 59.384 448.023 58.904C448.023 58.432 447.863 58.044 447.543 57.74C447.231 57.428 446.831 57.272 446.343 57.272C445.855 57.272 445.451 57.428 445.131 57.74C444.819 58.044 444.663 58.432 444.663 58.904C444.663 59.384 444.819 59.78 445.131 60.092Z" fill="white"/>
<circle cx="469.451" cy="100" r="24" fill="#303778"/>
<path d="M458.839 103L457.147 100.084H455.887V103H454.231V94.6H457.591C458.367 94.6 459.027 94.872 459.571 95.416C460.115 95.96 460.387 96.616 460.387 97.384C460.387 97.904 460.239 98.388 459.943 98.836C459.647 99.276 459.255 99.608 458.767 99.832L460.627 103H458.839ZM455.887 96.148V98.632H457.591C457.903 98.632 458.171 98.512 458.395 98.272C458.619 98.024 458.731 97.728 458.731 97.384C458.731 97.04 458.619 96.748 458.395 96.508C458.171 96.268 457.903 96.148 457.591 96.148H455.887ZM462.654 100.636C462.862 101.388 463.426 101.764 464.346 101.764C464.938 101.764 465.386 101.564 465.69 101.164L466.938 101.884C466.346 102.74 465.474 103.168 464.322 103.168C463.33 103.168 462.534 102.868 461.934 102.268C461.334 101.668 461.034 100.912 461.034 100C461.034 99.096 461.33 98.344 461.922 97.744C462.514 97.136 463.274 96.832 464.202 96.832C465.082 96.832 465.806 97.136 466.374 97.744C466.95 98.352 467.238 99.104 467.238 100C467.238 100.2 467.218 100.412 467.178 100.636H462.654ZM462.63 99.436H465.69C465.602 99.028 465.418 98.724 465.138 98.524C464.866 98.324 464.554 98.224 464.202 98.224C463.786 98.224 463.442 98.332 463.17 98.548C462.898 98.756 462.718 99.052 462.63 99.436ZM472.951 97H474.499V103H472.951V102.292C472.487 102.876 471.835 103.168 470.995 103.168C470.195 103.168 469.507 102.864 468.931 102.256C468.363 101.64 468.079 100.888 468.079 100C468.079 99.112 468.363 98.364 468.931 97.756C469.507 97.14 470.195 96.832 470.995 96.832C471.835 96.832 472.487 97.124 472.951 97.708V97ZM470.095 101.224C470.407 101.536 470.803 101.692 471.283 101.692C471.763 101.692 472.159 101.536 472.471 101.224C472.791 100.904 472.951 100.496 472.951 100C472.951 99.504 472.791 99.1 472.471 98.788C472.159 98.468 471.763 98.308 471.283 98.308C470.803 98.308 470.407 98.468 470.095 98.788C469.783 99.1 469.627 99.504 469.627 100C469.627 100.496 469.783 100.904 470.095 101.224ZM478.879 103.168C477.975 103.168 477.219 102.864 476.611 102.256C476.011 101.648 475.711 100.896 475.711 100C475.711 99.104 476.011 98.352 476.611 97.744C477.219 97.136 477.975 96.832 478.879 96.832C479.463 96.832 479.995 96.972 480.475 97.252C480.955 97.532 481.319 97.908 481.567 98.38L480.235 99.16C480.115 98.912 479.931 98.716 479.683 98.572C479.443 98.428 479.171 98.356 478.867 98.356C478.403 98.356 478.019 98.512 477.715 98.824C477.411 99.128 477.259 99.52 477.259 100C477.259 100.472 477.411 100.864 477.715 101.176C478.019 101.48 478.403 101.632 478.867 101.632C479.179 101.632 479.455 101.564 479.695 101.428C479.943 101.284 480.127 101.088 480.247 100.84L481.591 101.608C481.327 102.08 480.955 102.46 480.475 102.748C479.995 103.028 479.463 103.168 478.879 103.168ZM485.962 98.488H484.606V100.984C484.606 101.192 484.658 101.344 484.762 101.44C484.866 101.536 485.018 101.592 485.218 101.608C485.418 101.616 485.666 101.612 485.962 101.596V103C484.898 103.12 484.146 103.02 483.706 102.7C483.274 102.38 483.058 101.808 483.058 100.984V98.488H482.014V97H483.058V95.788L484.606 95.32V97H485.962V98.488Z" fill="white"/>
<circle cx="327.451" cy="41" r="24" fill="#6E77BF"/>
<path d="M309.567 35.6C310.719 35.6 311.679 36.004 312.447 36.812C313.223 37.62 313.611 38.616 313.611 39.8C313.611 40.984 313.223 41.98 312.447 42.788C311.679 43.596 310.719 44 309.567 44H306.231V35.6H309.567ZM309.567 42.416C310.295 42.416 310.887 42.176 311.343 41.696C311.799 41.208 312.027 40.576 312.027 39.8C312.027 39.024 311.799 38.396 311.343 37.916C310.887 37.428 310.295 37.184 309.567 37.184H307.887V42.416H309.567ZM316.142 41.636C316.35 42.388 316.914 42.764 317.834 42.764C318.426 42.764 318.874 42.564 319.178 42.164L320.426 42.884C319.834 43.74 318.962 44.168 317.81 44.168C316.818 44.168 316.022 43.868 315.422 43.268C314.822 42.668 314.522 41.912 314.522 41C314.522 40.096 314.818 39.344 315.41 38.744C316.002 38.136 316.762 37.832 317.69 37.832C318.57 37.832 319.294 38.136 319.862 38.744C320.438 39.352 320.726 40.104 320.726 41C320.726 41.2 320.706 41.412 320.666 41.636H316.142ZM316.118 40.436H319.178C319.09 40.028 318.906 39.724 318.626 39.524C318.354 39.324 318.042 39.224 317.69 39.224C317.274 39.224 316.93 39.332 316.658 39.548C316.386 39.756 316.206 40.052 316.118 40.436ZM325.64 38H327.344L325.064 44H323.3L321.02 38H322.724L324.176 42.2L325.64 38ZM335.351 42.908C334.503 43.748 333.471 44.168 332.255 44.168C331.039 44.168 330.007 43.748 329.159 42.908C328.319 42.06 327.899 41.024 327.899 39.8C327.899 38.576 328.319 37.544 329.159 36.704C330.007 35.856 331.039 35.432 332.255 35.432C333.471 35.432 334.503 35.856 335.351 36.704C336.199 37.544 336.623 38.576 336.623 39.8C336.623 41.024 336.199 42.06 335.351 42.908ZM330.323 41.78C330.843 42.292 331.487 42.548 332.255 42.548C333.023 42.548 333.667 42.292 334.187 41.78C334.707 41.26 334.967 40.6 334.967 39.8C334.967 39 334.707 38.34 334.187 37.82C333.667 37.3 333.023 37.04 332.255 37.04C331.487 37.04 330.843 37.3 330.323 37.82C329.803 38.34 329.543 39 329.543 39.8C329.543 40.6 329.803 41.26 330.323 41.78ZM341.327 37.832C342.135 37.832 342.823 38.14 343.391 38.756C343.967 39.364 344.255 40.112 344.255 41C344.255 41.888 343.967 42.64 343.391 43.256C342.823 43.864 342.135 44.168 341.327 44.168C340.487 44.168 339.839 43.876 339.383 43.292V46.4H337.835V38H339.383V38.708C339.839 38.124 340.487 37.832 341.327 37.832ZM339.851 42.224C340.163 42.536 340.559 42.692 341.039 42.692C341.519 42.692 341.915 42.536 342.227 42.224C342.547 41.904 342.707 41.496 342.707 41C342.707 40.504 342.547 40.1 342.227 39.788C341.915 39.468 341.519 39.308 341.039 39.308C340.559 39.308 340.163 39.468 339.851 39.788C339.539 40.1 339.383 40.504 339.383 41C339.383 41.496 339.539 41.904 339.851 42.224ZM346.765 39.704C346.765 39.864 346.869 39.996 347.077 40.1C347.293 40.196 347.553 40.284 347.857 40.364C348.161 40.436 348.465 40.532 348.769 40.652C349.073 40.764 349.329 40.956 349.537 41.228C349.753 41.5 349.861 41.84 349.861 42.248C349.861 42.864 349.629 43.34 349.165 43.676C348.709 44.004 348.137 44.168 347.449 44.168C346.217 44.168 345.377 43.692 344.929 42.74L346.273 41.984C346.449 42.504 346.841 42.764 347.449 42.764C348.001 42.764 348.277 42.592 348.277 42.248C348.277 42.088 348.169 41.96 347.953 41.864C347.745 41.76 347.489 41.668 347.185 41.588C346.881 41.508 346.577 41.408 346.273 41.288C345.969 41.168 345.709 40.98 345.493 40.724C345.285 40.46 345.181 40.132 345.181 39.74C345.181 39.148 345.397 38.684 345.829 38.348C346.269 38.004 346.813 37.832 347.461 37.832C347.949 37.832 348.393 37.944 348.793 38.168C349.193 38.384 349.509 38.696 349.741 39.104L348.421 39.824C348.229 39.416 347.909 39.212 347.461 39.212C347.261 39.212 347.093 39.256 346.957 39.344C346.829 39.432 346.765 39.552 346.765 39.704Z" fill="white"/>
</svg>
