<svg width="335" height="240" viewBox="0 0 335 240" fill="none" xmlns="http://www.w3.org/2000/svg">
<rect width="335" height="240" rx="20" fill="#F7F8F9"/>
<g clip-path="url(#clip0_331_2660)">
<path d="M187.839 61.9083C192.499 61.9083 196.277 58.1273 196.277 53.4631C196.277 48.799 192.499 45.0179 187.839 45.0179C183.178 45.0179 179.401 48.799 179.401 53.4631C179.401 58.1273 183.178 61.9083 187.839 61.9083Z" fill="#F2F2F2"/>
<path d="M253.295 187.245C265.837 177.684 271.828 161.617 268.077 146.291C267.984 145.91 267.886 145.53 267.782 145.151C265.296 136.053 259.145 127.407 250.18 124.5C242.652 122.059 234.436 123.936 226.583 122.965C211.167 121.06 199.215 108.576 190.806 95.5052C182.396 82.4343 175.933 67.8034 164.759 57.0049C146.34 39.2056 116.294 35.3733 93.4564 46.9594C70.6193 58.5455 56.0723 84.2502 56.6927 109.868C57.3131 135.486 72.5083 159.979 94.5756 172.974C102.682 177.747 112.058 181.129 121.389 179.946C129.486 178.919 136.842 174.565 144.901 173.272C157.57 171.24 170.159 176.973 181.118 183.654C192.076 190.335 202.661 198.254 215.113 201.351C227.205 204.359 242.185 195.715 253.295 187.245Z" fill="#F2F4FC"/>
<path d="M235.275 47.4972C235 47.3138 234.722 47.1398 234.447 46.9627C226.499 41.8754 217.98 37.7425 209.067 34.6495L207 63.1853H193.898V30.4839C193.073 30.3131 192.242 30.1518 191.411 30V63.1853H175.841C167.269 63.1853 159.048 59.7773 152.987 53.711C146.926 47.6448 143.521 39.4172 143.521 30.8382C142.687 31.0185 141.859 31.2114 141.031 31.417V63.1853H128.349L126.38 35.9747C117.22 39.4907 108.524 44.1144 100.486 49.7429C100.347 49.8378 100.208 49.9358 100.072 50.0307C99.3732 50.521 98.6843 51.0207 97.9985 51.5268V160.391H135.374L134.714 151.234L131.08 100.96H204.267L200.632 151.234L199.972 160.391H236.934V48.5979C236.384 48.2247 235.831 47.8578 235.275 47.4972ZM141.031 92.6572H130.479L128.529 65.6776H141.031V92.6572ZM191.411 92.6572H173.689V92.1227C173.689 91.8658 173.638 91.6113 173.54 91.374C173.441 91.1366 173.297 90.921 173.115 90.7394C172.934 90.5579 172.718 90.4139 172.481 90.3159C172.243 90.2179 171.989 90.1676 171.732 90.168H164.028C163.771 90.1679 163.517 90.2184 163.28 90.3166C163.043 90.4148 162.828 90.5588 162.647 90.7403C162.465 90.9219 162.321 91.1374 162.223 91.3746C162.125 91.6118 162.075 91.866 162.075 92.1227V92.6572H143.521V65.6776H191.411V92.6572ZM193.898 92.6572V65.6776H206.82L204.87 92.6572H193.898Z" fill="#3F3D56"/>
<path d="M43 167.362C45.7453 170.618 48.7148 173.678 51.8865 176.519L282.764 176.835C285.936 173.994 288.906 170.934 291.651 167.679L43 167.362Z" fill="#3F3D56"/>
<path d="M199.566 138.042V165.15C199.566 165.495 199.703 165.826 199.947 166.071C200.192 166.315 200.522 166.452 200.868 166.452H241.004C241.349 166.452 241.68 166.315 241.924 166.071C242.168 165.826 242.305 165.495 242.305 165.15V138.042C242.305 137.697 242.167 137.366 241.923 137.122C241.679 136.878 241.348 136.741 241.004 136.741H200.868C200.523 136.741 200.192 136.878 199.948 137.122C199.704 137.366 199.567 137.697 199.566 138.042Z" fill="#3F3D56"/>
<path d="M200.508 138.38V164.815C200.508 165 200.581 165.177 200.712 165.307C200.842 165.438 201.019 165.511 201.203 165.512H240.67C240.854 165.511 241.031 165.438 241.161 165.307C241.292 165.177 241.365 165 241.365 164.815V138.38C241.365 138.195 241.292 138.017 241.162 137.887C241.031 137.756 240.854 137.682 240.67 137.682H201.203C201.019 137.682 200.842 137.756 200.711 137.887C200.581 138.017 200.508 138.195 200.508 138.38Z" fill="#3940A0"/>
<path d="M198.727 170.436C198.8 170.528 198.894 170.603 199 170.654C199.106 170.705 199.223 170.731 199.341 170.73H242.317C242.435 170.73 242.551 170.704 242.657 170.653C242.763 170.602 242.856 170.529 242.93 170.437C243.004 170.346 243.057 170.239 243.085 170.125C243.112 170.011 243.114 169.892 243.09 169.776L242.423 166.605C242.395 166.476 242.336 166.355 242.25 166.255C242.164 166.154 242.054 166.077 241.931 166.03C241.841 165.995 241.746 165.977 241.65 165.977H200.005C199.909 165.977 199.814 165.995 199.725 166.03C199.601 166.077 199.491 166.154 199.405 166.255C199.319 166.355 199.26 166.476 199.232 166.605L198.565 169.776C198.541 169.892 198.544 170.01 198.572 170.125C198.599 170.239 198.652 170.345 198.727 170.436Z" fill="#2F2E41"/>
<path d="M240.175 167.343H241.19C241.275 167.343 241.344 167.274 241.344 167.189V166.703C241.344 166.617 241.275 166.548 241.19 166.548H240.175C240.09 166.548 240.021 166.617 240.021 166.703V167.189C240.021 167.274 240.09 167.343 240.175 167.343Z" fill="#3F3D56"/>
<path d="M237.528 167.343H238.543C238.628 167.343 238.697 167.274 238.697 167.189V166.703C238.697 166.617 238.628 166.548 238.543 166.548H237.528C237.442 166.548 237.373 166.617 237.373 166.703V167.189C237.373 167.274 237.442 167.343 237.528 167.343Z" fill="#3F3D56"/>
<path d="M234.88 167.343H235.896C235.981 167.343 236.05 167.274 236.05 167.189V166.703C236.05 166.617 235.981 166.548 235.896 166.548H234.88C234.795 166.548 234.726 166.617 234.726 166.703V167.189C234.726 167.274 234.795 167.343 234.88 167.343Z" fill="#3F3D56"/>
<path d="M232.233 167.343H233.248C233.334 167.343 233.403 167.274 233.403 167.189V166.703C233.403 166.617 233.334 166.548 233.248 166.548H232.233C232.148 166.548 232.079 166.617 232.079 166.703V167.189C232.079 167.274 232.148 167.343 232.233 167.343Z" fill="#3F3D56"/>
<path d="M229.586 167.343H230.601C230.686 167.343 230.755 167.274 230.755 167.189V166.703C230.755 166.617 230.686 166.548 230.601 166.548H229.586C229.501 166.548 229.432 166.617 229.432 166.703V167.189C229.432 167.274 229.501 167.343 229.586 167.343Z" fill="#3F3D56"/>
<path d="M226.939 167.343H227.954C228.039 167.343 228.108 167.274 228.108 167.189V166.703C228.108 166.617 228.039 166.548 227.954 166.548H226.939C226.854 166.548 226.785 166.617 226.785 166.703V167.189C226.785 167.274 226.854 167.343 226.939 167.343Z" fill="#3F3D56"/>
<path d="M224.291 167.343H225.306C225.391 167.343 225.46 167.274 225.46 167.189V166.703C225.46 166.617 225.391 166.548 225.306 166.548H224.291C224.206 166.548 224.137 166.617 224.137 166.703V167.189C224.137 167.274 224.206 167.343 224.291 167.343Z" fill="#3F3D56"/>
<path d="M221.644 167.343H222.659C222.744 167.343 222.813 167.274 222.813 167.189V166.703C222.813 166.617 222.744 166.548 222.659 166.548H221.644C221.559 166.548 221.49 166.617 221.49 166.703V167.189C221.49 167.274 221.559 167.343 221.644 167.343Z" fill="#3F3D56"/>
<path d="M218.997 167.343H220.012C220.097 167.343 220.166 167.274 220.166 167.189V166.703C220.166 166.617 220.097 166.548 220.012 166.548H218.997C218.912 166.548 218.843 166.617 218.843 166.703V167.189C218.843 167.274 218.912 167.343 218.997 167.343Z" fill="#3F3D56"/>
<path d="M216.35 167.343H217.365C217.45 167.343 217.519 167.274 217.519 167.189V166.703C217.519 166.617 217.45 166.548 217.365 166.548H216.35C216.264 166.548 216.195 166.617 216.195 166.703V167.189C216.195 167.274 216.264 167.343 216.35 167.343Z" fill="#3F3D56"/>
<path d="M213.702 167.343H214.717C214.802 167.343 214.871 167.274 214.871 167.189V166.703C214.871 166.617 214.802 166.548 214.717 166.548H213.702C213.617 166.548 213.548 166.617 213.548 166.703V167.189C213.548 167.274 213.617 167.343 213.702 167.343Z" fill="#3F3D56"/>
<path d="M211.055 167.343H212.07C212.155 167.343 212.224 167.274 212.224 167.189V166.703C212.224 166.617 212.155 166.548 212.07 166.548H211.055C210.97 166.548 210.9 166.617 210.9 166.703V167.189C210.9 167.274 210.97 167.343 211.055 167.343Z" fill="#3F3D56"/>
<path d="M208.408 167.343H209.423C209.508 167.343 209.577 167.274 209.577 167.189V166.703C209.577 166.617 209.508 166.548 209.423 166.548H208.408C208.323 166.548 208.254 166.617 208.254 166.703V167.189C208.254 167.274 208.323 167.343 208.408 167.343Z" fill="#3F3D56"/>
<path d="M205.761 167.343H206.776C206.861 167.343 206.93 167.274 206.93 167.189V166.703C206.93 166.617 206.861 166.548 206.776 166.548H205.761C205.675 166.548 205.606 166.617 205.606 166.703V167.189C205.606 167.274 205.675 167.343 205.761 167.343Z" fill="#3F3D56"/>
<path d="M203.113 167.343H204.128C204.213 167.343 204.282 167.274 204.282 167.189V166.703C204.282 166.617 204.213 166.548 204.128 166.548H203.113C203.028 166.548 202.959 166.617 202.959 166.703V167.189C202.959 167.274 203.028 167.343 203.113 167.343Z" fill="#3F3D56"/>
<path d="M200.466 167.343H201.481C201.566 167.343 201.635 167.274 201.635 167.189V166.703C201.635 166.617 201.566 166.548 201.481 166.548H200.466C200.38 166.548 200.311 166.617 200.311 166.703V167.189C200.311 167.274 200.38 167.343 200.466 167.343Z" fill="#3F3D56"/>
<path d="M240.206 168.668H241.221C241.307 168.668 241.376 168.599 241.376 168.513V168.027C241.376 167.942 241.307 167.873 241.221 167.873H240.206C240.121 167.873 240.052 167.942 240.052 168.027V168.513C240.052 168.599 240.121 168.668 240.206 168.668Z" fill="#3F3D56"/>
<path d="M237.559 168.668H238.574C238.659 168.668 238.729 168.599 238.729 168.513V168.027C238.729 167.942 238.659 167.873 238.574 167.873H237.559C237.474 167.873 237.405 167.942 237.405 168.027V168.513C237.405 168.599 237.474 168.668 237.559 168.668Z" fill="#3F3D56"/>
<path d="M234.912 168.668H235.927C236.012 168.668 236.081 168.599 236.081 168.513V168.027C236.081 167.942 236.012 167.873 235.927 167.873H234.912C234.827 167.873 234.758 167.942 234.758 168.027V168.513C234.758 168.599 234.827 168.668 234.912 168.668Z" fill="#3F3D56"/>
<path d="M232.264 168.668H233.28C233.365 168.668 233.434 168.599 233.434 168.513V168.027C233.434 167.942 233.365 167.873 233.28 167.873H232.264C232.179 167.873 232.11 167.942 232.11 168.027V168.513C232.11 168.599 232.179 168.668 232.264 168.668Z" fill="#3F3D56"/>
<path d="M229.617 168.668H230.632C230.718 168.668 230.787 168.599 230.787 168.513V168.027C230.787 167.942 230.718 167.873 230.632 167.873H229.617C229.532 167.873 229.463 167.942 229.463 168.027V168.513C229.463 168.599 229.532 168.668 229.617 168.668Z" fill="#3F3D56"/>
<path d="M226.97 168.668H227.985C228.07 168.668 228.139 168.599 228.139 168.513V168.027C228.139 167.942 228.07 167.873 227.985 167.873H226.97C226.885 167.873 226.816 167.942 226.816 168.027V168.513C226.816 168.599 226.885 168.668 226.97 168.668Z" fill="#3F3D56"/>
<path d="M224.323 168.668H225.338C225.423 168.668 225.492 168.599 225.492 168.513V168.027C225.492 167.942 225.423 167.873 225.338 167.873H224.323C224.238 167.873 224.169 167.942 224.169 168.027V168.513C224.169 168.599 224.238 168.668 224.323 168.668Z" fill="#3F3D56"/>
<path d="M221.675 168.668H222.69C222.775 168.668 222.844 168.599 222.844 168.513V168.027C222.844 167.942 222.775 167.873 222.69 167.873H221.675C221.59 167.873 221.521 167.942 221.521 168.027V168.513C221.521 168.599 221.59 168.668 221.675 168.668Z" fill="#3F3D56"/>
<path d="M219.028 168.668H220.043C220.128 168.668 220.197 168.599 220.197 168.513V168.027C220.197 167.942 220.128 167.873 220.043 167.873H219.028C218.943 167.873 218.874 167.942 218.874 168.027V168.513C218.874 168.599 218.943 168.668 219.028 168.668Z" fill="#3F3D56"/>
<path d="M216.381 168.668H217.396C217.481 168.668 217.55 168.599 217.55 168.513V168.027C217.55 167.942 217.481 167.873 217.396 167.873H216.381C216.296 167.873 216.227 167.942 216.227 168.027V168.513C216.227 168.599 216.296 168.668 216.381 168.668Z" fill="#3F3D56"/>
<path d="M213.733 168.668H214.748C214.834 168.668 214.903 168.599 214.903 168.513V168.027C214.903 167.942 214.834 167.873 214.748 167.873H213.733C213.648 167.873 213.579 167.942 213.579 168.027V168.513C213.579 168.599 213.648 168.668 213.733 168.668Z" fill="#3F3D56"/>
<path d="M211.086 168.668H212.101C212.186 168.668 212.255 168.599 212.255 168.513V168.027C212.255 167.942 212.186 167.873 212.101 167.873H211.086C211.001 167.873 210.932 167.942 210.932 168.027V168.513C210.932 168.599 211.001 168.668 211.086 168.668Z" fill="#3F3D56"/>
<path d="M208.439 168.668H209.454C209.539 168.668 209.608 168.599 209.608 168.513V168.027C209.608 167.942 209.539 167.873 209.454 167.873H208.439C208.354 167.873 208.285 167.942 208.285 168.027V168.513C208.285 168.599 208.354 168.668 208.439 168.668Z" fill="#3F3D56"/>
<path d="M205.792 168.668H206.807C206.892 168.668 206.961 168.599 206.961 168.513V168.027C206.961 167.942 206.892 167.873 206.807 167.873H205.792C205.706 167.873 205.637 167.942 205.637 168.027V168.513C205.637 168.599 205.706 168.668 205.792 168.668Z" fill="#3F3D56"/>
<path d="M203.144 168.668H204.159C204.245 168.668 204.314 168.599 204.314 168.513V168.027C204.314 167.942 204.245 167.873 204.159 167.873H203.144C203.059 167.873 202.99 167.942 202.99 168.027V168.513C202.99 168.599 203.059 168.668 203.144 168.668Z" fill="#3F3D56"/>
<path d="M200.497 168.668H201.512C201.597 168.668 201.666 168.599 201.666 168.513V168.027C201.666 167.942 201.597 167.873 201.512 167.873H200.497C200.412 167.873 200.343 167.942 200.343 168.027V168.513C200.343 168.599 200.412 168.668 200.497 168.668Z" fill="#3F3D56"/>
<path d="M218.234 170.258H228.514C228.6 170.258 228.669 170.189 228.669 170.103V169.617C228.669 169.532 228.6 169.463 228.514 169.463H218.234C218.149 169.463 218.08 169.532 218.08 169.617V170.103C218.08 170.189 218.149 170.258 218.234 170.258Z" fill="#3F3D56"/>
<path d="M207.342 143.465H206.443C206.171 143.465 205.95 143.687 205.95 143.959C205.95 144.232 206.171 144.453 206.443 144.453H207.342C207.614 144.453 207.835 144.232 207.835 143.959C207.835 143.687 207.614 143.465 207.342 143.465Z" fill="white"/>
<path d="M217.62 143.465H216.721C216.449 143.465 216.228 143.687 216.228 143.959C216.228 144.232 216.449 144.453 216.721 144.453H217.62C217.892 144.453 218.113 144.232 218.113 143.959C218.113 143.687 217.892 143.465 217.62 143.465Z" fill="white"/>
<path d="M220.532 143.465H219.633C219.361 143.465 219.14 143.687 219.14 143.959C219.14 144.232 219.361 144.453 219.633 144.453H220.532C220.804 144.453 221.025 144.232 221.025 143.959C221.025 143.687 220.804 143.465 220.532 143.465Z" fill="white"/>
<path d="M214.824 143.383H209.239C208.966 143.383 208.745 143.604 208.745 143.877C208.745 144.15 208.966 144.371 209.239 144.371H214.824C215.096 144.371 215.317 144.15 215.317 143.877C215.317 143.604 215.096 143.383 214.824 143.383Z" fill="white"/>
<path d="M228.528 143.383H222.943C222.67 143.383 222.449 143.604 222.449 143.877C222.449 144.15 222.67 144.371 222.943 144.371H228.528C228.8 144.371 229.021 144.15 229.021 143.877C229.021 143.604 228.8 143.383 228.528 143.383Z" fill="white"/>
<path d="M210.082 145.694H209.184C208.911 145.694 208.69 145.915 208.69 146.188C208.69 146.46 208.911 146.682 209.184 146.682H210.082C210.355 146.682 210.576 146.46 210.576 146.188C210.576 145.915 210.355 145.694 210.082 145.694Z" fill="white"/>
<path d="M220.361 145.694H219.462C219.189 145.694 218.969 145.915 218.969 146.188C218.969 146.46 219.189 146.682 219.462 146.682H220.361C220.633 146.682 220.854 146.46 220.854 146.188C220.854 145.915 220.633 145.694 220.361 145.694Z" fill="white"/>
<path d="M223.273 145.694H222.374C222.102 145.694 221.881 145.915 221.881 146.188C221.881 146.46 222.102 146.682 222.374 146.682H223.273C223.545 146.682 223.766 146.46 223.766 146.188C223.766 145.915 223.545 145.694 223.273 145.694Z" fill="white"/>
<path d="M217.565 145.612H211.98C211.707 145.612 211.487 145.833 211.487 146.105C211.487 146.378 211.707 146.599 211.98 146.599H217.565C217.838 146.599 218.059 146.378 218.059 146.105C218.059 145.833 217.838 145.612 217.565 145.612Z" fill="white"/>
<path d="M231.269 145.612H225.684C225.411 145.612 225.19 145.833 225.19 146.105C225.19 146.378 225.411 146.599 225.684 146.599H231.269C231.542 146.599 231.762 146.378 231.762 146.105C231.762 145.833 231.542 145.612 231.269 145.612Z" fill="white"/>
<path d="M212.824 147.923H211.925C211.652 147.923 211.432 148.144 211.432 148.417C211.432 148.689 211.652 148.911 211.925 148.911H212.824C213.096 148.911 213.317 148.689 213.317 148.417C213.317 148.144 213.096 147.923 212.824 147.923Z" fill="white"/>
<path d="M223.101 147.923H222.203C221.93 147.923 221.709 148.144 221.709 148.417C221.709 148.689 221.93 148.911 222.203 148.911H223.101C223.374 148.911 223.595 148.689 223.595 148.417C223.595 148.144 223.374 147.923 223.101 147.923Z" fill="white"/>
<path d="M226.013 147.923H225.115C224.842 147.923 224.621 148.144 224.621 148.417C224.621 148.689 224.842 148.911 225.115 148.911H226.013C226.286 148.911 226.507 148.689 226.507 148.417C226.507 148.144 226.286 147.923 226.013 147.923Z" fill="white"/>
<path d="M220.306 147.841H214.72C214.448 147.841 214.227 148.062 214.227 148.334C214.227 148.607 214.448 148.828 214.72 148.828H220.306C220.578 148.828 220.799 148.607 220.799 148.334C220.799 148.062 220.578 147.841 220.306 147.841Z" fill="white"/>
<path d="M234.01 147.841H228.424C228.152 147.841 227.931 148.062 227.931 148.334C227.931 148.607 228.152 148.828 228.424 148.828H234.01C234.282 148.828 234.503 148.607 234.503 148.334C234.503 148.062 234.282 147.841 234.01 147.841Z" fill="white"/>
<path d="M215.564 150.152H214.666C214.393 150.152 214.172 150.373 214.172 150.645C214.172 150.918 214.393 151.139 214.666 151.139H215.564C215.837 151.139 216.058 150.918 216.058 150.645C216.058 150.373 215.837 150.152 215.564 150.152Z" fill="white"/>
<path d="M225.842 150.152H224.944C224.671 150.152 224.45 150.373 224.45 150.645C224.45 150.918 224.671 151.139 224.944 151.139H225.842C226.115 151.139 226.336 150.918 226.336 150.645C226.336 150.373 226.115 150.152 225.842 150.152Z" fill="white"/>
<path d="M228.754 150.152H227.855C227.583 150.152 227.362 150.373 227.362 150.645C227.362 150.918 227.583 151.139 227.855 151.139H228.754C229.027 151.139 229.247 150.918 229.247 150.645C229.247 150.373 229.027 150.152 228.754 150.152Z" fill="white"/>
<path d="M223.046 150.069H217.461C217.189 150.069 216.968 150.29 216.968 150.563C216.968 150.836 217.189 151.057 217.461 151.057H223.046C223.319 151.057 223.54 150.836 223.54 150.563C223.54 150.29 223.319 150.069 223.046 150.069Z" fill="white"/>
<path d="M217.62 159.014H216.721C216.449 159.014 216.228 159.235 216.228 159.508C216.228 159.781 216.449 160.002 216.721 160.002H217.62C217.892 160.002 218.113 159.781 218.113 159.508C218.113 159.235 217.892 159.014 217.62 159.014Z" fill="white"/>
<path d="M220.532 159.014H219.633C219.361 159.014 219.14 159.235 219.14 159.508C219.14 159.781 219.361 160.002 219.633 160.002H220.532C220.804 160.002 221.025 159.781 221.025 159.508C221.025 159.235 220.804 159.014 220.532 159.014Z" fill="white"/>
<path d="M228.528 159.096H222.943C222.67 159.096 222.449 159.318 222.449 159.59C222.449 159.863 222.67 160.084 222.943 160.084H228.528C228.8 160.084 229.021 159.863 229.021 159.59C229.021 159.318 228.8 159.096 228.528 159.096Z" fill="white"/>
<path d="M207.342 159.014H206.443C206.171 159.014 205.95 159.235 205.95 159.508C205.95 159.781 206.171 160.002 206.443 160.002H207.342C207.614 160.002 207.835 159.781 207.835 159.508C207.835 159.235 207.614 159.014 207.342 159.014Z" fill="white"/>
<path d="M214.824 159.096H209.239C208.966 159.096 208.745 159.318 208.745 159.59C208.745 159.863 208.966 160.084 209.239 160.084H214.824C215.096 160.084 215.317 159.863 215.317 159.59C215.317 159.318 215.096 159.096 214.824 159.096Z" fill="white"/>
<path d="M210.082 156.786H209.184C208.911 156.786 208.69 157.007 208.69 157.279C208.69 157.552 208.911 157.773 209.184 157.773H210.082C210.355 157.773 210.576 157.552 210.576 157.279C210.576 157.007 210.355 156.786 210.082 156.786Z" fill="white"/>
<path d="M220.361 156.786H219.462C219.189 156.786 218.969 157.007 218.969 157.279C218.969 157.552 219.189 157.773 219.462 157.773H220.361C220.633 157.773 220.854 157.552 220.854 157.279C220.854 157.007 220.633 156.786 220.361 156.786Z" fill="white"/>
<path d="M223.273 156.786H222.374C222.102 156.786 221.881 157.007 221.881 157.279C221.881 157.552 222.102 157.773 222.374 157.773H223.273C223.545 157.773 223.766 157.552 223.766 157.279C223.766 157.007 223.545 156.786 223.273 156.786Z" fill="white"/>
<path d="M217.565 156.868H211.98C211.707 156.868 211.487 157.089 211.487 157.362C211.487 157.634 211.707 157.855 211.98 157.855H217.565C217.838 157.855 218.059 157.634 218.059 157.362C218.059 157.089 217.838 156.868 217.565 156.868Z" fill="white"/>
<path d="M212.824 154.557H211.925C211.652 154.557 211.432 154.778 211.432 155.05C211.432 155.323 211.652 155.544 211.925 155.544H212.824C213.096 155.544 213.317 155.323 213.317 155.05C213.317 154.778 213.096 154.557 212.824 154.557Z" fill="white"/>
<path d="M223.101 154.557H222.203C221.93 154.557 221.709 154.778 221.709 155.05C221.709 155.323 221.93 155.544 222.203 155.544H223.101C223.374 155.544 223.595 155.323 223.595 155.05C223.595 154.778 223.374 154.557 223.101 154.557Z" fill="white"/>
<path d="M226.013 154.557H225.115C224.842 154.557 224.621 154.778 224.621 155.05C224.621 155.323 224.842 155.544 225.115 155.544H226.013C226.286 155.544 226.507 155.323 226.507 155.05C226.507 154.778 226.286 154.557 226.013 154.557Z" fill="white"/>
<path d="M220.306 154.639H214.72C214.448 154.639 214.227 154.86 214.227 155.133C214.227 155.405 214.448 155.626 214.72 155.626H220.306C220.578 155.626 220.799 155.405 220.799 155.133C220.799 154.86 220.578 154.639 220.306 154.639Z" fill="white"/>
<path d="M215.564 152.328H214.666C214.393 152.328 214.172 152.549 214.172 152.822C214.172 153.094 214.393 153.316 214.666 153.316H215.564C215.837 153.316 216.058 153.094 216.058 152.822C216.058 152.549 215.837 152.328 215.564 152.328Z" fill="white"/>
<path d="M225.842 152.328H224.944C224.671 152.328 224.45 152.549 224.45 152.822C224.45 153.094 224.671 153.316 224.944 153.316H225.842C226.115 153.316 226.336 153.094 226.336 152.822C226.336 152.549 226.115 152.328 225.842 152.328Z" fill="white"/>
<path d="M228.754 152.328H227.855C227.583 152.328 227.362 152.549 227.362 152.822C227.362 153.094 227.583 153.316 227.855 153.316H228.754C229.027 153.316 229.247 153.094 229.247 152.822C229.247 152.549 229.027 152.328 228.754 152.328Z" fill="white"/>
<path d="M223.046 152.41H217.461C217.189 152.41 216.968 152.631 216.968 152.904C216.968 153.177 217.189 153.398 217.461 153.398H223.046C223.319 153.398 223.54 153.177 223.54 152.904C223.54 152.631 223.319 152.41 223.046 152.41Z" fill="white"/>
<path d="M202.564 185.135L198.345 178.461L211.587 167.896L217.053 161.835C217.763 161.048 218.667 160.461 219.675 160.133C220.683 159.805 221.759 159.747 222.796 159.966C223.833 160.184 224.795 160.671 225.585 161.379C226.375 162.086 226.965 162.988 227.298 163.995C227.79 165.487 227.684 167.113 227.002 168.529C226.32 169.945 225.115 171.04 223.641 171.583L214.999 174.77L202.564 185.135Z" fill="#FFB6B6"/>
<path d="M103.578 136.742V169.181H126.284V136.742C126.284 136.509 126.21 136.282 126.071 136.094C125.933 135.906 125.738 135.767 125.516 135.698C125.411 135.664 125.301 135.647 125.19 135.648H104.674C104.53 135.647 104.388 135.676 104.255 135.73C104.122 135.785 104.001 135.866 103.899 135.967C103.797 136.069 103.717 136.19 103.661 136.323C103.606 136.456 103.578 136.598 103.578 136.742ZM112.439 147.888C112.445 147.249 112.703 146.637 113.157 146.187C113.611 145.737 114.224 145.485 114.863 145.485C115.502 145.485 116.115 145.737 116.569 146.187C117.023 146.637 117.281 147.249 117.287 147.888V151.652C117.283 152.293 117.027 152.907 116.572 153.359C116.118 153.812 115.503 154.066 114.863 154.066C114.222 154.066 113.607 153.812 113.153 153.359C112.699 152.907 112.442 152.293 112.439 151.652V147.888Z" fill="#2F2E41"/>
<path d="M103.508 168.144V171.272C103.509 171.434 103.573 171.589 103.687 171.704C103.801 171.819 103.956 171.884 104.118 171.885H125.743C125.906 171.885 126.061 171.82 126.175 171.705C126.289 171.59 126.353 171.434 126.353 171.272V168.144H103.508Z" fill="#3F3D56"/>
<path d="M67.8582 87.8691V147.098C67.8588 147.853 68.1586 148.576 68.6919 149.11C69.2251 149.644 69.9482 149.944 70.7023 149.944H158.398C159.152 149.944 159.875 149.644 160.408 149.11C160.942 148.576 161.242 147.853 161.242 147.098V87.8691C161.24 87.115 160.94 86.3923 160.407 85.8593C159.874 85.3264 159.151 85.0266 158.398 85.0256H70.7023C69.9489 85.0266 69.2265 85.3264 68.6934 85.8593C68.1603 86.3923 67.86 87.115 67.8582 87.8691Z" fill="#3F3D56"/>
<path d="M69.9155 88.6057V146.367C69.9162 146.77 70.0766 147.157 70.3615 147.442C70.6464 147.727 71.0327 147.887 71.4356 147.888H157.668C158.071 147.887 158.457 147.727 158.742 147.442C159.027 147.157 159.187 146.77 159.188 146.367V88.6057C159.188 88.2019 159.028 87.8146 158.743 87.5288C158.458 87.243 158.071 87.082 157.668 87.0811H71.4356C71.0322 87.082 70.6456 87.243 70.3606 87.5288C70.0756 87.8146 69.9156 88.2019 69.9155 88.6057Z" fill="white"/>
<path d="M85.9188 171.673C86.0066 171.783 86.1181 171.872 86.2451 171.933C86.3721 171.994 86.5112 172.025 86.652 172.024H137.955C138.095 172.024 138.233 171.993 138.36 171.932C138.487 171.872 138.598 171.784 138.687 171.675C138.775 171.566 138.838 171.438 138.871 171.302C138.904 171.165 138.906 171.023 138.877 170.886L138.081 167.1C138.048 166.945 137.977 166.802 137.874 166.682C137.772 166.562 137.641 166.47 137.493 166.413C137.387 166.371 137.273 166.35 137.158 166.35H87.4452C87.3305 166.35 87.2169 166.371 87.1102 166.413C86.9628 166.47 86.8318 166.562 86.7291 166.682C86.6265 166.802 86.5554 166.945 86.5224 167.1L85.726 170.886C85.6977 171.023 85.7003 171.165 85.7336 171.301C85.767 171.437 85.8302 171.565 85.9188 171.673Z" fill="#2F2E41"/>
<path d="M154.87 95.038H74.1822C74.0984 95.0361 74.0186 95.0014 73.9599 94.9414C73.9012 94.8814 73.8684 94.8008 73.8684 94.7168C73.8684 94.6328 73.9012 94.5522 73.9599 94.4922C74.0186 94.4322 74.0984 94.3975 74.1822 94.3957H154.87C154.953 94.3975 155.033 94.4322 155.092 94.4922C155.151 94.5522 155.183 94.6328 155.183 94.7168C155.183 94.8008 155.151 94.8814 155.092 94.9414C155.033 95.0014 154.953 95.0361 154.87 95.038Z" fill="#3F3D56"/>
<path d="M79.6749 92.7563C80.7134 92.7563 81.5553 91.8949 81.5553 90.8323C81.5553 89.7697 80.7134 88.9083 79.6749 88.9083C78.6363 88.9083 77.7944 89.7697 77.7944 90.8323C77.7944 91.8949 78.6363 92.7563 79.6749 92.7563Z" fill="#3F3D56"/>
<path d="M86.1705 92.7563C87.209 92.7563 88.0509 91.8949 88.0509 90.8323C88.0509 89.7697 87.209 88.9083 86.1705 88.9083C85.1319 88.9083 84.29 89.7697 84.29 90.8323C84.29 91.8949 85.1319 92.7563 86.1705 92.7563Z" fill="#3F3D56"/>
<path d="M92.6668 92.7563C93.7054 92.7563 94.5473 91.8949 94.5473 90.8323C94.5473 89.7697 93.7054 88.9083 92.6668 88.9083C91.6283 88.9083 90.7864 89.7697 90.7864 90.8323C90.7864 91.8949 91.6283 92.7563 92.6668 92.7563Z" fill="#3F3D56"/>
<path d="M150.958 89.3841H146.344C146.253 89.3863 146.166 89.424 146.102 89.4893C146.039 89.5546 146.003 89.6423 146.003 89.7336C146.003 89.8249 146.039 89.9126 146.102 89.9779C146.166 90.0432 146.253 90.081 146.344 90.0831H150.958C151.05 90.0818 151.137 90.0444 151.202 89.979C151.266 89.9136 151.302 89.8255 151.302 89.7336C151.302 89.6418 151.266 89.5536 151.202 89.4882C151.137 89.4228 151.05 89.3854 150.958 89.3841Z" fill="#3F3D56"/>
<path d="M150.958 90.6963H146.344C146.253 90.6983 146.166 90.7361 146.102 90.8014C146.038 90.8667 146.002 90.9544 146.002 91.0458C146.002 91.1372 146.038 91.2249 146.102 91.2903C146.166 91.3556 146.253 91.3933 146.344 91.3953H150.958C151.05 91.3942 151.138 91.3569 151.202 91.2915C151.267 91.2261 151.303 91.1378 151.303 91.0458C151.303 90.9539 151.267 90.8656 151.202 90.8002C151.138 90.7347 151.05 90.6974 150.958 90.6963Z" fill="#3F3D56"/>
<path d="M150.958 92.009H146.344C146.253 92.0111 146.166 92.0489 146.102 92.1142C146.039 92.1795 146.003 92.2672 146.003 92.3585C146.003 92.4498 146.039 92.5375 146.102 92.6028C146.166 92.6681 146.253 92.7058 146.344 92.708H150.958C151.05 92.7067 151.137 92.6693 151.202 92.6039C151.266 92.5385 151.302 92.4503 151.302 92.3585C151.302 92.2666 151.266 92.1785 151.202 92.1131C151.137 92.0477 151.05 92.0103 150.958 92.009Z" fill="#3F3D56"/>
<path d="M262.19 169.517C262.33 169.922 262.594 170.273 262.945 170.52C263.296 170.766 263.716 170.894 264.144 170.886L272.516 170.671C272.948 170.662 273.365 170.514 273.706 170.249C274.047 169.983 274.293 169.615 274.406 169.198L275.591 156.519C276.011 156.709 276.469 156.803 276.93 156.794C277.331 156.784 277.726 156.695 278.093 156.532C278.459 156.369 278.79 156.136 279.066 155.845C279.343 155.554 279.559 155.212 279.703 154.837C279.847 154.463 279.916 154.064 279.906 153.663C279.896 153.261 279.807 152.866 279.644 152.499C279.482 152.133 279.248 151.801 278.958 151.525C278.667 151.248 278.325 151.032 277.951 150.888C277.577 150.743 277.178 150.674 276.777 150.684C276.593 150.684 276.409 150.703 276.229 150.742C276.032 150.529 275.794 150.36 275.529 150.246C275.263 150.131 274.977 150.073 274.688 150.076L261.81 150.409C261.703 150.413 261.597 150.426 261.493 150.449C261.21 150.501 260.942 150.614 260.707 150.779C260.472 150.944 260.275 151.157 260.129 151.405C259.983 151.653 259.891 151.929 259.861 152.215C259.831 152.501 259.862 152.79 259.953 153.063L262.19 169.517ZM275.834 155.658L276.677 152.636C276.773 152.287 276.775 151.919 276.684 151.569C276.724 151.569 276.761 151.549 276.801 151.549C277.38 151.537 277.939 151.755 278.356 152.155C278.774 152.555 279.016 153.105 279.03 153.683C279.043 154.262 278.827 154.822 278.429 155.241C278.03 155.661 277.482 155.904 276.904 155.92C276.53 155.931 276.16 155.841 275.834 155.658Z" fill="#2F2E41"/>
<path d="M261.492 150.449C261.767 152.019 264.851 153.122 268.56 152.931C271.971 152.773 274.76 151.575 275.271 150.154C275.082 150.098 274.885 150.072 274.688 150.076L261.81 150.409C261.703 150.413 261.597 150.426 261.492 150.449Z" fill="#3F3D56"/>
<path d="M269.24 162.549C269.257 162.545 269.273 162.537 269.288 162.528L271.106 161.337C271.128 161.322 271.146 161.303 271.159 161.28C271.171 161.257 271.178 161.231 271.178 161.205C271.178 161.178 271.171 161.152 271.159 161.129C271.146 161.106 271.128 161.087 271.106 161.072L269.217 159.833C269.199 159.822 269.18 159.814 269.159 159.81C269.139 159.806 269.118 159.806 269.098 159.81C269.077 159.815 269.058 159.823 269.041 159.835C269.023 159.846 269.009 159.861 268.997 159.879C268.986 159.896 268.978 159.916 268.974 159.936C268.97 159.956 268.971 159.977 268.975 159.998C268.979 160.018 268.987 160.038 268.999 160.055C269.011 160.072 269.026 160.087 269.043 160.098L270.731 161.204L269.115 162.263C269.084 162.284 269.061 162.315 269.05 162.35C269.039 162.386 269.042 162.425 269.057 162.459C269.072 162.493 269.099 162.521 269.132 162.538C269.166 162.554 269.204 162.558 269.24 162.549Z" fill="#3940A0"/>
<path d="M266.369 162.681C266.399 162.674 266.427 162.657 266.448 162.634C266.469 162.61 266.482 162.581 266.487 162.55C266.491 162.518 266.486 162.487 266.472 162.458C266.458 162.43 266.436 162.407 266.409 162.391L264.733 161.429L266.353 160.225C266.369 160.213 266.383 160.197 266.394 160.179C266.405 160.162 266.412 160.142 266.415 160.121C266.418 160.101 266.417 160.08 266.412 160.06C266.406 160.04 266.398 160.021 266.385 160.004C266.373 159.987 266.357 159.973 266.339 159.963C266.322 159.952 266.302 159.945 266.281 159.942C266.261 159.939 266.24 159.94 266.22 159.945C266.2 159.95 266.181 159.959 266.164 159.971L264.351 161.32C264.33 161.335 264.313 161.356 264.302 161.38C264.291 161.404 264.286 161.43 264.287 161.456C264.289 161.482 264.297 161.508 264.311 161.53C264.324 161.552 264.344 161.571 264.366 161.584L266.251 162.665C266.287 162.686 266.329 162.692 266.369 162.681Z" fill="#3940A0"/>
<path d="M269.06 163.593C269.075 163.589 269.09 163.583 269.103 163.575C269.121 163.564 269.136 163.55 269.148 163.533C269.161 163.516 269.17 163.497 269.174 163.477C269.179 163.457 269.18 163.436 269.177 163.415C269.174 163.395 269.167 163.375 269.156 163.357L266.579 159.116C266.557 159.081 266.522 159.055 266.481 159.045C266.44 159.035 266.397 159.042 266.361 159.064C266.326 159.086 266.3 159.121 266.29 159.161C266.28 159.202 266.287 159.245 266.309 159.281L268.886 163.522C268.903 163.551 268.93 163.573 268.961 163.586C268.992 163.599 269.027 163.601 269.06 163.593Z" fill="#3940A0"/>
<path d="M124.166 112.497H110.201C109.632 112.497 109.17 112.959 109.17 113.53V114.895C109.17 115.465 109.632 115.927 110.201 115.927H124.166C124.736 115.927 125.198 115.465 125.198 114.895V113.53C125.198 112.959 124.736 112.497 124.166 112.497Z" fill="#3940A0"/>
<path d="M132.307 119.358H102.061C101.491 119.358 101.03 119.82 101.03 120.39V121.756C101.03 122.326 101.491 122.788 102.061 122.788H132.307C132.876 122.788 133.338 122.326 133.338 121.756V120.39C133.338 119.82 132.876 119.358 132.307 119.358Z" fill="#E6E6E6"/>
<path d="M132.307 126.219H102.061C101.491 126.219 101.03 126.681 101.03 127.251V128.617C101.03 129.187 101.491 129.649 102.061 129.649H132.307C132.876 129.649 133.338 129.187 133.338 128.617V127.251C133.338 126.681 132.876 126.219 132.307 126.219Z" fill="#E6E6E6"/>
<path d="M134.871 149.193L134.939 149.41L134.943 149.417L137.005 155.691L139.377 162.922L143.84 176.51L143.883 178.621V178.628L144.215 195.608L143.296 197.91L144.33 201.684C144.33 201.684 143.855 195.979 141.302 199.256C139.857 201.117 138.166 203.022 136.778 204.809C138.8 205.628 140.855 206.368 142.943 207.031C143.393 207.175 143.847 207.313 144.302 207.45C144.399 207.479 144.496 207.507 144.594 207.536C151.513 209.584 158.666 210.735 165.878 210.96C166.253 210.971 166.621 210.978 166.977 210.986C167.104 210.989 167.226 210.993 167.349 210.993C167.753 210.996 168.153 211 168.556 211C169.371 211 170.182 210.988 170.99 210.964C176.967 210.795 182.909 209.991 188.716 208.565C188.676 206.165 188.568 203.362 188.413 200.367C188.341 198.898 186.722 197.307 186.625 195.77C186.556 194.615 188.009 193.529 187.934 192.357C187.443 185.137 186.83 187.908 186.376 182.796C186.329 182.294 186.286 181.814 186.246 181.356C185.954 178.073 185.753 176.02 185.753 176.02L187.692 163.784L190.738 144.575L190.504 144.189L190.241 144.059L174.173 136.099L173.301 133.862C173.047 133.218 172.605 132.664 172.034 132.272C171.463 131.881 170.788 131.669 170.096 131.665L159.511 131.621C158.962 131.619 158.42 131.748 157.93 131.997C157.441 132.246 157.018 132.608 156.696 133.054L153.83 137.026L134.871 149.193Z" fill="#3F3D56"/>
<path d="M146.281 173.487L143.883 178.621L142.247 182.128L139.431 196.882L138.021 198.379L136.814 193.079L124.174 195.888C123.759 193.582 124.063 195.966 123.807 193.436C123.879 193.364 123.954 193.292 124.03 193.22C124.232 193.032 124.401 192.855 124.398 192.686C124.254 183.961 124.686 169.114 128.299 160.119C128.864 158.65 129.61 157.257 130.519 155.973C130.591 155.875 130.66 155.778 130.728 155.681C132.394 153.346 133.447 151.048 134.939 149.413V149.41C134.948 149.402 134.957 149.394 134.964 149.384C134.97 149.382 134.975 149.378 134.979 149.374L145.231 143.932L145.671 156.301L145.985 165.192L146.281 173.487Z" fill="#3F3D56"/>
<path d="M183.25 174.945L186.245 181.358L187.29 183.591L190.105 198.344L191.51 199.837L192.72 194.538L193.289 194.421L203.547 192.295L206.536 201.798C207.21 200.674 207.476 199.352 207.288 198.055C207.1 196.758 206.47 195.566 205.506 194.68C205.301 194.495 205.131 194.315 205.136 194.145C205.306 183.883 204.679 165.146 199.016 157.434C197.217 154.987 196.138 152.549 194.568 150.846C194.563 150.841 194.563 150.836 194.558 150.836L190.737 144.574L190.503 144.19L190.241 144.059L183.25 174.945Z" fill="#3F3D56"/>
<path d="M165.109 128.607C172.886 128.607 179.19 122.297 179.19 114.513C179.19 106.73 172.886 100.42 165.109 100.42C157.332 100.42 151.028 106.73 151.028 114.513C151.028 122.297 157.332 128.607 165.109 128.607Z" fill="#FFB6B6"/>
<path d="M184.142 104.669C184.033 104.552 183.901 104.459 183.755 104.394C183.609 104.329 183.451 104.295 183.292 104.293L183.503 103.704C183.572 103.519 183.591 103.319 183.557 103.124C183.524 102.929 183.439 102.746 183.312 102.595C183.184 102.444 183.019 102.329 182.833 102.263C182.647 102.197 182.446 102.181 182.252 102.218L181.481 102.366L181.554 101.851C181.581 101.659 181.559 101.463 181.488 101.282C181.417 101.101 181.301 100.942 181.15 100.82C180.999 100.699 180.819 100.618 180.628 100.587C180.437 100.556 180.24 100.575 180.059 100.643C179.894 100.708 179.716 100.735 179.539 100.722C179.361 100.71 179.189 100.658 179.035 100.57C178.88 100.485 178.745 100.367 178.64 100.224C178.536 100.081 178.463 99.9177 178.428 99.7442L178.159 98.4474L178.131 98.3779C176.823 96.1954 174.307 94.6077 171.229 94.0257C168.489 93.5038 165.68 93.7695 162.972 94.0194C161.897 94.1206 160.684 94.2344 159.672 94.8544C158.813 95.3857 158.086 96.4485 158.234 97.5207C155.564 96.7015 152.701 98.3367 151.282 100.399C149.601 102.853 149.326 105.928 149.282 108.332C149.161 114.018 150.334 118.671 152.758 122.163C152.935 122.416 152.979 122.944 153.33 123.121L153.257 123.004C153.649 123.2 154.047 123.517 153.899 123.855C153.472 124.829 156.307 126.983 158.304 127.695C161.948 128.995 166.792 128.884 170.199 128.416L170.319 127.609C171.548 127.442 172.414 127.122 172.658 126.623C173.087 126.256 173.454 125.927 173.773 125.623L173.776 125.62C173.783 125.614 173.795 125.604 173.802 125.598C175.341 124.121 175.698 123.279 175.859 121.998C176.014 120.743 175.739 119.468 175.458 118.32C181.38 119.237 173.125 112.007 178.643 110.609C178.706 110.589 178.771 110.573 178.836 110.561C178.997 110.523 179.158 110.485 179.313 110.441C180.059 110.238 180.774 109.933 181.437 109.533C182.979 108.594 183.488 107.348 184.284 105.944C184.399 105.744 184.447 105.512 184.421 105.283C184.396 105.054 184.298 104.839 184.142 104.669Z" fill="#2F2E41"/>
<path d="M214.912 175.948C214.909 176.502 214.903 177.277 214.878 178.235C214.875 178.368 214.871 178.504 214.868 178.643C214.827 180.405 214.786 181.882 214.72 183.523C214.717 183.637 214.713 183.748 214.707 183.862C214.619 186.152 214.479 188.818 214.239 193.041C213.794 200.84 213.016 194.113 212.236 196.849C212.198 196.985 212.157 197.146 212.119 197.336C212.001 198.024 211.801 198.697 211.525 199.338C211.111 199.585 210.684 199.822 210.264 200.059C209.066 200.727 207.849 201.369 206.623 201.979C205.934 202.321 205.242 202.656 204.547 202.979C204.436 203.029 204.329 203.08 204.221 203.127C200.661 204.775 196.992 206.177 193.24 207.321C192.507 207.543 191.777 207.758 191.037 207.957C190.266 208.172 189.495 208.374 188.714 208.564C182.908 209.991 176.966 210.796 170.989 210.965C170.183 210.99 169.371 211 168.555 211C168.151 211 167.753 210.997 167.348 210.993C167.225 210.993 167.102 210.99 166.979 210.987C166.621 210.978 166.252 210.971 165.879 210.962C158.667 210.737 151.514 209.585 144.595 207.536L144.301 207.451C143.846 207.312 143.394 207.176 142.942 207.03C140.856 206.369 138.801 205.629 136.776 204.81C135.231 204.187 133.704 203.518 132.194 202.805C132.18 202.801 132.167 202.794 132.156 202.786C131.84 202.64 131.521 202.488 131.205 202.333C131.164 202.311 131.12 202.289 131.075 202.267C129.897 201.691 128.731 201.088 127.577 200.458C126.607 198.228 125.242 197.801 124.395 195.84C124.148 195.257 123.97 194.648 123.864 194.024C123.864 194.018 123.861 194.012 123.861 194.002C123.949 195.179 123.485 191.915 123.858 193.99C123.854 193.952 123.851 193.91 123.848 193.863C123.839 193.749 123.826 193.61 123.807 193.436C122.723 182.843 122.793 170.729 122.322 160.747C122.29 160.102 122.257 159.484 122.224 158.894C122.214 158.698 122.202 158.505 122.189 158.315C122.211 158.258 122.236 158.198 122.265 158.141C122.271 158.125 122.278 158.109 122.287 158.094C122.296 158.074 122.307 158.055 122.319 158.037C122.325 158.027 122.334 158.015 122.341 158.005C122.345 157.994 122.351 157.984 122.356 157.973C122.385 157.929 122.416 157.882 122.451 157.837C122.467 157.818 122.48 157.803 122.496 157.787C122.506 157.771 122.519 157.756 122.533 157.743C122.543 157.727 122.555 157.714 122.568 157.701C122.581 157.689 122.593 157.673 122.609 157.657C122.616 157.647 122.625 157.639 122.635 157.632C122.66 157.603 122.687 157.577 122.717 157.553C122.829 157.449 122.95 157.354 123.077 157.268C123.121 157.24 123.169 157.211 123.213 157.18C123.531 156.989 123.867 156.828 124.215 156.699C124.335 156.655 124.455 156.613 124.584 156.569C124.632 156.557 124.676 156.541 124.723 156.525C124.793 156.503 124.862 156.481 124.935 156.465C125.295 156.357 125.684 156.266 126.104 156.18C126.155 156.171 126.209 156.161 126.262 156.148C126.338 156.133 126.417 156.12 126.496 156.107C126.604 156.088 126.714 156.069 126.825 156.05C127.764 155.902 128.829 155.791 130.004 155.718C130.115 155.712 130.225 155.706 130.336 155.699C130.466 155.693 130.595 155.687 130.728 155.68C130.838 155.674 130.952 155.671 131.066 155.668C131.177 155.661 131.29 155.658 131.407 155.655C131.726 155.646 132.055 155.636 132.39 155.63C133.344 155.611 134.349 155.617 135.405 155.639C135.895 155.652 136.394 155.665 136.906 155.687C136.941 155.687 136.972 155.69 137.004 155.69C137.45 155.706 137.898 155.725 138.36 155.75C138.682 155.766 139.008 155.782 139.333 155.801C139.64 155.82 139.949 155.839 140.262 155.861C140.505 155.873 140.749 155.892 140.995 155.908C141.204 155.924 141.412 155.94 141.621 155.952L141.905 155.971C142.06 155.984 142.215 155.994 142.373 156.009C142.721 156.038 143.068 156.066 143.422 156.095C143.773 156.126 144.13 156.158 144.487 156.19C144.844 156.221 145.205 156.256 145.565 156.291C145.603 156.294 145.638 156.297 145.672 156.3C146.001 156.335 146.33 156.367 146.662 156.402C146.737 156.408 146.816 156.414 146.892 156.424C147.209 156.455 147.531 156.493 147.85 156.527C147.948 156.537 148.046 156.548 148.144 156.558C148.394 156.586 148.641 156.609 148.893 156.639C149.224 156.677 149.563 156.711 149.891 156.756C150.147 156.784 150.403 156.813 150.659 156.844C151.061 156.892 151.468 156.942 151.876 156.996C152.031 157.015 152.186 157.034 152.34 157.056C153.503 157.202 154.679 157.363 155.874 157.531C157.684 157.787 159.524 158.065 161.375 158.366C163.23 158.666 165.096 158.984 166.972 159.318C167.446 159.403 167.92 159.489 168.397 159.577C168.612 159.618 168.827 159.659 169.042 159.7C169.409 159.767 169.775 159.836 170.142 159.906C170.508 159.976 170.875 160.045 171.242 160.118C171.678 160.203 172.117 160.289 172.553 160.374C175.426 160.943 178.282 161.551 181.07 162.186C181.528 162.291 181.986 162.398 182.441 162.503C183.351 162.715 184.253 162.93 185.146 163.148C185.393 163.205 185.636 163.265 185.88 163.325C186.486 163.477 187.093 163.629 187.69 163.784L187.795 163.812C188.234 163.92 188.664 164.03 189.094 164.144C190.108 164.41 191.106 164.679 192.086 164.951C192.737 165.131 193.381 165.314 194.017 165.498C194.968 165.773 195.901 166.052 196.808 166.333C197.032 166.403 197.256 166.472 197.478 166.539C198.141 166.744 198.795 166.953 199.431 167.162C199.936 167.326 200.429 167.494 200.916 167.661C201.403 167.829 201.88 167.997 202.347 168.164C202.648 168.272 202.945 168.386 203.242 168.493C203.668 168.651 204.089 168.81 204.5 168.968C204.626 169.015 204.749 169.066 204.872 169.113C204.951 169.148 205.027 169.176 205.103 169.208C205.252 169.268 205.403 169.325 205.549 169.385C205.697 169.442 205.843 169.502 205.988 169.566C206.13 169.622 206.276 169.683 206.415 169.743C206.557 169.8 206.696 169.86 206.835 169.923C206.952 169.97 207.066 170.021 207.176 170.072C207.401 170.17 207.625 170.268 207.843 170.369C207.95 170.42 208.058 170.467 208.165 170.518L208.412 170.631C208.447 170.65 208.481 170.666 208.516 170.682C208.595 170.72 208.677 170.761 208.756 170.799C208.94 170.884 209.12 170.976 209.297 171.062C209.534 171.182 209.764 171.302 209.986 171.419C210.21 171.539 210.428 171.659 210.637 171.776C210.671 171.795 210.703 171.814 210.738 171.833C210.785 171.859 210.833 171.887 210.88 171.912C211.041 172.004 211.196 172.099 211.351 172.191C211.654 172.377 211.942 172.561 212.21 172.744C212.27 172.785 212.327 172.826 212.387 172.864C212.586 173.007 212.776 173.146 212.953 173.288C212.953 173.291 212.953 173.291 212.956 173.291C213.016 173.336 213.073 173.383 213.13 173.427C213.177 173.472 213.228 173.51 213.275 173.554C213.44 173.696 213.591 173.832 213.73 173.971C213.777 174.014 213.821 174.06 213.863 174.107C213.882 174.123 213.899 174.14 213.914 174.158C213.977 174.221 214.034 174.285 214.088 174.348C214.096 174.357 214.103 174.366 214.11 174.376C214.186 174.465 214.255 174.553 214.321 174.642C214.353 174.686 214.388 174.731 214.416 174.775C214.454 174.829 214.492 174.886 214.524 174.939C214.552 174.984 214.577 175.031 214.603 175.075C214.67 175.189 214.727 175.309 214.773 175.433C214.809 175.517 214.837 175.603 214.859 175.692C214.883 175.776 214.901 175.862 214.912 175.948Z" fill="#2F2E41"/>
<path opacity="0.2" d="M214.913 175.948C214.91 176.502 214.903 177.277 214.878 178.235C214.875 178.368 214.868 178.504 214.865 178.643C214.834 179.987 214.786 181.648 214.72 183.523C214.717 183.637 214.714 183.748 214.707 183.862C214.619 186.152 214.48 188.818 214.24 193.041C213.794 200.84 213.017 194.113 212.236 196.849C210.068 195.514 207.692 194.116 205.151 192.68C204.693 192.421 204.23 192.16 203.763 191.899C198.682 189.062 193.006 186.088 187.081 183.144C186.847 183.027 186.61 182.91 186.376 182.796C172.803 176.081 157.988 169.55 145.986 165.191C143.669 164.35 141.457 163.591 139.378 162.923C134.997 161.522 131.212 160.542 128.298 160.118C125.264 159.675 123.169 159.833 122.322 160.747C122.29 160.102 122.258 159.484 122.224 158.894C122.211 158.698 122.199 158.505 122.186 158.315C122.206 158.263 122.231 158.213 122.255 158.163C122.259 158.156 122.261 158.148 122.265 158.141C122.271 158.125 122.278 158.109 122.287 158.094C122.296 158.074 122.307 158.055 122.319 158.037C122.329 158.014 122.342 157.993 122.357 157.973C122.385 157.929 122.417 157.882 122.451 157.837C122.477 157.804 122.504 157.772 122.534 157.742C122.543 157.727 122.555 157.713 122.568 157.701C122.581 157.689 122.594 157.673 122.61 157.657C122.616 157.647 122.625 157.639 122.635 157.632C122.66 157.603 122.687 157.577 122.717 157.553C122.83 157.449 122.95 157.354 123.077 157.268C123.121 157.24 123.169 157.211 123.213 157.179C123.532 156.989 123.867 156.828 124.215 156.699C124.335 156.654 124.455 156.613 124.585 156.569C124.632 156.556 124.676 156.541 124.724 156.525C124.793 156.503 124.863 156.48 124.935 156.465C125.296 156.357 125.684 156.265 126.105 156.18C126.231 156.155 126.364 156.129 126.497 156.107C126.604 156.088 126.715 156.069 126.825 156.05C127.764 155.902 128.829 155.791 130.004 155.718C130.115 155.712 130.226 155.706 130.336 155.699C130.466 155.693 130.595 155.687 130.728 155.68C130.839 155.674 130.952 155.671 131.066 155.668C131.177 155.661 131.291 155.658 131.408 155.655C131.727 155.645 132.055 155.636 132.39 155.63C133.345 155.614 134.35 155.62 135.405 155.642C135.895 155.652 136.394 155.668 136.906 155.69C136.938 155.69 136.973 155.693 137.004 155.693C137.45 155.706 137.902 155.728 138.36 155.75C138.682 155.766 139.008 155.781 139.333 155.8C139.64 155.819 139.95 155.838 140.262 155.861C140.506 155.873 140.749 155.892 140.996 155.908C141.204 155.924 141.413 155.94 141.621 155.952C141.871 155.971 142.121 155.99 142.373 156.009C142.721 156.038 143.069 156.066 143.423 156.095C143.773 156.126 144.13 156.158 144.488 156.189C144.845 156.221 145.205 156.256 145.565 156.291C145.603 156.294 145.638 156.297 145.673 156.3C146.001 156.335 146.33 156.367 146.662 156.401C148.501 156.588 150.394 156.806 152.341 157.056C153.504 157.205 154.681 157.364 155.874 157.534C157.685 157.79 159.524 158.068 161.376 158.366C163.231 158.666 165.096 158.983 166.972 159.318C167.446 159.403 167.92 159.488 168.398 159.577C168.979 159.684 169.561 159.794 170.142 159.906C170.509 159.975 170.875 160.045 171.242 160.118C171.678 160.203 172.117 160.289 172.553 160.374C175.426 160.943 178.283 161.551 181.07 162.186C181.528 162.291 181.987 162.398 182.442 162.503C183.352 162.715 184.253 162.93 185.147 163.148C185.393 163.208 185.637 163.268 185.88 163.328C186.49 163.48 187.093 163.632 187.691 163.784V163.787C187.725 163.793 187.76 163.803 187.795 163.812C188.231 163.923 188.664 164.033 189.094 164.147C190.108 164.413 191.106 164.681 192.087 164.951C192.738 165.134 193.382 165.314 194.017 165.498C194.969 165.776 195.901 166.055 196.808 166.333C197.032 166.402 197.257 166.472 197.478 166.539C198.141 166.747 198.792 166.955 199.431 167.162C199.936 167.326 200.429 167.494 200.916 167.661C201.403 167.829 201.88 167.997 202.348 168.164C202.651 168.272 202.948 168.382 203.242 168.49C203.672 168.648 204.089 168.806 204.5 168.968C204.626 169.015 204.749 169.066 204.873 169.113C205.103 169.202 205.328 169.293 205.549 169.385C205.698 169.442 205.843 169.502 205.988 169.565C206.13 169.622 206.276 169.682 206.415 169.743C206.557 169.799 206.696 169.86 206.835 169.923C206.952 169.97 207.066 170.021 207.177 170.071C207.401 170.17 207.625 170.268 207.843 170.369C207.951 170.419 208.058 170.467 208.166 170.517L208.412 170.631C208.447 170.65 208.482 170.666 208.516 170.682C208.785 170.808 209.044 170.935 209.297 171.061C209.534 171.182 209.765 171.302 209.986 171.419C210.248 171.558 210.498 171.694 210.738 171.833C210.785 171.859 210.833 171.887 210.88 171.912C211.041 172.004 211.196 172.099 211.351 172.191C211.654 172.377 211.942 172.561 212.211 172.744C212.476 172.928 212.723 173.108 212.953 173.288C212.953 173.291 212.953 173.291 212.957 173.291C213.067 173.38 213.175 173.468 213.276 173.554C213.44 173.696 213.592 173.832 213.731 173.971C213.777 174.014 213.822 174.06 213.863 174.107C213.882 174.123 213.899 174.14 213.914 174.158C213.98 174.231 214.047 174.303 214.11 174.376C214.186 174.465 214.255 174.553 214.322 174.642C214.353 174.686 214.388 174.73 214.417 174.775C214.454 174.828 214.492 174.885 214.524 174.939C214.552 174.983 214.578 175.031 214.603 175.075C214.67 175.189 214.727 175.309 214.774 175.433C214.808 175.517 214.837 175.604 214.859 175.692C214.883 175.776 214.901 175.862 214.913 175.948Z" fill="black"/>
</g>
<defs>
<clipPath id="clip0_331_2660">
<rect width="248.651" height="181" fill="white" transform="translate(43 30)"/>
</clipPath>
</defs>
</svg>
