<svg width="670" height="447" viewBox="0 0 670 447" fill="none" xmlns="http://www.w3.org/2000/svg">
<rect width="670" height="447" rx="20" fill="white"/>
<mask id="mask0_622_49" style="mask-type:luminance" maskUnits="userSpaceOnUse" x="140" y="73" width="333" height="333">
<path d="M306.45 405.515C398.202 405.515 472.581 331.135 472.581 239.384C472.581 147.632 398.202 73.252 306.45 73.252C214.698 73.252 140.318 147.632 140.318 239.384C140.318 331.135 214.698 405.515 306.45 405.515Z" fill="white"/>
</mask>
<g mask="url(#mask0_622_49)">
<path d="M309.114 406.443C400.866 406.443 475.246 332.063 475.246 240.312C475.246 148.56 400.866 74.18 309.114 74.18C217.362 74.18 142.983 148.56 142.983 240.312C142.983 332.063 217.362 406.443 309.114 406.443Z" fill="#E1E7F8"/>
</g>
<mask id="mask1_622_49" style="mask-type:luminance" maskUnits="userSpaceOnUse" x="140" y="73" width="333" height="333">
<path d="M306.45 405.515C398.202 405.515 472.581 331.135 472.581 239.384C472.581 147.632 398.202 73.252 306.45 73.252C214.698 73.252 140.318 147.632 140.318 239.384C140.318 331.135 214.698 405.515 306.45 405.515Z" fill="white"/>
</mask>
<g mask="url(#mask1_622_49)">
<path d="M143.514 383.768C123.765 347.953 114.141 309.608 116.409 275.79C118.624 242.811 131.817 216.013 153.571 200.328C157.478 197.506 193.061 173.14 238.298 185.114C265.875 192.418 281.77 209.375 295.793 224.334C309.271 238.718 320.915 251.133 339.96 253.797C365.471 257.359 382.998 240.282 399.94 223.758C415.618 208.477 430.42 194.042 449.667 199.325C468.645 204.533 485.438 227.642 499.589 268.023L498.175 268.516C484.196 228.63 467.747 205.835 449.271 200.762C430.846 195.703 416.344 209.854 400.98 224.821C386.028 239.399 369.258 255.75 346.531 255.75C344.323 255.75 342.071 255.593 339.743 255.271C320.174 252.539 307.797 239.331 294.693 225.352C280.804 210.535 265.067 193.742 237.909 186.551C193.331 174.749 158.286 198.756 154.439 201.533C133.052 216.956 120.076 243.357 117.891 275.88C115.638 309.413 125.202 347.466 144.816 383.035L143.514 383.768Z" fill="#020617"/>
</g>
<mask id="mask2_622_49" style="mask-type:luminance" maskUnits="userSpaceOnUse" x="140" y="73" width="333" height="333">
<path d="M306.45 405.515C398.202 405.515 472.581 331.135 472.581 239.384C472.581 147.632 398.202 73.252 306.45 73.252C214.698 73.252 140.318 147.632 140.318 239.384C140.318 331.135 214.698 405.515 306.45 405.515Z" fill="white"/>
</mask>
<g mask="url(#mask2_622_49)">
<path d="M371.211 385.302C370.5 385.302 369.655 385.145 368.697 384.838C363.795 383.252 355.766 377.415 354.097 369.931C351.552 358.527 364.454 346.471 377.692 343.306C387.301 341.008 402.455 342.699 405.306 350.669C406.413 353.752 405.642 357.98 403.293 361.7C400.958 365.389 397.605 367.791 394.313 368.128C389.695 368.584 385.894 365.105 382.526 362.029C379.765 359.5 377.378 357.314 375.462 358.13C372.446 359.41 371.773 367.073 372.117 373.247L371.368 373.292L372.117 373.254C372.296 376.457 372.858 378.777 373.269 380.476C373.763 382.511 374.092 383.851 373.097 384.734C372.656 385.1 372.02 385.302 371.211 385.302ZM386.298 343.822C383.484 343.822 380.648 344.129 378.036 344.757C365.733 347.698 353.236 359.193 355.556 369.602C357.03 376.218 364.401 381.875 369.161 383.417C370.86 383.963 371.81 383.858 372.109 383.596C372.424 383.312 372.162 382.212 371.817 380.812C371.391 379.061 370.807 376.659 370.62 373.321C370.381 368.981 370.321 358.676 374.878 356.746C377.677 355.563 380.521 358.16 383.536 360.914C386.672 363.78 390.227 367.035 394.163 366.631C396.999 366.347 399.94 364.199 402.028 360.899C404.131 357.561 404.849 353.835 403.899 351.171C402.163 346.329 394.328 343.822 386.298 343.822Z" fill="#020617"/>
</g>
<mask id="mask3_622_49" style="mask-type:luminance" maskUnits="userSpaceOnUse" x="140" y="73" width="333" height="333">
<path d="M306.45 405.515C398.202 405.515 472.581 331.135 472.581 239.384C472.581 147.632 398.202 73.252 306.45 73.252C214.698 73.252 140.318 147.632 140.318 239.384C140.318 331.135 214.698 405.515 306.45 405.515Z" fill="white"/>
</mask>
<g mask="url(#mask3_622_49)">
<path d="M35.7154 238.92C35.5058 238.92 35.3038 238.837 35.1541 238.665C34.8772 238.358 34.9072 237.887 35.214 237.61C83.6989 194.558 131.129 169.144 176.186 162.08C177.863 161.818 179.786 161.541 181.949 161.227C190.562 159.985 203.576 158.106 221.394 154.14C225.45 153.235 229.461 152.367 233.412 151.513C265.022 144.689 292.314 138.792 314.427 120.345C327.186 109.704 334.071 99.7732 341.367 89.259C347.062 81.0422 352.959 72.5486 362.082 62.9399C387.046 36.6582 421.567 18.0918 464.701 7.77222C465.105 7.67493 465.51 7.92188 465.607 8.32599C465.704 8.73009 465.457 9.1342 465.053 9.23148C422.211 19.4837 387.929 37.9004 363.174 63.9726C354.127 73.4989 348.267 81.9477 342.602 90.1121C335.254 100.709 328.309 110.721 315.393 121.497C292.995 140.176 265.531 146.11 233.734 152.98C229.782 153.833 225.779 154.701 221.723 155.599C203.852 159.581 190.801 161.466 182.166 162.709C180.003 163.023 178.095 163.3 176.418 163.562C131.653 170.581 84.4772 195.875 36.2093 238.732C36.0671 238.86 35.8875 238.92 35.7154 238.92Z" fill="#020617"/>
</g>
<mask id="mask4_622_49" style="mask-type:luminance" maskUnits="userSpaceOnUse" x="140" y="73" width="333" height="333">
<path d="M306.45 405.515C398.202 405.515 472.581 331.135 472.581 239.384C472.581 147.632 398.202 73.252 306.45 73.252C214.698 73.252 140.318 147.632 140.318 239.384C140.318 331.135 214.698 405.515 306.45 405.515Z" fill="white"/>
</mask>
<g mask="url(#mask4_622_49)">
<path d="M461.445 217.933C461.578 215.871 458.265 213.98 454.046 213.709C449.827 213.438 446.299 214.89 446.166 216.952C446.034 219.014 449.347 220.905 453.566 221.176C457.785 221.447 461.313 219.995 461.445 217.933Z" fill="#020617"/>
<path d="M455.474 230.755C455.459 230.755 455.452 230.755 455.437 230.755C452.189 230.591 449.256 228.974 447.392 226.333C445.529 223.684 444.998 220.383 445.94 217.27C446.038 216.941 446.337 216.724 446.696 216.739C449.944 216.904 452.878 218.52 454.741 221.162C456.604 223.811 457.136 227.111 456.193 230.224C456.095 230.538 455.804 230.755 455.474 230.755ZM447.22 218.28C446.644 220.772 447.138 223.362 448.62 225.465C450.101 227.567 452.369 228.907 454.913 229.206C455.489 226.714 454.995 224.125 453.514 222.022C452.039 219.919 449.765 218.58 447.22 218.28Z" fill="#3E3472"/>
</g>
<mask id="mask5_622_49" style="mask-type:luminance" maskUnits="userSpaceOnUse" x="140" y="73" width="333" height="333">
<path d="M306.45 405.515C398.202 405.515 472.581 331.135 472.581 239.384C472.581 147.632 398.202 73.252 306.45 73.252C214.698 73.252 140.318 147.632 140.318 239.384C140.318 331.135 214.698 405.515 306.45 405.515Z" fill="white"/>
</mask>
<g mask="url(#mask5_622_49)">
<path d="M224.963 375.971C208.971 375.971 192.38 371.862 175.453 363.698C157.351 354.965 139.218 341.517 124.386 325.824C109.404 309.982 100.125 294.17 101.809 287.367C102.138 286.05 102.871 285.062 103.986 284.426C108.267 282.017 117.95 285.032 132.61 289.612C160.067 298.181 206.023 312.519 256.528 300.815C259.177 300.201 265.381 298.697 273.979 296.609C331.849 282.578 370.964 273.396 373.741 274.122C374.242 274.264 374.384 274.174 374.452 274.084C374.728 273.725 374.594 272.715 374.459 271.742C374.279 270.395 374.055 268.748 374.564 267.162C374.22 267.087 373.988 266.997 373.83 266.885C373.546 266.691 373.374 266.406 373.329 266.099C373.284 265.733 373.688 262.545 375.17 262.335C375.402 262.305 375.761 262.328 376.143 262.634C376.644 263.031 377.018 263.779 377.086 264.535C377.138 265.074 377.026 265.501 376.854 265.882C383.866 265.665 409.968 261.198 495.989 240.536C496.394 240.439 496.798 240.686 496.895 241.09C496.992 241.494 496.745 241.898 496.341 241.995C408.621 263.061 383.506 267.304 376.345 267.304C376.262 267.304 376.188 267.304 376.113 267.304C376.113 267.312 376.105 267.319 376.105 267.327C375.559 268.659 375.769 270.193 375.948 271.547C376.135 272.947 376.3 274.151 375.641 275.005C375.35 275.379 374.676 275.955 373.389 275.588C369.932 274.9 302.94 291.146 274.339 298.076C265.74 300.164 259.529 301.668 256.872 302.282C205.97 314.083 159.775 299.662 132.176 291.056C118.407 286.761 108.454 283.655 104.735 285.751C103.979 286.177 103.5 286.828 103.275 287.741C101.951 293.092 109.157 307.535 125.486 324.814C152.666 353.558 197.439 381.291 241.599 372.947C262.365 369.019 273.508 359.148 286.409 347.713C301.129 334.67 317.81 319.883 353.049 310.521C362.306 308.059 371.091 306.457 380.393 304.751C396.932 301.728 415.67 298.293 444.309 288.999C458.872 284.269 473.457 278.844 487.653 272.872C488.035 272.715 488.469 272.887 488.633 273.268C488.79 273.65 488.611 274.092 488.237 274.249C474.003 280.235 459.381 285.676 444.773 290.42C416.037 299.745 397.246 303.187 380.663 306.218C371.391 307.917 362.635 309.518 353.438 311.958C318.543 321.23 302.005 335.89 287.405 348.821C274.339 360.405 263.054 370.403 241.876 374.407C236.315 375.447 230.673 375.971 224.963 375.971ZM374.826 265.718C374.915 265.755 375.035 265.785 375.185 265.807C375.2 265.785 375.215 265.763 375.222 265.74C375.507 265.254 375.626 265.029 375.596 264.663C375.567 264.378 375.462 264.124 375.357 263.959C375.118 264.378 374.886 265.246 374.826 265.718Z" fill="#020617"/>
</g>
<mask id="mask6_622_49" style="mask-type:luminance" maskUnits="userSpaceOnUse" x="140" y="73" width="333" height="333">
<path d="M306.45 405.515C398.202 405.515 472.581 331.135 472.581 239.384C472.581 147.632 398.202 73.252 306.45 73.252C214.698 73.252 140.318 147.632 140.318 239.384C140.318 331.135 214.698 405.515 306.45 405.515Z" fill="white"/>
</mask>
<g mask="url(#mask6_622_49)">
<path d="M377.168 116.282C379.648 116.282 381.658 114.271 381.658 111.792C381.658 109.312 379.648 107.302 377.168 107.302C374.688 107.302 372.678 109.312 372.678 111.792C372.678 114.271 374.688 116.282 377.168 116.282Z" fill="#020617"/>
<path d="M372.686 114.785C369.797 114.785 367.447 112.435 367.447 109.547C367.447 106.658 369.797 104.308 372.686 104.308C375.574 104.308 377.924 106.658 377.924 109.547C377.924 112.435 375.567 114.785 372.686 114.785ZM372.686 105.805C370.62 105.805 368.944 107.481 368.944 109.547C368.944 111.612 370.62 113.288 372.686 113.288C374.751 113.288 376.427 111.612 376.427 109.547C376.427 107.481 374.744 105.805 372.686 105.805Z" fill="#3E3472"/>
</g>
<mask id="mask7_622_49" style="mask-type:luminance" maskUnits="userSpaceOnUse" x="140" y="73" width="333" height="333">
<path d="M306.45 405.515C398.202 405.515 472.581 331.135 472.581 239.384C472.581 147.632 398.202 73.252 306.45 73.252C214.698 73.252 140.318 147.632 140.318 239.384C140.318 331.135 214.698 405.515 306.45 405.515Z" fill="white"/>
</mask>
<g mask="url(#mask7_622_49)">
<path d="M243.963 173.155C241.075 173.155 238.725 170.806 238.725 167.917C238.725 165.028 241.075 162.679 243.963 162.679C246.852 162.679 249.202 165.028 249.202 167.917C249.202 170.806 246.852 173.155 243.963 173.155ZM243.963 164.175C241.898 164.175 240.222 165.852 240.222 167.917C240.222 169.982 241.898 171.659 243.963 171.659C246.029 171.659 247.705 169.982 247.705 167.917C247.705 165.852 246.029 164.175 243.963 164.175Z" fill="#020617"/>
</g>
<mask id="mask8_622_49" style="mask-type:luminance" maskUnits="userSpaceOnUse" x="140" y="73" width="333" height="333">
<path d="M306.45 405.515C398.202 405.515 472.581 331.135 472.581 239.384C472.581 147.632 398.202 73.252 306.45 73.252C214.698 73.252 140.318 147.632 140.318 239.384C140.318 331.135 214.698 405.515 306.45 405.515Z" fill="white"/>
</mask>
<g mask="url(#mask8_622_49)">
<path d="M341.996 349.764C343.649 349.764 344.989 348.424 344.989 346.77C344.989 345.117 343.649 343.777 341.996 343.777C340.343 343.777 339.003 345.117 339.003 346.77C339.003 348.424 340.343 349.764 341.996 349.764Z" fill="#020617"/>
</g>
<mask id="mask9_622_49" style="mask-type:luminance" maskUnits="userSpaceOnUse" x="140" y="73" width="333" height="333">
<path d="M306.45 405.515C398.202 405.515 472.581 331.135 472.581 239.384C472.581 147.632 398.202 73.252 306.45 73.252C214.698 73.252 140.318 147.632 140.318 239.384C140.318 331.135 214.698 405.515 306.45 405.515Z" fill="white"/>
</mask>
<g mask="url(#mask9_622_49)">
<path d="M248.454 120.772C248.057 120.772 247.728 120.465 247.705 120.068C247.683 119.657 247.997 119.305 248.409 119.275C264.738 118.347 275.132 110.766 275.394 104.278C275.573 99.9004 271.36 95.3505 267.701 92.7912C265.261 91.085 263.578 90.5911 263.144 90.6883C262.829 91.5265 264.498 95.4179 265.404 97.5207C267.229 101.786 267.925 103.545 266.788 104.211C265.987 104.682 265.269 103.979 264.191 102.909C263.151 101.884 261.587 100.334 259.29 98.965C255.713 96.8397 250.916 95.343 249.741 96.5853C248.813 97.5806 250.137 100.716 251.103 103.006C252.255 105.752 253.093 107.736 251.896 108.641C251.013 109.307 249.995 108.708 248.311 107.721C247.047 106.98 245.318 105.954 242.931 104.997C240.843 104.158 236.488 102.407 235.492 103.35C235.193 103.635 234.056 105.595 240.85 116.633C241.068 116.985 240.955 117.449 240.604 117.666C240.252 117.883 239.788 117.771 239.571 117.419C232.596 106.097 233.315 103.35 234.452 102.265C236.016 100.783 239.466 101.996 243.477 103.612C245.962 104.615 247.75 105.663 249.06 106.433C249.801 106.867 250.631 107.361 250.968 107.421C251.08 106.845 250.265 104.899 249.711 103.597C248.461 100.634 247.047 97.2737 248.641 95.5675C250.946 93.1055 257.658 96.256 260.045 97.6778C262.5 99.1371 264.146 100.761 265.231 101.839C265.374 101.973 265.516 102.123 265.658 102.258C265.329 101.188 264.595 99.4664 264.012 98.1044C262.014 93.4422 260.854 90.5237 262.201 89.491C262.942 88.9223 264.296 89.1393 266.234 90.1421C270.799 92.5068 277.115 98.4711 276.876 104.331C276.584 111.634 265.882 119.776 248.484 120.764C248.484 120.772 248.469 120.772 248.454 120.772Z" fill="#020617"/>
</g>
<mask id="mask10_622_49" style="mask-type:luminance" maskUnits="userSpaceOnUse" x="140" y="73" width="333" height="333">
<path d="M306.45 405.515C398.202 405.515 472.581 331.135 472.581 239.384C472.581 147.632 398.202 73.252 306.45 73.252C214.698 73.252 140.318 147.632 140.318 239.384C140.318 331.135 214.698 405.515 306.45 405.515Z" fill="white"/>
</mask>
<g mask="url(#mask10_622_49)">
<path d="M357.614 211.171C344.944 211.171 334.018 203.306 328.496 194.977C316.021 176.149 324.125 147.914 339.159 137.085C348.499 130.358 358.923 131.241 369.011 132.094C379.682 133 389.762 133.853 399.004 126.631C406.398 120.854 411.09 111.447 412.946 98.6732C413.006 98.2616 413.38 97.9772 413.791 98.0371C414.203 98.0969 414.487 98.4786 414.428 98.8827C412.519 112.046 407.64 121.782 399.932 127.799C390.226 135.379 379.383 134.459 368.891 133.576C358.631 132.708 348.933 131.884 340.043 138.29C325.54 148.737 317.72 175.984 329.753 194.146C335.455 202.752 347.174 210.849 360.487 209.532C369.609 208.627 378.358 203.366 384.494 195.104C389.411 188.474 391.663 181.05 390.511 175.251C389.455 169.945 385.699 166.78 382.675 164.235C380.086 162.058 377.856 160.179 378.552 157.695C379.682 153.676 387.832 151.603 395.083 151.012C408.052 149.949 423.834 152.726 427.845 161.324C430.951 167.977 426.012 176.029 422.038 182.495C419.217 187.09 416.553 191.437 418.027 193.368C420.272 196.309 431.55 195.149 472.454 172.961C472.813 172.759 473.27 172.901 473.472 173.26C473.666 173.627 473.531 174.076 473.172 174.278C427.8 198.891 419.292 197.484 416.845 194.281C414.742 191.535 417.533 186.985 420.766 181.716C424.747 175.228 429.252 167.88 426.491 161.96C422.944 154.365 408.067 151.454 395.203 152.509C386.851 153.19 380.737 155.442 379.989 158.106C379.577 159.588 381.104 160.965 383.633 163.098C386.664 165.65 390.817 169.152 391.977 174.974C393.205 181.178 390.855 189.043 385.691 196.01C379.308 204.616 370.171 210.094 360.637 211.036C359.612 211.126 358.601 211.171 357.614 211.171Z" fill="#020617"/>
</g>
<mask id="mask11_622_49" style="mask-type:luminance" maskUnits="userSpaceOnUse" x="140" y="73" width="333" height="333">
<path d="M306.45 405.515C398.202 405.515 472.581 331.135 472.581 239.384C472.581 147.632 398.202 73.252 306.45 73.252C214.698 73.252 140.318 147.632 140.318 239.384C140.318 331.135 214.698 405.515 306.45 405.515Z" fill="white"/>
</mask>
<g mask="url(#mask11_622_49)">
<path d="M361.318 172.183L365.135 173.986C366.003 174.398 366.078 175.61 365.262 176.119L361.685 178.364C361.49 178.491 361.333 178.663 361.228 178.873L359.425 182.689C359.013 183.557 357.801 183.632 357.292 182.817L355.047 179.239C354.92 179.045 354.748 178.888 354.538 178.783L350.722 176.979C349.854 176.568 349.779 175.356 350.594 174.847L354.172 172.602C354.366 172.474 354.523 172.302 354.628 172.093L356.432 168.276C356.843 167.408 358.055 167.333 358.564 168.149L360.809 171.726C360.929 171.928 361.101 172.085 361.318 172.183Z" fill="#020617"/>
</g>
<path d="M465.472 342.28C468.365 342.28 470.711 339.935 470.711 337.042C470.711 334.149 468.365 331.804 465.472 331.804C462.579 331.804 460.234 334.149 460.234 337.042C460.234 339.935 462.579 342.28 465.472 342.28Z" fill="#E1E7F8"/>
<path d="M139.465 297.956C138.926 299.528 138.051 301.189 136.839 302.768C135.933 303.95 134.938 304.968 133.913 305.799C132.648 305.477 131.316 304.968 129.999 304.272C128.233 303.337 126.736 302.199 125.599 301.002C123.526 298.817 122.643 296.437 123.541 294.731C124.573 292.785 127.627 292.261 131.144 293.159C133.965 290.877 136.951 290.076 138.702 291.408C140.236 292.583 140.431 295.112 139.465 297.956Z" fill="#E1E7F8"/>
<path d="M137.662 308.044C137.602 308.044 137.534 308.036 137.475 308.021C136.09 307.67 134.721 307.131 133.396 306.427C131.623 305.492 130.036 304.31 128.801 303.007C126.414 300.493 125.598 297.821 126.631 295.868C127.776 293.706 130.859 292.942 134.713 293.833C137.841 291.408 140.962 290.817 142.9 292.299C144.651 293.646 145.025 296.407 143.918 299.692C143.334 301.398 142.391 303.135 141.179 304.721C140.243 305.941 139.218 307.004 138.133 307.879C137.998 307.984 137.834 308.044 137.662 308.044ZM131.772 294.985C129.924 294.985 128.509 295.539 127.956 296.579C127.252 297.911 127.993 299.984 129.894 301.982C131.016 303.165 132.468 304.25 134.1 305.11C135.207 305.694 136.345 306.158 137.482 306.48C138.373 305.724 139.211 304.833 139.989 303.816C141.097 302.364 141.965 300.777 142.496 299.221C143.379 296.609 143.184 294.416 141.987 293.496C140.61 292.448 137.939 293.144 135.357 295.24C135.17 295.389 134.93 295.442 134.698 295.382C133.658 295.112 132.663 294.985 131.772 294.985Z" fill="#241B55"/>
<path d="M401.729 78.9618C402.268 80.5333 403.143 82.1947 404.356 83.7736C405.261 84.956 406.256 85.9738 407.282 86.8044C408.546 86.4826 409.878 85.9738 411.195 85.2778C412.961 84.3424 414.458 83.2049 415.596 82.0076C417.669 79.8224 418.552 77.4427 417.654 75.7365C416.621 73.7908 413.568 73.267 410.05 74.165C407.229 71.8825 404.243 71.0818 402.492 72.4138C400.958 73.5813 400.764 76.1107 401.729 78.9618Z" fill="#E1E7F8"/>
<path d="M403.532 89.0495C403.36 89.0495 403.196 88.9896 403.061 88.8848C401.976 88.0093 400.95 86.9467 400.015 85.7343C398.803 84.1479 397.86 82.4117 397.276 80.7055C396.161 77.4203 396.543 74.6589 398.286 73.3194C400.232 71.8377 403.345 72.4288 406.481 74.8535C410.335 73.9555 413.418 74.7263 414.563 76.8815C415.596 78.8346 414.78 81.5062 412.393 84.0206C411.165 85.3227 409.571 86.5051 407.798 87.4406C406.473 88.144 405.096 88.6753 403.719 89.027C403.652 89.0345 403.592 89.0495 403.532 89.0495ZM398.69 80.2116C399.222 81.7681 400.09 83.3546 401.197 84.8139C401.976 85.8241 402.821 86.7221 403.704 87.4705C404.849 87.1487 405.987 86.6922 407.087 86.1085C408.718 85.2479 410.178 84.1628 411.293 82.9804C413.193 80.9824 413.934 78.9095 413.231 77.5699C412.415 76.0358 409.699 75.5569 406.473 76.3801C406.249 76.44 406.002 76.3876 405.815 76.2379C403.233 74.1425 400.569 73.4466 399.184 74.4943C398.002 75.4147 397.807 77.6074 398.69 80.2116Z" fill="#241B55"/>
<path d="M341.255 68.3878H321.798C319.321 68.3878 317.308 66.3748 317.308 63.8978C317.308 61.4207 319.321 59.4077 321.798 59.4077H341.255C343.732 59.4077 345.745 61.4207 345.745 63.8978C345.745 66.3748 343.725 68.3878 341.255 68.3878ZM321.798 60.9044C320.145 60.9044 318.805 62.2439 318.805 63.8978C318.805 65.5516 320.145 66.8911 321.798 66.8911H341.255C342.909 66.8911 344.249 65.5516 344.249 63.8978C344.249 62.2439 342.909 60.9044 341.255 60.9044H321.798Z" fill="#241B55"/>
<path d="M491.297 300.448C490.399 300.448 489.539 300.089 488.888 299.415L485.617 296.04L481.038 294.963C479.81 294.671 478.882 293.78 478.546 292.568C478.209 291.356 478.553 290.114 479.451 289.238L482.826 285.968L483.904 281.388C484.188 280.161 485.086 279.233 486.298 278.896C487.511 278.559 488.753 278.903 489.629 279.801L492.899 283.176L497.479 284.254C498.706 284.538 499.634 285.436 499.971 286.649C500.307 287.861 499.963 289.111 499.065 289.986L495.69 293.257L494.612 297.836C494.321 299.064 493.43 299.992 492.218 300.328C491.911 300.403 491.604 300.448 491.297 300.448ZM487.219 280.258C487.047 280.258 486.875 280.28 486.703 280.325C486.029 280.512 485.528 281.029 485.363 281.717L484.233 286.507C484.203 286.649 484.128 286.776 484.023 286.873L480.491 290.301C479.99 290.787 479.795 291.483 479.982 292.164C480.169 292.845 480.686 293.339 481.374 293.504L486.164 294.634C486.306 294.663 486.433 294.738 486.53 294.843L489.958 298.375C490.444 298.877 491.14 299.071 491.821 298.884C492.495 298.697 492.996 298.181 493.161 297.492L494.291 292.703C494.321 292.561 494.395 292.433 494.5 292.336L498.032 288.909C498.534 288.422 498.728 287.726 498.541 287.045C498.354 286.372 497.838 285.87 497.149 285.706L492.36 284.576C492.218 284.546 492.091 284.471 491.993 284.366L488.566 280.834C488.199 280.46 487.72 280.258 487.219 280.258Z" fill="#E1E7F8"/>
<path d="M125.194 239.84C124.783 239.84 124.446 239.503 124.446 239.092C124.446 189.918 143.596 143.693 178.364 108.918C213.132 74.1425 259.364 55 308.538 55C308.949 55 309.286 55.3368 309.286 55.7483C309.286 56.1599 308.949 56.4967 308.538 56.4967C207.856 56.4967 125.943 138.41 125.943 239.092C125.943 239.503 125.606 239.84 125.194 239.84Z" fill="#E1E7F8"/>
<path d="M549.503 408.217H97.506C96.6828 408.217 96.0093 407.543 96.0093 406.72C96.0093 405.897 96.6828 405.223 97.506 405.223H549.503C550.327 405.223 551 405.897 551 406.72C551 407.543 550.327 408.217 549.503 408.217Z" fill="#1D123A"/>
<path d="M89.2741 408.217H65.3272C64.5041 408.217 63.8306 407.543 63.8306 406.72C63.8306 405.897 64.5041 405.223 65.3272 405.223H89.2741C90.0973 405.223 90.7708 405.897 90.7708 406.72C90.7708 407.543 90.0973 408.217 89.2741 408.217Z" fill="#1D123A"/>
<mask id="mask12_622_49" style="mask-type:luminance" maskUnits="userSpaceOnUse" x="171" y="55" width="421" height="353">
<path d="M591.963 55H171V408H591.963V55Z" fill="white"/>
</mask>
<g mask="url(#mask12_622_49)">
<path d="M331.646 162.49C331.646 162.49 320.719 137.295 323.242 135.889C325.772 134.483 326.171 136.717 326.475 137.685C326.78 138.654 330.349 147.05 330.349 147.05C330.482 146.753 330.622 146.456 330.755 146.159C327.67 137.162 325.569 130.352 325.132 128.126C324.952 127.22 324.874 126.142 325.499 125.424C325.858 125.002 326.46 124.705 326.959 124.736C328.326 124.822 329.068 127.407 330.24 130.781C332.458 137.193 334.98 142.887 334.988 142.918C335.207 142.801 335.418 142.676 335.636 142.559C333.559 136.897 332.106 132.195 331.122 128.751C330.271 125.775 329.271 121.979 330.763 120.862C330.802 120.831 331.357 120.425 332.028 120.534C333.379 120.753 334.067 122.87 334.387 123.901C339.034 138.779 339.448 140.887 339.448 140.887C339.776 140.731 340.112 140.575 340.44 140.419C335.668 122.776 336.285 120.105 336.956 119.73C337.8 119.261 338.479 119.48 338.479 119.48C338.682 119.543 339.221 119.777 339.651 120.784C340.291 122.268 342.392 129.375 345.055 139.115C345.782 141.02 346.508 142.918 347.242 144.824C347.242 144.824 350.507 136.1 352.358 134.975C352.826 134.694 353.295 134.78 353.295 134.78C353.295 134.78 354.115 134.858 354.849 135.866C356.216 137.74 354.513 146.003 353.787 150.83C353.256 154.36 352.655 161.475 352.655 161.475C352.608 165.864 352.561 170.261 352.514 174.65C348.289 175.689 344.064 176.728 339.838 177.759C337.105 172.682 334.371 167.59 331.646 162.49Z" fill="#FFB1A9"/>
<path d="M335.473 158.062L334.895 157.992C335.129 156.133 335.925 154.274 337.261 152.478C338.323 151.048 339.721 149.658 341.416 148.33C344.306 146.081 347.11 144.793 347.133 144.777L347.375 145.308C347.344 145.324 344.595 146.589 341.76 148.799C339.167 150.814 335.972 154.063 335.473 158.062Z" fill="#FF7E7A"/>
<path d="M432.216 228.821C435.215 243.403 434.864 246.823 433.919 247.136C433.177 247.378 432.216 245.636 427.741 240.958C423.898 236.936 423.703 237.287 422.797 236.014C418.322 229.727 420.532 217.77 425.265 216.247C426.14 215.966 427.702 215.849 430.209 217.481C428.772 215.169 428.811 213.459 428.975 212.537C429.967 206.828 440.463 202.626 445.032 206.359C445.571 206.797 447.36 208.437 447.5 212.537C448.039 211.444 449.5 208.882 452.444 207.593C456.911 205.649 463.417 207.242 464.8 211.295C465.667 213.849 464.198 216.473 463.566 217.473C467.916 215.107 473.18 217.208 474.679 221.175C476.07 224.846 474.023 229.508 469.736 231.055C474.992 233.695 475.687 236.92 475.796 237.514C476.757 242.692 470.681 249.916 459.606 252.462C459.637 252.189 459.825 250.205 458.364 248.729C457.419 247.776 456.302 247.55 455.873 247.487C447.992 241.27 440.104 235.046 432.216 228.821Z" fill="#1D123A"/>
<path d="M573.516 698.012C569.923 700.074 565.792 702.135 561.129 703.963C557.451 705.408 553.85 706.548 550.406 707.423C549.148 707.743 547.914 708.032 546.704 708.29C540.058 709.711 534.044 710.242 529.053 710.367C525.46 703.619 521.477 695.856 517.26 687.117C516.666 685.891 516.073 684.657 515.479 683.415C514.823 682.04 514.167 680.658 513.511 679.236C512.941 678.026 512.379 676.792 511.793 675.542C508.146 667.599 504.397 659.016 500.64 649.839C498.133 643.724 492.83 630.517 485.817 609.531C485.41 608.305 484.989 607.063 484.567 605.775C484.106 604.4 483.653 602.987 483.185 601.534C482.786 600.308 482.396 599.074 481.99 597.816C480.06 591.787 478.038 585.25 475.937 578.19C472.055 565.194 467.861 550.237 463.573 533.461C463.261 532.227 462.941 530.978 462.636 529.728C462.355 528.588 462.058 527.44 461.769 526.284C461.472 525.058 461.168 523.824 460.856 522.582C456.615 505.212 452.358 486.07 448.328 465.279C447.945 463.28 447.563 461.265 447.18 459.242C446.266 464.28 445.337 469.715 444.423 475.534C442.236 489.366 440.088 505.329 438.394 523.058C438.269 524.284 438.159 525.518 438.05 526.752C437.917 528.111 437.792 529.486 437.683 530.868C437.667 531.001 437.66 531.126 437.644 531.267C437.605 531.602 437.511 532.797 437.363 534.664C436.832 541.482 435.668 557.305 435.176 573.269C434.903 581.782 434.832 590.256 434.903 598.621C434.918 599.855 434.926 601.089 434.949 602.323C434.973 604.002 434.996 605.681 435.035 607.352C435.059 608.625 435.098 609.898 435.137 611.172C435.754 634.656 437.488 656.853 439.448 675.855C439.581 677.089 439.706 678.315 439.831 679.525C440.042 681.376 440.237 683.18 440.432 684.961C440.581 686.242 440.729 687.507 440.862 688.757C441.877 697.34 442.885 705.049 443.814 711.633C439.456 713.773 431.388 717.092 420.876 717.756C419.681 717.826 418.439 717.881 417.174 717.881C416.182 717.881 415.182 717.857 414.175 717.81C412.652 717.74 411.199 717.599 409.793 717.428C408.497 717.264 407.239 717.068 406.037 716.834C400.71 715.834 396.368 714.249 393.181 712.867C392.119 704.174 391.057 694.474 390.057 683.852C389.948 682.579 389.823 681.283 389.698 679.986C389.464 677.346 389.229 674.652 389.003 671.895C388.901 670.583 388.792 669.279 388.683 667.951C387.402 651.659 386.347 633.586 385.769 614.046C385.723 612.257 385.668 610.515 385.621 608.836C385.582 607.555 385.551 606.29 385.512 605.056C385.449 602.823 385.387 600.675 385.324 598.605C385.285 597.379 385.262 596.184 385.223 595.012C384.762 576.768 384.754 564.561 385.769 549.816C386.129 544.614 386.582 539.264 387.128 533.828C387.253 532.602 387.378 531.36 387.495 530.126C387.691 528.221 387.902 526.307 388.128 524.394C388.253 523.23 388.386 522.059 388.534 520.887C391.525 495.489 395.844 469.231 399.531 447.73C399.742 446.496 399.952 445.285 400.163 444.083C400.476 442.255 400.78 440.467 401.077 438.725C401.288 437.514 401.499 436.319 401.694 435.156C403.897 422.48 405.638 412.374 406.349 406.415C406.396 405.985 406.779 402.845 407.31 398.519C408.114 392.146 408.942 385.819 409.817 379.556C438.058 386.187 466.268 392.849 494.509 399.479L494.642 400.292L495.892 407.836L500.992 438.647L501.601 442.318L501.921 444.27L502.538 448.003L514.37 519.551L514.987 523.23L515.346 525.456L515.963 529.15L523.157 572.605C526.046 580.001 528.959 587.429 531.904 594.864C532.372 596.059 532.857 597.27 533.333 598.48C533.802 599.675 534.27 600.878 534.754 602.073C535.223 603.283 535.707 604.51 536.184 605.72C540.112 615.615 544.064 625.534 548.071 635.492C553.061 647.918 558.068 660.281 563.082 672.567C563.574 673.777 564.074 674.988 564.55 676.183C565.042 677.378 565.526 678.58 566.018 679.767C566.51 680.978 567.01 682.189 567.502 683.399C569.494 688.257 571.501 693.146 573.516 698.012Z" fill="#FFB845"/>
<path d="M505.927 281.133C504.459 285.679 502.429 292.669 500.812 301.478C500.32 304.212 499.859 307.102 499.469 310.14C499.383 310.835 499.297 311.499 499.219 312.163C499.195 312.412 499.172 312.647 499.148 312.865V312.881C499.062 313.607 499 314.342 498.93 315.044C498.563 318.926 498.375 322.472 498.297 325.877C498.195 330.805 498.313 335.437 498.43 340.404C498.602 347.62 498.773 355.501 498.235 365.872C497.836 373.308 496.938 384.835 494.494 399.042C474.492 405.227 459.044 405.907 449.656 405.626C443.478 405.438 438.933 404.782 437.464 404.579C424.461 402.627 414.167 398.464 407.31 395.067C404.232 378.736 401.686 359.046 401.085 336.678C401.046 335.335 401.022 334 401.015 332.68C400.976 331.383 400.968 330.087 400.968 328.798C400.944 324.612 400.991 320.519 401.101 316.528C401.124 315.638 401.147 314.748 401.179 313.857C401.202 313.256 401.218 312.67 401.249 312.092V312.077C401.382 308.312 401.608 304.626 401.858 301.072C402.436 292.637 403.28 284.765 404.24 277.556C406.232 276.408 408.489 275.236 411.058 274.12C412.527 273.651 414.222 273.128 416.135 272.612C416.385 272.55 416.666 272.464 416.924 272.401C416.994 272.386 417.057 272.362 417.135 272.339C418.58 271.956 420.149 271.589 421.813 271.23C425.226 270.48 429.1 269.785 433.411 269.238C445.751 267.684 461.551 267.419 480.029 270.847C481.872 271.183 483.731 271.55 485.621 271.972C485.645 271.972 485.66 271.987 485.684 271.987C486.043 272.073 486.41 272.152 486.769 272.245C489.276 272.8 491.822 273.44 494.415 274.135C495.095 274.323 495.79 274.518 496.477 274.729C499.633 276.853 502.78 278.993 505.927 281.133Z" fill="#3940A0"/>
<path d="M459.934 250.151V278.798C459.934 283.015 457.583 286.967 453.74 288.701C451.296 289.802 448.594 290.232 445.923 289.849C444.837 289.693 443.845 289.42 442.939 289.068C438.768 287.444 436.082 283.343 436.082 278.868V250.151C436.082 244.074 441.01 239.146 447.086 239.146H448.929C455.006 239.146 459.934 244.074 459.934 250.151Z" fill="#FFB1A9"/>
<path d="M458.239 256.18C458.239 256.18 458.239 262.99 451.413 268.114C446.899 271.511 440.112 272.643 436.082 273.026V259.351L458.239 256.18Z" fill="#FF7E7A"/>
<path d="M462.488 247.667C464.839 247.667 466.744 245.377 466.744 242.551C466.744 239.726 464.839 237.436 462.488 237.436C460.137 237.436 458.231 239.726 458.231 242.551C458.231 245.377 460.137 247.667 462.488 247.667Z" fill="#FFB1A9"/>
<path d="M459.942 228.915C459.942 228.915 459.942 231.234 459.895 234.546C459.785 241.825 459.411 253.829 458.239 256.172C456.536 259.585 451.421 266.403 442.9 264.693C434.387 262.99 432.684 259.577 430.982 254.462C430.49 252.993 430.287 250.26 430.24 247.128C430.115 239.31 430.982 228.907 430.982 228.907C431.95 228.751 433.512 228.376 435.168 227.361C437.199 226.111 438.347 224.526 438.901 223.643C439.909 224.448 441.557 225.533 443.814 226.127C448.57 227.368 452.545 225.486 453.694 224.893C455.771 226.236 457.856 227.579 459.942 228.915Z" fill="#FFB1A9"/>
<path d="M459.895 234.546C460.145 237.483 460.332 241.848 459.871 247.136C459.496 251.447 459.309 253.61 458.239 256.18C457.614 257.679 454.654 264.271 447.516 266.903C445.782 267.544 440.791 269.379 436.402 266.903C433.637 265.341 432.419 262.803 431.458 260.725C428.295 253.892 429.365 246.987 430.224 243.434C430.365 244.121 430.669 245.105 431.458 245.902C433.005 247.472 435.301 247.237 440.104 247.136C441.807 247.105 444.353 247.073 447.516 247.136C448.5 247.011 454.514 246.12 457.864 240.841C459.418 238.404 459.793 235.983 459.895 234.546Z" fill="#1D123A"/>
<path d="M434.941 241.356C435.726 241.356 436.363 240.111 436.363 238.576C436.363 237.04 435.726 235.796 434.941 235.796C434.156 235.796 433.52 237.04 433.52 238.576C433.52 240.111 434.156 241.356 434.941 241.356Z" fill="#1D123A"/>
<path d="M449.64 238.576C449.64 240.115 449.007 241.356 448.219 241.356C447.438 241.356 446.797 240.115 446.797 238.576C446.797 237.037 447.43 235.796 448.219 235.796C449.007 235.796 449.64 237.037 449.64 238.576Z" fill="#1D123A"/>
<path d="M462.433 244.785C462.519 244.785 462.605 244.754 462.667 244.691C464.003 243.356 464.487 242.294 464.136 241.458C463.605 240.177 461.355 240.138 461.105 240.138C460.918 240.138 460.777 240.286 460.777 240.466C460.777 240.646 460.926 240.794 461.105 240.794C461.676 240.794 463.222 240.958 463.527 241.7C463.753 242.247 463.292 243.114 462.199 244.207C462.066 244.34 462.066 244.543 462.199 244.676C462.261 244.754 462.347 244.785 462.433 244.785Z" fill="#1D123A"/>
<path d="M437.222 249.979C437.222 249.979 444.696 249.979 448.43 248.737C448.43 248.737 448.43 252.47 445.938 253.72C443.447 254.961 438.464 253.72 437.222 249.979Z" fill="white"/>
<path d="M417.275 275.08C417.096 275.76 416.924 276.424 416.744 277.103C416.338 278.673 415.924 280.227 415.518 281.797C411.754 296.105 408.005 310.421 404.248 324.729C402.827 322.909 401.288 320.925 399.656 318.793C399.546 318.637 399.421 318.496 399.304 318.34C397.641 316.153 395.852 313.803 393.986 311.319C387.691 302.931 380.357 292.84 372.406 281.289C364.37 269.613 355.763 256.242 352.217 250.143C344.985 237.693 334.067 212.654 335.113 168.09C340.877 166.028 346.641 163.974 352.405 161.912C361.488 186.186 370.563 210.467 379.646 234.741C392.182 248.182 404.724 261.631 417.275 275.08Z" fill="#FFB1A9"/>
<path d="M505.193 312.561C503.139 314.466 501.148 316.247 499.226 317.903C499.203 318.129 499.179 318.348 499.148 318.567L499.008 318.09L493.861 300.432L500.812 307.883L505.193 312.561Z" fill="#1B2E4E"/>
<path d="M565.729 158.062L566.307 157.992C566.073 156.133 565.276 154.274 563.941 152.478C562.879 151.048 561.481 149.658 559.786 148.33C556.896 146.081 554.092 144.793 554.069 144.777L553.827 145.308C553.858 145.324 556.607 146.589 559.442 148.799C562.035 150.814 565.229 154.063 565.729 158.062Z" fill="#FF7E7A"/>
<path d="M483.926 273.846C484.106 274.526 484.278 275.19 484.457 275.869C484.864 277.439 485.278 278.993 485.684 280.563C489.448 294.871 493.197 309.187 496.954 323.495C498.375 321.675 499.914 319.691 501.546 317.559C501.655 317.403 501.78 317.262 501.897 317.106C503.561 314.919 505.349 312.569 507.216 310.085C519.595 293.606 525.499 285.147 528.795 280.055C528.795 280.055 537.504 266.606 545.087 249.619C558.95 218.598 562.543 186.17 563.613 168.09C558.669 165.622 553.733 163.146 548.789 160.678C539.706 184.952 530.631 209.233 521.548 233.507C509.02 246.948 496.477 260.397 483.926 273.846Z" fill="#FFB1A9"/>
<path d="M520.392 302.72L502.085 321.902L498.289 325.869L496.032 328.243L494.454 329.899C494.454 329.899 475.929 296.55 477.163 273.073L480.029 270.839L509.169 248.026C509.169 248.026 516.69 295.308 520.392 302.72Z" fill="#3940A0"/>
<path d="M421.805 271.222C422.04 280.477 406.747 334.835 406.747 334.835L401.882 329.743L400.952 328.782L396.063 323.667L379.568 306.422C373.391 295.308 391.69 247.651 391.69 247.651L421.805 271.222Z" fill="#3940A0"/>
<path d="M560.707 700.011C560.223 698.949 512.449 593.614 503.913 576.549C495.22 559.164 478.092 410.601 477.366 404.29L481.045 403.868C481.224 405.407 498.82 558.086 507.224 574.894C515.784 592.021 563.597 697.426 564.074 698.488L560.707 700.011Z" fill="#241B55"/>
<path d="M547.344 709.602C544.892 704.643 487.144 588.069 482.232 575.792C477.249 563.335 462.949 412.46 462.339 406.047L466.026 405.696C471.141 459.867 481.833 564.842 485.668 574.417C490.526 586.562 550.054 706.743 550.656 707.954L547.344 709.602Z" fill="#241B55"/>
<path d="M495.876 407.805C495.704 407.867 495.54 407.93 495.368 407.992C494.494 408.328 493.627 408.64 492.768 408.937C483.809 412.085 475.281 414.029 467.307 415.099C466.346 415.224 465.401 415.334 464.464 415.435C460.028 415.919 455.795 416.13 451.749 416.13C429.99 416.13 413.878 409.968 406.326 406.368C406.638 403.728 406.958 401.096 407.294 398.487C413.433 401.635 435.028 411.241 464.925 407.742C465.831 407.641 466.744 407.531 467.666 407.383C475.164 406.337 483.161 404.446 491.526 401.416C492.307 401.143 493.096 400.846 493.877 400.534C494.127 400.456 494.377 400.362 494.626 400.26L495.876 407.805Z" fill="#1D123A"/>
<path d="M437.566 419.012L439.331 417.247C436.761 414.678 438.651 408.375 439.596 406.165L437.308 405.181C437.136 405.571 433.286 414.725 437.566 419.012Z" fill="#FFC77F"/>
<path d="M467.767 414.959C467.736 415.232 467.713 415.513 467.681 415.794L464.472 415.404V415.357C465.05 410.202 465.081 407.492 465.01 406.102C466.065 405.985 467.127 405.844 468.197 405.665C468.33 407.516 468.244 410.374 467.767 414.959Z" fill="#FFC77F"/>
<path d="M495.36 407.992C495.282 409.359 495.009 410.843 494.4 412.366L492.08 411.444C492.416 410.601 492.642 409.749 492.752 408.937C493.252 405.571 492.127 402.673 491.518 401.416C492.299 401.143 493.088 400.846 493.869 400.534C494.556 401.978 495.548 404.712 495.36 407.992Z" fill="#FFC77F"/>
<path d="M453.967 233.445C450.468 231.11 445.712 231.078 445.665 231.078V229.844C445.876 229.844 450.835 229.876 454.654 232.422L453.967 233.445Z" fill="#1D123A"/>
<path d="M432.411 233.445L431.724 232.414C435.543 229.868 440.502 229.836 440.713 229.836V231.07C440.674 231.078 435.918 231.11 432.411 233.445Z" fill="#1D123A"/>
<path d="M441.729 238.881L440.495 245.058L444.197 246.292L441.729 238.881Z" fill="#FF7E7A"/>
<path d="M400.952 327.369C400.929 327.369 400.905 327.369 400.874 327.369C400.445 327.33 400.132 326.947 400.171 326.517L402.655 300.58C402.694 300.151 403.061 299.838 403.506 299.877C403.936 299.916 404.248 300.299 404.209 300.729L401.725 326.666C401.686 327.064 401.351 327.369 400.952 327.369Z" fill="white"/>
<path d="M497.313 324.901C496.922 324.901 496.587 324.612 496.54 324.213C496.516 324.018 494.056 304.376 492.838 297.066C492.767 296.644 493.056 296.238 493.478 296.167C493.9 296.097 494.306 296.386 494.376 296.808C495.602 304.149 498.063 323.815 498.086 324.018C498.141 324.448 497.836 324.838 497.407 324.893C497.375 324.893 497.344 324.901 497.313 324.901Z" fill="white"/>
<path d="M446.524 290.779C443.549 290.779 441.073 289.888 439.159 288.131C435.551 284.812 435.301 279.626 435.293 279.407C435.278 278.977 435.613 278.61 436.043 278.595C436.473 278.579 436.84 278.907 436.855 279.345C436.871 279.766 437.41 289.615 447.118 289.209C457.013 288.787 459.465 279.696 459.465 278.415C459.465 277.986 459.817 277.634 460.246 277.634C460.676 277.634 461.027 277.986 461.027 278.415C461.027 279.883 458.278 290.294 447.18 290.771C446.969 290.771 446.743 290.779 446.524 290.779Z" fill="white"/>
<path d="M378.295 297.722C377.92 297.722 377.592 297.448 377.522 297.073C375.843 287.092 389.409 251.478 389.987 249.971C390.143 249.565 390.596 249.369 390.994 249.518C391.401 249.674 391.596 250.127 391.447 250.525C391.307 250.892 377.452 287.248 379.061 296.808C379.131 297.23 378.842 297.636 378.42 297.706C378.381 297.722 378.342 297.722 378.295 297.722Z" fill="white"/>
<path d="M518.494 297.722C518.127 297.722 517.799 297.464 517.728 297.089L509.036 252.009C508.919 251.408 508.802 250.783 509.504 250.596L509.895 252.111L509.707 251.353L510.481 251.228C510.598 251.931 519.181 296.339 519.267 296.792C519.353 297.214 519.072 297.628 518.65 297.706C518.595 297.714 518.541 297.722 518.494 297.722Z" fill="white"/>
<path d="M504.483 396.683C504.404 396.683 504.318 396.668 504.24 396.644C503.834 396.511 503.608 396.066 503.741 395.66C510.27 375.588 511.519 359.546 507.45 347.987L507.302 347.573C506.404 345.051 504.529 339.802 506.201 333.921C507.942 327.798 513.066 322.651 521.438 318.606C521.829 318.418 522.29 318.582 522.477 318.973C522.664 319.363 522.5 319.832 522.11 320.019C514.159 323.862 509.309 328.681 507.7 334.351C506.169 339.748 507.927 344.676 508.77 347.05L508.919 347.472C513.097 359.367 511.855 375.744 505.217 396.144C505.123 396.472 504.811 396.683 504.483 396.683Z" fill="#3940A0"/>
<path d="M396.93 231.875C396.703 231.875 396.469 231.773 396.321 231.578C388.495 221.753 381.466 211.202 375.413 200.205C369.571 189.568 364.565 178.368 360.535 166.918C360.394 166.512 360.605 166.067 361.011 165.927C361.417 165.786 361.863 165.997 362.011 166.403C366.01 177.774 370.977 188.896 376.78 199.455C382.786 210.374 389.768 220.855 397.539 230.61C397.805 230.945 397.75 231.438 397.414 231.711C397.274 231.82 397.102 231.875 396.93 231.875Z" fill="#FFB1A9"/>
<path d="M509.426 229.922C509.34 229.922 509.255 229.907 509.169 229.876C508.763 229.735 508.544 229.29 508.692 228.884L525.984 179.469C526.124 179.063 526.569 178.852 526.976 178.993C527.382 179.133 527.6 179.579 527.452 179.985L510.161 229.399C510.051 229.719 509.747 229.922 509.426 229.922Z" fill="#FFB1A9"/>
<path d="M478.545 216.333C478.155 216.333 477.819 216.044 477.772 215.646C477.491 213.334 476.804 211.873 475.718 211.303C474.953 210.905 474.218 211.084 473.297 211.327C472.242 211.592 471.047 211.905 469.618 211.342C468.08 210.741 467.541 209.624 466.971 208.437C466.463 207.398 465.893 206.219 464.471 205.039C463.706 204.407 461.621 202.915 458.747 202.743C455.505 202.556 453.045 204.102 451.866 205.047C451.53 205.313 451.038 205.258 450.765 204.922C450.499 204.586 450.554 204.094 450.89 203.821C452.241 202.743 455.084 200.955 458.833 201.181C462.167 201.377 464.581 203.103 465.463 203.829C467.15 205.227 467.83 206.625 468.376 207.75C468.884 208.804 469.228 209.499 470.196 209.882C471.157 210.257 471.969 210.054 472.922 209.811C473.968 209.546 475.156 209.241 476.452 209.921C478.022 210.741 478.99 212.607 479.334 215.458C479.389 215.888 479.076 216.278 478.655 216.325C478.608 216.333 478.576 216.333 478.545 216.333Z" fill="#1D123A"/>
<path d="M574.484 131.367C574.398 130.461 574.203 129.118 573.235 127.97C572.047 126.579 570.376 126.283 568.025 125.908C559.793 124.619 559.2 124.931 555.217 124.205C550.671 123.369 550.601 123.518 550.226 123.658C548.617 124.275 545.915 128.852 546.446 139.349C546.821 146.823 548.406 148.698 548.937 153.594C549.476 158.593 548.828 165.919 543.01 175.478L562.043 178.056C562.808 169.379 565.182 163.232 567.205 159.233C569.579 154.539 570.774 154.165 572.688 149.275C572.68 149.283 575.523 142.02 574.484 131.367Z" fill="#FFB1A9"/>
<path d="M548.75 149.424C548.75 149.424 543.439 144.316 542.229 140.052C541.088 136.053 542.471 132.656 542.939 131.265C543.478 129.672 543.962 129.032 544.181 128.766C546.313 126.158 550.062 126.165 551.148 126.212C550.351 133.952 549.547 141.692 548.75 149.424Z" fill="#FFB1A9"/>
<path d="M489.354 108.023C489.354 108.023 515.58 69.5033 557.731 65.6451C557.731 65.6451 536.543 97.3306 535.199 98.1663C533.856 99.002 495.032 108.21 495.032 108.21L489.354 108.023Z" fill="#1D123A"/>
<path d="M548.219 62.2712C545.071 60.592 540.987 63.2943 539.347 65.9185C537.496 68.8707 538.339 72.3696 537.816 72.4321C537.05 72.5258 537.355 64.8094 533.341 62.2165C528.655 59.194 518.603 63.4895 518.275 67.8476C518.041 70.8935 522.578 73.7754 524.601 75.0641C527.421 76.8604 530.139 77.5945 531.951 77.9382L551.038 69.8157C551.648 66.5433 550.445 63.4583 548.219 62.2712Z" fill="#241B55"/>
<path d="M529.443 73.9004C528.865 70.7686 526.53 68.8629 526.116 68.5349C523.203 66.2309 519.212 65.9888 516.088 67.3243C511.418 69.3315 509.137 74.7127 510.028 78.5006C510.785 81.7183 513.722 83.3428 513.355 83.8661C512.62 84.8892 502.889 76.1419 497.321 78.9535C494.392 80.4375 492.916 84.9829 493.939 88.474C495.141 92.5587 499.445 94.0895 501.608 94.8549C504.904 96.0264 507.848 95.7999 509.465 95.55L522.039 85.8967C527.319 83.2178 530.248 78.2506 529.443 73.9004Z" fill="#303778"/>
<path d="M519.704 81.7964C514.44 79.2581 504.904 83.7801 503.366 88.2085C501.765 92.8242 508.966 96.9401 507.552 98.6037C505.998 100.431 497.703 94.9329 493.611 97.9632C490.955 99.9314 490.667 105.055 492.877 107.702C495.696 111.084 503.186 111.147 510.075 106.32L520.688 101.595C521.532 99.9861 522.618 97.5337 523.086 94.5424C523.508 91.8558 524.711 84.2019 519.704 81.7964Z" fill="#FFB845"/>
<path d="M546.618 68.8238C543.033 68.8629 540.526 80.2812 537.738 79.8907C536.176 79.672 536.84 76.0403 534.411 74.5252C530.763 72.2446 521.165 75.353 519.368 81.9916C518.314 85.8888 520.477 90.0828 523.765 92.254C528.373 95.3078 533.669 93.4099 534.192 93.2147L547.219 88.8489C548.406 87.9429 549.718 86.6542 550.656 84.8657C554.186 78.1178 549.867 68.7926 546.618 68.8238Z" fill="white"/>
<path d="M489.354 108.023C489.354 108.023 526.374 98.8927 557.731 65.6451L562.433 148.088L489.354 108.023Z" fill="#3940A0"/>
<path d="M554.115 134.671L555.396 175.666L590.253 154.063L554.115 134.671Z" fill="#3940A0"/>
<path d="M549.671 124.229C549.547 125.416 548.086 139.661 548.328 143.824C548.477 146.355 549.343 146.807 549.586 146.917C549.586 146.917 550.046 147.112 550.679 146.964C552.616 146.503 554.045 134.085 554.842 125.166C555.029 125.174 555.224 125.181 555.412 125.189C555.318 127.103 555.123 131.265 554.865 136.889C554.568 143.473 554.404 147.807 555.974 148.26C555.974 148.26 556.185 148.323 556.443 148.284C557.279 148.159 559.45 146.417 561.48 126.345C561.605 126.353 561.738 126.353 561.863 126.361C560.973 136.709 560.426 148.229 562.566 148.604C562.636 148.619 562.738 148.635 562.925 148.557C566.229 147.268 567.908 127.86 567.908 127.86C567.908 127.86 566.799 144.074 569.986 145.456C573.172 146.839 573.274 126.22 573.274 126.22C573.274 126.22 572.227 122.862 568.244 125.017C568.244 125.017 566.643 121.917 563.097 123.908C563.097 123.908 560.442 120.042 556.185 123.44C556.193 123.432 551.64 118.418 549.671 124.229Z" fill="#FF7E7A"/>
</g>
</svg>
