<svg width="670" height="447" viewBox="0 0 670 447" fill="none" xmlns="http://www.w3.org/2000/svg">
<rect width="670" height="447" rx="20" fill="white"/>
<g clip-path="url(#clip0_622_1102)">
<path d="M378.082 99.9896C387.865 99.9896 395.797 92.0515 395.797 82.2593C395.797 72.4672 387.865 64.5291 378.082 64.5291C368.298 64.5291 360.366 72.4672 360.366 82.2593C360.366 92.0515 368.298 99.9896 378.082 99.9896Z" fill="#F2F2F2"/>
<path d="M515.503 363.127C541.834 343.054 554.411 309.323 546.538 277.146C546.342 276.346 546.135 275.549 545.918 274.753C540.698 255.653 527.784 237.5 508.963 231.397C493.159 226.273 475.909 230.213 459.422 228.176C427.057 224.175 401.966 197.966 384.31 170.524C366.655 143.083 353.086 112.366 329.626 89.6951C290.956 52.3262 227.875 44.2807 179.93 68.605C131.985 92.9295 101.444 146.895 102.747 200.679C104.049 254.462 135.951 305.883 182.28 333.165C199.299 343.188 218.984 350.288 238.574 347.803C255.572 345.647 271.017 336.506 287.935 333.792C314.534 329.525 340.964 341.562 363.97 355.588C386.976 369.615 409.199 386.24 435.342 392.743C460.728 399.057 492.177 380.909 515.503 363.127Z" fill="#F2F4FC"/>
<path d="M477.671 69.7345C477.094 69.3494 476.51 68.9841 475.933 68.6123C459.247 57.9318 441.363 49.255 422.65 42.7613L418.311 102.671H390.803V34.016C389.072 33.6574 387.327 33.3187 385.582 33V102.671H352.893C334.897 102.671 317.638 95.5158 304.913 82.7801C292.189 70.0443 285.04 52.7709 285.04 34.7598C283.288 35.1383 281.55 35.5433 279.812 35.9749V102.671H253.187L249.053 45.5437C229.822 52.9253 211.566 62.6325 194.689 74.4492C194.397 74.6484 194.105 74.8542 193.82 75.0534C192.353 76.0827 190.907 77.1319 189.467 78.1943V306.749H267.936L266.549 287.525L258.919 181.977H412.572L404.942 287.525L403.555 306.749H481.154V72.0454C480 71.2618 478.839 70.4915 477.671 69.7345ZM279.812 164.546H257.659L253.565 107.903H279.812V164.546ZM385.582 164.546H348.374V163.423C348.375 162.884 348.268 162.35 348.062 161.851C347.855 161.353 347.553 160.9 347.171 160.519C346.79 160.138 346.337 159.836 345.839 159.63C345.341 159.424 344.807 159.319 344.268 159.32H328.092C327.554 159.319 327.02 159.425 326.523 159.632C326.025 159.838 325.573 160.14 325.193 160.521C324.812 160.902 324.51 161.355 324.304 161.853C324.098 162.351 323.992 162.884 323.992 163.423V164.546H285.04V107.903H385.582V164.546ZM390.803 164.546V107.903H417.932L413.839 164.546H390.803Z" fill="#3F3D56"/>
<path d="M74 321.385C79.7637 328.22 85.9978 334.644 92.6567 340.609L577.373 341.273C584.032 335.308 590.266 328.884 596.03 322.049L74 321.385Z" fill="#3F3D56"/>
<path d="M402.702 259.829V316.74C402.702 317.465 402.99 318.16 403.503 318.673C404.015 319.186 404.71 319.474 405.435 319.475H489.698C490.423 319.474 491.117 319.186 491.63 318.673C492.142 318.16 492.43 317.465 492.431 316.74V259.829C492.429 259.105 492.141 258.41 491.628 257.898C491.116 257.386 490.422 257.098 489.698 257.097H405.435C404.711 257.098 404.016 257.386 403.504 257.898C402.992 258.41 402.704 259.105 402.702 259.829Z" fill="#3F3D56"/>
<path d="M404.679 260.537V316.038C404.679 316.425 404.833 316.796 405.107 317.07C405.381 317.344 405.752 317.499 406.139 317.499H488.997C489.384 317.499 489.755 317.344 490.029 317.07C490.302 316.796 490.457 316.425 490.457 316.038V260.537C490.457 260.149 490.303 259.777 490.03 259.502C489.756 259.228 489.384 259.073 488.997 259.072H406.139C405.752 259.073 405.38 259.228 405.106 259.502C404.832 259.777 404.679 260.149 404.679 260.537Z" fill="#3940A0"/>
<path d="M400.939 327.839C401.094 328.032 401.29 328.189 401.513 328.295C401.737 328.402 401.981 328.457 402.229 328.456H492.455C492.702 328.456 492.946 328.4 493.168 328.294C493.391 328.188 493.587 328.033 493.743 327.841C493.898 327.649 494.009 327.425 494.067 327.185C494.125 326.945 494.129 326.695 494.078 326.454L492.677 319.795C492.619 319.524 492.494 319.271 492.314 319.06C492.133 318.849 491.903 318.687 491.644 318.588C491.456 318.514 491.256 318.477 491.055 318.477H403.624C403.422 318.477 403.222 318.514 403.035 318.588C402.776 318.687 402.545 318.849 402.365 319.06C402.184 319.271 402.059 319.524 402.001 319.795L400.6 326.454C400.551 326.695 400.555 326.945 400.614 327.184C400.672 327.424 400.784 327.647 400.939 327.839Z" fill="#2F2E41"/>
<path d="M487.959 321.345H490.09C490.269 321.345 490.414 321.2 490.414 321.021V320C490.414 319.821 490.269 319.676 490.09 319.676H487.959C487.78 319.676 487.635 319.821 487.635 320V321.021C487.635 321.2 487.78 321.345 487.959 321.345Z" fill="#3F3D56"/>
<path d="M482.401 321.345H484.532C484.711 321.345 484.856 321.2 484.856 321.021V320C484.856 319.821 484.711 319.676 484.532 319.676H482.401C482.222 319.676 482.077 319.821 482.077 320V321.021C482.077 321.2 482.222 321.345 482.401 321.345Z" fill="#3F3D56"/>
<path d="M476.843 321.345H478.974C479.153 321.345 479.298 321.2 479.298 321.021V320C479.298 319.821 479.153 319.676 478.974 319.676H476.843C476.664 319.676 476.519 319.821 476.519 320V321.021C476.519 321.2 476.664 321.345 476.843 321.345Z" fill="#3F3D56"/>
<path d="M471.285 321.345H473.416C473.595 321.345 473.74 321.2 473.74 321.021V320C473.74 319.821 473.595 319.676 473.416 319.676H471.285C471.106 319.676 470.961 319.821 470.961 320V321.021C470.961 321.2 471.106 321.345 471.285 321.345Z" fill="#3F3D56"/>
<path d="M465.727 321.345H467.858C468.037 321.345 468.182 321.2 468.182 321.021V320C468.182 319.821 468.037 319.676 467.858 319.676H465.727C465.548 319.676 465.403 319.821 465.403 320V321.021C465.403 321.2 465.548 321.345 465.727 321.345Z" fill="#3F3D56"/>
<path d="M460.169 321.345H462.301C462.479 321.345 462.625 321.2 462.625 321.021V320C462.625 319.821 462.479 319.676 462.301 319.676H460.169C459.991 319.676 459.846 319.821 459.846 320V321.021C459.846 321.2 459.991 321.345 460.169 321.345Z" fill="#3F3D56"/>
<path d="M454.612 321.345H456.743C456.922 321.345 457.067 321.2 457.067 321.021V320C457.067 319.821 456.922 319.676 456.743 319.676H454.612C454.433 319.676 454.288 319.821 454.288 320V321.021C454.288 321.2 454.433 321.345 454.612 321.345Z" fill="#3F3D56"/>
<path d="M449.054 321.345H451.185C451.364 321.345 451.509 321.2 451.509 321.021V320C451.509 319.821 451.364 319.676 451.185 319.676H449.054C448.875 319.676 448.73 319.821 448.73 320V321.021C448.73 321.2 448.875 321.345 449.054 321.345Z" fill="#3F3D56"/>
<path d="M443.496 321.345H445.627C445.806 321.345 445.951 321.2 445.951 321.021V320C445.951 319.821 445.806 319.676 445.627 319.676H443.496C443.317 319.676 443.172 319.821 443.172 320V321.021C443.172 321.2 443.317 321.345 443.496 321.345Z" fill="#3F3D56"/>
<path d="M437.938 321.345H440.069C440.248 321.345 440.393 321.2 440.393 321.021V320C440.393 319.821 440.248 319.676 440.069 319.676H437.938C437.759 319.676 437.614 319.821 437.614 320V321.021C437.614 321.2 437.759 321.345 437.938 321.345Z" fill="#3F3D56"/>
<path d="M432.38 321.345H434.511C434.69 321.345 434.835 321.2 434.835 321.021V320C434.835 319.821 434.69 319.676 434.511 319.676H432.38C432.201 319.676 432.056 319.821 432.056 320V321.021C432.056 321.2 432.201 321.345 432.38 321.345Z" fill="#3F3D56"/>
<path d="M426.822 321.345H428.953C429.132 321.345 429.277 321.2 429.277 321.021V320C429.277 319.821 429.132 319.676 428.953 319.676H426.822C426.643 319.676 426.498 319.821 426.498 320V321.021C426.498 321.2 426.643 321.345 426.822 321.345Z" fill="#3F3D56"/>
<path d="M421.264 321.345H423.396C423.574 321.345 423.719 321.2 423.719 321.021V320C423.719 319.821 423.574 319.676 423.396 319.676H421.264C421.086 319.676 420.941 319.821 420.941 320V321.021C420.941 321.2 421.086 321.345 421.264 321.345Z" fill="#3F3D56"/>
<path d="M415.707 321.345H417.838C418.017 321.345 418.162 321.2 418.162 321.021V320C418.162 319.821 418.017 319.676 417.838 319.676H415.707C415.528 319.676 415.383 319.821 415.383 320V321.021C415.383 321.2 415.528 321.345 415.707 321.345Z" fill="#3F3D56"/>
<path d="M410.149 321.345H412.28C412.459 321.345 412.604 321.2 412.604 321.021V320C412.604 319.821 412.459 319.676 412.28 319.676H410.149C409.97 319.676 409.825 319.821 409.825 320V321.021C409.825 321.2 409.97 321.345 410.149 321.345Z" fill="#3F3D56"/>
<path d="M404.591 321.345H406.722C406.901 321.345 407.046 321.2 407.046 321.021V320C407.046 319.821 406.901 319.676 406.722 319.676H404.591C404.412 319.676 404.267 319.821 404.267 320V321.021C404.267 321.2 404.412 321.345 404.591 321.345Z" fill="#3F3D56"/>
<path d="M488.024 324.126H490.156C490.334 324.126 490.479 323.981 490.479 323.802V322.781C490.479 322.602 490.334 322.457 490.156 322.457H488.024C487.846 322.457 487.701 322.602 487.701 322.781V323.802C487.701 323.981 487.846 324.126 488.024 324.126Z" fill="#3F3D56"/>
<path d="M482.467 324.126H484.598C484.777 324.126 484.922 323.981 484.922 323.802V322.781C484.922 322.602 484.777 322.457 484.598 322.457H482.467C482.288 322.457 482.143 322.602 482.143 322.781V323.802C482.143 323.981 482.288 324.126 482.467 324.126Z" fill="#3F3D56"/>
<path d="M476.909 324.126H479.04C479.219 324.126 479.364 323.981 479.364 323.802V322.781C479.364 322.602 479.219 322.457 479.04 322.457H476.909C476.73 322.457 476.585 322.602 476.585 322.781V323.802C476.585 323.981 476.73 324.126 476.909 324.126Z" fill="#3F3D56"/>
<path d="M471.351 324.126H473.482C473.661 324.126 473.806 323.981 473.806 323.802V322.781C473.806 322.602 473.661 322.457 473.482 322.457H471.351C471.172 322.457 471.027 322.602 471.027 322.781V323.802C471.027 323.981 471.172 324.126 471.351 324.126Z" fill="#3F3D56"/>
<path d="M465.793 324.126H467.924C468.103 324.126 468.248 323.981 468.248 323.802V322.781C468.248 322.602 468.103 322.457 467.924 322.457H465.793C465.614 322.457 465.469 322.602 465.469 322.781V323.802C465.469 323.981 465.614 324.126 465.793 324.126Z" fill="#3F3D56"/>
<path d="M460.235 324.126H462.366C462.545 324.126 462.69 323.981 462.69 323.802V322.781C462.69 322.602 462.545 322.457 462.366 322.457H460.235C460.056 322.457 459.911 322.602 459.911 322.781V323.802C459.911 323.981 460.056 324.126 460.235 324.126Z" fill="#3F3D56"/>
<path d="M454.677 324.126H456.808C456.987 324.126 457.132 323.981 457.132 323.802V322.781C457.132 322.602 456.987 322.457 456.808 322.457H454.677C454.498 322.457 454.353 322.602 454.353 322.781V323.802C454.353 323.981 454.498 324.126 454.677 324.126Z" fill="#3F3D56"/>
<path d="M449.119 324.126H451.251C451.429 324.126 451.574 323.981 451.574 323.802V322.781C451.574 322.602 451.429 322.457 451.251 322.457H449.119C448.941 322.457 448.796 322.602 448.796 322.781V323.802C448.796 323.981 448.941 324.126 449.119 324.126Z" fill="#3F3D56"/>
<path d="M443.562 324.126H445.693C445.872 324.126 446.017 323.981 446.017 323.802V322.781C446.017 322.602 445.872 322.457 445.693 322.457H443.562C443.383 322.457 443.238 322.602 443.238 322.781V323.802C443.238 323.981 443.383 324.126 443.562 324.126Z" fill="#3F3D56"/>
<path d="M438.004 324.126H440.135C440.314 324.126 440.459 323.981 440.459 323.802V322.781C440.459 322.602 440.314 322.457 440.135 322.457H438.004C437.825 322.457 437.68 322.602 437.68 322.781V323.802C437.68 323.981 437.825 324.126 438.004 324.126Z" fill="#3F3D56"/>
<path d="M432.446 324.126H434.577C434.756 324.126 434.901 323.981 434.901 323.802V322.781C434.901 322.602 434.756 322.457 434.577 322.457H432.446C432.267 322.457 432.122 322.602 432.122 322.781V323.802C432.122 323.981 432.267 324.126 432.446 324.126Z" fill="#3F3D56"/>
<path d="M426.888 324.126H429.019C429.198 324.126 429.343 323.981 429.343 323.802V322.781C429.343 322.602 429.198 322.457 429.019 322.457H426.888C426.709 322.457 426.564 322.602 426.564 322.781V323.802C426.564 323.981 426.709 324.126 426.888 324.126Z" fill="#3F3D56"/>
<path d="M421.33 324.126H423.461C423.64 324.126 423.785 323.981 423.785 323.802V322.781C423.785 322.602 423.64 322.457 423.461 322.457H421.33C421.151 322.457 421.006 322.602 421.006 322.781V323.802C421.006 323.981 421.151 324.126 421.33 324.126Z" fill="#3F3D56"/>
<path d="M415.772 324.126H417.903C418.082 324.126 418.227 323.981 418.227 323.802V322.781C418.227 322.602 418.082 322.457 417.903 322.457H415.772C415.593 322.457 415.448 322.602 415.448 322.781V323.802C415.448 323.981 415.593 324.126 415.772 324.126Z" fill="#3F3D56"/>
<path d="M410.214 324.126H412.346C412.524 324.126 412.669 323.981 412.669 323.802V322.781C412.669 322.602 412.524 322.457 412.346 322.457H410.214C410.036 322.457 409.891 322.602 409.891 322.781V323.802C409.891 323.981 410.036 324.126 410.214 324.126Z" fill="#3F3D56"/>
<path d="M404.657 324.126H406.788C406.967 324.126 407.112 323.981 407.112 323.802V322.781C407.112 322.602 406.967 322.457 406.788 322.457H404.657C404.478 322.457 404.333 322.602 404.333 322.781V323.802C404.333 323.981 404.478 324.126 404.657 324.126Z" fill="#3F3D56"/>
<path d="M441.894 327.464H463.478C463.657 327.464 463.802 327.318 463.802 327.139V326.119C463.802 325.94 463.657 325.795 463.478 325.795H441.894C441.715 325.795 441.57 325.94 441.57 326.119V327.139C441.57 327.318 441.715 327.464 441.894 327.464Z" fill="#3F3D56"/>
<path d="M419.027 271.214H417.14C416.568 271.214 416.105 271.679 416.105 272.251C416.105 272.824 416.568 273.288 417.14 273.288H419.027C419.599 273.288 420.063 272.824 420.063 272.251C420.063 271.679 419.599 271.214 419.027 271.214Z" fill="white"/>
<path d="M440.605 271.214H438.718C438.146 271.214 437.683 271.679 437.683 272.251C437.683 272.824 438.146 273.288 438.718 273.288H440.605C441.177 273.288 441.641 272.824 441.641 272.251C441.641 271.679 441.177 271.214 440.605 271.214Z" fill="white"/>
<path d="M446.719 271.214H444.832C444.26 271.214 443.796 271.679 443.796 272.251C443.796 272.824 444.26 273.288 444.832 273.288H446.719C447.291 273.288 447.755 272.824 447.755 272.251C447.755 271.679 447.291 271.214 446.719 271.214Z" fill="white"/>
<path d="M434.736 271.042H423.01C422.438 271.042 421.974 271.506 421.974 272.078C421.974 272.651 422.438 273.115 423.01 273.115H434.736C435.308 273.115 435.771 272.651 435.771 272.078C435.771 271.506 435.308 271.042 434.736 271.042Z" fill="white"/>
<path d="M463.506 271.042H451.78C451.208 271.042 450.745 271.506 450.745 272.078C450.745 272.651 451.208 273.115 451.78 273.115H463.506C464.078 273.115 464.542 272.651 464.542 272.078C464.542 271.506 464.078 271.042 463.506 271.042Z" fill="white"/>
<path d="M424.781 275.894H422.895C422.322 275.894 421.859 276.358 421.859 276.93C421.859 277.503 422.322 277.967 422.895 277.967H424.781C425.353 277.967 425.817 277.503 425.817 276.93C425.817 276.358 425.353 275.894 424.781 275.894Z" fill="white"/>
<path d="M446.359 275.894H444.473C443.9 275.894 443.437 276.358 443.437 276.93C443.437 277.503 443.9 277.967 444.473 277.967H446.359C446.931 277.967 447.395 277.503 447.395 276.93C447.395 276.358 446.931 275.894 446.359 275.894Z" fill="white"/>
<path d="M452.473 275.894H450.586C450.014 275.894 449.551 276.358 449.551 276.93C449.551 277.503 450.014 277.967 450.586 277.967H452.473C453.045 277.967 453.509 277.503 453.509 276.93C453.509 276.358 453.045 275.894 452.473 275.894Z" fill="white"/>
<path d="M440.49 275.721H428.764C428.192 275.721 427.728 276.185 427.728 276.758C427.728 277.33 428.192 277.794 428.764 277.794H440.49C441.062 277.794 441.526 277.33 441.526 276.758C441.526 276.185 441.062 275.721 440.49 275.721Z" fill="white"/>
<path d="M469.26 275.721H457.534C456.962 275.721 456.499 276.185 456.499 276.758C456.499 277.33 456.962 277.794 457.534 277.794H469.26C469.833 277.794 470.296 277.33 470.296 276.758C470.296 276.185 469.833 275.721 469.26 275.721Z" fill="white"/>
<path d="M430.535 280.573H428.649C428.077 280.573 427.613 281.037 427.613 281.61C427.613 282.182 428.077 282.646 428.649 282.646H430.535C431.107 282.646 431.571 282.182 431.571 281.61C431.571 281.037 431.107 280.573 430.535 280.573Z" fill="white"/>
<path d="M452.113 280.573H450.227C449.655 280.573 449.191 281.037 449.191 281.61C449.191 282.182 449.655 282.646 450.227 282.646H452.113C452.685 282.646 453.149 282.182 453.149 281.61C453.149 281.037 452.685 280.573 452.113 280.573Z" fill="white"/>
<path d="M458.227 280.573H456.34C455.768 280.573 455.305 281.037 455.305 281.61C455.305 282.182 455.768 282.646 456.34 282.646H458.227C458.799 282.646 459.263 282.182 459.263 281.61C459.263 281.037 458.799 280.573 458.227 280.573Z" fill="white"/>
<path d="M446.244 280.4H434.518C433.946 280.4 433.482 280.864 433.482 281.437C433.482 282.009 433.946 282.473 434.518 282.473H446.244C446.816 282.473 447.28 282.009 447.28 281.437C447.28 280.864 446.816 280.4 446.244 280.4Z" fill="white"/>
<path d="M475.015 280.4H463.288C462.716 280.4 462.253 280.864 462.253 281.437C462.253 282.009 462.716 282.473 463.288 282.473H475.015C475.587 282.473 476.05 282.009 476.05 281.437C476.05 280.864 475.587 280.4 475.015 280.4Z" fill="white"/>
<path d="M436.289 285.252H434.403C433.831 285.252 433.367 285.716 433.367 286.289C433.367 286.861 433.831 287.325 434.403 287.325H436.289C436.861 287.325 437.325 286.861 437.325 286.289C437.325 285.716 436.861 285.252 436.289 285.252Z" fill="white"/>
<path d="M457.867 285.252H455.981C455.409 285.252 454.945 285.716 454.945 286.289C454.945 286.861 455.409 287.325 455.981 287.325H457.867C458.439 287.325 458.903 286.861 458.903 286.289C458.903 285.716 458.439 285.252 457.867 285.252Z" fill="white"/>
<path d="M463.981 285.252H462.094C461.522 285.252 461.059 285.716 461.059 286.289C461.059 286.861 461.522 287.325 462.094 287.325H463.981C464.553 287.325 465.017 286.861 465.017 286.289C465.017 285.716 464.553 285.252 463.981 285.252Z" fill="white"/>
<path d="M451.998 285.079H440.272C439.7 285.079 439.236 285.543 439.236 286.116C439.236 286.688 439.7 287.153 440.272 287.153H451.998C452.57 287.153 453.034 286.688 453.034 286.116C453.034 285.543 452.57 285.079 451.998 285.079Z" fill="white"/>
<path d="M440.605 303.859H438.718C438.146 303.859 437.683 304.323 437.683 304.895C437.683 305.468 438.146 305.932 438.718 305.932H440.605C441.177 305.932 441.641 305.468 441.641 304.895C441.641 304.323 441.177 303.859 440.605 303.859Z" fill="white"/>
<path d="M446.719 303.859H444.832C444.26 303.859 443.796 304.323 443.796 304.895C443.796 305.468 444.26 305.932 444.832 305.932H446.719C447.291 305.932 447.755 305.468 447.755 304.895C447.755 304.323 447.291 303.859 446.719 303.859Z" fill="white"/>
<path d="M463.506 304.032H451.78C451.208 304.032 450.745 304.496 450.745 305.068C450.745 305.641 451.208 306.105 451.78 306.105H463.506C464.078 306.105 464.542 305.641 464.542 305.068C464.542 304.496 464.078 304.032 463.506 304.032Z" fill="white"/>
<path d="M419.027 303.859H417.14C416.568 303.859 416.105 304.323 416.105 304.895C416.105 305.468 416.568 305.932 417.14 305.932H419.027C419.599 305.932 420.063 305.468 420.063 304.895C420.063 304.323 419.599 303.859 419.027 303.859Z" fill="white"/>
<path d="M434.736 304.032H423.01C422.438 304.032 421.974 304.496 421.974 305.068C421.974 305.641 422.438 306.105 423.01 306.105H434.736C435.308 306.105 435.771 305.641 435.771 305.068C435.771 304.496 435.308 304.032 434.736 304.032Z" fill="white"/>
<path d="M424.781 299.18H422.895C422.322 299.18 421.859 299.644 421.859 300.216C421.859 300.789 422.322 301.253 422.895 301.253H424.781C425.353 301.253 425.817 300.789 425.817 300.216C425.817 299.644 425.353 299.18 424.781 299.18Z" fill="white"/>
<path d="M446.359 299.18H444.473C443.9 299.18 443.437 299.644 443.437 300.216C443.437 300.789 443.9 301.253 444.473 301.253H446.359C446.931 301.253 447.395 300.789 447.395 300.216C447.395 299.644 446.931 299.18 446.359 299.18Z" fill="white"/>
<path d="M452.473 299.18H450.586C450.014 299.18 449.551 299.644 449.551 300.216C449.551 300.789 450.014 301.253 450.586 301.253H452.473C453.045 301.253 453.509 300.789 453.509 300.216C453.509 299.644 453.045 299.18 452.473 299.18Z" fill="white"/>
<path d="M440.49 299.352H428.764C428.192 299.352 427.728 299.817 427.728 300.389C427.728 300.962 428.192 301.426 428.764 301.426H440.49C441.062 301.426 441.526 300.962 441.526 300.389C441.526 299.817 441.062 299.352 440.49 299.352Z" fill="white"/>
<path d="M430.535 294.5H428.649C428.077 294.5 427.613 294.964 427.613 295.537C427.613 296.109 428.077 296.574 428.649 296.574H430.535C431.107 296.574 431.571 296.109 431.571 295.537C431.571 294.964 431.107 294.5 430.535 294.5Z" fill="white"/>
<path d="M452.113 294.5H450.227C449.655 294.5 449.191 294.964 449.191 295.537C449.191 296.109 449.655 296.574 450.227 296.574H452.113C452.685 296.574 453.149 296.109 453.149 295.537C453.149 294.964 452.685 294.5 452.113 294.5Z" fill="white"/>
<path d="M458.227 294.5H456.34C455.768 294.5 455.305 294.964 455.305 295.537C455.305 296.109 455.768 296.574 456.34 296.574H458.227C458.799 296.574 459.263 296.109 459.263 295.537C459.263 294.964 458.799 294.5 458.227 294.5Z" fill="white"/>
<path d="M446.244 294.673H434.518C433.946 294.673 433.482 295.137 433.482 295.71C433.482 296.282 433.946 296.746 434.518 296.746H446.244C446.816 296.746 447.28 296.282 447.28 295.71C447.28 295.137 446.816 294.673 446.244 294.673Z" fill="white"/>
<path d="M436.289 289.821H434.403C433.831 289.821 433.367 290.285 433.367 290.858C433.367 291.43 433.831 291.894 434.403 291.894H436.289C436.861 291.894 437.325 291.43 437.325 290.858C437.325 290.285 436.861 289.821 436.289 289.821Z" fill="white"/>
<path d="M457.867 289.821H455.981C455.409 289.821 454.945 290.285 454.945 290.858C454.945 291.43 455.409 291.894 455.981 291.894H457.867C458.439 291.894 458.903 291.43 458.903 290.858C458.903 290.285 458.439 289.821 457.867 289.821Z" fill="white"/>
<path d="M463.981 289.821H462.094C461.522 289.821 461.059 290.285 461.059 290.858C461.059 291.43 461.522 291.894 462.094 291.894H463.981C464.553 291.894 465.017 291.43 465.017 290.858C465.017 290.285 464.553 289.821 463.981 289.821Z" fill="white"/>
<path d="M451.998 289.994H440.272C439.7 289.994 439.236 290.458 439.236 291.031C439.236 291.603 439.7 292.067 440.272 292.067H451.998C452.57 292.067 453.034 291.603 453.034 291.031C453.034 290.458 452.57 289.994 451.998 289.994Z" fill="white"/>
<path d="M408.996 358.698L400.139 344.685L427.94 322.505L439.415 309.781C440.906 308.128 442.804 306.896 444.92 306.207C447.036 305.518 449.295 305.397 451.472 305.856C453.649 306.315 455.668 307.338 457.327 308.822C458.985 310.307 460.225 312.201 460.923 314.315C461.958 317.448 461.735 320.861 460.303 323.834C458.871 326.806 456.341 329.105 453.247 330.246L435.102 336.936L408.996 358.698Z" fill="#FFB6B6"/>
<path d="M201.18 257.1V325.203H248.85V257.1C248.851 256.61 248.695 256.133 248.405 255.738C248.115 255.344 247.706 255.053 247.238 254.908C247.018 254.835 246.787 254.799 246.555 254.802H203.482C203.18 254.801 202.881 254.86 202.602 254.976C202.323 255.091 202.069 255.26 201.856 255.473C201.642 255.687 201.472 255.94 201.356 256.219C201.24 256.498 201.18 256.797 201.18 257.1ZM219.784 280.5C219.796 279.158 220.338 277.874 221.291 276.929C222.244 275.984 223.531 275.454 224.873 275.454C226.214 275.454 227.501 275.984 228.454 276.929C229.407 277.874 229.949 279.158 229.961 280.5V288.402C229.955 289.749 229.415 291.037 228.462 291.987C227.508 292.936 226.218 293.469 224.873 293.469C223.527 293.469 222.237 292.936 221.283 291.987C220.33 291.037 219.791 289.749 219.784 288.402V280.5Z" fill="#2F2E41"/>
<path d="M201.034 323.025V329.592C201.035 329.933 201.17 330.259 201.41 330.5C201.65 330.741 201.975 330.878 202.315 330.881H247.716C248.056 330.879 248.382 330.742 248.622 330.501C248.862 330.26 248.996 329.933 248.996 329.592V323.025H201.034Z" fill="#3F3D56"/>
<path d="M126.188 154.493V278.84C126.19 280.425 126.819 281.944 127.939 283.065C129.058 284.185 130.576 284.815 132.16 284.816H316.272C317.855 284.815 319.373 284.185 320.493 283.065C321.612 281.944 322.242 280.425 322.243 278.84V154.493C322.239 152.909 321.609 151.392 320.49 150.273C319.37 149.154 317.854 148.525 316.272 148.523H132.16C130.578 148.525 129.061 149.154 127.942 150.273C126.823 151.392 126.192 152.909 126.188 154.493Z" fill="#3F3D56"/>
<path d="M130.508 156.04V277.306C130.509 278.153 130.846 278.964 131.444 279.563C132.042 280.162 132.853 280.499 133.699 280.5H314.739C315.585 280.499 316.396 280.162 316.994 279.563C317.592 278.964 317.929 278.153 317.931 277.306V156.04C317.931 155.192 317.594 154.379 316.996 153.779C316.398 153.179 315.586 152.841 314.739 152.839H133.699C132.852 152.841 132.04 153.179 131.442 153.779C130.844 154.379 130.508 155.192 130.508 156.04Z" fill="white"/>
<path d="M164.106 330.436C164.29 330.667 164.524 330.853 164.791 330.981C165.057 331.109 165.349 331.174 165.645 331.173H273.352C273.647 331.172 273.937 331.106 274.203 330.979C274.469 330.852 274.703 330.668 274.889 330.439C275.074 330.21 275.207 329.942 275.276 329.656C275.345 329.369 275.35 329.071 275.289 328.782L273.618 320.834C273.548 320.51 273.399 320.208 273.183 319.956C272.968 319.705 272.693 319.511 272.383 319.393C272.159 319.305 271.921 319.26 271.68 319.26H167.31C167.069 319.26 166.831 319.305 166.607 319.393C166.297 319.511 166.022 319.705 165.807 319.956C165.591 320.208 165.442 320.51 165.373 320.834L163.701 328.782C163.641 329.071 163.647 329.369 163.717 329.655C163.787 329.941 163.92 330.208 164.106 330.436Z" fill="#2F2E41"/>
<path d="M308.864 169.544H139.465C139.289 169.54 139.121 169.467 138.998 169.341C138.875 169.215 138.806 169.046 138.806 168.87C138.806 168.694 138.875 168.524 138.998 168.398C139.121 168.272 139.289 168.2 139.465 168.196H308.864C309.04 168.2 309.207 168.272 309.331 168.398C309.454 168.524 309.523 168.694 309.523 168.87C309.523 169.046 309.454 169.215 309.331 169.341C309.207 169.467 309.04 169.54 308.864 169.544Z" fill="#3F3D56"/>
<path d="M150.996 164.753C153.177 164.753 154.944 162.945 154.944 160.714C154.944 158.483 153.177 156.675 150.996 156.675C148.816 156.675 147.048 158.483 147.048 160.714C147.048 162.945 148.816 164.753 150.996 164.753Z" fill="#3F3D56"/>
<path d="M164.635 164.753C166.815 164.753 168.583 162.945 168.583 160.714C168.583 158.483 166.815 156.675 164.635 156.675C162.454 156.675 160.687 158.483 160.687 160.714C160.687 162.945 162.454 164.753 164.635 164.753Z" fill="#3F3D56"/>
<path d="M178.273 164.753C180.453 164.753 182.221 162.945 182.221 160.714C182.221 158.483 180.453 156.675 178.273 156.675C176.092 156.675 174.325 158.483 174.325 160.714C174.325 162.945 176.092 164.753 178.273 164.753Z" fill="#3F3D56"/>
<path d="M300.651 157.673H290.965C290.773 157.678 290.591 157.757 290.457 157.894C290.323 158.031 290.249 158.216 290.249 158.407C290.249 158.599 290.323 158.783 290.457 158.92C290.591 159.057 290.773 159.137 290.965 159.141H300.651C300.844 159.138 301.028 159.06 301.163 158.922C301.298 158.785 301.374 158.6 301.374 158.407C301.374 158.214 301.298 158.029 301.163 157.892C301.028 157.755 300.844 157.676 300.651 157.673Z" fill="#3F3D56"/>
<path d="M300.652 160.429H290.965C290.773 160.433 290.591 160.513 290.457 160.65C290.323 160.787 290.248 160.971 290.248 161.163C290.248 161.355 290.323 161.539 290.457 161.676C290.591 161.813 290.773 161.892 290.965 161.897H300.652C300.844 161.894 301.029 161.816 301.164 161.679C301.3 161.541 301.376 161.356 301.376 161.163C301.376 160.97 301.3 160.785 301.164 160.647C301.029 160.51 300.844 160.432 300.652 160.429Z" fill="#3F3D56"/>
<path d="M300.651 163.185H290.965C290.773 163.189 290.591 163.269 290.457 163.406C290.323 163.543 290.249 163.727 290.249 163.919C290.249 164.11 290.323 164.294 290.457 164.432C290.591 164.569 290.773 164.648 290.965 164.652H300.651C300.844 164.65 301.028 164.571 301.163 164.434C301.298 164.297 301.374 164.112 301.374 163.919C301.374 163.726 301.298 163.541 301.163 163.403C301.028 163.266 300.844 163.188 300.651 163.185Z" fill="#3F3D56"/>
<path d="M534.178 325.907C534.471 326.759 535.025 327.496 535.762 328.013C536.499 328.53 537.381 328.799 538.281 328.783L555.857 328.331C556.764 328.313 557.64 328.002 558.355 327.445C559.07 326.887 559.586 326.113 559.825 325.238L562.313 298.619C563.195 299.019 564.156 299.216 565.124 299.197C565.966 299.176 566.795 298.989 567.564 298.647C568.334 298.305 569.028 297.815 569.608 297.205C570.188 296.594 570.643 295.875 570.945 295.089C571.248 294.303 571.393 293.465 571.371 292.622C571.35 291.78 571.164 290.95 570.822 290.18C570.481 289.41 569.991 288.715 569.381 288.135C568.771 287.554 568.053 287.099 567.267 286.797C566.482 286.494 565.644 286.349 564.803 286.37C564.415 286.369 564.029 286.409 563.651 286.49C563.239 286.044 562.739 285.69 562.182 285.449C561.625 285.208 561.024 285.087 560.417 285.093L533.38 285.792C533.156 285.801 532.933 285.828 532.713 285.875C532.12 285.986 531.558 286.222 531.064 286.569C530.57 286.915 530.156 287.363 529.85 287.883C529.543 288.403 529.352 288.983 529.288 289.583C529.224 290.183 529.29 290.79 529.48 291.363L534.178 325.907ZM562.823 296.811L564.593 290.468C564.794 289.735 564.799 288.962 564.606 288.227C564.692 288.227 564.768 288.186 564.854 288.186C566.067 288.161 567.241 288.618 568.118 289.458C568.995 290.298 569.504 291.452 569.532 292.666C569.56 293.881 569.106 295.057 568.27 295.937C567.433 296.817 566.282 297.329 565.068 297.361C564.284 297.386 563.507 297.196 562.823 296.811Z" fill="#2F2E41"/>
<path d="M532.713 285.875C533.289 289.172 539.765 291.489 547.552 291.086C554.713 290.756 560.568 288.239 561.641 285.257C561.244 285.139 560.831 285.084 560.417 285.094L533.38 285.792C533.156 285.801 532.933 285.828 532.713 285.875Z" fill="#3F3D56"/>
<path d="M548.979 311.28C549.015 311.271 549.049 311.256 549.08 311.236L552.897 308.735C552.943 308.705 552.981 308.664 553.007 308.615C553.033 308.567 553.047 308.513 553.047 308.458C553.047 308.402 553.033 308.348 553.007 308.3C552.981 308.251 552.943 308.21 552.897 308.18L548.929 305.579C548.893 305.555 548.852 305.538 548.809 305.53C548.766 305.522 548.722 305.522 548.68 305.531C548.637 305.54 548.596 305.557 548.56 305.581C548.524 305.606 548.493 305.637 548.469 305.674C548.445 305.71 548.429 305.751 548.421 305.794C548.413 305.837 548.413 305.881 548.422 305.924C548.431 305.967 548.448 306.007 548.473 306.043C548.498 306.079 548.529 306.11 548.566 306.134L552.109 308.457L548.716 310.68C548.651 310.723 548.602 310.788 548.58 310.863C548.558 310.939 548.563 311.019 548.594 311.091C548.626 311.163 548.682 311.222 548.752 311.256C548.823 311.291 548.903 311.299 548.979 311.28Z" fill="#3940A0"/>
<path d="M542.951 311.558C543.015 311.542 543.073 311.507 543.117 311.457C543.161 311.408 543.189 311.347 543.198 311.281C543.207 311.216 543.196 311.149 543.167 311.09C543.138 311.03 543.092 310.981 543.034 310.948L539.516 308.929L542.917 306.401C542.952 306.375 542.981 306.342 543.003 306.305C543.026 306.268 543.041 306.226 543.047 306.183C543.053 306.14 543.051 306.096 543.04 306.054C543.03 306.012 543.011 305.972 542.985 305.937C542.959 305.902 542.926 305.872 542.889 305.85C542.852 305.828 542.81 305.813 542.767 305.807C542.724 305.8 542.68 305.802 542.638 305.813C542.596 305.824 542.556 305.842 542.521 305.868L538.714 308.699C538.67 308.732 538.634 308.775 538.611 308.825C538.588 308.875 538.577 308.93 538.58 308.985C538.584 309.04 538.6 309.093 538.629 309.14C538.658 309.187 538.699 309.226 538.746 309.253L542.704 311.524C542.779 311.567 542.867 311.579 542.951 311.558Z" fill="#3940A0"/>
<path d="M548.6 313.471C548.632 313.463 548.663 313.45 548.691 313.433C548.728 313.41 548.76 313.38 548.786 313.345C548.812 313.31 548.83 313.27 548.841 313.227C548.851 313.185 548.853 313.141 548.846 313.098C548.84 313.055 548.825 313.014 548.802 312.976L543.391 304.073C543.345 303.998 543.271 303.944 543.186 303.923C543.1 303.902 543.01 303.917 542.935 303.962C542.86 304.008 542.806 304.082 542.785 304.167C542.764 304.253 542.778 304.343 542.824 304.418L548.235 313.322C548.272 313.383 548.327 313.43 548.393 313.457C548.459 313.483 548.531 313.488 548.6 313.471Z" fill="#3940A0"/>
<path d="M244.405 206.199H215.086C213.89 206.199 212.92 207.169 212.92 208.366V211.233C212.92 212.43 213.89 213.401 215.086 213.401H244.405C245.601 213.401 246.57 212.43 246.57 211.233V208.366C246.57 207.169 245.601 206.199 244.405 206.199Z" fill="#3940A0"/>
<path d="M261.495 220.603H197.996C196.799 220.603 195.83 221.573 195.83 222.77V225.637C195.83 226.834 196.799 227.804 197.996 227.804H261.495C262.691 227.804 263.66 226.834 263.66 225.637V222.77C263.66 221.573 262.691 220.603 261.495 220.603Z" fill="#E6E6E6"/>
<path d="M261.495 235.006H197.996C196.799 235.006 195.83 235.977 195.83 237.174V240.041C195.83 241.238 196.799 242.208 197.996 242.208H261.495C262.691 242.208 263.66 241.238 263.66 240.041V237.174C263.66 235.977 262.691 235.006 261.495 235.006Z" fill="#E6E6E6"/>
<path d="M266.877 283.239L267.021 283.694L267.029 283.709L271.358 296.882L276.338 312.063L285.708 340.591L285.799 345.022V345.037L286.495 380.686L284.565 385.518L286.737 393.442C286.737 393.442 285.738 381.465 280.38 388.343C277.345 392.252 273.795 396.251 270.881 400.001C275.127 401.721 279.441 403.276 283.824 404.667C284.77 404.97 285.723 405.258 286.677 405.546C286.881 405.607 287.086 405.667 287.29 405.728C301.816 410.027 316.834 412.443 331.975 412.917C332.762 412.939 333.534 412.954 334.284 412.97C334.549 412.977 334.806 412.985 335.063 412.985C335.911 412.992 336.751 413 337.599 413C339.309 413 341.012 412.975 342.707 412.924C355.256 412.57 367.731 410.882 379.922 407.887C379.839 402.849 379.612 396.963 379.287 390.676C379.135 387.593 375.737 384.252 375.533 381.025C375.389 378.601 378.439 376.321 378.28 373.859C377.251 358.702 375.964 364.52 375.01 353.786C374.912 352.733 374.821 351.726 374.738 350.764C374.125 343.871 373.701 339.56 373.701 339.56L377.773 313.873L384.168 273.543L383.676 272.733L383.124 272.46L349.391 255.749L347.559 251.053C347.025 249.7 346.099 248.537 344.9 247.715C343.701 246.893 342.284 246.449 340.83 246.439L318.609 246.349C317.456 246.343 316.318 246.613 315.29 247.136C314.262 247.66 313.373 248.42 312.698 249.356L306.681 257.696L266.877 283.239Z" fill="#3F3D56"/>
<path d="M290.832 334.243L285.799 345.022L282.363 352.385L276.452 383.36L273.493 386.503L270.957 375.374L244.42 381.272C243.549 376.431 244.187 381.435 243.649 376.125C243.801 375.974 243.96 375.822 244.119 375.671C244.543 375.277 244.898 374.906 244.891 374.55C244.588 356.233 245.496 325.061 253.08 306.177C254.268 303.093 255.834 300.17 257.742 297.473C257.894 297.268 258.037 297.064 258.181 296.859C261.678 291.958 263.888 287.133 267.021 283.701V283.694C267.041 283.678 267.059 283.66 267.074 283.641C267.086 283.635 267.096 283.627 267.105 283.618L288.63 272.195L289.553 298.162L290.212 316.827L290.832 334.243Z" fill="#3F3D56"/>
<path d="M368.448 337.304L374.735 350.768L376.929 355.456L382.839 386.428L385.788 389.564L388.33 378.438L389.524 378.193L411.059 373.729L417.336 393.681C418.75 391.321 419.308 388.546 418.914 385.823C418.519 383.1 417.198 380.596 415.172 378.736C414.743 378.348 414.386 377.97 414.396 377.613C414.754 356.069 413.437 316.731 401.547 300.541C397.77 295.402 395.505 290.285 392.208 286.709C392.198 286.699 392.198 286.689 392.188 286.689L384.166 273.542L383.676 272.735L383.125 272.46L368.448 337.304Z" fill="#3F3D56"/>
<path d="M330.362 240.019C346.689 240.019 359.925 226.772 359.925 210.431C359.925 194.09 346.689 180.843 330.362 180.843C314.034 180.843 300.799 194.09 300.799 210.431C300.799 226.772 314.034 240.019 330.362 240.019Z" fill="#FFB6B6"/>
<path d="M370.319 189.764C370.09 189.519 369.814 189.322 369.507 189.187C369.201 189.051 368.87 188.978 368.535 188.973L368.979 187.738C369.124 187.349 369.163 186.929 369.093 186.519C369.022 186.11 368.844 185.727 368.576 185.41C368.309 185.092 367.962 184.851 367.571 184.712C367.18 184.573 366.76 184.54 366.352 184.617L364.733 184.929L364.886 183.847C364.944 183.444 364.897 183.032 364.748 182.653C364.6 182.274 364.355 181.94 364.038 181.684C363.722 181.428 363.344 181.259 362.942 181.193C362.541 181.128 362.129 181.168 361.747 181.31C361.4 181.447 361.027 181.504 360.655 181.478C360.283 181.451 359.922 181.342 359.598 181.158C359.272 180.979 358.99 180.731 358.77 180.432C358.55 180.133 358.398 179.789 358.324 179.424L357.76 176.702L357.7 176.556C354.954 171.974 349.672 168.641 343.21 167.419C337.458 166.323 331.56 166.881 325.874 167.405C323.618 167.618 321.07 167.857 318.947 169.158C317.143 170.274 315.617 172.505 315.928 174.756C310.322 173.036 304.311 176.47 301.332 180.799C297.802 185.952 297.225 192.406 297.132 197.453C296.88 209.392 299.342 219.16 304.43 226.491C304.802 227.023 304.895 228.132 305.631 228.503L305.479 228.258C306.301 228.669 307.137 229.333 306.826 230.044C305.93 232.089 311.881 236.611 316.074 238.105C323.724 240.835 333.895 240.602 341.047 239.619L341.299 237.926C343.88 237.574 345.698 236.903 346.209 235.854C347.111 235.084 347.881 234.393 348.551 233.756L348.558 233.749C348.571 233.736 348.597 233.716 348.611 233.703C351.842 230.602 352.592 228.835 352.93 226.146C353.255 223.51 352.678 220.834 352.087 218.423C364.521 220.349 347.191 205.169 358.775 202.234C358.908 202.193 359.043 202.16 359.18 202.135C359.518 202.055 359.857 201.975 360.182 201.882C361.749 201.456 363.249 200.815 364.64 199.976C367.878 198.004 368.946 195.388 370.618 192.44C370.859 192.02 370.96 191.534 370.907 191.053C370.853 190.571 370.647 190.12 370.319 189.764Z" fill="#2F2E41"/>
<path d="M434.921 339.411C434.915 340.573 434.902 342.2 434.848 344.212C434.842 344.491 434.835 344.776 434.829 345.068C434.742 348.767 434.656 351.868 434.517 355.314C434.51 355.553 434.503 355.786 434.49 356.025C434.304 360.833 434.013 366.43 433.508 375.295C432.573 391.67 430.941 377.546 429.302 383.29C429.222 383.576 429.136 383.914 429.056 384.313C428.808 385.758 428.39 387.169 427.809 388.516C426.94 389.034 426.044 389.532 425.162 390.03C422.647 391.431 420.093 392.779 417.519 394.061C416.072 394.778 414.619 395.482 413.16 396.159C412.928 396.266 412.702 396.372 412.476 396.471C405.002 399.932 397.299 402.874 389.421 405.277C387.882 405.741 386.349 406.193 384.797 406.611C383.178 407.063 381.559 407.488 379.92 407.886C367.729 410.882 355.254 412.571 342.706 412.926C341.014 412.979 339.309 412.999 337.597 412.999C336.748 412.999 335.912 412.993 335.063 412.986C334.804 412.986 334.545 412.979 334.287 412.973C333.537 412.953 332.761 412.939 331.978 412.92C316.837 412.447 301.819 410.03 287.293 405.728L286.676 405.549C285.721 405.257 284.772 404.971 283.823 404.666C279.444 403.278 275.13 401.724 270.879 400.004C267.635 398.696 264.428 397.293 261.259 395.794C261.23 395.786 261.203 395.773 261.179 395.754C260.516 395.449 259.846 395.13 259.182 394.805C259.096 394.758 259.003 394.712 258.91 394.665C256.435 393.457 253.987 392.191 251.566 390.867C249.529 386.185 246.663 385.289 244.884 381.172C244.367 379.949 243.993 378.67 243.77 377.36C243.77 377.347 243.763 377.334 243.763 377.314C243.949 379.784 242.974 372.931 243.757 377.287C243.75 377.208 243.743 377.121 243.737 377.022C243.717 376.783 243.69 376.491 243.65 376.125C241.375 353.887 241.521 328.454 240.532 307.497C240.466 306.143 240.397 304.845 240.326 303.606C240.307 303.194 240.28 302.789 240.253 302.391C240.3 302.271 240.353 302.145 240.413 302.025C240.425 301.991 240.441 301.958 240.459 301.926C240.479 301.885 240.501 301.845 240.525 301.806C240.539 301.786 240.559 301.76 240.572 301.74C240.582 301.717 240.593 301.695 240.605 301.674C240.665 301.581 240.731 301.481 240.804 301.388C240.837 301.348 240.864 301.315 240.897 301.282C240.92 301.248 240.947 301.217 240.977 301.189C240.997 301.157 241.022 301.128 241.05 301.103C241.076 301.076 241.103 301.043 241.136 301.01C241.15 300.989 241.168 300.971 241.189 300.956C241.241 300.896 241.299 300.841 241.361 300.79C241.598 300.572 241.851 300.373 242.118 300.193C242.211 300.133 242.31 300.073 242.403 300.007C243.072 299.607 243.776 299.269 244.506 298.998C244.758 298.905 245.01 298.818 245.282 298.725C245.382 298.699 245.475 298.666 245.574 298.632C245.72 298.586 245.866 298.539 246.019 298.506C246.775 298.28 247.591 298.088 248.474 297.908C248.58 297.889 248.693 297.869 248.806 297.842C248.965 297.809 249.131 297.782 249.296 297.756C249.522 297.716 249.754 297.676 249.986 297.636C251.957 297.324 254.193 297.092 256.661 296.939C256.893 296.926 257.125 296.912 257.358 296.899C257.63 296.886 257.902 296.873 258.18 296.859C258.413 296.846 258.651 296.839 258.89 296.833C259.122 296.819 259.361 296.813 259.607 296.806C260.277 296.786 260.967 296.766 261.67 296.753C263.674 296.713 265.784 296.727 268 296.773C269.028 296.8 270.076 296.826 271.151 296.873C271.224 296.873 271.29 296.879 271.357 296.879C272.292 296.912 273.234 296.952 274.203 297.005C274.88 297.039 275.563 297.072 276.247 297.112C276.89 297.152 277.54 297.191 278.197 297.238C278.708 297.264 279.219 297.304 279.736 297.337C280.174 297.371 280.612 297.404 281.05 297.43L281.647 297.47C281.972 297.497 282.297 297.517 282.629 297.55C283.359 297.61 284.089 297.669 284.832 297.729C285.568 297.796 286.318 297.862 287.068 297.928C287.817 297.995 288.574 298.068 289.33 298.141C289.41 298.148 289.483 298.154 289.556 298.161C290.246 298.234 290.936 298.3 291.632 298.373C291.792 298.387 291.957 298.4 292.117 298.42C292.781 298.487 293.458 298.565 294.128 298.636C294.334 298.658 294.539 298.68 294.745 298.702C295.27 298.76 295.788 298.809 296.316 298.871C297.013 298.951 297.723 299.024 298.413 299.117C298.95 299.177 299.488 299.237 300.025 299.303C300.868 299.403 301.724 299.509 302.579 299.622C302.905 299.662 303.23 299.701 303.555 299.748C305.996 300.053 308.464 300.392 310.972 300.744C314.774 301.282 318.635 301.866 322.523 302.497C326.418 303.128 330.335 303.794 334.273 304.496C335.269 304.675 336.264 304.854 337.266 305.04C337.717 305.127 338.168 305.213 338.619 305.299C339.389 305.439 340.158 305.585 340.928 305.731C341.698 305.877 342.467 306.023 343.237 306.176C344.152 306.355 345.075 306.534 345.99 306.714C352.021 307.909 358.019 309.184 363.871 310.519C364.833 310.738 365.795 310.963 366.75 311.183C368.661 311.627 370.554 312.079 372.429 312.537C372.947 312.657 373.458 312.783 373.969 312.909C375.243 313.228 376.516 313.547 377.77 313.872L377.989 313.932C378.911 314.157 379.814 314.39 380.716 314.629C382.846 315.187 384.94 315.751 386.999 316.322C388.366 316.701 389.717 317.084 391.053 317.471C393.05 318.049 395.007 318.633 396.911 319.224C397.382 319.37 397.853 319.516 398.318 319.656C399.711 320.087 401.085 320.526 402.418 320.964C403.48 321.309 404.515 321.661 405.536 322.013C406.558 322.365 407.56 322.717 408.542 323.069C409.172 323.295 409.796 323.534 410.42 323.759C411.315 324.091 412.198 324.423 413.06 324.755C413.326 324.855 413.584 324.961 413.843 325.061C414.009 325.134 414.168 325.194 414.327 325.26C414.639 325.386 414.958 325.506 415.263 325.632C415.575 325.752 415.88 325.878 416.185 326.01C416.484 326.13 416.789 326.256 417.081 326.382C417.379 326.502 417.671 326.628 417.963 326.761C418.209 326.86 418.447 326.967 418.68 327.073C419.151 327.279 419.622 327.485 420.08 327.697C420.305 327.803 420.531 327.903 420.756 328.009L421.274 328.248C421.347 328.288 421.42 328.321 421.493 328.355C421.659 328.434 421.831 328.521 421.997 328.6C422.382 328.78 422.76 328.972 423.132 329.151C423.629 329.404 424.114 329.656 424.578 329.902C425.049 330.154 425.507 330.406 425.945 330.652C426.018 330.692 426.084 330.732 426.157 330.772C426.257 330.825 426.356 330.885 426.456 330.938C426.794 331.13 427.119 331.329 427.444 331.522C428.081 331.914 428.685 332.299 429.249 332.684C429.375 332.77 429.494 332.857 429.62 332.936C430.038 333.235 430.436 333.527 430.808 333.826C430.808 333.833 430.808 333.833 430.815 333.833C430.941 333.926 431.06 334.025 431.179 334.118C431.279 334.211 431.385 334.291 431.485 334.384C431.83 334.683 432.148 334.968 432.44 335.26C432.538 335.351 432.631 335.446 432.719 335.546C432.757 335.578 432.793 335.614 432.825 335.652C432.958 335.785 433.077 335.918 433.19 336.051C433.207 336.069 433.223 336.089 433.236 336.11C433.395 336.296 433.541 336.482 433.681 336.668C433.747 336.761 433.82 336.854 433.88 336.947C433.959 337.06 434.039 337.18 434.105 337.292C434.165 337.385 434.218 337.485 434.271 337.578C434.412 337.817 434.532 338.068 434.63 338.328C434.704 338.505 434.764 338.687 434.809 338.873C434.859 339.049 434.897 339.229 434.921 339.411Z" fill="#2F2E41"/>
<path opacity="0.2" d="M434.921 339.411C434.915 340.573 434.901 342.2 434.848 344.212C434.842 344.491 434.828 344.776 434.822 345.068C434.755 347.891 434.656 351.377 434.517 355.314C434.51 355.553 434.503 355.786 434.49 356.025C434.304 360.833 434.012 366.43 433.508 375.295C432.573 391.67 430.94 377.546 429.302 383.29C424.75 380.488 419.761 377.553 414.427 374.538C413.465 373.994 412.494 373.447 411.514 372.898C400.846 366.942 388.93 360.7 376.49 354.518C375.999 354.272 375.501 354.026 375.01 353.787C346.514 339.69 315.411 325.977 290.212 316.827C285.349 315.061 280.705 313.467 276.339 312.066C267.144 309.124 259.195 307.066 253.078 306.176C246.709 305.246 242.31 305.578 240.532 307.497C240.466 306.143 240.397 304.845 240.326 303.606C240.3 303.194 240.273 302.789 240.247 302.391C240.288 302.281 240.341 302.177 240.392 302.072C240.4 302.057 240.405 302.041 240.412 302.026C240.425 301.991 240.441 301.958 240.459 301.926C240.478 301.885 240.501 301.845 240.525 301.806C240.547 301.759 240.574 301.715 240.605 301.674C240.665 301.581 240.731 301.481 240.804 301.388C240.858 301.318 240.915 301.252 240.976 301.189C240.997 301.157 241.021 301.128 241.049 301.102C241.076 301.076 241.102 301.043 241.136 301.01C241.15 300.989 241.168 300.971 241.189 300.956C241.241 300.896 241.299 300.841 241.361 300.79C241.598 300.572 241.851 300.373 242.118 300.193C242.21 300.133 242.31 300.073 242.403 300.007C243.071 299.606 243.776 299.269 244.506 298.998C244.758 298.905 245.01 298.818 245.282 298.725C245.382 298.699 245.475 298.666 245.574 298.632C245.72 298.586 245.866 298.539 246.019 298.506C246.775 298.28 247.591 298.088 248.474 297.908C248.739 297.855 249.018 297.802 249.296 297.756C249.522 297.716 249.754 297.676 249.986 297.636C251.957 297.324 254.193 297.092 256.661 296.939C256.893 296.926 257.125 296.912 257.357 296.899C257.629 296.886 257.901 296.873 258.18 296.859C258.412 296.846 258.651 296.839 258.89 296.833C259.122 296.819 259.361 296.813 259.607 296.806C260.277 296.786 260.967 296.766 261.67 296.753C263.674 296.72 265.783 296.733 267.999 296.78C269.028 296.8 270.076 296.833 271.151 296.879C271.217 296.879 271.29 296.886 271.357 296.886C272.292 296.912 273.241 296.959 274.203 297.005C274.88 297.039 275.563 297.072 276.246 297.112C276.89 297.151 277.54 297.191 278.197 297.238C278.708 297.264 279.219 297.304 279.736 297.337C280.174 297.371 280.612 297.404 281.05 297.43C281.574 297.47 282.098 297.51 282.629 297.55C283.359 297.61 284.089 297.669 284.832 297.729C285.568 297.796 286.318 297.862 287.067 297.928C287.817 297.995 288.574 298.068 289.33 298.141C289.41 298.148 289.483 298.154 289.555 298.161C290.246 298.234 290.936 298.3 291.632 298.373C295.494 298.765 299.468 299.223 303.555 299.748C305.996 300.06 308.469 300.394 310.972 300.751C314.774 301.288 318.635 301.873 322.523 302.497C326.418 303.128 330.334 303.794 334.273 304.496C335.268 304.675 336.264 304.854 337.265 305.04C338.486 305.266 339.707 305.496 340.928 305.731C341.697 305.877 342.467 306.023 343.237 306.176C344.152 306.355 345.074 306.534 345.99 306.714C352.021 307.909 358.019 309.184 363.871 310.519C364.833 310.738 365.795 310.963 366.75 311.183C368.661 311.627 370.554 312.079 372.429 312.537C372.947 312.663 373.458 312.79 373.968 312.916C375.249 313.234 376.516 313.553 377.77 313.872V313.879C377.843 313.892 377.916 313.912 377.989 313.932C378.905 314.164 379.814 314.397 380.716 314.636C382.846 315.193 384.94 315.756 386.999 316.322C388.366 316.707 389.719 317.086 391.053 317.471C393.05 318.055 395.007 318.64 396.911 319.224C397.382 319.37 397.853 319.516 398.318 319.656C399.711 320.094 401.078 320.53 402.418 320.964C403.48 321.309 404.515 321.661 405.536 322.013C406.558 322.365 407.56 322.717 408.542 323.069C409.179 323.295 409.802 323.527 410.419 323.753C411.322 324.085 412.197 324.417 413.06 324.755C413.325 324.855 413.584 324.961 413.843 325.061C414.327 325.247 414.798 325.439 415.263 325.632C415.575 325.752 415.88 325.878 416.185 326.011C416.484 326.13 416.789 326.256 417.081 326.382C417.379 326.502 417.671 326.628 417.963 326.761C418.209 326.86 418.447 326.967 418.68 327.073C419.151 327.279 419.622 327.485 420.08 327.697C420.305 327.803 420.531 327.903 420.756 328.009L421.274 328.248C421.347 328.288 421.42 328.321 421.493 328.355C422.057 328.62 422.601 328.886 423.131 329.151C423.629 329.404 424.113 329.656 424.578 329.902C425.129 330.194 425.653 330.479 426.157 330.772C426.256 330.825 426.356 330.885 426.455 330.938C426.794 331.13 427.119 331.329 427.444 331.522C428.081 331.914 428.685 332.299 429.249 332.684C429.806 333.069 430.323 333.448 430.808 333.826C430.808 333.833 430.808 333.833 430.814 333.833C431.047 334.019 431.272 334.205 431.485 334.384C431.83 334.683 432.148 334.968 432.44 335.26C432.538 335.351 432.631 335.446 432.719 335.546C432.757 335.578 432.793 335.614 432.825 335.652C432.964 335.805 433.103 335.958 433.236 336.11C433.395 336.296 433.541 336.482 433.681 336.668C433.747 336.761 433.82 336.854 433.88 336.947C433.959 337.06 434.039 337.18 434.105 337.292C434.165 337.385 434.218 337.485 434.271 337.578C434.412 337.817 434.532 338.068 434.629 338.328C434.702 338.505 434.762 338.687 434.809 338.873C434.859 339.049 434.896 339.229 434.921 339.411Z" fill="black"/>
</g>
<defs>
<clipPath id="clip0_622_1102">
<rect width="522.03" height="380" fill="white" transform="translate(74 33)"/>
</clipPath>
</defs>
</svg>
