<svg width="670" height="447" viewBox="0 0 670 447" fill="none" xmlns="http://www.w3.org/2000/svg">
<rect width="670" height="447" rx="20" fill="white"/>
<path d="M220.38 253.35C220.38 253.35 245.029 255.472 256.129 283.304C267.23 311.219 283.391 336.031 321.507 327.869L345.585 324.604C345.585 324.604 382.151 312.606 401.903 312.361C421.574 312.035 418.391 317.83 446.631 318.156C474.872 318.483 496.011 290.895 501.154 263.471C506.296 236.046 502.786 179.728 463.282 139.408C423.859 99.0874 380.764 84.3957 337.505 80.0698C294.246 75.7439 227.399 88.3135 191.323 139.245C156.797 187.972 158.103 233.434 211.809 248.861L220.38 253.35Z" fill="#F2F4FC"/>
<path d="M491.517 300.776V348.514H453.901V307.576L461.5 300.776H491.517Z" fill="#020617" stroke="black" stroke-width="0.5"/>
<path d="M454.305 307.214L461.155 301.086V307.214H454.305Z" fill="#F7FAFC" stroke="black" stroke-width="0.5"/>
<path d="M461.899 316.845V314.897H483.519V316.845H461.899Z" fill="#F1F5F9" stroke="black" stroke-width="0.5"/>
<path d="M461.899 326.64V324.691H483.519V326.64H461.899Z" fill="#F1F5F9" stroke="black" stroke-width="0.5"/>
<path d="M461.899 336.434V334.486H483.519V336.434H461.899Z" fill="#F1F5F9" stroke="black" stroke-width="0.5"/>
<path d="M300.006 226.492L296.666 207.566H303.019L306.756 226.492H300.006Z" fill="#020617" stroke="black" stroke-width="0.5"/>
<path d="M272.861 224.951H324.195V230.246H270.255V227.558C270.255 226.145 271.449 224.951 272.861 224.951Z" fill="#020617" stroke="black" stroke-width="0.5"/>
<path d="M245.357 162.463L245.357 162.463L245.356 162.46C244.896 160.007 246.813 157.778 249.273 157.778H334.975C336.972 157.778 338.664 159.237 338.972 161.239L338.972 161.239L345.746 204.984C345.746 204.985 345.746 204.985 345.746 204.986C345.969 206.554 344.774 207.964 343.218 207.964H255.966C254.538 207.964 253.251 206.909 252.947 205.473L245.357 162.463Z" fill="#020617" stroke="black" stroke-width="0.5"/>
<path d="M336.686 162.954L336.686 162.954L342.889 201.555C342.889 201.556 342.889 201.557 342.889 201.557C343.112 203.205 341.757 204.862 339.953 204.862H260.047C258.7 204.862 257.494 203.888 257.19 202.532L250.091 163.853C250.091 163.852 250.091 163.852 250.091 163.851C249.791 162.046 251.142 160.471 252.946 160.471H333.75C335.182 160.471 336.461 161.528 336.686 162.954Z" fill="#F8FAFC" stroke="black" stroke-width="0.5"/>
<path d="M273.641 198.088L268.101 167.654H312.154L317.213 198.088H273.641Z" fill="#E1EDF4" stroke="black" stroke-width="0.5"/>
<path d="M323.925 198.088L319.268 167.654H327.745L333.045 198.088H323.925Z" fill="#E1EDF4" stroke="black" stroke-width="0.5"/>
<path d="M386.069 239.556H208.3V261.022H386.069V239.556Z" fill="#D3E4EA"/>
<path d="M386.15 239.556H269.107V261.022H386.15V239.556Z" fill="#C0DAE7"/>
<path d="M382.478 230.415H202.831C201.607 230.415 200.627 231.394 200.627 232.618V237.189C200.627 238.413 201.607 239.393 202.831 239.393H382.478C383.702 239.393 384.681 238.413 384.681 237.189V232.618C384.681 231.394 383.702 230.415 382.478 230.415Z" fill="#E4EFF4"/>
<path d="M272.943 261.022H267.148V394.716H272.943V261.022Z" fill="#D2E5EF"/>
<path d="M223.236 261.022H217.441V394.716H223.236V261.022Z" fill="#D2E5EF"/>
<path d="M435.123 261.022H429.328V394.716H435.123V261.022Z" fill="#D2E5EF"/>
<path d="M399.21 125.451C399.21 125.451 392.762 131.246 391.211 142.428C391.211 142.428 388.273 144.387 387.864 144.958C387.456 145.448 388.109 147.733 390.721 148.223C390.721 148.223 391.945 159.568 400.842 161.772L402.883 169.362L414.146 160.466L422.716 138.755L399.21 125.451Z" fill="#F9C1C0"/>
<path opacity="0.33" d="M413.33 145.203C413.33 145.203 415.289 145.04 415.697 146.754C416.105 148.468 412.677 151.732 410.882 151.079C409.086 150.426 410.555 146.998 413.33 145.203Z" fill="#F4807D"/>
<path d="M405.658 142.999C405.658 142.999 397.088 138.347 399.21 125.451C399.21 125.451 407.29 116.962 419.533 121.615C431.695 126.185 431.695 140.061 431.695 140.061C431.695 140.061 429.736 159.323 414.309 160.466C414.309 160.466 410.065 158.099 410.31 154.1C410.31 154.1 416.513 153.61 418.39 147.162C420.023 140.632 411.616 137.204 405.658 142.999Z" fill="#79154D"/>
<path d="M427.858 141.04C427.858 141.04 428.756 135.49 434.062 132.552C439.367 129.532 444.101 133.776 444.754 138.347C445.407 142.836 441.407 146.509 438.796 146.917C436.347 147.325 426.716 146.345 427.858 141.04Z" fill="#821A58"/>
<path d="M430.47 139C430.878 136.551 431.613 134.837 432.184 133.776C428.512 136.796 427.777 141.04 427.777 141.04C427.206 143.407 428.92 144.958 431.123 145.856C430.715 144.55 429.981 142.02 430.47 139Z" fill="#759EF2"/>
<path d="M398.067 132.307C398.067 132.307 396.761 131.572 394.884 131.409C394.394 132.225 393.986 133.205 393.496 134.266C393.578 134.266 396.598 133.776 398.638 135.735C398.638 135.653 399.536 133.368 398.067 132.307Z" fill="#79154D"/>
<path d="M395.863 140.306C395.537 141.612 394.72 142.509 394.067 142.264C393.414 142.101 393.17 140.877 393.578 139.653C393.904 138.347 394.72 137.449 395.373 137.694C395.945 137.775 396.19 139 395.863 140.306Z" fill="#79154D"/>
<path d="M391.701 151.896C391.701 151.896 393.66 151.732 395.782 150.753C396.761 150.263 397.741 151.324 397.251 152.304C396.516 153.691 395.21 155.161 393.17 155.569L391.701 151.896Z" fill="#E25555"/>
<path d="M414.473 144.876C414.473 144.876 411.943 145.203 409.739 149.039" stroke="#E26060" stroke-width="1.2275" stroke-miterlimit="10" stroke-linecap="round"/>
<path d="M414.717 147.162C414.717 147.162 413.085 146.346 410.8 147.407" stroke="#E26060" stroke-width="1.2275" stroke-miterlimit="10" stroke-linecap="round"/>
<path d="M302.163 358.232L297.837 369.332C297.837 369.332 278.33 370.638 277.024 371.291C275.718 371.862 275.555 373.903 275.555 373.903L318.569 391.696L328.69 367.945L302.163 358.232Z" fill="#759EF2"/>
<path d="M302.163 358.232L297.837 369.332C297.837 369.332 278.33 370.638 277.024 371.291C275.718 371.862 275.555 373.903 275.555 373.903L318.569 391.696L328.69 367.945L302.163 358.232Z" fill="#7A164D"/>
<path d="M327.792 367.863L330.322 378.8C330.322 378.8 315.794 389.656 315.304 393.818C314.896 397.573 348.85 390.145 358.073 384.758C359.297 384.024 359.869 382.636 359.542 381.33L354.155 361.17L327.792 367.863Z" fill="#7A164D"/>
<path d="M320.528 305.424L300.367 350.968C300.367 350.968 294.246 350.886 294.736 354.559C295.225 358.232 298.082 358.885 298.082 358.885L323.548 371.291L370.561 288.691V278.081H331.302L320.528 305.424Z" fill="#7A164D"/>
<path d="M314.324 358.232L325.588 363.864" stroke="#490D34" stroke-width="1.6367" stroke-miterlimit="10" stroke-linecap="round"/>
<path d="M320.528 305.424L300.367 350.968C300.367 350.968 294.246 350.886 294.736 354.559C295.225 358.232 298.082 358.885 298.082 358.885L323.548 371.291L370.561 288.691V278.081H331.302L320.528 305.424Z" fill="#759EF2"/>
<path d="M384.681 239.556L311.876 264.613C311.876 264.613 301.265 268.45 301.265 282.57L322.323 361.905C322.323 361.905 319.466 368.761 323.547 371.291C323.547 371.291 351.951 367.537 361.256 362.721C361.256 362.721 362.562 354.722 356.767 354.559L342.973 292.364L373.581 284.855L405.576 287.467V245.677L384.681 239.556Z" fill="#759EF2"/>
<path d="M327.792 216.131C327.792 216.131 310.162 222.089 306.979 224.13C303.795 226.252 303.306 230.414 303.306 230.414H329.914L327.792 216.131Z" fill="#F9C1C0"/>
<path d="M398.72 166.914L392.353 170.75C392.353 170.75 391.782 173.117 392.353 174.096C392.353 174.096 380.029 174.423 375.54 180.544C371.05 186.666 355.624 209.438 355.624 209.438L327.873 213.845C327.873 213.845 321.017 224.946 326.812 230.414H374.642L378.478 223.722L379.539 230.414C379.539 230.414 372.928 237.76 381.416 242.413C389.905 247.065 405.004 255.717 405.004 255.717L444.835 183.156C444.835 183.156 442.305 173.933 431.613 173.28C431.613 173.28 430.96 171.811 429.654 171.566C429.654 171.566 432.102 162.588 425.41 159.16C425.41 159.16 419.125 157.936 410.473 160.711L398.72 166.914Z" fill="#303778"/>
<path d="M413.493 172.464C413.493 172.464 426.308 169.281 430.715 172.464C435.123 175.647 432.837 184.625 432.837 184.625" stroke="#F8FAFC" stroke-miterlimit="10" stroke-linecap="round"/>
<path d="M392.353 174.178C392.353 174.178 400.189 188.788 413.493 188.135" stroke="#F8FAFC" stroke-miterlimit="10" stroke-linecap="round"/>
<path d="M428.022 161.282C428.022 161.282 431.531 165.526 429.654 171.566" stroke="#F8FAFC" stroke-miterlimit="10" stroke-linecap="round"/>
<path d="M334.24 230.414H374.642L392.68 201.929" stroke="#F8FAFC" stroke-miterlimit="10" stroke-linecap="round"/>
<path d="M331.302 360.109L356.767 354.477" stroke="#759EF2" stroke-width="1.2354" stroke-miterlimit="10" stroke-linecap="round"/>
<path d="M393.131 394.21C396.729 393.364 398.96 389.761 398.114 386.163C397.268 382.565 393.665 380.334 390.067 381.18C386.469 382.026 384.238 385.629 385.084 389.227C385.93 392.825 389.533 395.056 393.131 394.21Z" fill="#7A164D"/>
<path d="M443.325 394.207C446.923 393.361 449.154 389.758 448.308 386.16C447.461 382.562 443.859 380.331 440.261 381.177C436.663 382.023 434.432 385.626 435.278 389.224C436.124 392.822 439.727 395.053 443.325 394.207Z" fill="#7A164D"/>
<path d="M448.345 305.179H385.09C383.294 305.179 381.825 303.71 381.825 301.914V300.118H451.61V301.996C451.61 303.71 450.141 305.179 448.345 305.179Z" fill="#7A164D"/>
<path d="M421.9 328.767H411.29C410.392 328.767 409.657 328.032 409.657 327.135V305.26H423.533V327.135C423.533 328.032 422.798 328.767 421.9 328.767Z" fill="#FDA145"/>
<path d="M442.55 372.026H419.289V328.767H414.146V372.026H389.252C388.354 372.026 387.62 372.76 387.62 373.658V377.494C387.62 378.392 388.354 379.127 389.252 379.127H442.55C443.448 379.127 444.183 378.392 444.183 377.494V373.658C444.183 372.76 443.448 372.026 442.55 372.026Z" fill="#EA872D"/>
<path d="M425.981 183.156C425.981 183.156 413.575 182.259 413.575 198.011H410.147C405.168 198.011 401.006 201.847 400.679 206.826L395.292 283.305H374.561C370.153 283.305 366.562 286.896 366.562 291.303V291.793C366.562 296.201 370.153 299.792 374.561 299.792H415.942L425.981 183.156Z" fill="#FD7C26"/>
<path d="M420.105 196.95C420.105 196.95 420.186 183.238 425.981 183.238H454.63C454.63 183.238 462.302 182.83 462.302 196.95H463.527C469.648 196.95 474.546 202.174 474.056 208.295L467.853 291.467C467.526 296.201 463.527 299.873 458.793 299.873H406.719C403.536 299.873 401.087 297.18 401.332 294.078L408.188 206.092C408.596 200.95 412.922 196.95 418.064 196.95H420.105Z" fill="#FDA145"/>
<path d="M374.561 299.873H458.874" stroke="#C1610A" stroke-width="1.2275" stroke-miterlimit="10" stroke-linecap="round"/>
<path d="M406.637 226.334L408.188 206.092" stroke="#C1610A" stroke-width="1.2275" stroke-miterlimit="10" stroke-linecap="round"/>
<path d="M401.822 287.385L405.576 239.556" stroke="#C1610A" stroke-width="1.2275" stroke-miterlimit="10" stroke-linecap="round"/>
<path d="M472.75 226.333L468.098 288.528" stroke="#C1610A" stroke-width="1.2275" stroke-miterlimit="10" stroke-linecap="round"/>
<path d="M228.215 355.375C228.215 355.375 248.13 333.093 248.375 321.666C248.702 310.321 223.726 351.784 223.726 351.784V355.212L228.215 355.375Z" fill="#ABCDDB"/>
<path d="M197.689 356.926C197.689 356.926 185.773 346.805 180.467 331.95C173.121 311.137 192.139 337.582 203.729 354.069" fill="#ABCDDB"/>
<path d="M228.215 355.375C228.215 355.375 248.13 333.093 248.375 321.666C248.702 310.321 223.726 351.784 223.726 351.784V355.212L228.215 355.375Z" fill="#E05353"/>
<path d="M197.689 356.926C197.689 356.926 185.773 346.805 180.467 331.95C173.121 311.137 192.139 337.582 203.729 354.069" fill="#E05353"/>
<path d="M201.607 337.5C201.607 337.5 194.506 307.954 200.056 306.403C205.606 304.852 210.748 337.5 210.748 337.5C210.748 337.5 219.4 303.465 225.766 304.199C232.133 304.934 224.705 339.214 224.705 339.214V355.947H205.851L201.607 337.5Z" fill="#ABCDDB"/>
<path d="M214.258 355.947C214.258 355.947 215.238 341.01 223.889 321.176C232.541 301.261 236.867 298.241 239.887 298.731C242.907 299.22 226.746 351.294 223.236 355.947H214.258Z" fill="#E86D6D"/>
<path d="M201.607 337.5C201.607 337.5 194.506 307.954 200.056 306.403C205.606 304.852 210.748 337.5 210.748 337.5C210.748 337.5 219.4 303.465 225.766 304.199C232.133 304.934 224.705 355.947 224.705 355.947H205.851L201.607 337.5Z" fill="#E05353"/>
<path d="M209.606 354.641C209.606 354.641 206.912 326.074 207.402 311.872C207.892 297.67 211.075 290.079 214.258 290.079C217.441 290.079 218.421 346.968 217.441 354.722H209.606V354.641Z" fill="#ABCDDB"/>
<path d="M209.606 354.641C209.606 354.641 206.912 326.074 207.402 311.872C207.892 297.67 211.075 290.079 214.258 290.079C217.441 290.079 218.421 346.968 217.441 354.722H209.606V354.641Z" fill="#E86D6D"/>
<path d="M202.586 355.947C202.586 355.947 190.099 329.828 186.262 318.075C182.426 306.403 183.406 303.465 186.262 304.281C189.119 305.097 209.524 349.662 211.728 355.865H202.586V355.947Z" fill="#E86D6D"/>
<path d="M233.439 367.618C233.439 372.515 232.949 378.066 231.643 383.126C230.419 387.778 228.542 391.941 225.44 394.716H203.811C203.811 394.716 197.444 392.676 194.098 383.126C192.792 379.29 191.894 374.23 192.139 367.618C192.302 363.864 192.792 359.538 193.771 354.641H232.704C232.704 354.641 233.52 360.354 233.439 367.618Z" fill="#7A164D"/>
<path d="M231.643 383.126H194.098" stroke="#A3407B" stroke-width="1.1608" stroke-miterlimit="10" stroke-linecap="round"/>
<path d="M192.139 367.618H233.439" stroke="#A3407B" stroke-width="1.1608" stroke-miterlimit="10" stroke-linecap="round"/>
<path d="M361.909 148.06H246.253C244.947 148.06 243.968 146.999 243.968 145.774V70.6836C243.968 69.3776 245.029 68.3982 246.253 68.3982H361.909C363.215 68.3982 364.195 69.4593 364.195 70.6836V145.693C364.195 146.999 363.134 148.06 361.909 148.06Z" fill="#E1EDF4"/>
<path d="M353.992 106.515L359.379 92.3946C359.379 92.3946 360.521 91.1703 361.991 91.9049C363.46 92.6395 362.888 94.3535 362.888 94.3535L361.419 100.883L368.194 93.5373C368.765 92.9659 369.663 92.8843 370.316 93.374C370.887 93.7821 371.377 94.4351 371.214 95.1697C371.214 95.1697 373.254 95.8227 373.417 97.8632C373.417 97.8632 375.703 98.9242 375.54 101.21C375.54 101.21 377.825 102.516 377.254 104.719C376.764 106.678 371.622 114.514 370.806 115.82C370.724 115.901 370.642 116.064 370.561 116.146L364.766 123.002C364.766 123.002 353.42 115.656 353.992 106.515Z" fill="#F9C1C0"/>
<path d="M275.637 140.469C275.637 140.469 274.739 145.774 275.474 147.978H290.655V178.994L301.918 147.978H322.079L320.446 144.223C320.283 143.815 320.201 143.326 320.201 142.918L320.283 139.245L275.637 140.469Z" fill="#7A164D"/>
<path d="M290.9 89.8643L275.555 92.721C274.331 92.9658 273.27 93.6188 272.535 94.5166C269.025 98.9241 258.823 112.473 251.232 129.94C250.253 132.225 249.845 134.674 250.008 137.122L250.906 148.06H271.311L270.25 137.286L275.637 127.654L275.392 134.347C275.392 134.347 273.351 134.674 273.351 137.122C273.351 139.489 275.555 140.469 275.555 140.469H320.12C320.12 140.469 323.385 140.469 323.385 137.775C323.385 135.082 321.018 133.694 321.018 133.694L322.813 124.879L332.2 140.061C332.2 140.061 337.097 146.182 346.075 139.571L364.848 123.084C364.848 123.084 356.033 112.8 353.666 105.454L340.525 116.228L333.179 103.903C331.138 100.475 327.955 97.7814 324.201 96.3123L314.161 92.4761L290.9 89.8643Z" fill="#759EF2"/>
<path d="M295.47 88.3951L290.9 89.8643C290.9 89.8643 294.409 101.291 303.224 101.781C313.508 102.352 314.161 92.4762 314.161 92.4762L308.366 89.4562L295.47 88.3951Z" fill="#F2E9E9"/>
<path d="M311.55 91.0886L308.366 89.4562L295.47 88.3951L292.206 89.4562L298.164 97.0469L303.224 93.5372L308.693 97.6999L311.55 91.0886Z" fill="white"/>
<path d="M314.161 58.3588C314.161 58.3588 319.303 63.7458 319.059 72.1527C318.814 80.5595 311.713 85.2119 309.346 85.7016L307.877 91.3334L303.143 93.5372L295.389 88.3951L296.858 81.8655L295.389 80.3963C295.389 80.3963 288.124 77.9477 287.472 73.2137C286.819 68.4797 290.573 67.8268 290.573 67.8268L298.164 56.2367L314.161 58.3588Z" fill="#F9C1C0"/>
<path opacity="0.33" d="M309.264 85.7833C308.366 85.865 304.53 85.9466 301.51 84.2325C301.51 84.2325 303.306 87.9871 308.448 88.9665L309.264 85.7833Z" fill="#F4807D"/>
<path opacity="0.33" d="M291.144 71.663C291.144 71.663 289.757 71.4182 289.675 72.969C289.512 74.5197 291.797 77.3765 292.858 76.9684C295.634 76.0705 292.614 72.0711 291.144 71.663Z" fill="#F4807D"/>
<path d="M296.286 70.4387C296.286 70.4387 298.817 65.7863 299.061 59.7464C299.061 59.7464 317.018 64.0723 319.467 54.1146C319.548 53.7065 319.14 53.4617 318.814 53.6249C317.671 54.1962 315.63 55.0941 313.916 54.686C313.916 54.686 309.999 49.8704 298.327 53.1352C298.327 53.1352 289.757 56.2367 290.655 67.9085C290.573 67.9085 293.838 66.929 296.286 70.4387Z" fill="#79154D"/>
<path d="M300.857 65.5414C300.857 65.5414 303.714 63.5825 307.061 64.4803C307.061 64.4803 307.061 61.9501 304.938 61.6236C302.816 61.3788 300.368 63.909 300.368 63.909C300.368 63.909 300.205 64.9701 300.857 65.5414Z" fill="#79154D"/>
<path d="M317.589 63.9907C317.181 63.0113 316.773 62.1134 316.365 61.3788C315.385 61.134 313.671 60.7259 312.855 61.3788C311.713 62.3583 312.529 64.2356 312.529 64.2356C314.814 63.0929 316.61 63.5826 317.589 63.9907Z" fill="#79154D"/>
<path d="M305.346 68.3982C305.346 69.4593 304.857 70.3571 304.285 70.3571C303.714 70.3571 303.224 69.4593 303.224 68.3982C303.224 67.3372 303.714 66.4393 304.285 66.4393C304.857 66.4393 305.346 67.3372 305.346 68.3982Z" fill="#79154D"/>
<path d="M315.222 68.3982C315.222 69.4593 314.733 70.3571 314.161 70.3571C313.59 70.3571 313.1 69.4593 313.1 68.3982C313.1 67.3372 313.59 66.4393 314.161 66.4393C314.733 66.4393 315.222 67.3372 315.222 68.3982Z" fill="#79154D"/>
<path d="M310.325 68.3982L310.896 72.0711C310.896 72.0711 312.529 71.8262 313.1 73.2138C313.671 74.6013 311.712 76.0705 310.08 75.8256" stroke="#E26060" stroke-width="0.8183" stroke-miterlimit="10" stroke-linecap="round"/>
<path d="M290.083 71.4182C290.083 71.4182 293.43 71.3366 294.164 75.8257" stroke="#E26060" stroke-width="0.8183" stroke-miterlimit="10" stroke-linecap="round"/>
<path d="M290.9 74.1932C290.9 74.1932 292.124 72.9689 293.43 73.6219" stroke="#E26060" stroke-width="0.8183" stroke-miterlimit="10" stroke-linecap="round"/>
<path d="M301.184 83.9877C301.184 83.9877 305.02 86.5995 309.346 85.7017" stroke="#E26060" stroke-width="0.8183" stroke-miterlimit="10" stroke-linecap="round"/>
<path d="M302.98 75.091L309.019 77.1316C309.591 77.2948 309.836 77.9478 309.509 78.4375C308.938 79.3353 307.795 80.478 305.428 79.9883C302.653 79.4169 302.245 76.9683 302.163 75.5808C302.245 75.1727 302.653 74.9278 302.98 75.091Z" fill="#E25555"/>
<path d="M283.717 104.311C283.717 104.311 285.268 107.331 284.696 110.596L267.801 141.775" stroke="#759EF2" stroke-width="0.8183" stroke-miterlimit="10" stroke-linecap="round"/>
<path d="M294.817 134.347H275.473" stroke="#759EF2" stroke-width="0.8183" stroke-miterlimit="10" stroke-linecap="round"/>
<path d="M326.404 104.638L321.017 133.694" stroke="#759EF2" stroke-width="0.8183" stroke-miterlimit="10" stroke-linecap="round"/>
<path d="M335.546 120.635L350.319 108.066" stroke="#759EF2" stroke-width="0.8183" stroke-miterlimit="10" stroke-linecap="round"/>
<path d="M361.338 101.863C361.338 101.863 363.705 106.597 362.807 111.086" stroke="#E26060" stroke-width="0.8183" stroke-miterlimit="10" stroke-linecap="round"/>
<path d="M364.766 103.332L371.132 95.1697" stroke="#E26060" stroke-width="0.8183" stroke-miterlimit="10" stroke-linecap="round"/>
<path d="M366.97 106.841L373.418 97.863" stroke="#E26060" stroke-width="0.8183" stroke-miterlimit="10" stroke-linecap="round"/>
<path d="M369.5 109.698L375.458 101.21" stroke="#E26060" stroke-width="0.8183" stroke-miterlimit="10" stroke-linecap="round"/>
<path d="M220.375 103.582V170.908H167.25V113.238L178.033 103.582H220.375Z" fill="#020617" stroke="black" stroke-width="0.5"/>
<path d="M167.654 112.876L177.687 103.891V112.876H167.654Z" fill="#F7FAFC" stroke="black" stroke-width="0.5"/>
<path d="M178.514 126.262V123.334H209.193V126.262H178.514Z" fill="#F1F5F9" stroke="black" stroke-width="0.5"/>
<path d="M178.514 140.056V137.128H209.193V140.056H178.514Z" fill="#F1F5F9" stroke="black" stroke-width="0.5"/>
<path d="M178.514 153.85V150.922H209.193V153.85H178.514Z" fill="#F1F5F9" stroke="black" stroke-width="0.5"/>
<path d="M243.07 206.418H211.483C203.974 206.418 197.853 200.297 197.853 192.788V190.012C197.853 182.503 203.974 176.382 211.483 176.382H243.152C250.661 176.382 256.783 182.503 256.783 190.012V192.788C256.701 200.297 250.58 206.418 243.07 206.418Z" fill="#E05353"/>
<path d="M236.541 189.115H213.197C212.463 189.115 211.891 188.543 211.891 187.809V187.319C211.891 186.584 212.463 186.013 213.197 186.013H236.541C237.275 186.013 237.847 186.584 237.847 187.319V187.809C237.928 188.543 237.275 189.115 236.541 189.115Z" fill="white"/>
<path d="M228.868 196.869H213.279C212.544 196.869 211.973 196.297 211.973 195.563V195.073C211.973 194.338 212.544 193.767 213.279 193.767H228.868C229.603 193.767 230.174 194.338 230.174 195.073V195.563C230.174 196.297 229.603 196.869 228.868 196.869Z" fill="white"/>
<path d="M453.406 105.938H413.493C404.49 105.938 397.174 98.6229 397.174 89.6195C397.174 80.6161 404.49 73.3005 413.493 73.3005H453.406C462.409 73.3005 469.725 80.6161 469.725 89.6195C469.725 98.6229 462.409 105.938 453.406 105.938Z" fill="#020617" stroke="black" stroke-width="0.5"/>
<path d="M418.549 89.8643C418.549 91.9266 416.868 93.5321 414.881 93.5321C412.897 93.5321 411.213 91.8484 411.213 89.8643C411.213 87.802 412.893 86.1965 414.881 86.1965C416.868 86.1965 418.549 87.802 418.549 89.8643Z" fill="white" stroke="black" stroke-width="0.5"/>
<path d="M432.429 86.1965V86.1967L432.439 86.1963C434.41 86.1205 436.097 87.7931 436.097 89.8643C436.097 91.9266 434.417 93.5321 432.429 93.5321C430.367 93.5321 428.762 91.8518 428.762 89.8643C428.762 87.802 430.442 86.1965 432.429 86.1965Z" fill="white" stroke="black" stroke-width="0.5"/>
<path d="M449.896 86.1965V86.1967L449.905 86.1964C451.955 86.1204 453.564 87.7898 453.564 89.8643C453.564 91.9266 451.883 93.5321 449.896 93.5321C447.834 93.5321 446.228 91.8518 446.228 89.8643C446.228 87.802 447.909 86.1965 449.896 86.1965Z" fill="white" stroke="black" stroke-width="0.5"/>
<path d="M171.652 394.308H489.89" stroke="#7EA9B7" stroke-width="1.1202" stroke-miterlimit="10" stroke-linecap="round"/>
</svg>
