<svg width="335" height="240" viewBox="0 0 335 240" fill="none" xmlns="http://www.w3.org/2000/svg">
<rect width="335" height="240" rx="20" fill="#F7F8F9"/>
<path d="M107.107 135.022C107.107 135.022 120.086 136.14 125.931 150.795C131.776 165.494 140.286 178.559 160.357 174.261L173.035 172.542C173.035 172.542 192.29 166.224 202.69 166.095C213.048 165.923 211.372 168.975 226.242 169.147C241.113 169.319 252.244 154.792 254.952 140.352C257.659 125.911 255.811 96.256 235.01 75.0249C214.251 53.7937 191.559 46.0576 168.781 43.7798C146.002 41.502 110.803 48.1206 91.8068 74.9389C73.6271 100.597 74.3147 124.536 102.594 132.658L107.107 135.022Z" fill="#F2F4FC"/>
<path d="M249.76 160.114V185.014H230.189V163.628L234.117 160.114H249.76Z" fill="#020617" stroke="black" stroke-width="0.5"/>
<path d="M230.593 163.267L233.772 160.423V163.267H230.593Z" fill="#F7FAFC" stroke="black" stroke-width="0.5"/>
<path d="M234.401 168.339V167.549H245.548V168.339H234.401Z" fill="#F1F5F9" stroke="black" stroke-width="0.5"/>
<path d="M234.401 173.495V172.706H245.548V173.495H234.401Z" fill="#F1F5F9" stroke="black" stroke-width="0.5"/>
<path d="M234.401 178.653V177.863H245.548V178.653H234.401Z" fill="#F1F5F9" stroke="black" stroke-width="0.5"/>
<path d="M149.134 120.762L147.418 111.033H150.524L152.446 120.762H149.134Z" fill="#020617" stroke="black" stroke-width="0.5"/>
<path d="M134.742 120.188H161.654V122.739H133.488V121.442C133.488 120.763 134.063 120.188 134.742 120.188Z" fill="#020617" stroke="black" stroke-width="0.5"/>
<path d="M120.376 87.1455L120.376 87.1455L120.376 87.1429C120.147 85.9258 121.099 84.8173 122.322 84.8173H167.449C168.441 84.8173 169.283 85.5421 169.436 86.5393L169.437 86.5396L173.003 109.573C173.003 109.573 173.003 109.574 173.003 109.574C173.111 110.332 172.534 111.007 171.789 111.007H125.846C125.152 111.007 124.522 110.493 124.372 109.791L120.376 87.1455Z" fill="#020617" stroke="black" stroke-width="0.5"/>
<path d="M168.234 87.4426L168.234 87.4433L171.5 107.769C171.606 108.566 170.947 109.373 170.071 109.373H127.995C127.343 109.373 126.756 108.901 126.607 108.241L122.869 87.8763C122.724 86.9984 123.379 86.2354 124.256 86.2354H166.804C167.502 86.2354 168.124 86.7514 168.234 87.4426Z" fill="#F8FAFC" stroke="black" stroke-width="0.5"/>
<path d="M135.252 105.806L132.378 90.0172H155.332L157.957 105.806H135.252Z" fill="#E1EDF4" stroke="black" stroke-width="0.5"/>
<path d="M161.733 105.806L159.317 90.0172H163.543L166.293 105.806H161.733Z" fill="#E1EDF4" stroke="black" stroke-width="0.5"/>
<path d="M194.354 127.759H100.747V139.062H194.354V127.759Z" fill="#D3E4EA"/>
<path d="M194.396 127.759H132.766V139.062H194.396V127.759Z" fill="#C0DAE7"/>
<path d="M192.462 122.946H97.8674C97.2228 122.946 96.707 123.461 96.707 124.106V126.513C96.707 127.157 97.2228 127.673 97.8674 127.673H192.462C193.107 127.673 193.623 127.157 193.623 126.513V124.106C193.623 123.461 193.107 122.946 192.462 122.946Z" fill="#E4EFF4"/>
<path d="M134.786 139.062H131.734V209.46H134.786V139.062Z" fill="#D2E5EF"/>
<path d="M108.612 139.062H105.561V209.46H108.612V139.062Z" fill="#D2E5EF"/>
<path d="M220.184 139.062H217.132V209.46H220.184V139.062Z" fill="#D2E5EF"/>
<path d="M201.273 67.6759C201.273 67.6759 197.878 70.7274 197.061 76.6154C197.061 76.6154 195.514 77.6468 195.299 77.9477C195.084 78.2056 195.428 79.4089 196.803 79.6668C196.803 79.6668 197.448 85.6408 202.133 86.8012L203.207 90.7981L209.138 86.1135L213.651 74.6814L201.273 67.6759Z" fill="#F9C1C0"/>
<path opacity="0.33" d="M208.708 78.0779C208.708 78.0779 209.739 77.9919 209.954 78.8944C210.169 79.797 208.364 81.5161 207.418 81.1723C206.473 80.8284 207.247 79.0234 208.708 78.0779Z" fill="#F4807D"/>
<path d="M204.667 76.9169C204.667 76.9169 200.155 74.4672 201.272 67.6767C201.272 67.6767 205.527 63.2069 211.974 65.6567C218.377 68.0635 218.377 75.3697 218.377 75.3697C218.377 75.3697 217.346 85.5126 209.223 86.1143C209.223 86.1143 206.988 84.8679 207.117 82.762C207.117 82.762 210.383 82.5041 211.372 79.1088C212.232 75.6706 207.805 73.8655 204.667 76.9169Z" fill="#79154D"/>
<path d="M216.358 75.8858C216.358 75.8858 216.831 72.9633 219.624 71.4161C222.418 69.8259 224.911 72.0608 225.254 74.4675C225.598 76.8313 223.492 78.7654 222.117 78.9802C220.828 79.1951 215.756 78.6794 216.358 75.8858Z" fill="#821A58"/>
<path d="M217.734 74.8112C217.949 73.5218 218.336 72.6193 218.636 72.0606C216.702 73.6508 216.316 75.8856 216.316 75.8856C216.015 77.132 216.917 77.9486 218.078 78.4213C217.863 77.7337 217.476 76.4014 217.734 74.8112Z" fill="#759EF2"/>
<path d="M200.67 71.2868C200.67 71.2868 199.983 70.9 198.994 70.8141C198.736 71.2438 198.521 71.7596 198.263 72.3183C198.306 72.3183 199.897 72.0604 200.971 73.0919C200.971 73.0489 201.444 71.8455 200.67 71.2868Z" fill="#79154D"/>
<path d="M199.51 75.4991C199.338 76.1867 198.908 76.6595 198.564 76.5305C198.221 76.4446 198.092 75.7999 198.306 75.1552C198.478 74.4676 198.908 73.9948 199.252 74.1238C199.553 74.1667 199.682 74.8114 199.51 75.4991Z" fill="#79154D"/>
<path d="M197.319 81.6008C197.319 81.6008 198.35 81.5148 199.468 80.9991C199.984 80.7412 200.499 81.3 200.241 81.8157C199.855 82.5463 199.167 83.3199 198.093 83.5348L197.319 81.6008Z" fill="#E25555"/>
<path d="M209.309 77.9055C209.309 77.9055 207.977 78.0774 206.816 80.0974" stroke="#E26060" stroke-width="1.2275" stroke-miterlimit="10" stroke-linecap="round"/>
<path d="M209.439 79.1081C209.439 79.1081 208.579 78.6783 207.376 79.237" stroke="#E26060" stroke-width="1.2275" stroke-miterlimit="10" stroke-linecap="round"/>
<path d="M150.171 190.25L147.893 196.095C147.893 196.095 137.622 196.783 136.934 197.127C136.246 197.427 136.16 198.502 136.16 198.502L158.81 207.871L164.139 195.365L150.171 190.25Z" fill="#759EF2"/>
<path d="M150.171 190.25L147.893 196.095C147.893 196.095 137.622 196.783 136.934 197.127C136.246 197.427 136.16 198.502 136.16 198.502L158.81 207.871L164.139 195.365L150.171 190.25Z" fill="#7A164D"/>
<path d="M163.667 195.322L164.999 201.081C164.999 201.081 157.349 206.797 157.091 208.989C156.876 210.966 174.755 207.055 179.612 204.218C180.256 203.831 180.557 203.101 180.385 202.413L177.549 191.797L163.667 195.322Z" fill="#7A164D"/>
<path d="M159.842 162.443L149.226 186.425C149.226 186.425 146.003 186.382 146.261 188.316C146.519 190.25 148.023 190.594 148.023 190.594L161.432 197.127L186.188 153.633V148.046H165.515L159.842 162.443Z" fill="#7A164D"/>
<path d="M156.575 190.25L162.506 193.216" stroke="#490D34" stroke-width="1.6367" stroke-miterlimit="10" stroke-linecap="round"/>
<path d="M159.842 162.443L149.226 186.425C149.226 186.425 146.003 186.382 146.261 188.316C146.519 190.25 148.023 190.594 148.023 190.594L161.432 197.127L186.188 153.633V148.046H165.515L159.842 162.443Z" fill="#759EF2"/>
<path d="M193.622 127.761L155.286 140.955C155.286 140.955 149.698 142.975 149.698 150.41L160.787 192.185C160.787 192.185 159.282 195.795 161.431 197.127C161.431 197.127 176.388 195.15 181.287 192.615C181.287 192.615 181.975 188.403 178.923 188.317L171.66 155.567L187.777 151.614L204.624 152.989V130.984L193.622 127.761Z" fill="#759EF2"/>
<path d="M163.667 115.426C163.667 115.426 154.384 118.563 152.707 119.638C151.031 120.755 150.773 122.947 150.773 122.947H164.784L163.667 115.426Z" fill="#F9C1C0"/>
<path d="M201.015 89.5091L197.663 91.5291C197.663 91.5291 197.362 92.7754 197.663 93.2912C197.663 93.2912 191.173 93.4631 188.809 96.6864C186.446 99.9098 178.323 111.901 178.323 111.901L163.71 114.221C163.71 114.221 160.1 120.066 163.151 122.946H188.337L190.357 119.422L190.915 122.946C190.915 122.946 187.434 126.814 191.904 129.264C196.374 131.714 204.324 136.269 204.324 136.269L225.298 98.0617C225.298 98.0617 223.965 93.2052 218.335 92.8614C218.335 92.8614 217.991 92.0878 217.304 91.9588C217.304 91.9588 218.593 87.2312 215.069 85.4262C215.069 85.4262 211.76 84.7815 207.204 86.2427L201.015 89.5091Z" fill="#303778"/>
<path d="M208.794 92.4324C208.794 92.4324 215.541 90.7562 217.862 92.4324C220.183 94.1085 218.98 98.8361 218.98 98.8361" stroke="#F8FAFC" stroke-miterlimit="10" stroke-linecap="round"/>
<path d="M197.662 93.335C197.662 93.335 201.788 101.028 208.793 100.684" stroke="#F8FAFC" stroke-miterlimit="10" stroke-linecap="round"/>
<path d="M216.443 86.5443C216.443 86.5443 218.291 88.7791 217.303 91.9595" stroke="#F8FAFC" stroke-miterlimit="10" stroke-linecap="round"/>
<path d="M167.062 122.946H188.336L197.834 107.947" stroke="#F8FAFC" stroke-miterlimit="10" stroke-linecap="round"/>
<path d="M165.514 191.238L178.923 188.273" stroke="#759EF2" stroke-width="1.2354" stroke-miterlimit="10" stroke-linecap="round"/>
<path d="M198.073 209.193C199.967 208.748 201.142 206.851 200.696 204.956C200.251 203.062 198.354 201.887 196.459 202.333C194.565 202.778 193.39 204.675 193.835 206.57C194.281 208.464 196.178 209.639 198.073 209.193Z" fill="#7A164D"/>
<path d="M224.502 209.192C226.397 208.747 227.571 206.85 227.126 204.955C226.68 203.06 224.783 201.886 222.889 202.331C220.994 202.777 219.819 204.674 220.265 206.568C220.71 208.463 222.607 209.638 224.502 209.192Z" fill="#7A164D"/>
<path d="M227.146 162.313H193.838C192.892 162.313 192.119 161.54 192.119 160.594V159.649H228.865V160.637C228.865 161.54 228.091 162.313 227.146 162.313Z" fill="#7A164D"/>
<path d="M213.22 174.733H207.633C207.16 174.733 206.774 174.346 206.774 173.874V162.355H214.08V173.874C214.08 174.346 213.693 174.733 213.22 174.733Z" fill="#FDA145"/>
<path d="M224.094 197.512H211.845V174.734H209.137V197.512H196.029C195.556 197.512 195.17 197.899 195.17 198.372V200.392C195.17 200.865 195.556 201.251 196.029 201.251H224.094C224.567 201.251 224.953 200.865 224.953 200.392V198.372C224.953 197.899 224.567 197.512 224.094 197.512Z" fill="#EA872D"/>
<path d="M215.369 98.0612C215.369 98.0612 208.836 97.5884 208.836 105.883H207.031C204.409 105.883 202.218 107.903 202.046 110.525L199.209 150.795H188.293C185.972 150.795 184.081 152.686 184.081 155.007V155.265C184.081 157.586 185.972 159.477 188.293 159.477H210.083L215.369 98.0612Z" fill="#FD7C26"/>
<path d="M212.274 105.325C212.274 105.325 212.317 98.1043 215.369 98.1043H230.454C230.454 98.1043 234.494 97.8895 234.494 105.325H235.139C238.362 105.325 240.941 108.075 240.683 111.299L237.417 155.093C237.245 157.586 235.139 159.52 232.646 159.52H205.226C203.55 159.52 202.261 158.102 202.39 156.469L206 110.138C206.215 107.431 208.492 105.325 211.2 105.325H212.274Z" fill="#FDA145"/>
<path d="M188.293 159.519H232.689" stroke="#C1610A" stroke-width="1.2275" stroke-miterlimit="10" stroke-linecap="round"/>
<path d="M205.182 120.796L205.999 110.138" stroke="#C1610A" stroke-width="1.2275" stroke-miterlimit="10" stroke-linecap="round"/>
<path d="M202.647 152.945L204.624 127.76" stroke="#C1610A" stroke-width="1.2275" stroke-miterlimit="10" stroke-linecap="round"/>
<path d="M239.996 120.796L237.546 153.545" stroke="#C1610A" stroke-width="1.2275" stroke-miterlimit="10" stroke-linecap="round"/>
<path d="M111.233 188.744C111.233 188.744 121.72 177.011 121.849 170.994C122.021 165.021 108.869 186.853 108.869 186.853V188.658L111.233 188.744Z" fill="#ABCDDB"/>
<path d="M95.16 189.561C95.16 189.561 88.8852 184.232 86.0917 176.41C82.2236 165.451 92.2375 179.375 98.3404 188.057" fill="#ABCDDB"/>
<path d="M111.233 188.744C111.233 188.744 121.72 177.011 121.849 170.994C122.021 165.021 108.869 186.853 108.869 186.853V188.658L111.233 188.744Z" fill="#E05353"/>
<path d="M95.16 189.561C95.16 189.561 88.8852 184.232 86.0917 176.41C82.2236 165.451 92.2375 179.375 98.3404 188.057" fill="#E05353"/>
<path d="M97.2223 179.333C97.2223 179.333 93.4832 163.775 96.4057 162.958C99.3282 162.141 102.036 179.333 102.036 179.333C102.036 179.333 106.592 161.411 109.944 161.798C113.296 162.184 109.385 180.235 109.385 180.235V189.046H99.4572L97.2223 179.333Z" fill="#ABCDDB"/>
<path d="M103.885 189.046C103.885 189.046 104.4 181.181 108.956 170.737C113.512 160.251 115.789 158.661 117.38 158.918C118.97 159.176 110.46 186.596 108.612 189.046H103.885Z" fill="#E86D6D"/>
<path d="M97.2223 179.333C97.2223 179.333 93.4832 163.775 96.4057 162.958C99.3282 162.141 102.036 179.333 102.036 179.333C102.036 179.333 106.592 161.411 109.944 161.798C113.296 162.184 109.385 189.046 109.385 189.046H99.4572L97.2223 179.333Z" fill="#E05353"/>
<path d="M101.434 188.358C101.434 188.358 100.016 173.316 100.274 165.837C100.532 158.359 102.208 154.362 103.884 154.362C105.56 154.362 106.076 184.318 105.56 188.401H101.434V188.358Z" fill="#ABCDDB"/>
<path d="M101.434 188.358C101.434 188.358 100.016 173.316 100.274 165.837C100.532 158.359 102.208 154.362 103.884 154.362C105.56 154.362 106.076 184.318 105.56 188.401H101.434V188.358Z" fill="#E86D6D"/>
<path d="M97.7395 189.045C97.7395 189.045 91.1639 175.292 89.1439 169.103C87.1239 162.957 87.6397 161.41 89.1439 161.84C90.6481 162.27 101.393 185.736 102.553 189.002H97.7395V189.045Z" fill="#E86D6D"/>
<path d="M113.984 195.192C113.984 197.77 113.726 200.693 113.038 203.357C112.394 205.807 111.405 207.999 109.772 209.46H98.3829C98.3829 209.46 95.0306 208.386 93.2685 203.357C92.5809 201.337 92.1081 198.673 92.237 195.192C92.323 193.215 92.5809 190.937 93.0966 188.358H113.597C113.597 188.358 114.027 191.367 113.984 195.192Z" fill="#7A164D"/>
<path d="M113.038 203.357H93.2686" stroke="#A3407B" stroke-width="1.1608" stroke-miterlimit="10" stroke-linecap="round"/>
<path d="M92.2369 195.192H113.984" stroke="#A3407B" stroke-width="1.1608" stroke-miterlimit="10" stroke-linecap="round"/>
<path d="M181.632 79.5814H120.732C120.045 79.5814 119.529 79.0227 119.529 78.378V38.8382C119.529 38.1505 120.088 37.6348 120.732 37.6348H181.632C182.32 37.6348 182.836 38.1935 182.836 38.8382V78.335C182.836 79.0227 182.277 79.5814 181.632 79.5814Z" fill="#E1EDF4"/>
<path d="M177.462 57.7059L180.299 50.2707C180.299 50.2707 180.901 49.626 181.674 50.0128C182.448 50.3996 182.147 51.3021 182.147 51.3021L181.373 54.7404L184.941 50.8723C185.241 50.5715 185.714 50.5285 186.058 50.7864C186.359 51.0013 186.617 51.3451 186.531 51.7319C186.531 51.7319 187.605 52.0757 187.691 53.1502C187.691 53.1502 188.895 53.7089 188.809 54.9123C188.809 54.9123 190.012 55.5999 189.711 56.7603C189.453 57.7918 186.746 61.9177 186.316 62.6054C186.273 62.6483 186.23 62.7343 186.187 62.7773L183.136 66.3874C183.136 66.3874 177.162 62.5194 177.462 57.7059Z" fill="#F9C1C0"/>
<path d="M136.204 75.5848C136.204 75.5848 135.731 78.3784 136.118 79.5388H144.112V95.8704L150.043 79.5388H160.659L159.799 77.5618C159.713 77.3469 159.67 77.089 159.67 76.8741L159.713 74.9401L136.204 75.5848Z" fill="#7A164D"/>
<path d="M144.241 48.9381L136.161 50.4423C135.516 50.5713 134.958 50.9151 134.571 51.3879C132.723 53.7087 127.351 60.843 123.354 70.0403C122.838 71.2437 122.623 72.5331 122.709 73.8224L123.182 79.5815H133.926L133.368 73.9084L136.204 68.837L136.075 72.3612C136.075 72.3612 135.001 72.5331 135.001 73.8224C135.001 75.0688 136.161 75.5845 136.161 75.5845H159.627C159.627 75.5845 161.346 75.5845 161.346 74.1662C161.346 72.748 160.1 72.0173 160.1 72.0173L161.045 67.3757L165.988 75.3696C165.988 75.3696 168.567 78.593 173.294 75.1118L183.179 66.4302C183.179 66.4302 178.537 61.0149 177.291 57.1469L170.372 62.82L166.504 56.3303C165.429 54.5253 163.753 53.107 161.776 52.3334L156.49 50.3134L144.241 48.9381Z" fill="#759EF2"/>
<path d="M146.647 48.1638L144.241 48.9374C144.241 48.9374 146.089 54.9544 150.73 55.2122C156.146 55.5131 156.489 50.3127 156.489 50.3127L153.438 48.7225L146.647 48.1638Z" fill="#F2E9E9"/>
<path d="M155.114 49.5821L153.438 48.7225L146.647 48.1638L144.928 48.7225L148.065 52.7195L150.73 50.8714L153.609 53.0633L155.114 49.5821Z" fill="white"/>
<path d="M156.49 32.348C156.49 32.348 159.198 35.1846 159.069 39.6113C158.94 44.0381 155.201 46.4878 153.955 46.7457L153.181 49.7112L150.688 50.8716L146.606 48.1639L147.379 44.7257L146.606 43.9521C146.606 43.9521 142.78 42.6628 142.437 40.17C142.093 37.6773 144.07 37.3335 144.07 37.3335L148.067 31.2306L156.49 32.348Z" fill="#F9C1C0"/>
<path opacity="0.33" d="M153.911 46.7894C153.438 46.8323 151.418 46.8753 149.828 45.9728C149.828 45.9728 150.774 47.9498 153.481 48.4655L153.911 46.7894Z" fill="#F4807D"/>
<path opacity="0.33" d="M144.37 39.3531C144.37 39.3531 143.639 39.2242 143.596 40.0407C143.51 40.8573 144.713 42.3616 145.272 42.1467C146.733 41.6739 145.143 39.568 144.37 39.3531Z" fill="#F4807D"/>
<path d="M147.077 38.7091C147.077 38.7091 148.41 36.2593 148.538 33.079C148.538 33.079 157.994 35.3568 159.283 30.1135C159.326 29.8986 159.111 29.7697 158.939 29.8556C158.337 30.1565 157.263 30.6292 156.36 30.4143C156.36 30.4143 154.298 27.8786 148.152 29.5977C148.152 29.5977 143.639 31.2309 144.112 37.3768C144.069 37.3768 145.788 36.861 147.077 38.7091Z" fill="#79154D"/>
<path d="M149.485 36.1305C149.485 36.1305 150.989 35.099 152.751 35.5717C152.751 35.5717 152.751 34.2394 151.634 34.0675C150.516 33.9386 149.227 35.2709 149.227 35.2709C149.227 35.2709 149.141 35.8296 149.485 36.1305Z" fill="#79154D"/>
<path d="M158.295 35.3136C158.08 34.7979 157.866 34.3252 157.651 33.9384C157.135 33.8094 156.232 33.5945 155.803 33.9384C155.201 34.4541 155.631 35.4426 155.631 35.4426C156.834 34.8409 157.78 35.0988 158.295 35.3136Z" fill="#79154D"/>
<path d="M151.848 37.6347C151.848 38.1935 151.59 38.6662 151.289 38.6662C150.988 38.6662 150.731 38.1935 150.731 37.6347C150.731 37.076 150.988 36.6033 151.289 36.6033C151.59 36.6033 151.848 37.076 151.848 37.6347Z" fill="#79154D"/>
<path d="M157.048 37.6347C157.048 38.1935 156.79 38.6662 156.489 38.6662C156.188 38.6662 155.93 38.1935 155.93 37.6347C155.93 37.076 156.188 36.6033 156.489 36.6033C156.79 36.6033 157.048 37.076 157.048 37.6347Z" fill="#79154D"/>
<path d="M154.47 37.6348L154.771 39.5688C154.771 39.5688 155.63 39.4399 155.931 40.1705C156.232 40.9011 155.201 41.6747 154.341 41.5458" stroke="#E26060" stroke-width="0.8183" stroke-miterlimit="10" stroke-linecap="round"/>
<path d="M143.811 39.2244C143.811 39.2244 145.573 39.1814 145.959 41.5452" stroke="#E26060" stroke-width="0.8183" stroke-miterlimit="10" stroke-linecap="round"/>
<path d="M144.241 40.6853C144.241 40.6853 144.885 40.0407 145.573 40.3845" stroke="#E26060" stroke-width="0.8183" stroke-miterlimit="10" stroke-linecap="round"/>
<path d="M149.657 45.8435C149.657 45.8435 151.677 47.2188 153.955 46.746" stroke="#E26060" stroke-width="0.8183" stroke-miterlimit="10" stroke-linecap="round"/>
<path d="M150.602 41.1586L153.783 42.2331C154.084 42.319 154.213 42.6629 154.041 42.9207C153.74 43.3935 153.138 43.9952 151.892 43.7373C150.43 43.4365 150.216 42.1471 150.173 41.4165C150.216 41.2016 150.43 41.0727 150.602 41.1586Z" fill="#E25555"/>
<path d="M140.459 56.5453C140.459 56.5453 141.276 58.1355 140.975 59.8547L132.078 76.2723" stroke="#759EF2" stroke-width="0.8183" stroke-miterlimit="10" stroke-linecap="round"/>
<path d="M146.305 72.3613H136.119" stroke="#759EF2" stroke-width="0.8183" stroke-miterlimit="10" stroke-linecap="round"/>
<path d="M162.937 56.7168L160.1 72.017" stroke="#759EF2" stroke-width="0.8183" stroke-miterlimit="10" stroke-linecap="round"/>
<path d="M167.75 65.14L175.529 58.5213" stroke="#759EF2" stroke-width="0.8183" stroke-miterlimit="10" stroke-linecap="round"/>
<path d="M181.331 55.2552C181.331 55.2552 182.577 57.748 182.105 60.1118" stroke="#E26060" stroke-width="0.8183" stroke-miterlimit="10" stroke-linecap="round"/>
<path d="M183.135 56.0298L186.488 51.732" stroke="#E26060" stroke-width="0.8183" stroke-miterlimit="10" stroke-linecap="round"/>
<path d="M184.296 57.8776L187.692 53.15" stroke="#E26060" stroke-width="0.8183" stroke-miterlimit="10" stroke-linecap="round"/>
<path d="M185.629 59.382L188.766 54.9123" stroke="#E26060" stroke-width="0.8183" stroke-miterlimit="10" stroke-linecap="round"/>
<path d="M106.987 56.2798V91.4946H79.25V61.2989L84.8546 56.2798H106.987Z" fill="#020617" stroke="black" stroke-width="0.5"/>
<path d="M79.6539 60.9372L84.5091 56.5893V60.9372H79.6539Z" fill="#F7FAFC" stroke="black" stroke-width="0.5"/>
<path d="M85.1807 67.986V66.6809H101.098V67.986H85.1807Z" fill="#F1F5F9" stroke="black" stroke-width="0.5"/>
<path d="M85.1807 75.2489V73.9438H101.098V75.2489H85.1807Z" fill="#F1F5F9" stroke="black" stroke-width="0.5"/>
<path d="M85.1807 82.5119V81.2068H101.098V82.5119H85.1807Z" fill="#F1F5F9" stroke="black" stroke-width="0.5"/>
<path d="M119.056 110.31H102.423C98.4693 110.31 95.246 107.087 95.246 103.133V101.672C95.246 97.7177 98.4693 94.4944 102.423 94.4944H119.099C123.053 94.4944 126.276 97.7177 126.276 101.672V103.133C126.233 107.087 123.01 110.31 119.056 110.31Z" fill="#E05353"/>
<path d="M115.617 101.2H103.326C102.939 101.2 102.638 100.899 102.638 100.512V100.254C102.638 99.8674 102.939 99.5665 103.326 99.5665H115.617C116.004 99.5665 116.305 99.8674 116.305 100.254V100.512C116.348 100.899 116.004 101.2 115.617 101.2Z" fill="white"/>
<path d="M111.577 105.282H103.368C102.981 105.282 102.68 104.981 102.68 104.595V104.337C102.68 103.95 102.981 103.649 103.368 103.649H111.577C111.964 103.649 112.264 103.95 112.264 104.337V104.595C112.264 104.981 111.964 105.282 111.577 105.282Z" fill="white"/>
<path d="M229.81 57.2838H208.794C204.118 57.2838 200.319 53.4847 200.319 48.8093C200.319 44.1338 204.118 40.3347 208.794 40.3347H229.81C234.485 40.3347 238.284 44.1338 238.284 48.8093C238.284 53.4847 234.485 57.2838 229.81 57.2838Z" fill="#020617" stroke="black" stroke-width="0.5"/>
<path d="M211.338 48.9382C211.338 49.9571 210.508 50.7511 209.525 50.7511C208.546 50.7511 207.713 49.9176 207.713 48.9382C207.713 47.9192 208.543 47.1252 209.525 47.1252C210.508 47.1252 211.338 47.9192 211.338 48.9382Z" fill="white" stroke="black" stroke-width="0.5"/>
<path d="M218.766 47.1252V47.1254L218.775 47.125C219.742 47.0879 220.579 47.9103 220.579 48.9382C220.579 49.9571 219.748 50.7511 218.766 50.7511C217.747 50.7511 216.953 49.9209 216.953 48.9382C216.953 47.9192 217.783 47.1252 218.766 47.1252Z" fill="white" stroke="black" stroke-width="0.5"/>
<path d="M227.964 47.1252V47.1254L227.973 47.125C228.979 47.0878 229.777 47.907 229.777 48.9382C229.777 49.9571 228.946 50.7511 227.964 50.7511C226.945 50.7511 226.151 49.9209 226.151 48.9382C226.151 47.9192 226.981 47.1252 227.964 47.1252Z" fill="white" stroke="black" stroke-width="0.5"/>
<path d="M81.4496 209.246H249.021" stroke="#7EA9B7" stroke-width="1.1202" stroke-miterlimit="10" stroke-linecap="round"/>
</svg>
