<svg width="381" height="268" viewBox="0 0 381 268" fill="none" xmlns="http://www.w3.org/2000/svg">
<rect width="381" height="268" rx="12" fill="white"/>
<path d="M294.109 141.774C294.109 171.553 280.798 198.225 259.803 216.162C259.366 216.536 258.926 216.905 258.482 217.271H134.138C133.694 216.906 133.255 216.536 132.817 216.162C111.822 198.223 98.5107 171.553 98.5107 141.774C98.5107 87.7618 142.297 43.9756 196.309 43.9756C250.322 43.9756 294.109 87.7618 294.109 141.774Z" stroke="#D2F1F9" stroke-width="35.8483" stroke-miterlimit="10"/>
<path d="M283.626 146.271C283.626 166.679 277.375 185.626 266.683 201.303C266.085 202.183 265.469 203.054 264.842 203.914C260.334 210.083 255.12 215.705 249.32 220.659C248.883 221.033 248.443 221.403 248 221.768H123.655C123.212 221.403 122.772 221.033 122.335 220.659C101.34 202.722 88.0293 176.051 88.0293 146.271C88.0293 92.2588 131.815 48.4727 185.828 48.4727C218.286 48.4727 247.052 64.2865 264.842 88.6296C265.469 89.488 266.085 90.3588 266.683 91.2388C277.375 106.916 283.626 125.863 283.626 146.271Z" fill="#D2F1F9"/>
<path opacity="0.5" d="M293.058 165.599V103.308L280.295 103.589V113.188L266.515 123.063V155.069H256.235V106.849L251.188 101.165V72.2539H229.172V88.2216L214.552 103.589V156.331L208.571 163.069V188.34H199.225V123.494H191.08V112.906H175.792V123.494H169.971V202.963L160.905 193.929V98.7908L153.238 102.486V91.1678H137.7V109.975L134.549 111.494V160.966H126.885V132.391L120.343 116.552V77.9001L100.682 77.5893V96.5401L95.8215 102.015V134.012H87.5969L75.1077 142.435V221.189H300.535V165.599H293.058Z" fill="white"/>
<path d="M114.288 81.126V223.337H112.451V83.1029C113.055 82.4367 113.668 81.7767 114.288 81.126Z" fill="#489DA2"/>
<path d="M190.486 48.5059V223.337H188.646V48.4736C189.262 48.4782 189.874 48.489 190.486 48.5059Z" fill="#489DA2"/>
<path d="M266.683 91.2381V223.337H264.842V88.6289C265.469 89.4874 266.085 90.3581 266.683 91.2381Z" fill="#489DA2"/>
<path d="M137.002 128.56C137.002 128.56 136.746 128.897 136.371 129.468C136.109 129.867 135.788 130.38 135.449 130.973C134.997 131.777 134.523 132.727 134.14 133.733C133.672 134.959 133.343 136.268 133.357 137.507L117.762 137.473C117.762 137.473 121.563 131.42 121.828 126.194L127.211 127.034L137.002 128.56Z" fill="#FF936D"/>
<path d="M141.057 121.386C141.051 125.51 139.323 127.918 135.554 129.896C130.203 132.704 122.491 128.975 118.326 121.564C114.163 114.153 120.469 103.062 125.816 100.252C131.162 97.4455 137.948 105.858 140.18 115.201C140.294 115.684 140.399 116.15 140.493 116.602C140.546 116.862 140.596 117.118 140.643 117.367C140.896 118.744 141.034 119.978 141.056 121.089C141.056 121.19 141.057 121.287 141.057 121.386Z" fill="#FF936D"/>
<path d="M119.482 134.258L119.123 142.219C119.157 142.809 119.788 143.187 120.349 142.952L133.358 137.507L119.482 134.258Z" fill="#FF936D"/>
<path opacity="0.5" d="M128.346 123.888C129.788 123.888 130.957 122.758 130.957 121.363C130.957 119.969 129.788 118.839 128.346 118.839C126.904 118.839 125.735 119.969 125.735 121.363C125.735 122.758 126.904 123.888 128.346 123.888Z" fill="#FF936D"/>
<path opacity="0.5" d="M140.995 121.445C140.852 121.507 140.7 121.558 140.542 121.596C139.139 121.924 137.726 121.09 137.386 119.738C137.048 118.384 137.906 117.019 139.309 116.688C139.688 116.599 140.069 116.595 140.429 116.664C140.483 116.924 140.532 117.179 140.58 117.428C140.832 118.805 140.971 120.039 140.992 121.15C140.994 121.25 140.995 121.348 140.995 121.445Z" fill="#FF936D"/>
<path opacity="0.5" d="M137.002 128.561C137.002 128.561 136.746 128.898 136.371 129.469C136.109 129.867 135.788 130.381 135.449 130.973C134.997 131.778 134.523 132.727 134.14 133.733C132.979 133.249 131.623 132.536 130.051 131.526C129.865 131.406 128.574 129.306 127.211 127.033L137.002 128.561Z" fill="#FF936D"/>
<path d="M122.586 116.301C122.586 116.301 127.728 123.248 132.336 122.275C132.336 122.275 136.146 120.721 137.742 121.498C137.742 121.498 140.452 121.23 140.426 116.301C140.426 116.301 142.729 125.359 139.768 129.619C139.576 129.896 139.377 130.167 139.203 130.456C138.636 131.398 136.277 133.801 128.405 128.745C127.991 128.479 122.14 118.459 122.14 118.459L122.586 116.301Z" fill="#5E1212"/>
<path d="M141.255 109.008V109.02C141.203 111.959 140.643 116.499 140.643 116.499L140.085 114.82L140.083 114.814L140.082 114.808L140.078 114.802L138.658 110.531L138.657 110.525L138.655 110.522L138.195 109.137C138.06 108.734 137.831 108.387 137.538 108.127L137.537 108.125C137.191 107.81 136.758 107.619 136.302 107.6L134.309 107.514C129.666 103.62 129.855 107.468 129.855 107.468C129.878 107.528 129.902 107.59 129.92 107.648C130.092 108.156 130.128 108.616 130.06 109.034C129.572 112.019 123.757 112.808 123.757 112.808C123.865 113.079 123.943 113.342 123.997 113.599C124.102 114.091 124.117 114.554 124.08 114.973C124.08 114.973 124.08 114.974 124.08 114.976C123.972 116.17 123.438 117.01 123.323 117.179C123.318 117.185 123.315 117.193 123.311 117.197C123.305 117.207 123.302 117.211 123.302 117.211C123.071 117.679 122.889 118.14 122.746 118.584C122.678 118.79 122.62 118.991 122.571 119.188V119.19C122.535 119.327 122.503 119.459 122.474 119.588C122.371 120.06 122.308 120.493 122.274 120.862C122.209 121.544 122.231 122.016 122.24 122.147V122.154C122.242 122.173 122.243 122.182 122.243 122.182L122.237 122.2V122.202L121.506 125.039C120.929 124.476 120.383 124.136 119.88 123.95C118.026 123.259 116.766 124.647 116.766 124.647C114.032 127.287 112.742 122.965 112.26 120.585C112.248 120.524 112.235 120.464 112.225 120.405V120.404C112.218 120.367 112.211 120.331 112.205 120.294C112.08 119.634 112.026 119.182 112.026 119.182C110.995 118.362 110.3 117.513 109.846 116.682C109.825 116.642 109.803 116.602 109.783 116.562C109.351 115.728 109.155 114.916 109.105 114.174V114.173C109.085 113.879 109.086 113.596 109.106 113.33C109.111 113.267 109.114 113.204 109.122 113.14C109.222 112.1 109.555 111.291 109.749 110.896C109.834 110.725 109.889 110.631 109.889 110.631C109.777 110.264 109.709 109.907 109.68 109.565C109.68 109.564 109.68 109.562 109.68 109.562C109.372 106.016 113.148 103.844 113.412 103.697C113.422 103.691 113.428 103.69 113.428 103.69C113.423 103.59 113.422 103.493 113.418 103.394C113.418 103.393 113.418 103.393 113.418 103.393C113.412 103.111 113.412 102.842 113.418 102.584C113.602 95.7205 118.54 96.2066 121.232 96.9897C121.277 97.002 121.322 97.0159 121.365 97.0297C121.606 97.102 121.826 97.1759 122.022 97.2466C122.068 97.2636 122.114 97.2805 122.157 97.2943C122.649 97.4774 122.948 97.622 122.948 97.622C126.738 88.3343 132.785 98.0789 132.785 98.0789C137.634 95.9574 137.925 101.414 137.866 103.505V103.517C137.852 103.985 137.822 104.28 137.822 104.28C137.837 104.284 137.852 104.287 137.868 104.29C140.098 104.719 141.111 106.864 141.111 106.864C141.235 107.262 141.274 108.05 141.255 109.008Z" fill="#490D0D"/>
<path d="M140.648 117.298C140.645 117.318 140.643 117.327 140.643 117.327L140.619 117.255L140.617 117.25L140.44 116.719L140.439 116.715L140.422 116.667V116.662L138.195 109.965C137.902 109.082 137.14 108.462 136.302 108.428L134.309 108.342C130.962 105.535 130.126 106.752 129.92 107.648C129.84 107.996 129.855 108.295 129.855 108.295C129.955 108.553 130.022 108.799 130.06 109.033C130.562 112.292 125.205 113.392 123.995 113.596C123.843 113.621 123.755 113.633 123.755 113.633C123.942 114.101 124.04 114.548 124.079 114.968C124.079 114.968 124.079 114.97 124.079 114.972C124.177 116.072 123.86 116.978 123.6 117.512C123.599 117.515 123.597 117.518 123.595 117.521C123.435 117.848 123.299 118.033 123.299 118.033C123.179 118.276 123.072 118.518 122.977 118.755C122.882 118.993 122.799 119.227 122.728 119.455C122.703 119.53 122.68 119.605 122.657 119.679C122.545 120.065 122.46 120.433 122.399 120.775C122.3 121.307 122.257 121.773 122.237 122.139V122.155C122.235 122.17 122.235 122.185 122.234 122.201V122.202C122.212 122.708 122.24 123.01 122.24 123.01L121.503 125.867C121.497 125.861 121.494 125.858 121.488 125.853C121.485 125.85 121.483 125.847 121.482 125.847C118.791 123.244 116.765 125.476 116.765 125.476C113.749 128.387 112.489 122.83 112.135 120.752C112.125 120.685 112.115 120.622 112.105 120.564C112.095 120.504 112.086 120.447 112.079 120.395C112.042 120.153 112.025 120.012 112.025 120.012C110.751 118.999 109.991 117.942 109.565 116.93C109.545 116.887 109.528 116.844 109.512 116.801C109.139 115.859 109.052 114.959 109.103 114.178V114.176C109.125 113.833 109.175 113.51 109.239 113.218C109.254 113.142 109.272 113.068 109.289 112.998C109.525 112.055 109.888 111.462 109.888 111.462C109.829 111.27 109.783 111.084 109.748 110.899C109.659 110.433 109.64 109.988 109.679 109.568C109.679 109.567 109.679 109.565 109.679 109.565C109.965 106.39 113.426 104.519 113.426 104.519C113.414 104.235 113.409 103.962 113.411 103.701C113.412 103.598 113.414 103.496 113.417 103.398C113.417 103.396 113.417 103.396 113.417 103.396C113.425 103.116 113.44 102.847 113.463 102.592C113.991 96.7885 118.351 97.0454 120.971 97.7485C121.015 97.7608 121.059 97.7731 121.103 97.7838V97.7854C121.405 97.87 121.682 97.9592 121.925 98.0438C121.971 98.0592 122.014 98.0762 122.057 98.09C122.072 98.0962 122.086 98.0992 122.1 98.1054C122.148 98.1238 122.194 98.1392 122.239 98.1577C122.68 98.3238 122.945 98.4531 122.945 98.4531C126.735 89.1654 132.782 98.91 132.782 98.91C137.079 97.03 137.797 101.104 137.863 103.508V103.521C137.871 103.807 137.869 104.068 137.865 104.293C137.852 104.792 137.819 105.11 137.819 105.11C140.082 105.519 141.106 107.693 141.106 107.693C141.195 107.97 141.242 108.433 141.257 109.013V109.025C141.319 111.715 140.7 116.865 140.648 117.298Z" fill="#5E1212"/>
<path d="M123.575 119.485C123.489 119.664 123.382 119.836 123.255 119.999C122.775 120.622 122.022 121.114 121.108 121.33C119.271 121.761 116.623 121.387 116.251 119.902C115.878 118.419 115.594 115.931 117.431 115.501C119.268 115.068 123.388 116.381 123.76 117.864C123.897 118.414 123.818 118.976 123.575 119.485Z" fill="#FF936D"/>
<path opacity="0.5" d="M123.575 119.485C123.489 119.664 123.381 119.836 123.255 119.999L120.475 118.527C115.984 120.658 121.583 116.047 123.575 119.485Z" fill="#FF936D"/>
<path d="M142.626 162.826L141.462 167.657L121.971 141.726L117.72 133.25V131.852L119.528 131.618L130.203 138.366L130.234 138.386L130.496 138.552L131.085 138.215L131.16 138.166L131.383 138.026L134.819 135.843L142.626 162.826Z" fill="#F6E9D9"/>
<path d="M133.689 135.12L131.085 138.216C131.085 138.216 135.469 140.405 135.626 140.995L133.689 135.12Z" fill="#E5D9CC"/>
<path d="M132.355 143.021L129.945 143.946L129.062 138.914L129.652 138.366L129.945 138.552L130.234 138.386L130.495 138.552L131.085 138.215L131.16 138.166L132.354 138.677L132.355 143.021Z" fill="#E5D9CC"/>
<path d="M132.355 143.021L138.809 157.545L136 160.648L129.946 149.957V143.948L132.355 143.021Z" fill="#E5D9CC"/>
<path d="M132.906 138.677V143.022L130.497 143.946L129.614 138.914L130.205 138.366L130.497 138.553L131.085 138.216L131.383 138.026L132.906 138.677Z" fill="#F53C4E"/>
<path d="M139.36 157.545L136.552 160.648L134 156.141L133.151 154.643L132.785 153.995L131.994 152.598L130.497 149.957V143.946L132.908 143.021L134.692 147.04L135.292 148.389L135.774 149.474L136.378 150.831L139.36 157.545Z" fill="#F53C4E"/>
<path d="M135.292 148.389L132.784 153.995L131.994 152.598C132.914 150.966 134.175 148.195 134.694 147.038L135.292 148.389Z" fill="#F53C4E"/>
<path d="M136.378 150.831L134.002 156.141L133.152 154.643C133.871 153.547 135.026 151.107 135.775 149.474L136.378 150.831Z" fill="#F53C4E"/>
<path d="M150.369 222.134L136.22 222.783L112.268 222.535L112.22 222.228L109.431 204.603L114.886 201.052L140.217 184.562L148.918 203.649L150.369 222.134Z" fill="#123A53"/>
<path d="M116.443 222.228C116.443 222.228 114.178 222.228 112.22 222.228L109.431 204.603L114.886 201.051C115.802 201.469 116.443 201.774 116.443 201.774L115.432 207.312C115.432 207.312 110.494 210.14 116.443 222.228Z" fill="#123A53"/>
<path d="M242.318 136.408C242.318 136.408 240.677 135.789 239.698 136.814" stroke="#5E1212" stroke-width="0.9487" stroke-miterlimit="10"/>
<path d="M259.485 157.016C259.485 157.016 256.534 160.94 256.009 161.169C255.48 161.399 244.822 162.88 244.797 162.539C244.772 162.196 247.275 153.936 247.275 153.936C247.275 153.936 247.195 151.816 247.115 150.38C247.106 150.18 247.095 149.992 247.082 149.826C247.08 149.814 247.08 149.8 247.078 149.788C247.069 149.603 247.058 149.442 247.049 149.326L249.663 148.503L257.614 145.997C257.614 145.999 257.614 145.999 257.614 145.999L257.265 149.257L258.032 152.369L258.291 153.412L258.68 154.991L259.485 157.016Z" fill="#FF936D"/>
<path opacity="0.5" d="M247.115 150.379C251.082 152.374 255.765 148.248 255.765 148.248L249.663 148.503L247.049 149.325C247.058 149.45 247.071 149.623 247.082 149.827C247.094 149.993 247.106 150.179 247.115 150.379Z" fill="#FF936D"/>
<path d="M253.937 149.387C258.866 147.234 260.528 140.148 257.648 133.557C254.771 126.965 248.44 123.371 243.511 125.523C238.662 127.647 240.165 133.405 241.092 140.437C241.108 140.551 241.123 140.662 241.137 140.771C241.358 142.496 241.769 143.948 242.317 145.16C244.746 150.494 249.917 151.14 253.937 149.387Z" fill="#FF936D"/>
<path d="M257.731 125.014C258.311 125.722 259.029 126.318 259.835 126.75C260.643 127.181 261.537 127.447 262.445 127.534C263.354 127.619 264.279 127.524 265.149 127.256C266.02 126.988 266.834 126.547 267.534 125.968C268.234 125.39 268.822 124.676 269.248 123.876C269.674 123.076 269.942 122.193 270.029 121.291C270.117 120.39 270.026 119.473 269.762 118.608C269.499 117.744 269.063 116.933 268.491 116.234C267.915 115.539 267.205 114.956 266.409 114.534C265.614 114.111 264.735 113.847 263.84 113.761C262.048 113.581 260.202 114.136 258.806 115.274C257.4 116.399 256.46 118.091 256.252 119.898C256.149 120.799 256.22 121.724 256.474 122.601C256.726 123.476 257.159 124.301 257.731 125.014ZM257.709 125.033C256.532 123.618 255.942 121.73 256.105 119.881C256.185 118.958 256.446 118.047 256.879 117.221C257.312 116.396 257.912 115.658 258.631 115.059C259.355 114.468 260.195 114.018 261.091 113.747C261.988 113.478 262.937 113.391 263.866 113.487C264.795 113.585 265.705 113.868 266.525 114.314C267.345 114.759 268.074 115.37 268.66 116.093C269.245 116.818 269.689 117.656 269.952 118.548C270.217 119.441 270.303 120.384 270.206 121.307C270.109 122.23 269.829 123.134 269.386 123.948C268.945 124.764 268.339 125.488 267.62 126.073C266.897 126.651 266.063 127.09 265.175 127.348C264.289 127.608 263.352 127.69 262.437 127.591C260.605 127.399 258.871 126.461 257.709 125.033Z" fill="#5E1212"/>
<path d="M265.194 125.526C264.205 126.333 263.063 126.825 261.889 127.013C261.649 127.054 261.408 127.08 261.165 127.094C261.109 127.097 261.054 127.1 260.999 127.1C259.862 127.137 258.723 126.899 257.691 126.397C257.649 126.377 257.608 126.356 257.566 126.334C256.729 125.906 255.965 125.303 255.334 124.528C255.315 124.506 255.299 124.483 255.282 124.462C255.251 124.426 255.222 124.389 255.195 124.351C252.906 121.359 253.394 117.069 256.332 114.669C257.245 113.925 258.289 113.448 259.369 113.229C259.874 113.128 260.388 113.082 260.9 113.091C260.946 113.093 260.992 113.094 261.04 113.096C262.206 113.142 263.359 113.479 264.379 114.094C264.422 114.119 264.465 114.145 264.505 114.174C265.128 114.566 265.699 115.065 266.189 115.668C266.634 116.213 266.983 116.803 267.239 117.423C267.266 117.488 267.292 117.554 267.315 117.619C268.355 120.36 267.589 123.571 265.194 125.526Z" fill="#5E1212"/>
<path d="M261.04 113.097C260.508 117.966 255.958 121.226 254.112 123.397C254.081 123.361 253.783 123.105 253.755 123.068C255.594 120.903 260.371 117.905 260.9 113.094C260.948 113.094 260.994 113.095 261.04 113.097Z" fill="#FFF2F0"/>
<path d="M264.506 114.175C263.745 119.401 258.451 122.196 256.888 124.001C256.655 124.269 257.811 126.244 257.692 126.396C257.637 126.469 257.601 126.519 257.592 126.546C257.592 126.541 257.591 126.535 257.586 126.527L257.461 126.587C257.438 126.539 255.931 125.046 256.043 124.896C256.143 124.761 255.995 124.316 256.295 123.97C257.857 122.17 263.641 119.304 264.377 114.092C264.421 114.119 264.465 114.146 264.506 114.175Z" fill="#FFF2F0"/>
<path d="M267.317 117.618C265.895 121.611 260.717 123.289 259.441 124.758C259.171 125.071 261.264 126.951 261.164 127.092C261.135 127.132 261.118 127.163 261.115 127.178C261.115 127.175 261.117 127.166 261.111 127.155L260.986 127.215C260.972 127.186 257.955 124.951 257.981 124.898C258.04 124.783 258.629 125.172 259.06 124.675C260.344 123.194 265.844 121.458 267.238 117.423C267.268 117.487 267.294 117.554 267.317 117.618Z" fill="#FFF2F0"/>
<path d="M258.794 142.794L255.76 137.485L252.592 127.94C252.592 127.94 236.914 143.22 234.445 136.805C234.445 136.805 235.154 131.417 238.785 126.759C241.628 123.113 246.265 119.911 253.757 120.099C253.757 120.099 253.758 120.1 253.763 120.103C253.823 120.134 254.338 120.399 255.106 120.879C259.122 123.382 270.04 131.725 258.794 142.794Z" fill="#5E1212"/>
<path opacity="0.5" d="M258.794 142.794C266.186 131.118 254.055 120.36 253.763 120.102C254.128 120.286 272.194 129.606 258.794 142.794Z" fill="#F1522B"/>
<path d="M245.645 122.32C244.997 122.274 244.352 122.349 243.726 122.48C243.098 122.613 242.491 122.816 241.905 123.066C241.32 123.322 240.757 123.623 240.223 123.974C239.689 124.323 239.174 124.702 238.697 125.126C238.215 125.546 237.752 125.988 237.323 126.465C236.882 126.929 236.483 127.434 236.082 127.937C235.295 128.957 234.592 130.042 233.915 131.151C234.44 129.963 235.072 128.817 235.822 127.746C236.571 126.677 237.435 125.679 238.428 124.814C239.425 123.959 240.549 123.233 241.785 122.769C242.402 122.537 243.042 122.371 243.692 122.283C244.342 122.203 245.006 122.182 245.645 122.32Z" fill="#5E1212"/>
<path opacity="0.5" d="M242.317 145.161C242.34 145.153 242.358 145.142 242.38 145.131C243.598 144.498 244.074 142.993 243.438 141.775C242.972 140.878 242.038 140.384 241.092 140.438C241.108 140.551 241.123 140.662 241.137 140.771C241.357 142.496 241.768 143.948 242.317 145.161Z" fill="#FF936D"/>
<path d="M243.045 142.472C244.935 142.472 246.468 140.94 246.468 139.049C246.468 137.159 244.935 135.626 243.045 135.626C241.154 135.626 239.621 137.159 239.621 139.049C239.621 140.94 241.154 142.472 243.045 142.472Z" stroke="#333333" stroke-width="2.2663" stroke-miterlimit="10"/>
<path opacity="0.5" d="M253.295 144.602C254.671 144.602 255.786 143.486 255.786 142.111C255.786 140.735 254.671 139.62 253.295 139.62C251.92 139.62 250.805 140.735 250.805 142.111C250.805 143.486 251.92 144.602 253.295 144.602Z" fill="#FF936D"/>
<path d="M262.482 139.075C262.777 140.243 261.058 141.202 259.609 141.368C258.16 141.534 256.745 140.723 256.449 139.554C256.154 138.386 258.552 136.369 260.002 136.202C261.452 136.037 262.186 137.908 262.482 139.075Z" fill="#FF936D"/>
<path d="M257.643 140.3C257.643 140.3 259.248 137.886 260.369 139.45" stroke="#F55C2B" stroke-width="1.2614" stroke-miterlimit="10"/>
<path d="M252.642 141.899C254.532 141.899 256.065 140.366 256.065 138.476C256.065 136.585 254.532 135.053 252.642 135.053C250.751 135.053 249.219 136.585 249.219 138.476C249.219 140.366 250.751 141.899 252.642 141.899Z" stroke="#333333" stroke-width="2.2663" stroke-miterlimit="10"/>
<path opacity="0.5" d="M258.292 153.409L247.332 153.997C248.314 153.906 256.866 152.551 258.034 152.366L258.292 153.409Z" fill="#FF936D"/>
<path d="M206.277 168.037C206.277 168.037 203.939 163.443 203.349 163.001C202.76 162.56 197.528 160.738 197.085 160.884C196.643 161.032 190.356 162.209 191.091 162.946C191.826 163.683 196.209 162.8 196.209 162.8L196.805 163.086C196.805 163.086 193.017 163.752 192.225 164.227C191.496 164.664 191.762 165.561 192.457 165.478C193.151 165.395 196.442 164.703 196.64 164.835C196.839 164.967 193.065 165.783 192.662 166.03C192.119 166.363 192.079 167.34 192.771 167.28C193.179 167.244 196.734 166.266 196.734 166.266C196.734 166.266 193.92 167.403 193.663 167.654C193.243 168.066 193.591 168.677 194.202 168.532C194.622 168.432 196.606 167.447 197.168 167.315C197.168 167.315 197.697 167.447 198.193 168.506C198.688 169.564 202.171 172.21 202.171 172.21L206.277 168.037Z" fill="#FF936D"/>
<path d="M204.837 168.124C204.459 168.487 203.827 168.408 203.373 168.145C202.919 167.882 202.568 167.473 202.134 167.177C200.837 166.294 198.994 166.539 197.742 165.594C197.567 165.462 197.393 165.245 197.485 165.047C197.57 164.862 197.817 164.837 198.019 164.839C199.751 164.853 201.482 164.867 203.214 164.88" fill="#FF936D"/>
<path opacity="0.5" d="M203.213 164.884C203.213 164.864 203.013 164.842 202.651 164.822C202.29 164.802 201.767 164.782 201.119 164.762C200.447 164.747 199.682 164.73 198.847 164.713C198.633 164.71 198.413 164.707 198.19 164.702C197.98 164.715 197.704 164.639 197.43 164.873C197.299 164.996 197.282 165.219 197.353 165.358C197.416 165.501 197.514 165.602 197.619 165.69C197.827 165.844 198.042 165.978 198.277 166.081C199.22 166.499 200.179 166.562 200.98 166.807C201.382 166.922 201.75 167.073 202.054 167.275C202.359 167.475 202.616 167.721 202.876 167.922C203.38 168.355 203.973 168.502 204.344 168.415C204.727 168.335 204.848 168.124 204.836 168.124C204.819 168.099 204.674 168.266 204.327 168.301C203.98 168.341 203.477 168.192 203.008 167.759C202.765 167.555 202.517 167.298 202.191 167.07C201.867 166.842 201.476 166.672 201.059 166.544C200.228 166.278 199.271 166.199 198.4 165.81C198.184 165.716 197.984 165.589 197.804 165.459C197.633 165.327 197.548 165.146 197.639 165.073C197.727 164.979 197.965 164.981 198.187 164.984C198.41 164.984 198.628 164.984 198.844 164.984C199.677 164.979 200.442 164.975 201.116 164.97C201.762 164.962 202.287 164.95 202.648 164.935C203.013 164.921 203.213 164.904 203.213 164.884Z" fill="#FF936D"/>
<path opacity="0.5" d="M191.105 162.961C191.094 162.995 191.523 163.166 192.259 163.26C192.625 163.306 193.068 163.327 193.559 163.293C194.04 163.232 194.565 163.149 195.117 163.064C195.525 162.998 195.919 162.933 196.289 162.873L196.219 162.867C197.782 163.397 198.928 163.74 198.951 163.677C198.974 163.613 197.865 163.166 196.311 162.6L196.28 162.589L196.24 162.595C195.871 162.65 195.48 162.71 195.076 162.772C194.537 162.86 194.023 162.943 193.536 163.023C193.065 163.07 192.636 163.07 192.277 163.053C191.559 163.013 191.116 162.918 191.105 162.961Z" fill="#FF936D"/>
<path d="M268.426 212.571C268.109 206.214 262.429 200.104 262.429 200.104L260.869 200.188L249.557 200.8L249.62 200.54L243.357 201.136H243.349L239.371 201.514L235.937 222.964H240.302C240.303 222.954 240.305 222.945 240.306 222.936H244.197L244.191 222.964H268.2C268.203 222.954 268.206 222.944 268.206 222.934C268.266 222.717 268.32 222.482 268.366 222.228C268.929 219.139 268.475 213.565 268.426 212.571Z" fill="#376F90"/>
<path d="M254.514 223.141L251.562 209.706C251.562 209.706 252.291 217.817 251.571 222.514L254.514 223.141Z" fill="#123A53"/>
<path d="M268.365 222.228H266.029C268.831 206.548 260.383 200.866 260.383 200.866L260.868 200.186L262.428 200.102C262.428 200.102 268.108 206.212 268.425 212.569C268.475 213.565 268.929 219.138 268.365 222.228Z" fill="#123A53"/>
<path d="M271.871 166.762L271.822 166.84L271.732 166.982L270.595 168.773L270.506 168.913L269.368 170.705L269.279 170.847L268.142 172.639L268.052 172.779L266.914 174.571L266.825 174.711L265.688 176.504L265.599 176.644L265.429 176.911L265.234 178.411L265.215 178.55L264.986 180.311L264.968 180.451L264.737 182.211L264.719 182.351L264.489 184.113L264.471 184.253L264.24 186.014L264.222 186.154L263.991 187.916L263.972 188.056L263.743 189.816L263.725 189.956L263.494 191.717L263.475 191.857L263.451 192.05L263.245 193.62L263.226 193.76L262.997 195.52L262.979 195.659L262.748 197.422L262.729 197.56L262.499 199.324L262.48 199.462L262.319 200.7L260.377 200.867L259.677 200.927V200.928L238.231 202.768L237.64 200.284L237.608 200.147L237.194 198.405L237.162 198.267L236.748 196.525L236.714 196.388L236.302 194.648L236.268 194.511L235.855 192.77L235.822 192.631L235.408 190.89L235.375 190.753L234.962 189.013L234.929 188.876L234.515 187.134L234.483 186.996L234.069 185.254L234.035 185.117L233.623 183.376L233.589 183.239L233.177 181.499L233.143 181.36L232.729 179.619L232.697 179.482L232.283 177.74L232.251 177.604L232.215 177.454C232.089 176.927 231.999 176.394 231.942 175.859C231.935 175.813 231.932 175.768 231.928 175.722C231.886 175.302 231.866 174.882 231.866 174.462C231.866 174.297 231.869 174.133 231.875 173.968C231.877 173.922 231.88 173.877 231.882 173.83C231.911 173.239 231.982 172.65 232.089 172.068C232.097 172.022 232.108 171.976 232.117 171.928C232.235 171.328 232.399 170.737 232.602 170.157C232.617 170.111 232.634 170.064 232.651 170.017C232.872 169.408 233.142 168.813 233.457 168.237C233.482 168.191 233.508 168.144 233.534 168.097C233.534 168.096 233.535 168.096 233.535 168.094C233.519 167.473 233.549 166.888 233.62 166.339C233.626 166.293 233.631 166.247 233.639 166.2C233.728 165.564 233.872 164.974 234.062 164.43C234.079 164.384 234.095 164.336 234.111 164.29C234.352 163.631 234.662 163.037 235.019 162.505C235.051 162.457 235.082 162.41 235.115 162.364C235.611 161.656 236.194 161.057 236.817 160.553C236.877 160.505 236.939 160.456 236.999 160.41C239.957 158.131 243.739 157.86 243.739 157.86L243.766 157.793L245.254 154.167L245.802 154.12L245.899 154.113L245.965 154.107L246.062 154.099L247.371 153.988L247.437 153.982L247.528 153.976L247.594 153.97L248.94 153.857L248.975 153.854L249.092 153.844H249.094L249.129 153.84L250.508 153.725H250.514L250.662 153.713H250.668L252.057 153.596L252.08 153.594L252.206 153.584L252.231 153.58L253.597 153.468L253.652 153.462L253.749 153.454L253.805 153.45L255.142 153.337L255.228 153.33L255.297 153.324L255.382 153.317L256.688 153.208L256.803 153.199H256.805L256.845 153.194L256.96 153.185L258.199 153.082L259.665 157.128C261.459 157.14 262.994 157.425 264.308 157.891C264.7 158.028 265.071 158.182 265.426 158.35C266.083 158.662 266.677 159.02 267.211 159.411C267.271 159.454 267.329 159.497 267.388 159.544C268.08 160.068 268.669 160.647 269.168 161.239C269.206 161.284 269.243 161.328 269.28 161.373C269.749 161.945 270.135 162.527 270.454 163.088C270.482 163.134 270.506 163.177 270.531 163.224C270.875 163.847 271.135 164.439 271.332 164.953C271.351 164.999 271.366 165.045 271.383 165.09C271.76 166.09 271.871 166.762 271.871 166.762Z" fill="#FFB319"/>
<path opacity="0.5" d="M271.871 166.762L271.821 166.84L271.732 166.982L270.595 168.773L270.506 168.913L269.367 170.705L269.278 170.847L268.141 172.639L268.052 172.779L266.914 174.571L266.824 174.711L265.687 176.503L265.598 176.643L265.429 176.911L265.234 178.411L265.215 178.55L264.986 180.311L264.967 180.451L264.737 182.211L264.718 182.351L264.489 184.113L264.471 184.253L264.24 186.014L264.221 186.154L263.991 187.916L263.972 188.056L263.743 189.816L263.724 189.956L263.494 191.717L263.475 191.857L263.451 192.05L263.244 193.62L263.226 193.76L262.997 195.52L262.978 195.659L262.747 197.422L262.729 197.56L262.498 199.323L262.48 199.462L262.318 200.7L260.377 200.867L261.132 192.03C260.684 191.865 260.249 191.65 259.837 191.383L254.987 188.259L244.434 180.808L247.817 174.51L260.758 177.303C260.758 177.303 260.4 169.068 260.08 163.574C259.924 160.891 261.746 158.394 264.207 157.92C264.243 157.914 264.28 157.907 264.315 157.9C264.707 158.037 265.078 158.191 265.434 158.359C266.091 158.671 266.684 159.03 267.218 159.42C267.278 159.463 267.337 159.507 267.395 159.553C268.087 160.077 268.677 160.656 269.175 161.248C269.214 161.293 269.251 161.337 269.287 161.382C269.757 161.954 270.143 162.536 270.461 163.097C270.489 163.143 270.514 163.187 270.538 163.233C270.883 163.856 271.143 164.448 271.34 164.962C271.358 165.008 271.374 165.054 271.391 165.099C271.76 166.09 271.871 166.762 271.871 166.762Z" fill="#FDC76F"/>
<path opacity="0.5" d="M263.148 162.284C261.245 166.483 260.349 170.284 258.445 174.483C258.26 174.89 258.071 175.315 258.086 175.763C258.125 176.884 259.308 177.118 260.349 177.536C260.902 177.758 262.054 177.94 262.054 177.94C262.299 177.687 262.337 177.306 262.363 176.956" fill="#FDC76F"/>
<path d="M268.205 222.936C268.203 222.945 268.2 222.954 268.197 222.963H244.188L244.195 222.936H268.205Z" fill="#1A2E35"/>
<path d="M238.285 171.16C237.479 172.558 236.209 174.432 235.369 176.723C235.192 177.301 235.019 177.874 234.996 178.437C234.951 179.007 235.037 179.564 235.166 180.094L234.971 180.601L233.863 183.471C232.949 185.837 230.691 187.411 228.156 187.451L224.365 187.509C223.256 187.526 222.169 187.198 221.254 186.572L200.946 172.654L206.792 166.798L223.519 176.052L236.419 161.209C236.419 161.209 238.702 170.463 238.285 171.16Z" fill="#FFB319"/>
<path d="M204.838 175.32L210.909 168.789" stroke="#FDC76F" stroke-width="2.6886" stroke-miterlimit="10"/>
<path d="M238.158 182.654H209.18C208.289 182.654 207.494 182.182 207.054 181.459C206.889 181.193 206.775 180.891 206.723 180.565L203.426 160.468C203.177 158.951 204.348 157.574 205.883 157.574H234.862C235.243 157.574 235.609 157.66 235.935 157.817C236.651 158.16 237.185 158.836 237.32 159.662L240.617 179.76C240.866 181.274 239.695 182.654 238.158 182.654Z" fill="#0C2E3F"/>
<path d="M237.106 181.7H208.128C207.746 181.7 207.38 181.614 207.054 181.457C206.889 181.191 206.775 180.889 206.723 180.563L203.426 160.466C203.177 158.949 204.348 157.572 205.883 157.572H234.862C235.243 157.572 235.609 157.658 235.935 157.815C236.1 158.083 236.214 158.383 236.266 158.709L239.563 178.806C239.812 180.323 238.643 181.7 237.106 181.7Z" fill="#123A55"/>
<path d="M250.126 175.495L246.754 181.24L244.622 179.7L243.76 179.078L231.474 173.229C231.474 173.229 230.934 172.726 231.658 172.657C232.006 172.623 236.88 173.74 237.029 173.775L230.368 171.05C230.368 171.05 232.197 169.647 234.285 169.37C236.374 169.093 239.725 169.932 239.725 169.932L238.528 167.477C238.528 167.477 245.288 169.858 245.735 170.992C246.182 172.127 246.605 173.753 246.605 173.753L247.363 174.129L247.597 174.244L250.126 175.495Z" fill="#FF936D"/>
<path opacity="0.5" d="M239.446 174.562C239.4 174.653 237.455 173.746 234.994 172.782C232.535 171.812 230.492 171.153 230.52 171.055C230.534 171.01 231.063 171.118 231.9 171.356C232.738 171.595 233.883 171.97 235.122 172.456C236.358 172.942 237.454 173.447 238.229 173.844C239.006 174.239 239.466 174.521 239.446 174.562Z" fill="#FF936D"/>
<path opacity="0.5" d="M239.877 172.792C239.846 172.884 238.062 172.359 235.892 171.621C233.723 170.883 231.989 170.21 232.022 170.118C232.052 170.026 233.837 170.55 236.006 171.289C238.174 172.027 239.908 172.699 239.877 172.792Z" fill="#FF936D"/>
<path d="M273.345 163.767L271.397 183.469C271.365 183.921 271.297 184.366 271.198 184.804V184.806C270.98 185.764 270.606 186.678 270.102 187.507C269.365 188.711 268.352 189.732 267.138 190.441C265.615 191.334 263.92 191.649 262.328 191.391C261.455 191.249 260.612 190.934 259.845 190.446L254.995 187.371L246.563 181.511L246.22 181.272L244.442 180.037L247.825 173.837L249.612 174.215L250.029 174.304L260.766 176.584C260.766 176.584 260.408 168.478 260.088 163.071C260.082 162.966 260.078 162.86 260.078 162.755C260.078 160.238 261.852 157.954 264.217 157.504C264.725 157.407 265.226 157.361 265.72 157.361C269.355 157.361 272.489 159.903 273.345 163.767Z" fill="#FFB319"/>
<path d="M246.377 138.763L249.219 138.476" stroke="#333333" stroke-width="2.2663" stroke-miterlimit="10"/>
<path d="M248.022 147.617C248.506 147.729 249.003 147.786 249.497 147.797C249.993 147.808 250.489 147.772 250.968 147.657C251.206 147.598 251.44 147.522 251.663 147.423C251.886 147.323 252.099 147.203 252.299 147.065C252.703 146.791 253.026 146.412 253.289 145.989L253.302 145.995C253.113 146.46 252.791 146.875 252.385 147.182C252.179 147.332 251.956 147.458 251.72 147.554C251.483 147.648 251.24 147.718 250.993 147.769C250.499 147.872 249.993 147.894 249.493 147.868C248.993 147.835 248.497 147.76 248.016 147.628L248.022 147.617Z" fill="#F55C2B"/>
<path d="M221.829 172.477C223.185 172.477 224.285 171.378 224.285 170.022C224.285 168.666 223.185 167.566 221.829 167.566C220.473 167.566 219.374 168.666 219.374 170.022C219.374 171.378 220.473 172.477 221.829 172.477Z" fill="white"/>
<path d="M150.212 193.553C150.212 193.553 150.92 197.043 149.248 201.774C149.248 201.774 146.884 198.497 146.757 197.663C146.629 196.83 145.472 190.626 145.472 190.626C145.472 190.626 148.791 189.259 148.92 189.259C149.048 189.259 150.212 193.553 150.212 193.553Z" fill="#F6CCA9"/>
<path d="M148.875 146.429L150.9 153.649L151.091 159.486C151.091 159.486 151.126 176.638 150.746 180.688L151.938 187.463L151.718 189.806L151.365 193.574L145.577 193.463L143.089 195.849L143.763 193.157C143.763 193.157 142.198 176.206 142.534 173.563C142.869 170.918 145.409 149.448 145.509 148.381C145.609 147.317 145.788 141.46 145.788 141.46L148.337 145.265C148.577 145.621 148.758 146.015 148.875 146.429Z" fill="#123A53"/>
<path d="M146.757 191.466H151.561L151.363 193.574H147.237L146.757 191.466Z" fill="white"/>
<path d="M150.049 209.813L147.457 210.577C143.186 210.881 140.137 187.998 140.137 187.998C140.137 190.59 134.491 208.441 134.491 208.441C128.543 214.846 110.697 209.204 107.799 208.441C103.362 207.272 111.002 182.966 111.002 182.966C111.765 174.269 102.763 142.693 102.763 142.693C103.068 141.169 114.662 135.069 114.662 135.069L115.272 134.524L117.56 132.477C122.902 134.612 140.443 165.883 140.443 165.883L140.595 160.846L133.688 135.115L145.629 142.084C149.746 144.677 147.079 164.07 147.079 164.07L147.612 191.049L150.049 209.813Z" fill="#123A53"/>
<path d="M139.818 163.874L139.775 165.259C139.775 165.259 123.286 135.863 117.414 132.126L117.72 131.853C122.386 133.717 136.352 157.8 139.818 163.874Z" fill="#123A53"/>
<path d="M150.211 209.19L147.618 209.954C143.347 210.258 140.298 187.377 140.298 187.377C140.298 189.969 134.652 207.818 134.652 207.818C128.704 214.224 110.857 208.581 107.96 207.818C103.523 206.649 111.161 182.344 111.161 182.344C111.924 173.647 102.923 142.072 102.923 142.072C103.203 140.67 113.012 135.409 114.604 134.561C114.744 134.487 114.823 134.447 114.823 134.447L115.432 133.903L117.415 132.129C123.287 135.866 139.777 165.261 139.777 165.261L139.82 163.877C140.323 164.76 140.604 165.261 140.604 165.261L140.757 160.224L133.987 136.18L133.689 135.123L145.789 141.463C149.906 144.055 147.238 163.449 147.238 163.449L147.772 190.427L150.211 209.19Z" fill="#376F90"/>
<path d="M142.968 171.348H139.932L137.134 165.313C135.268 160.179 114.606 138.705 114.606 138.705L116.242 137.186L114.606 136.602V134.56C114.746 134.486 114.825 134.446 114.825 134.446L115.434 133.902L117.417 132.128C123.289 135.865 139.778 165.26 139.778 165.26L139.822 163.876C140.325 164.759 140.606 165.26 140.606 165.26L140.758 160.223L133.989 136.179L138.418 140.34L138.654 142.089L140.868 145.125L142.968 171.348Z" fill="#123A53"/>
<path d="M143.795 171.348H140.76L137.96 165.313C136.094 160.179 115.432 138.705 115.432 138.705L117.066 137.186L115.432 136.602V133.9L117.72 131.853C123.062 133.988 140.603 165.259 140.603 165.259L140.755 160.222L133.688 135.12L139.24 140.337L139.475 142.088L141.691 145.123L143.795 171.348Z" fill="#123A53"/>
<path d="M111.726 185.743L126.568 179.663L127.408 180.686L111.726 187.345V185.743Z" fill="#123A53"/>
<path d="M119.528 133.178C119.528 133.178 119.398 131.744 119.528 131.62C119.657 131.494 120.96 130.19 120.96 130.19L130.498 138.552L126.569 142.257L119.528 133.178Z" fill="#E5D9CC"/>
<path d="M142.626 171.669L142.891 172.36L144.595 176.806L145.318 176.556L148.829 176.094L149.16 176.026C150.277 175.969 153.834 176.372 154.591 176.909C155.243 177.376 155.968 177.739 156.748 177.937C158.849 178.466 159.668 177.669 159.668 177.669C161.125 178.049 161.743 176.98 161.743 176.98C162.355 177.029 162.909 177.045 163.391 177.028C164.208 177 164.811 176.885 165.112 176.703C165.488 176.479 165.418 175.92 165.003 175.769C164.86 175.717 164.714 175.663 164.566 175.609C162.763 174.946 160.785 174.165 160.785 174.165C161.905 174.362 162.782 174.466 163.468 174.502C165.472 174.608 165.832 174.139 165.805 173.754C165.786 173.496 165.582 173.286 165.323 173.228C161.034 172.262 159.132 171.317 158.315 170.594C157.423 169.803 157.826 169.277 157.826 169.277C159.292 169.228 160.266 169.016 160.909 168.745C161.592 168.46 161.905 168.109 162.045 167.82C162.18 167.543 162.035 167.211 161.735 167.116C155.948 165.268 149.826 170.537 149.826 170.537L148.563 170.722L145.032 170.3L142.626 171.669Z" fill="#FF936D"/>
<path d="M147.237 169.803L148.92 170.692L146.8 179.663L144.594 180.464V171.189L147.237 169.803Z" fill="white"/>
<path d="M102.926 142.071C102.926 142.071 102.872 169.935 118.169 175.477C118.169 175.477 137.595 181.948 144.594 180.463C144.594 180.463 145.289 170.451 147.235 169.801L140.235 168.643C140.235 168.643 124.429 165.631 122.992 163.126C121.695 160.866 117.531 152.768 117.077 148.725C116.985 147.903 116.586 147.149 115.942 146.631C113.146 144.378 105.894 139.074 102.926 142.071Z" fill="#123A53"/>
<path opacity="0.5" d="M159.811 177.461C159.509 177.446 156.06 177.847 156.215 176.76L159.811 177.461Z" fill="#FF936D"/>
<path opacity="0.5" d="M161.886 176.774C161.106 176.674 158.723 176.971 158.012 175.797L161.886 176.774Z" fill="#FF936D"/>
<path d="M133.358 124.077L137.752 123.826L137.332 124.766C137.123 125.232 136.714 125.578 136.218 125.706L135.677 125.845C134.889 126.046 134.071 125.652 133.735 124.912L133.358 124.077Z" fill="white"/>
<path opacity="0.5" d="M133.94 114.291C133.94 114.291 138.406 119.46 135.172 120.142C133.791 120.434 133.749 119.382 133.749 119.382" fill="#FF936D"/>
<path opacity="0.5" d="M265.194 125.526C264.204 126.332 263.063 126.824 261.889 127.012C269.446 118.6 261.123 114.058 259.372 113.23C259.877 113.129 260.391 113.083 260.903 113.092C260.949 113.094 260.995 113.095 261.043 113.097C262.209 113.143 263.361 113.48 264.381 114.095C264.424 114.12 264.467 114.146 264.507 114.175C265.131 114.567 265.701 115.066 266.192 115.669C266.637 116.214 266.986 116.804 267.241 117.424C267.269 117.489 267.295 117.555 267.318 117.62C268.355 120.36 267.589 123.57 265.194 125.526Z" fill="#F1522B"/>
<path d="M251.24 126.2C250.292 127.314 249.285 128.377 248.245 129.406C247.203 130.434 246.117 131.419 244.985 132.348C243.843 133.265 242.658 134.136 241.372 134.846C240.731 135.2 240.065 135.517 239.366 135.743C238.669 135.965 237.932 136.109 237.202 136.04C237.934 136.079 238.658 135.92 239.345 135.68C240.034 135.443 240.689 135.117 241.32 134.754C242.586 134.029 243.766 133.163 244.897 132.242C246.032 131.325 247.114 130.342 248.169 129.333C248.698 128.828 249.215 128.313 249.726 127.791C250.242 127.269 250.745 126.739 251.24 126.2Z" fill="#FFF2F0"/>
<path opacity="0.5" d="M255.106 120.877C254.183 123.203 250.946 125.524 246.735 126.617C243.748 127.394 240.886 127.391 238.785 126.757C241.628 123.111 246.265 119.909 253.757 120.097C253.757 120.097 253.758 120.098 253.763 120.101C253.823 120.132 254.338 120.397 255.106 120.877Z" fill="#F6E9D9"/>
<path opacity="0.5" d="M247.599 174.246L244.622 179.701L247.365 174.129L247.599 174.246Z" fill="#FF936D"/>
<path d="M265.42 160.465C265.014 160.668 264.632 160.914 264.269 161.183C263.905 161.449 263.562 161.746 263.24 162.063C262.598 162.697 262.038 163.416 261.615 164.211C261.503 164.406 261.408 164.611 261.309 164.813C261.222 165.02 261.128 165.225 261.055 165.439C260.972 165.648 260.911 165.865 260.845 166.08C260.812 166.188 260.789 166.299 260.76 166.408C260.732 166.517 260.702 166.626 260.682 166.737C260.492 167.62 260.418 168.526 260.431 169.434C260.42 169.208 260.403 168.98 260.4 168.754C260.405 168.526 260.395 168.299 260.412 168.073C260.426 167.845 260.44 167.619 260.472 167.393C260.495 167.165 260.535 166.942 260.575 166.717C260.66 166.269 260.78 165.826 260.937 165.397C261.009 165.18 261.103 164.971 261.189 164.76C261.288 164.554 261.382 164.345 261.495 164.146C261.937 163.345 262.503 162.614 263.168 161.989C263.832 161.365 264.585 160.828 265.42 160.465Z" fill="#FDC76F"/>
<path d="M248.423 201.894C248.455 202.518 248.512 203.141 248.591 203.761C248.668 204.381 248.766 204.998 248.905 205.606C249.048 206.21 249.228 206.812 249.509 207.357C249.651 207.626 249.832 207.884 250.091 208.035C250.348 208.192 250.683 208.163 250.961 208.027L250.968 208.04C250.834 208.123 250.683 208.184 250.523 208.204C250.363 208.223 250.192 208.195 250.046 208.121C249.748 207.972 249.549 207.697 249.388 207.424C249.077 206.863 248.925 206.243 248.795 205.63C248.669 205.015 248.585 204.394 248.521 203.77C248.461 203.147 248.423 202.521 248.409 201.897L248.423 201.894Z" fill="#123A53"/>
<path d="M250.264 201.727L250.965 207.199L249.992 201.768L250.264 201.727Z" fill="#123A53"/>
<path d="M257.715 201.893C258.019 202.593 258.4 203.26 258.857 203.866C259.086 204.169 259.337 204.457 259.615 204.714C259.894 204.971 260.202 205.196 260.542 205.356C260.88 205.516 261.251 205.608 261.622 205.606C261.992 205.606 262.36 205.516 262.703 205.371C263.391 205.068 263.979 204.563 264.509 204.019L264.52 204.028C264.046 204.626 263.465 205.159 262.76 205.499C262.403 205.656 262.015 205.753 261.622 205.745C261.228 205.739 260.842 205.633 260.494 205.457C260.145 205.283 259.834 205.048 259.555 204.782C259.277 204.516 259.029 204.22 258.803 203.909C258.357 203.286 257.991 202.608 257.703 201.899L257.715 201.893Z" fill="#123A53"/>
<path d="M242.929 203.003C242.543 204.005 242.095 204.985 241.563 205.923C241.294 206.39 241.023 206.865 240.658 207.274C240.478 207.479 240.28 207.673 240.058 207.837C239.838 208.002 239.586 208.14 239.315 208.19L239.308 208.163C239.549 208.045 239.746 207.873 239.932 207.691C240.115 207.506 240.288 207.308 240.446 207.099C240.765 206.682 241.088 206.26 241.374 205.811C241.66 205.362 241.926 204.899 242.178 204.426C242.434 203.957 242.678 203.479 242.903 202.994L242.929 203.003Z" fill="#123A53"/>
<path d="M259.709 157.202C259.271 157.408 258.765 157.58 258.211 157.725C258.163 157.737 258.112 157.749 258.063 157.762C257.537 157.891 256.968 157.997 256.372 158.08C256.323 158.086 256.272 158.094 256.222 158.1C255.657 158.177 255.069 158.234 254.469 158.277C254.42 158.28 254.369 158.283 254.317 158.286C253.731 158.325 253.135 158.349 252.538 158.363C252.488 158.365 252.437 158.366 252.386 158.366C252.058 158.373 251.729 158.376 251.405 158.376C251.135 158.376 250.869 158.374 250.605 158.369C250.554 158.368 250.503 158.368 250.452 158.366C249.846 158.357 249.252 158.337 248.686 158.314C248.635 158.311 248.585 158.308 248.534 158.308C247.915 158.28 247.331 158.246 246.797 158.208C246.746 158.205 246.694 158.202 246.645 158.199C245.986 158.153 245.409 158.103 244.948 158.062C244.895 158.056 244.843 158.053 244.794 158.046C244.152 157.986 243.769 157.94 243.749 157.939L243.766 157.8C243.786 157.803 244.178 157.848 244.832 157.911C244.882 157.917 244.934 157.92 244.988 157.925C245.448 157.968 246.02 158.016 246.672 158.062C246.722 158.066 246.772 158.068 246.825 158.073C247.355 158.108 247.937 158.143 248.551 158.171C248.6 158.173 248.651 158.176 248.703 158.177C249.266 158.2 249.855 158.22 250.46 158.229C250.511 158.231 250.56 158.231 250.612 158.233C251.194 158.24 251.788 158.24 252.385 158.229C252.435 158.228 252.486 158.226 252.537 158.226C253.129 158.213 253.723 158.188 254.306 158.151C254.355 158.146 254.406 158.145 254.458 158.14C255.055 158.099 255.64 158.04 256.202 157.966C256.252 157.96 256.302 157.953 256.352 157.946C256.945 157.862 257.511 157.757 258.032 157.629C258.082 157.617 258.132 157.605 258.18 157.593C258.729 157.451 259.226 157.28 259.66 157.077L259.709 157.202Z" fill="#FDC76F"/>
<path d="M245.979 154.118C245.674 155.254 245.254 156.832 244.983 157.889C244.969 157.94 244.957 157.989 244.945 158.038C244.893 158.032 244.84 158.027 244.791 158.021C244.803 157.974 244.816 157.924 244.828 157.875C245.128 156.709 245.599 154.949 245.817 154.132L245.914 154.124L245.979 154.118Z" fill="#FDC76F"/>
<path d="M247.544 153.987C247.388 154.847 247.027 156.863 246.82 158.049C246.813 158.1 246.804 158.149 246.796 158.195C246.745 158.192 246.693 158.189 246.644 158.186C246.651 158.138 246.66 158.087 246.67 158.038C246.871 156.867 247.227 154.89 247.387 154L247.453 153.993L247.544 153.987Z" fill="#FDC76F"/>
<path d="M249.108 153.855C249.02 154.792 248.808 156.999 248.699 158.165C248.694 158.214 248.691 158.265 248.686 158.312C248.636 158.309 248.585 158.306 248.534 158.305C248.539 158.259 248.543 158.209 248.548 158.157C248.654 157.006 248.863 154.829 248.956 153.871L248.991 153.868L249.108 153.855Z" fill="#FDC76F"/>
<path d="M250.679 153.723C250.662 154.726 250.625 157.087 250.606 158.221C250.606 158.273 250.605 158.321 250.605 158.369C250.554 158.367 250.503 158.367 250.453 158.366C250.454 158.32 250.454 158.27 250.456 158.218C250.473 157.087 250.51 154.744 250.525 153.735H250.531L250.679 153.723Z" fill="#FDC76F"/>
<path d="M252.539 158.363C252.488 158.365 252.437 158.366 252.386 158.366C252.383 158.32 252.38 158.272 252.379 158.22C252.314 157.102 252.163 154.657 252.097 153.605L252.223 153.594L252.248 153.591C252.314 154.646 252.466 157.097 252.529 158.215C252.534 158.268 252.537 158.319 252.539 158.363Z" fill="#FDC76F"/>
<path d="M254.469 158.268C254.42 158.272 254.369 158.275 254.317 158.278C254.311 158.232 254.305 158.185 254.297 158.134C254.149 156.989 253.814 154.537 253.668 153.472L253.765 153.465L253.82 153.46C253.969 154.537 254.303 156.977 254.449 158.121C254.457 158.172 254.465 158.223 254.469 158.268Z" fill="#FDC76F"/>
<path d="M256.372 158.055C256.323 158.061 256.272 158.069 256.222 158.076C256.214 158.03 256.203 157.983 256.192 157.933C255.974 156.841 255.549 154.796 255.243 153.339L255.312 153.333L255.397 153.327C255.62 154.389 256.103 156.706 256.343 157.912C256.354 157.961 256.363 158.009 256.372 158.055Z" fill="#FDC76F"/>
<path d="M258.209 157.669C258.162 157.683 258.111 157.697 258.062 157.709C258.049 157.665 258.037 157.617 258.023 157.569C257.713 156.415 257.199 154.563 256.82 153.209L256.86 153.205L256.976 153.195C257.254 154.197 257.828 156.255 258.171 157.528C258.183 157.575 258.197 157.625 258.209 157.669Z" fill="#FDC76F"/>
<path d="M250.028 174.303L246.562 181.509L246.219 181.271L249.613 174.214L250.028 174.303Z" fill="#FDC76F"/>
<path opacity="0.5" d="M271.198 184.805C270.98 185.765 270.606 186.678 270.102 187.508C269.365 188.711 268.352 189.732 267.138 190.442C265.615 191.334 263.92 191.649 262.328 191.391C261.891 190.682 261.643 189.877 261.643 189.023C261.643 186.188 264.366 183.888 267.725 183.888C269.015 183.886 270.214 184.225 271.198 184.805Z" fill="#FDC76F"/>
<path opacity="0.5" d="M247.798 139.117C247.798 139.117 245.286 140.982 245.644 142.474C245.644 142.474 246.271 143.694 247.798 143.085" fill="#FF936D"/>
<path opacity="0.5" d="M116.345 113.431C115.469 116.472 113.908 118.946 112.205 120.292C112.163 120.326 112.122 120.358 112.08 120.391C112.043 120.149 112.026 120.008 112.026 120.008C110.752 118.995 109.992 117.938 109.566 116.926C109.546 116.883 109.529 116.84 109.514 116.797C109.14 115.855 109.054 114.955 109.105 114.174V114.172C109.085 113.878 109.086 113.595 109.106 113.329C109.111 113.266 109.114 113.203 109.122 113.14C109.222 112.1 109.555 111.291 109.749 110.895C109.66 110.429 109.642 109.985 109.68 109.565C109.68 109.563 109.68 109.561 109.68 109.561C109.372 106.015 113.148 103.843 113.412 103.697C113.414 103.594 113.415 103.492 113.418 103.394C113.418 103.392 113.418 103.392 113.418 103.392C113.412 103.111 113.412 102.841 113.418 102.583C113.434 102.585 113.451 102.585 113.465 102.588C113.652 102.603 113.838 102.635 114.02 102.688C116.783 103.481 117.823 108.292 116.345 113.431Z" fill="#F6E9D9"/>
<g opacity="0.5">
<path d="M140.082 108.4C140.015 108.111 139.909 107.831 139.778 107.566C139.646 107.303 139.486 107.054 139.289 106.837C139.092 106.622 138.851 106.451 138.589 106.335L138.389 106.259L138.178 106.214C138.143 106.208 138.109 106.197 138.074 106.192L137.966 106.186L137.752 106.174L137.72 106.172L137.698 106.154C137.471 105.96 137.269 105.749 137.078 105.525C136.891 105.297 136.72 105.055 136.575 104.795C136.434 104.534 136.32 104.254 136.246 103.96C136.18 103.663 136.166 103.354 136.206 103.048L136.205 103.066C136.206 102.557 136.151 102.032 136.038 101.532C135.926 101.034 135.745 100.545 135.446 100.157C135.297 99.9647 135.117 99.8031 134.909 99.6939C134.702 99.5847 134.469 99.5262 134.229 99.517C133.746 99.5093 133.255 99.6616 132.795 99.8785L132.668 99.9385L132.566 99.8324C131.9 99.1293 131.165 98.4677 130.389 97.8816C129.609 97.3047 128.777 96.7739 127.869 96.497C127.418 96.3631 126.946 96.3031 126.505 96.3939C126.063 96.4816 125.669 96.7308 125.374 97.0831C125.075 97.4339 124.863 97.8677 124.706 98.3185C124.546 98.7708 124.44 99.2447 124.36 99.7247L124.326 99.9231L124.137 99.8601C123.397 99.6108 122.634 99.397 121.871 99.2139C121.106 99.0308 120.332 98.877 119.552 98.7801C118.774 98.6847 117.983 98.6324 117.203 98.72C116.814 98.7631 116.428 98.8462 116.066 98.9985C115.706 99.1477 115.369 99.3754 115.135 99.6985C115.349 99.3631 115.678 99.1093 116.038 98.937C116.4 98.7647 116.792 98.6631 117.186 98.6031C117.977 98.4816 118.782 98.4954 119.574 98.5647C120.368 98.64 121.154 98.7677 121.932 98.9324C122.711 99.1 123.478 99.297 124.245 99.5354L124.022 99.6708C124.092 99.1754 124.2 98.6816 124.362 98.1985C124.523 97.7185 124.743 97.2431 125.08 96.8339C125.248 96.6308 125.448 96.4462 125.675 96.3031C125.903 96.1585 126.16 96.057 126.423 96.0031C126.954 95.8924 127.491 95.9647 127.983 96.1077C128.974 96.4062 129.837 96.9554 130.635 97.5539C131.432 98.1631 132.171 98.8308 132.858 99.5647L132.629 99.5185C133.125 99.2939 133.668 99.1262 134.245 99.1416C134.532 99.1554 134.823 99.2308 135.08 99.3708C135.338 99.5108 135.555 99.7124 135.725 99.94C136.066 100.399 136.238 100.932 136.349 101.462C136.455 101.995 136.5 102.528 136.488 103.072V103.08L136.486 103.092C136.446 103.359 136.446 103.632 136.498 103.902C136.557 104.171 136.654 104.432 136.78 104.683C136.909 104.932 137.065 105.169 137.237 105.392C137.409 105.615 137.6 105.832 137.805 106.022L137.751 106.002L137.982 106.023L138.097 106.034C138.135 106.04 138.172 106.052 138.209 106.062L138.432 106.12L138.645 106.212C138.918 106.349 139.165 106.54 139.36 106.772C139.552 107.005 139.709 107.266 139.826 107.54C139.942 107.822 140.032 108.108 140.082 108.4Z" fill="#FFF2F0"/>
</g>
<path d="M138.021 222.513C138.021 221.617 138.021 201.773 138.021 201.773L140.4 222.229L138.021 222.513Z" fill="#123A53"/>
<path d="M309.022 222.228L305.66 223.337H73.0446L76.4031 222.228H309.022Z" fill="#B6E4F0"/>
<path d="M211.335 125.295H228.028C229.068 125.295 229.911 126.981 229.911 129.061V130.24C229.911 131.889 229.38 133.29 228.643 133.8L229.421 137.461L225.881 134.007H211.335C210.295 134.007 209.452 132.321 209.452 130.241V129.063C209.452 126.981 210.295 125.295 211.335 125.295Z" fill="#F9C05D"/>
<path d="M166.357 93.6201H149.665C148.625 93.6201 147.782 95.3063 147.782 97.3863V98.5647C147.782 100.214 148.312 101.615 149.049 102.125L148.271 105.786L151.811 102.332H166.357C167.397 102.332 168.24 100.646 168.24 98.5663V97.3878C168.24 95.3078 167.397 93.6201 166.357 93.6201Z" fill="#F9C05D"/>
<path d="M228.388 218.885C228.489 218.811 228.502 218.602 228.374 218.186C227.522 215.425 226.572 212.725 226.142 209.851C225.566 206.015 225.505 201.392 222.135 198.823C221.132 198.058 220.137 198.272 219.349 199.209C218.063 200.738 217.806 202.608 218.134 204.515C218.58 207.112 219.974 209.351 221.431 211.512C222.902 213.694 224.589 215.729 226.462 217.575C226.792 217.9 228.058 219.123 228.388 218.885Z" fill="#3E797C"/>
<path d="M232.852 202.451C232.451 206.941 230.677 211.384 229.432 215.692C229.277 216.229 229.105 216.766 228.917 217.303C228.726 217.84 228.522 218.378 228.274 218.915C228.263 218.938 228.234 218.951 228.211 218.938C228.202 218.934 228.192 218.929 228.183 218.923C227.882 218.72 227.646 217.529 227.538 217.228C227.42 216.9 227.305 216.572 227.191 216.243C227.188 216.237 227.186 216.231 227.183 216.224C227.054 215.852 226.928 215.48 226.803 215.106C226.555 214.361 226.32 213.615 226.091 212.864C225.969 212.464 225.849 212.061 225.731 211.66C225.182 209.789 224.675 207.906 224.18 206.021C223.557 203.652 223.326 201.091 223.945 198.694C224.249 197.514 224.768 196.391 225.514 195.423C226.072 194.7 226.755 193.868 227.563 193.415C228.025 193.158 228.515 193.224 228.994 193.475C230.097 194.048 231.132 195.583 231.577 196.324C232.677 198.158 233.04 200.337 232.852 202.451Z" fill="#509EA7"/>
<path opacity="0.7" d="M232.852 202.45C232.451 206.941 230.677 211.384 229.432 215.692C229.277 216.229 229.105 216.766 228.917 217.303C228.726 217.84 228.522 218.378 228.274 218.915C228.263 218.938 228.234 218.95 228.211 218.938C228.202 218.933 228.192 218.929 228.183 218.923C227.882 218.72 227.646 217.529 227.538 217.227C227.42 216.898 227.309 216.569 227.191 216.243C227.188 216.237 227.186 216.23 227.183 216.224C227.054 215.852 226.928 215.48 226.803 215.106C226.555 214.361 226.32 213.615 226.091 212.864C226.26 212.764 226.454 212.692 226.6 212.606C226.918 212.418 227.198 212.172 227.471 211.923C228.012 211.423 228.498 210.861 228.925 210.26C229.772 209.061 230.394 207.695 230.731 206.266C231.288 203.907 231.414 201.366 230.955 198.98C230.732 197.815 230.397 196.67 229.957 195.569C229.743 195.033 229.505 194.506 229.242 193.992C229.211 193.93 229.114 193.718 228.995 193.477C230.098 194.049 231.134 195.584 231.578 196.326C232.677 198.158 233.04 200.337 232.852 202.45Z" fill="#46575B"/>
<path d="M228.674 218.602C228.814 218.085 229.031 217.614 229.278 217.165C229.526 216.714 229.817 216.294 230.135 215.896C230.775 215.102 231.537 214.406 232.401 213.83C232.834 213.543 233.291 213.28 233.775 213.066C234.26 212.853 234.777 212.693 235.312 212.597C236.181 212.443 237.201 212.463 238.04 212.765C238.749 213.02 239.452 213.823 238.923 214.573C238.515 215.15 237.74 215.37 237.123 215.626C236.321 215.959 235.517 216.279 234.707 216.588C232.751 217.336 230.755 218.093 228.738 218.662C228.712 218.67 228.684 218.654 228.677 218.628C228.671 218.62 228.671 218.611 228.674 218.602Z" fill="#509EA7"/>
<path d="M236.7 207.241C236.334 209.367 235.192 211.201 234 212.97C232.795 214.757 231.414 216.423 229.88 217.935C229.609 218.203 228.572 219.204 228.303 219.009C228.22 218.949 228.209 218.777 228.314 218.437C228.472 217.92 228.637 217.406 228.798 216.89C229.345 215.155 229.869 213.424 230.142 211.609C230.612 208.469 230.663 204.683 233.423 202.578C234.04 202.107 234.654 202.089 235.195 202.435C235.374 202.549 235.546 202.704 235.706 202.895C236.758 204.149 236.969 205.678 236.7 207.241Z" fill="#3E797C"/>
<path opacity="0.5" d="M236.7 207.242C236.334 209.368 235.192 211.202 234 212.971C232.795 214.757 231.414 216.423 229.88 217.936C229.609 218.203 228.572 219.205 228.303 219.009C228.22 218.949 228.209 218.777 228.314 218.437C228.472 217.92 228.637 217.406 228.798 216.891C228.925 216.823 229.046 216.754 229.157 216.682C229.701 216.322 230.206 215.902 230.665 215.439C231.585 214.508 232.323 213.406 232.892 212.231C233.791 210.38 234.401 208.388 234.766 206.365C235 205.066 235.157 203.756 235.195 202.436C235.374 202.549 235.546 202.705 235.706 202.896C236.758 204.149 236.969 205.679 236.7 207.242Z" fill="#474C5C"/>
<path d="M228.2 219.226C228.18 218.623 228.063 218.053 227.906 217.497C227.749 216.94 227.54 216.404 227.292 215.887C226.794 214.853 226.138 213.897 225.34 213.044C224.94 212.62 224.508 212.215 224.031 211.857C223.554 211.498 223.031 211.19 222.468 210.949C221.555 210.557 220.434 210.318 219.437 210.433C218.595 210.53 217.618 211.232 218.006 212.189C218.305 212.924 219.097 213.366 219.709 213.804C220.502 214.373 221.302 214.93 222.109 215.478C224.062 216.8 226.054 218.14 228.117 219.28C228.145 219.295 228.178 219.284 228.194 219.258C228.197 219.246 228.2 219.235 228.2 219.226Z" fill="#509EA7"/>
<path opacity="0.1" d="M225.034 199.6C225.302 200.34 226.022 200.514 226.838 199.906C227.809 199.185 228.874 196.894 227.126 196.411C226.657 196.282 226.148 196.328 225.763 196.648C225.146 197.16 224.923 198.115 224.922 198.88C224.922 199.159 224.962 199.4 225.034 199.6Z" fill="white"/>
<path opacity="0.1" d="M221.325 201.392C220.855 201.263 220.346 201.309 219.962 201.629C219.009 202.42 218.911 203.755 220.014 204.415C222.109 205.671 223.206 201.912 221.325 201.392Z" fill="white"/>
<path opacity="0.1" d="M225.832 202.82C225.726 202.843 225.648 202.89 225.595 202.951L225.832 202.82Z" fill="white"/>
<path opacity="0.1" d="M232.898 205.159C232.918 206.703 235.283 205.04 233.694 204.389C233.192 204.185 232.892 204.692 232.898 205.159Z" fill="white"/>
<path d="M232.216 218.09L231.874 220.71L231.429 224.114L231.371 224.565C231.256 225.456 230.496 226.124 229.597 226.124H226.802C225.903 226.124 225.143 225.456 225.028 224.565L224.969 224.114L224.525 220.71L224.183 218.09H232.216Z" fill="#33435B"/>
<path d="M224.349 219.37L231.934 220.26L232.06 219.284L224.349 219.37Z" fill="#33435B"/>
<path d="M231.943 219.389H224.515C224.091 219.389 223.748 219.046 223.748 218.621V218.15C223.748 218.09 223.797 218.041 223.857 218.041H232.602C232.662 218.041 232.711 218.09 232.711 218.15V218.621C232.711 219.046 232.368 219.389 231.943 219.389Z" fill="#33435B"/>
<path d="M231.874 220.709L231.431 224.115H224.969L224.525 220.709H231.874Z" fill="#8299BA"/>
<path d="M146.535 226.782H165.808L162.826 224.853L146.535 225.78V226.782Z" fill="#0C2E3F"/>
<path d="M163.605 226.789H204.689C205.68 226.789 206.543 226.12 206.786 225.163L213.002 200.669C213.346 199.309 212.314 197.989 210.905 197.989H169.82C168.829 197.989 167.966 198.658 167.723 199.615L161.508 224.109C161.163 225.469 162.195 226.789 163.605 226.789Z" fill="#0C2E3F"/>
<path d="M164.989 225.866H206.074C207.065 225.866 207.928 225.197 208.171 224.24L214.386 199.746C214.731 198.386 213.699 197.066 212.289 197.066H171.205C170.214 197.066 169.351 197.736 169.108 198.693L162.892 223.186C162.548 224.546 163.58 225.866 164.989 225.866Z" fill="#123A53"/>
<path d="M190.332 214.6C191.688 214.6 192.788 213.501 192.788 212.145C192.788 210.789 191.688 209.689 190.332 209.689C188.976 209.689 187.877 210.789 187.877 212.145C187.877 213.501 188.976 214.6 190.332 214.6Z" fill="white"/>
</svg>
