<svg width="381" height="268" viewBox="0 0 381 268" fill="none" xmlns="http://www.w3.org/2000/svg">
<rect width="381" height="268" rx="12" fill="white"/>
<path d="M105.52 205.584C89.4656 202.366 74.1954 196.919 62.0873 184.948C52.2906 175.263 45.9375 162.284 43.7655 148.688C40.9786 131.219 45.3801 112.853 55.2404 98.2202C63.8579 85.4307 76.7514 76.4221 90.475 69.8951C107.468 61.8169 123.882 52.9561 141.619 46.4927C173.948 34.7145 208.636 31.6006 242.715 35.7406C262.431 38.1415 282.2 44.0266 297.825 56.7109C302.303 60.3501 306.369 64.467 309.951 68.9882C335.41 101.105 335.895 152.37 308.616 183.589C301.086 192.206 291.481 198.959 281.053 203.629C257.855 214.017 231.447 214.578 206.475 213.498C178.181 212.276 149.531 211.989 121.438 208.173C116.104 207.448 110.769 206.635 105.52 205.584Z" fill="#FFE3C2"/>
<path d="M241.373 194.244C267.503 194.244 288.686 173.093 288.686 147.003C288.686 120.913 267.503 99.7627 241.373 99.7627C215.242 99.7627 194.06 120.913 194.06 147.003C194.06 173.093 215.242 194.244 241.373 194.244Z" fill="#E6560F"/>
<path d="M282.469 147.003C282.469 169.665 264.07 188.036 241.374 188.036C232.884 188.05 224.6 185.426 217.672 180.527C223.586 183.652 230.178 185.281 236.87 185.271C259.566 185.271 277.965 166.899 277.965 144.237C277.965 130.391 271.097 118.151 260.578 110.716C273.599 117.6 282.469 131.267 282.469 147.003Z" fill="#FFAB57"/>
<path d="M277.965 144.237C277.965 166.899 259.566 185.271 236.87 185.271C230.178 185.281 223.586 183.652 217.672 180.527C207.148 173.097 200.277 160.851 200.277 147.003C200.277 124.342 218.677 105.97 241.374 105.97C248.068 105.96 254.662 107.589 260.578 110.716C271.097 118.148 277.965 130.391 277.965 144.237Z" fill="white"/>
<path d="M239.673 111.024C239.603 112.091 239.63 113.149 239.647 114.217C239.664 115.237 239.528 116.617 240.418 117.304C240.664 117.494 241.033 117.378 241.24 117.198C241.658 116.834 241.743 116.204 241.739 115.684C241.735 115.164 241.728 114.649 241.702 114.131C241.65 113.087 241.605 112.058 241.467 111.024C241.404 110.544 241.101 110.128 240.57 110.128C240.058 110.128 239.705 110.539 239.673 111.024Z" fill="#FFAB57"/>
<path d="M241.442 176.386C241.28 177.49 241.273 178.612 241.287 179.725C241.293 180.266 241.287 180.831 241.374 181.365C241.469 181.939 241.461 182.647 242.042 182.949C242.369 183.118 242.67 183.049 242.946 182.832C243.411 182.467 243.288 181.8 243.301 181.275C243.314 180.75 243.263 180.241 243.242 179.725C243.199 178.692 243.242 177.656 243.192 176.624C243.17 176.184 242.87 175.803 242.42 175.749C242.024 175.702 241.507 175.944 241.442 176.386H241.442Z" fill="#FFAB57"/>
<path d="M268.976 147.052L269.097 147.139L268.798 146.75C269.08 147.47 269.783 147.543 270.468 147.599C271.078 147.649 271.681 147.664 272.291 147.677C272.9 147.69 273.505 147.702 274.113 147.704C274.783 147.704 275.527 147.71 276.088 147.283C276.61 146.886 276.61 146.268 276.088 145.871C275.526 145.444 274.781 145.447 274.113 145.45C273.503 145.45 272.893 145.464 272.291 145.477C271.688 145.491 271.076 145.505 270.468 145.555C269.782 145.611 269.08 145.684 268.798 146.404L269.097 146.015L268.976 146.102C268.628 146.357 268.628 146.797 268.976 147.049V147.052Z" fill="#FFAB57"/>
<path d="M241.817 146.514C244.107 143.827 246.433 141.173 248.739 138.497C251.045 135.82 253.377 133.16 255.736 130.527C256.41 129.774 257.084 129.02 257.757 128.267C258.408 127.537 259.191 126.837 259.556 125.919C259.726 125.484 259.176 125.186 258.831 125.362C258.047 125.766 257.487 126.54 256.907 127.188C256.327 127.836 255.746 128.484 255.173 129.14C254.009 130.473 252.851 131.811 251.7 133.154C249.4 135.844 247.106 138.546 244.927 141.335C243.694 142.913 242.464 144.49 241.245 146.079C240.995 146.406 241.55 146.834 241.817 146.52V146.514Z" fill="#FFAB57"/>
<path d="M240.939 147.183C243.14 149.704 245.555 152.032 248.009 154.313C250.464 156.594 253.026 158.748 255.66 160.824C257.122 161.976 258.59 163.194 260.198 164.136C260.521 164.325 260.872 163.882 260.6 163.615C259.408 162.456 258.064 161.441 256.787 160.378C255.51 159.316 254.299 158.229 253.05 157.161C250.525 154.999 248.069 152.766 245.648 150.496C244.268 149.203 242.915 147.887 241.526 146.6C241.132 146.235 240.59 146.786 240.94 147.186L240.939 147.183Z" fill="#FFAB57"/>
<path d="M233.624 47.9111H54.9531V157.561H233.624V47.9111Z" fill="white"/>
<path d="M233.11 48.4234V157.043H55.4675V48.4234H233.11ZM234.138 47.3965H54.439V158.073H234.138V47.3965Z" fill="#FFAB57"/>
<path d="M234.138 47.3965H54.439V55.2312H234.138V47.3965Z" fill="#FFAB57"/>
<path d="M60.6801 52.8544C61.5473 52.8544 62.2503 52.1524 62.2503 51.2866C62.2503 50.4207 61.5473 49.7188 60.6801 49.7188C59.8129 49.7188 59.1099 50.4207 59.1099 51.2866C59.1099 52.1524 59.8129 52.8544 60.6801 52.8544Z" fill="white"/>
<path d="M65.0761 52.8544C65.9433 52.8544 66.6463 52.1524 66.6463 51.2866C66.6463 50.4207 65.9433 49.7188 65.0761 49.7188C64.2089 49.7188 63.5059 50.4207 63.5059 51.2866C63.5059 52.1524 64.2089 52.8544 65.0761 52.8544Z" fill="white"/>
<path d="M69.4726 52.8544C70.3398 52.8544 71.0428 52.1524 71.0428 51.2866C71.0428 50.4207 70.3398 49.7188 69.4726 49.7188C68.6054 49.7188 67.9023 50.4207 67.9023 51.2866C67.9023 52.1524 68.6054 52.8544 69.4726 52.8544Z" fill="white"/>
<path d="M188.531 71.9629H105.707C105.102 71.9629 104.611 72.453 104.611 73.0577V73.1568C104.611 73.7614 105.102 74.2516 105.707 74.2516H188.531C189.137 74.2516 189.627 73.7614 189.627 73.1568V73.0577C189.627 72.453 189.137 71.9629 188.531 71.9629Z" fill="#13A497"/>
<path d="M114.554 77.46H105.707C105.102 77.46 104.611 77.9501 104.611 78.5547V78.6539C104.611 79.2585 105.102 79.7486 105.707 79.7486H114.554C115.159 79.7486 115.65 79.2585 115.65 78.6539V78.5547C115.65 77.9501 115.159 77.46 114.554 77.46Z" fill="#13A497"/>
<path d="M114.554 81.9375H105.707C105.102 81.9375 104.611 82.4276 104.611 83.0323V83.1314C104.611 83.736 105.102 84.2262 105.707 84.2262H114.554C115.159 84.2262 115.65 83.736 115.65 83.1314V83.0323C115.65 82.4276 115.159 81.9375 114.554 81.9375Z" fill="#13A497"/>
<path d="M114.554 86.415H105.707C105.102 86.415 104.611 86.9052 104.611 87.5098V87.6089C104.611 88.2136 105.102 88.7037 105.707 88.7037H114.554C115.159 88.7037 115.65 88.2136 115.65 87.6089V87.5098C115.65 86.9052 115.159 86.415 114.554 86.415Z" fill="#13A497"/>
<path d="M114.554 90.8916H105.707C105.102 90.8916 104.611 91.3817 104.611 91.9864V92.0855C104.611 92.6901 105.102 93.1803 105.707 93.1803H114.554C115.159 93.1803 115.65 92.6901 115.65 92.0855V91.9864C115.65 91.3817 115.159 90.8916 114.554 90.8916Z" fill="#13A497"/>
<path d="M114.554 95.3691H105.707C105.102 95.3691 104.611 95.8593 104.611 96.4639V96.563C104.611 97.1677 105.102 97.6578 105.707 97.6578H114.554C115.159 97.6578 115.65 97.1677 115.65 96.563V96.4639C115.65 95.8593 115.159 95.3691 114.554 95.3691Z" fill="#13A497"/>
<path d="M114.554 99.8457H105.707C105.102 99.8457 104.611 100.336 104.611 100.94V101.04C104.611 101.644 105.102 102.134 105.707 102.134H114.554C115.159 102.134 115.65 101.644 115.65 101.04V100.94C115.65 100.336 115.159 99.8457 114.554 99.8457Z" fill="#13A497"/>
<path d="M114.554 104.322H105.707C105.102 104.322 104.611 104.812 104.611 105.417V105.516C104.611 106.121 105.102 106.611 105.707 106.611H114.554C115.159 106.611 115.65 106.121 115.65 105.516V105.417C115.65 104.812 115.159 104.322 114.554 104.322Z" fill="#13A497"/>
<path d="M114.554 108.799H105.707C105.102 108.799 104.611 109.289 104.611 109.894V109.993C104.611 110.597 105.102 111.088 105.707 111.088H114.554C115.159 111.088 115.65 110.597 115.65 109.993V109.894C115.65 109.289 115.159 108.799 114.554 108.799Z" fill="#13A497"/>
<path d="M162.109 77.46H119.595C119.159 77.46 118.805 77.8131 118.805 78.2486V78.9599C118.805 79.3955 119.159 79.7486 119.595 79.7486H162.109C162.545 79.7486 162.899 79.3955 162.899 78.9599V78.2486C162.899 77.8131 162.545 77.46 162.109 77.46Z" fill="#E6560F"/>
<path d="M165.327 81.9375H119.623C119.171 81.9375 118.805 82.3031 118.805 82.754V83.4097C118.805 83.8606 119.171 84.2262 119.623 84.2262H165.327C165.779 84.2262 166.145 83.8606 166.145 83.4097V82.754C166.145 82.3031 165.779 81.9375 165.327 81.9375Z" fill="#E6560F"/>
<path d="M179.124 86.415H119.735C119.222 86.415 118.805 86.8308 118.805 87.3437V87.775C118.805 88.2879 119.222 88.7037 119.735 88.7037H179.124C179.638 88.7037 180.054 88.2879 180.054 87.775V87.3437C180.054 86.8308 179.638 86.415 179.124 86.415Z" fill="#E6560F"/>
<path d="M223.217 90.8916H163.829C163.315 90.8916 162.898 91.3074 162.898 91.8203V92.2516C162.898 92.7645 163.315 93.1803 163.829 93.1803H223.217C223.731 93.1803 224.148 92.7645 224.148 92.2516V91.8203C224.148 91.3074 223.731 90.8916 223.217 90.8916Z" fill="#FFAB57"/>
<path d="M159.694 90.8916H119.572C119.149 90.8916 118.805 91.2346 118.805 91.6577V92.4142C118.805 92.8373 119.149 93.1803 119.572 93.1803H159.694C160.117 93.1803 160.461 92.8373 160.461 92.4142V91.6577C160.461 91.2346 160.117 90.8916 159.694 90.8916Z" fill="#E6560F"/>
<path d="M189.338 95.3691H119.811C119.256 95.3691 118.805 95.8188 118.805 96.3735V96.6535C118.805 97.2082 119.256 97.6578 119.811 97.6578H189.338C189.894 97.6578 190.344 97.2082 190.344 96.6535V96.3735C190.344 95.8188 189.894 95.3691 189.338 95.3691Z" fill="#E6560F"/>
<path d="M164.408 99.8457H119.615C119.168 99.8457 118.805 100.208 118.805 100.654V101.326C118.805 101.772 119.168 102.134 119.615 102.134H164.408C164.855 102.134 165.218 101.772 165.218 101.326V100.654C165.218 100.208 164.855 99.8457 164.408 99.8457Z" fill="#E6560F"/>
<path d="M181.423 104.322H119.753C119.229 104.322 118.805 104.746 118.805 105.268V105.665C118.805 106.187 119.229 106.611 119.753 106.611H181.423C181.947 106.611 182.371 106.187 182.371 105.665V105.268C182.371 104.746 181.947 104.322 181.423 104.322Z" fill="#E6560F"/>
<path d="M157.508 108.799H119.552C119.139 108.799 118.805 109.132 118.805 109.544V110.342C118.805 110.754 119.139 111.088 119.552 111.088H157.508C157.92 111.088 158.254 110.754 158.254 110.342V109.544C158.254 109.132 157.92 108.799 157.508 108.799Z" fill="#E6560F"/>
<path d="M224.065 104.322H186.109C185.696 104.322 185.362 104.656 185.362 105.067V105.866C185.362 106.277 185.696 106.611 186.109 106.611H224.065C224.477 106.611 224.811 106.277 224.811 105.866V105.067C224.811 104.656 224.477 104.322 224.065 104.322Z" fill="#E6560F"/>
<path d="M183.066 77.46H166.177C165.899 77.46 165.673 77.685 165.673 77.9626V79.246C165.673 79.5236 165.899 79.7486 166.177 79.7486H183.066C183.344 79.7486 183.569 79.5236 183.569 79.246V77.9626C183.569 77.685 183.344 77.46 183.066 77.46Z" fill="#FFE3C2"/>
<path d="M165.642 114.18H148.752C148.474 114.18 148.249 114.405 148.249 114.682V115.966C148.249 116.243 148.474 116.468 148.752 116.468H165.642C165.92 116.468 166.145 116.243 166.145 115.966V114.682C166.145 114.405 165.92 114.18 165.642 114.18Z" fill="#FFE3C2"/>
<path d="M206.261 114.18H189.372C189.094 114.18 188.869 114.405 188.869 114.682V115.966C188.869 116.243 189.094 116.468 189.372 116.468H206.261C206.539 116.468 206.765 116.243 206.765 115.966V114.682C206.765 114.405 206.539 114.18 206.261 114.18Z" fill="#FFE3C2"/>
<path d="M111.607 62.3176L107.288 63.8975L111.607 65.4628V67.0819L105.433 64.7341V63.0558L111.607 60.708V62.3176Z" fill="#FFAB57"/>
<path d="M116.25 57.5264H118.053L113.77 69.7254H111.967L116.25 57.5264Z" fill="#FFAB57"/>
<path d="M124.461 63.0564V64.7398L118.287 67.0876V65.465L122.606 63.8998L118.287 62.3198V60.7129L124.461 63.0564Z" fill="#FFAB57"/>
<path d="M126.056 68.1751C125.937 68.0568 125.843 67.9152 125.781 67.7592C125.718 67.6032 125.688 67.4361 125.693 67.2681C125.686 67.101 125.715 66.9343 125.778 66.7791C125.84 66.624 125.935 66.4839 126.056 66.3681C126.302 66.1475 126.62 66.0254 126.951 66.0254C127.281 66.0254 127.6 66.1475 127.845 66.3681C127.966 66.4839 128.061 66.624 128.124 66.7791C128.186 66.9343 128.215 67.101 128.208 67.2681C128.213 67.4361 128.183 67.6032 128.121 67.7592C128.058 67.9152 127.965 68.0568 127.845 68.1751C127.606 68.4076 127.285 68.5377 126.951 68.5377C126.617 68.5377 126.296 68.4076 126.056 68.1751Z" fill="#FFAB57"/>
<path d="M129.455 68.1751C129.335 68.0568 129.241 67.9152 129.179 67.7592C129.116 67.6032 129.087 67.4361 129.091 67.2681C129.085 67.101 129.113 66.9343 129.176 66.7791C129.239 66.624 129.334 66.4839 129.455 66.3681C129.7 66.1475 130.019 66.0254 130.349 66.0254C130.679 66.0254 130.998 66.1475 131.243 66.3681C131.364 66.4839 131.459 66.624 131.522 66.7791C131.585 66.9343 131.613 67.101 131.607 67.2681C131.611 67.4361 131.582 67.6032 131.519 67.7592C131.457 67.9152 131.363 68.0568 131.243 68.1751C131.004 68.4076 130.683 68.5377 130.349 68.5377C130.015 68.5377 129.694 68.4076 129.455 68.1751Z" fill="#FFAB57"/>
<path d="M132.852 68.1749C132.733 68.0564 132.639 67.9148 132.577 67.7588C132.515 67.6028 132.485 67.4358 132.49 67.2679C132.483 67.1009 132.512 66.9343 132.574 66.7791C132.637 66.624 132.731 66.4839 132.852 66.3679C133.098 66.1474 133.416 66.0254 133.747 66.0254C134.077 66.0254 134.396 66.1474 134.642 66.3679C134.763 66.4838 134.857 66.6239 134.92 66.7791C134.983 66.9342 135.011 67.1008 135.005 67.2679C135.01 67.4358 134.98 67.6029 134.917 67.7589C134.855 67.9149 134.761 68.0564 134.642 68.1749C134.402 68.4075 134.081 68.5376 133.747 68.5376C133.413 68.5376 133.092 68.4075 132.852 68.1749Z" fill="#FFAB57"/>
<path d="M100.572 60.4609H60.6802V85.7686H100.572V60.4609Z" fill="#FFAB57"/>
<path d="M100.572 88.8418H60.6802V152.187H100.572V88.8418Z" fill="#FFAB57"/>
<path d="M71.99 64.8477H66.2499C65.7541 64.8477 65.3521 65.249 65.3521 65.7442V65.825C65.3521 66.3202 65.7541 66.7216 66.2499 66.7216H71.99C72.4859 66.7216 72.8879 66.3202 72.8879 65.825V65.7442C72.8879 65.249 72.4859 64.8477 71.99 64.8477Z" fill="white"/>
<g opacity="0.57">
<path d="M94.8493 64.8477H75.7514C75.2555 64.8477 74.8535 65.249 74.8535 65.7442V65.825C74.8535 66.3202 75.2555 66.7216 75.7514 66.7216H94.8493C95.3452 66.7216 95.7472 66.3202 95.7472 65.825V65.7442C95.7472 65.249 95.3452 64.8477 94.8493 64.8477Z" fill="white"/>
</g>
<g opacity="0.36">
<path d="M94.8492 72.293H74.1376C73.6417 72.293 73.2397 72.6944 73.2397 73.1895V73.2704C73.2397 73.7655 73.6417 74.1669 74.1376 74.1669H94.8492C95.3451 74.1669 95.7471 73.7655 95.7471 73.2704V73.1895C95.7471 72.6944 95.3451 72.293 94.8492 72.293Z" fill="white"/>
</g>
<g opacity="0.57">
<path d="M94.8876 68.5693H77.4523C76.9776 68.5693 76.5928 68.9536 76.5928 69.4276V69.585C76.5928 70.059 76.9776 70.4432 77.4523 70.4432H94.8876C95.3624 70.4432 95.7472 70.059 95.7472 69.585V69.4276C95.7472 68.9536 95.3624 68.5693 94.8876 68.5693Z" fill="white"/>
</g>
<g opacity="0.57">
<path d="M94.8492 79.7363H74.1376C73.6417 79.7363 73.2397 80.1377 73.2397 80.6328V80.7137C73.2397 81.2088 73.6417 81.6102 74.1376 81.6102H94.8492C95.3451 81.6102 95.7471 81.2088 95.7471 80.7137V80.6328C95.7471 80.1377 95.3451 79.7363 94.8492 79.7363Z" fill="white"/>
</g>
<g opacity="0.57">
<path d="M94.8492 93.3418H74.1376C73.6417 93.3418 73.2397 93.7432 73.2397 94.2383V94.3192C73.2397 94.8143 73.6417 95.2157 74.1376 95.2157H94.8492C95.3451 95.2157 95.7471 94.8143 95.7471 94.3192V94.2383C95.7471 93.7432 95.3451 93.3418 94.8492 93.3418Z" fill="white"/>
</g>
<g opacity="0.57">
<path d="M94.8495 100.787H74.1379C73.642 100.787 73.24 101.188 73.24 101.684V101.764C73.24 102.26 73.642 102.661 74.1379 102.661H94.8495C95.3454 102.661 95.7474 102.26 95.7474 101.764V101.684C95.7474 101.188 95.3454 100.787 94.8495 100.787Z" fill="white"/>
</g>
<g opacity="0.37">
<path d="M94.9432 97.0645H78.4702C78.0258 97.0645 77.6655 97.4242 77.6655 97.8679V98.1349C77.6655 98.5786 78.0258 98.9384 78.4702 98.9384H94.9432C95.3876 98.9384 95.7479 98.5786 95.7479 98.1349V97.8679C95.7479 97.4242 95.3876 97.0645 94.9432 97.0645Z" fill="white"/>
</g>
<g opacity="0.37">
<path d="M94.9432 104.766H78.4702C78.0258 104.766 77.6655 105.125 77.6655 105.569V105.836C77.6655 106.28 78.0258 106.64 78.4702 106.64H94.9432C95.3876 106.64 95.7479 106.28 95.7479 105.836V105.569C95.7479 105.125 95.3876 104.766 94.9432 104.766Z" fill="white"/>
</g>
<g opacity="0.61">
<path d="M94.9432 108.231H78.4702C78.0258 108.231 77.6655 108.591 77.6655 109.035V109.302C77.6655 109.746 78.0258 110.105 78.4702 110.105H94.9432C95.3876 110.105 95.7479 109.746 95.7479 109.302V109.035C95.7479 108.591 95.3876 108.231 94.9432 108.231Z" fill="white"/>
</g>
<g opacity="0.61">
<path d="M94.8881 115.676H75.9558C75.481 115.676 75.0962 116.06 75.0962 116.534V116.691C75.0962 117.165 75.481 117.55 75.9558 117.55H94.8881C95.3628 117.55 95.7477 117.165 95.7477 116.691V116.534C95.7477 116.06 95.3628 115.676 94.8881 115.676Z" fill="white"/>
</g>
<g opacity="0.61">
<path d="M94.9432 119.398H78.4702C78.0258 119.398 77.6655 119.758 77.6655 120.202V120.469C77.6655 120.913 78.0258 121.272 78.4702 121.272H94.9432C95.3876 121.272 95.7479 120.913 95.7479 120.469V120.202C95.7479 119.758 95.3876 119.398 94.9432 119.398Z" fill="white"/>
</g>
<g opacity="0.61">
<path d="M95.0524 123.12H82.9122C82.5279 123.12 82.2163 123.431 82.2163 123.815V124.299C82.2163 124.683 82.5279 124.994 82.9122 124.994H95.0524C95.4367 124.994 95.7483 124.683 95.7483 124.299V123.815C95.7483 123.431 95.4367 123.12 95.0524 123.12Z" fill="white"/>
</g>
<g opacity="0.86">
<path d="M94.8618 126.843H74.7241C74.2349 126.843 73.8384 127.239 73.8384 127.727V127.832C73.8384 128.321 74.2349 128.717 74.7241 128.717H94.8618C95.3509 128.717 95.7475 128.321 95.7475 127.832V127.727C95.7475 127.239 95.3509 126.843 94.8618 126.843Z" fill="white"/>
</g>
<g opacity="0.61">
<path d="M94.9432 130.564H78.4702C78.0258 130.564 77.6655 130.924 77.6655 131.368V131.635C77.6655 132.079 78.0258 132.438 78.4702 132.438H94.9432C95.3876 132.438 95.7479 132.079 95.7479 131.635V131.368C95.7479 130.924 95.3876 130.564 94.9432 130.564Z" fill="white"/>
</g>
<g opacity="0.18">
<path d="M94.8689 134.287H75.0614C74.576 134.287 74.1826 134.68 74.1826 135.164V135.284C74.1826 135.768 74.576 136.161 75.0614 136.161H94.8689C95.3543 136.161 95.7477 135.768 95.7477 135.284V135.164C95.7477 134.68 95.3543 134.287 94.8689 134.287Z" fill="white"/>
</g>
<g opacity="0.61">
<path d="M94.9432 138.01H78.4702C78.0258 138.01 77.6655 138.369 77.6655 138.813V139.08C77.6655 139.524 78.0258 139.884 78.4702 139.884H94.9432C95.3876 139.884 95.7479 139.524 95.7479 139.08V138.813C95.7479 138.369 95.3876 138.01 94.9432 138.01Z" fill="white"/>
</g>
<g opacity="0.61">
<path d="M94.877 141.732H75.4892C75.0087 141.732 74.6191 142.121 74.6191 142.601V142.738C74.6191 143.217 75.0087 143.606 75.4892 143.606H94.877C95.3575 143.606 95.747 143.217 95.747 142.738V142.601C95.747 142.121 95.3575 141.732 94.877 141.732Z" fill="white"/>
</g>
<g opacity="0.96">
<path d="M94.9432 145.455H78.4702C78.0258 145.455 77.6655 145.815 77.6655 146.259V146.526C77.6655 146.969 78.0258 147.329 78.4702 147.329H94.9432C95.3876 147.329 95.7479 146.969 95.7479 146.526V146.259C95.7479 145.815 95.3876 145.455 94.9432 145.455Z" fill="white"/>
</g>
<g opacity="0.37">
<path d="M94.8881 111.697H75.9558C75.481 111.697 75.0962 112.082 75.0962 112.556V112.713C75.0962 113.187 75.481 113.571 75.9558 113.571H94.8881C95.3628 113.571 95.7477 113.187 95.7477 112.713V112.556C95.7477 112.082 95.3628 111.697 94.8881 111.697Z" fill="white"/>
</g>
<g opacity="0.57">
<path d="M94.8876 76.0146H77.4523C76.9776 76.0146 76.5928 76.3989 76.5928 76.8729V77.0303C76.5928 77.5043 76.9776 77.8886 77.4523 77.8886H94.8876C95.3624 77.8886 95.7472 77.5043 95.7472 77.0303V76.8729C95.7472 76.3989 95.3624 76.0146 94.8876 76.0146Z" fill="white"/>
</g>
<path d="M72.9841 68.5703H67.2441C66.7482 68.5703 66.3462 68.9717 66.3462 69.4668V69.5477C66.3462 70.0428 66.7482 70.4442 67.2441 70.4442H72.9841C73.48 70.4442 73.882 70.0428 73.882 69.5477V69.4668C73.882 68.9717 73.48 68.5703 72.9841 68.5703Z" fill="white"/>
<path d="M70.1438 72.293H64.4038C63.9079 72.293 63.5059 72.6944 63.5059 73.1895V73.2704C63.5059 73.7655 63.9079 74.1669 64.4038 74.1669H70.1438C70.6397 74.1669 71.0417 73.7655 71.0417 73.2704V73.1895C71.0417 72.6944 70.6397 72.293 70.1438 72.293Z" fill="white"/>
<path d="M72.3421 76.0146H66.602C66.1061 76.0146 65.7041 76.416 65.7041 76.9112V76.992C65.7041 77.4872 66.1061 77.8886 66.602 77.8886H72.3421C72.8379 77.8886 73.2399 77.4872 73.2399 76.992V76.9112C73.2399 76.416 72.8379 76.0146 72.3421 76.0146Z" fill="white"/>
<path d="M70.1438 79.7363H64.4038C63.9079 79.7363 63.5059 80.1377 63.5059 80.6328V80.7137C63.5059 81.2088 63.9079 81.6102 64.4038 81.6102H70.1438C70.6397 81.6102 71.0417 81.2088 71.0417 80.7137V80.6328C71.0417 80.1377 70.6397 79.7363 70.1438 79.7363Z" fill="white"/>
<path d="M70.1438 93.3418H64.4038C63.9079 93.3418 63.5059 93.7432 63.5059 94.2383V94.3192C63.5059 94.8143 63.9079 95.2157 64.4038 95.2157H70.1438C70.6397 95.2157 71.0417 94.8143 71.0417 94.3192V94.2383C71.0417 93.7432 70.6397 93.3418 70.1438 93.3418Z" fill="white"/>
<path d="M72.3421 97.0645H66.602C66.1061 97.0645 65.7041 97.4658 65.7041 97.961V98.0418C65.7041 98.537 66.1061 98.9384 66.602 98.9384H72.3421C72.8379 98.9384 73.2399 98.537 73.2399 98.0418V97.961C73.2399 97.4658 72.8379 97.0645 72.3421 97.0645Z" fill="white"/>
<path d="M70.144 100.787H64.404C63.9081 100.787 63.5061 101.188 63.5061 101.684V101.764C63.5061 102.26 63.9081 102.661 64.404 102.661H70.144C70.6399 102.661 71.0419 102.26 71.0419 101.764V101.684C71.0419 101.188 70.6399 100.787 70.144 100.787Z" fill="white"/>
<path d="M70.1438 104.509H64.4038C63.9079 104.509 63.5059 104.91 63.5059 105.405V105.486C63.5059 105.981 63.9079 106.383 64.4038 106.383H70.1438C70.6397 106.383 71.0417 105.981 71.0417 105.486V105.405C71.0417 104.91 70.6397 104.509 70.1438 104.509Z" fill="white"/>
<path d="M70.1438 108.231H64.4038C63.9079 108.231 63.5059 108.633 63.5059 109.128V109.209C63.5059 109.704 63.9079 110.105 64.4038 110.105H70.1438C70.6397 110.105 71.0417 109.704 71.0417 109.209V109.128C71.0417 108.633 70.6397 108.231 70.1438 108.231Z" fill="white"/>
<path d="M72.3421 111.954H66.602C66.1061 111.954 65.7041 112.355 65.7041 112.851V112.931C65.7041 113.427 66.1061 113.828 66.602 113.828H72.3421C72.8379 113.828 73.2399 113.427 73.2399 112.931V112.851C73.2399 112.355 72.8379 111.954 72.3421 111.954Z" fill="white"/>
<path d="M70.144 115.676H64.404C63.9081 115.676 63.5061 116.077 63.5061 116.572V116.653C63.5061 117.148 63.9081 117.55 64.404 117.55H70.144C70.6399 117.55 71.0419 117.148 71.0419 116.653V116.572C71.0419 116.077 70.6399 115.676 70.144 115.676Z" fill="white"/>
<path d="M70.1438 119.398H64.4038C63.9079 119.398 63.5059 119.8 63.5059 120.295V120.376C63.5059 120.871 63.9079 121.272 64.4038 121.272H70.1438C70.6397 121.272 71.0417 120.871 71.0417 120.376V120.295C71.0417 119.8 70.6397 119.398 70.1438 119.398Z" fill="white"/>
<path d="M71.99 123.121H66.2499C65.7541 123.121 65.3521 123.522 65.3521 124.018V124.098C65.3521 124.594 65.7541 124.995 66.2499 124.995H71.99C72.4859 124.995 72.8879 124.594 72.8879 124.098V124.018C72.8879 123.522 72.4859 123.121 71.99 123.121Z" fill="white"/>
<path d="M70.1438 126.843H64.4038C63.9079 126.843 63.5059 127.244 63.5059 127.739V127.82C63.5059 128.315 63.9079 128.717 64.4038 128.717H70.1438C70.6397 128.717 71.0417 128.315 71.0417 127.82V127.739C71.0417 127.244 70.6397 126.843 70.1438 126.843Z" fill="white"/>
<path d="M73.2844 130.564H67.5444C67.0485 130.564 66.6465 130.966 66.6465 131.461V131.542C66.6465 132.037 67.0485 132.438 67.5444 132.438H73.2844C73.7803 132.438 74.1823 132.037 74.1823 131.542V131.461C74.1823 130.966 73.7803 130.564 73.2844 130.564Z" fill="white"/>
<path d="M70.1438 134.287H64.4038C63.9079 134.287 63.5059 134.688 63.5059 135.184V135.264C63.5059 135.76 63.9079 136.161 64.4038 136.161H70.1438C70.6397 136.161 71.0417 135.76 71.0417 135.264V135.184C71.0417 134.688 70.6397 134.287 70.1438 134.287Z" fill="white"/>
<path d="M72.3421 138.01H66.602C66.1061 138.01 65.7041 138.411 65.7041 138.906V138.987C65.7041 139.482 66.1061 139.884 66.602 139.884H72.3421C72.8379 139.884 73.2399 139.482 73.2399 138.987V138.906C73.2399 138.411 72.8379 138.01 72.3421 138.01Z" fill="white"/>
<path d="M70.1438 141.732H64.4038C63.9079 141.732 63.5059 142.134 63.5059 142.629V142.71C63.5059 143.205 63.9079 143.606 64.4038 143.606H70.1438C70.6397 143.606 71.0417 143.205 71.0417 142.71V142.629C71.0417 142.134 70.6397 141.732 70.1438 141.732Z" fill="white"/>
<path d="M70.1438 145.454H64.4038C63.9079 145.454 63.5059 145.855 63.5059 146.351V146.431C63.5059 146.927 63.9079 147.328 64.4038 147.328H70.1438C70.6397 147.328 71.0417 146.927 71.0417 146.431V146.351C71.0417 145.855 70.6397 145.454 70.1438 145.454Z" fill="white"/>
<path d="M144.625 114.18H104.733V151.87H144.625V114.18Z" stroke="#13A497" stroke-width="6.02" stroke-miterlimit="10"/>
<path d="M224.811 72.0469H192.347V87.5589H224.811V72.0469Z" stroke="#13A497" stroke-width="3.48" stroke-miterlimit="10"/>
<path d="M77.9054 129.575H39V148.077H77.9054V129.575Z" fill="#E6560F"/>
<path opacity="0.31" d="M81.9186 133.368H43.0132V151.87H81.9186V133.368Z" fill="#E6560F"/>
<path d="M49.8402 136.343L45.5214 137.923L49.8402 139.488V141.108L43.6673 138.76V137.076L49.8402 134.729V136.343Z" fill="white"/>
<path d="M54.4836 131.552H56.2907L52.0059 143.751H50.2031L54.4836 131.552Z" fill="white"/>
<path d="M62.6933 137.081V138.765L56.5195 141.113V139.494L60.8392 137.928L56.5195 136.348V134.743L62.6933 137.081Z" fill="white"/>
<path d="M64.2889 142.196C64.1695 142.078 64.0757 141.937 64.0133 141.781C63.9508 141.625 63.921 141.458 63.9257 141.29C63.9191 141.123 63.9481 140.957 64.0107 140.802C64.0733 140.646 64.1681 140.506 64.2889 140.39C64.5346 140.17 64.8533 140.048 65.1837 140.048C65.5141 140.048 65.8329 140.17 66.0786 140.39C66.1994 140.506 66.2942 140.646 66.3568 140.802C66.4194 140.957 66.4483 141.123 66.4417 141.29C66.4465 141.458 66.4167 141.625 66.3542 141.781C66.2917 141.937 66.1979 142.078 66.0786 142.196C65.8392 142.429 65.5181 142.56 65.1837 142.56C64.8494 142.56 64.5283 142.429 64.2889 142.196Z" fill="white"/>
<path d="M67.6868 142.196C67.5675 142.078 67.4737 141.937 67.4112 141.781C67.3488 141.625 67.319 141.458 67.3237 141.29C67.3171 141.123 67.346 140.957 67.4086 140.802C67.4712 140.646 67.566 140.506 67.6868 140.39C67.9326 140.17 68.2513 140.048 68.5817 140.048C68.9121 140.048 69.2308 140.17 69.4765 140.39C69.5973 140.506 69.6921 140.646 69.7547 140.802C69.8173 140.957 69.8463 141.123 69.8397 141.29C69.8444 141.458 69.8146 141.625 69.7521 141.781C69.6897 141.937 69.5959 142.078 69.4765 142.196C69.2371 142.429 68.916 142.56 68.5817 142.56C68.2473 142.56 67.9262 142.429 67.6868 142.196Z" fill="white"/>
<path d="M71.0853 142.196C70.9659 142.078 70.8721 141.937 70.8097 141.781C70.7472 141.625 70.7174 141.458 70.7221 141.29C70.7155 141.123 70.7445 140.957 70.8071 140.802C70.8697 140.646 70.9645 140.506 71.0853 140.39C71.331 140.17 71.6497 140.048 71.9801 140.048C72.3105 140.048 72.6292 140.17 72.875 140.39C72.9957 140.506 73.0906 140.646 73.1532 140.802C73.2158 140.957 73.2447 141.123 73.2381 141.29C73.2428 141.458 73.213 141.625 73.1506 141.781C73.0881 141.937 72.9943 142.078 72.875 142.196C72.6356 142.429 72.3144 142.56 71.9801 142.56C71.6458 142.56 71.3247 142.429 71.0853 142.196Z" fill="white"/>
<path d="M277.642 47.3965H254.884V65.8981H277.642V47.3965Z" fill="#E6560F"/>
<path opacity="0.31" d="M279.991 51.1895H257.232V69.6911H279.991V51.1895Z" fill="#E6560F"/>
<path d="M264.027 56.2902C263.907 56.4664 263.727 56.5934 263.52 56.6476C263.726 56.7031 263.906 56.8301 264.027 57.0058C264.133 57.1722 264.186 57.4238 264.186 57.7606V59.351C264.173 59.5502 264.239 59.7465 264.37 59.8971C264.494 60.0232 264.674 60.0858 264.913 60.0858H265.092V61.298H264.516C263.898 61.298 263.431 61.1455 263.112 60.8406C262.793 60.5357 262.634 60.0954 262.635 59.5197V57.7206C262.643 57.5942 262.603 57.4694 262.52 57.3728C262.478 57.3313 262.427 57.2992 262.371 57.2785C262.315 57.2578 262.256 57.2491 262.196 57.2528H261.868V56.0415H262.196C262.256 56.0454 262.315 56.0368 262.371 56.0163C262.427 55.9957 262.478 55.9637 262.52 55.9224C262.603 55.8258 262.644 55.7009 262.635 55.5745V53.7763C262.635 53.1995 262.794 52.7592 263.112 52.4554C263.43 52.1517 263.898 51.9992 264.516 51.998H265.092V53.2102H264.913C264.674 53.2102 264.494 53.2737 264.37 53.3989C264.239 53.5498 264.173 53.7464 264.186 53.9459V55.5354C264.186 55.8728 264.133 56.125 264.027 56.2902Z" fill="white"/>
<path d="M271.431 56.0409V57.2531H271.102C271.043 57.2496 270.983 57.2584 270.928 57.2791C270.872 57.2998 270.821 57.3318 270.779 57.3731C270.696 57.4694 270.655 57.5944 270.664 57.7209V59.52C270.664 60.0957 270.505 60.536 270.187 60.8409C269.868 61.1461 269.404 61.2983 268.783 61.2983H268.206V60.0879H268.386C268.624 60.0879 268.805 60.0253 268.928 59.8992C268.993 59.8248 269.043 59.7382 269.075 59.6445C269.107 59.5508 269.119 59.4518 269.113 59.3531V57.7601C269.113 57.4227 269.165 57.1714 269.271 57.0053C269.392 56.8293 269.572 56.7023 269.779 56.647C269.572 56.5931 269.392 56.4661 269.271 56.2896C269.165 56.1244 269.113 55.8723 269.113 55.5349V53.9453C269.119 53.8465 269.107 53.7473 269.075 53.6534C269.043 53.5596 268.993 53.4729 268.928 53.3984C268.805 53.2731 268.624 53.2097 268.386 53.2097H268.206V52.001H268.783C269.401 52.001 269.868 52.1532 270.187 52.4584C270.507 52.7636 270.664 53.2027 270.664 53.7792V55.5775C270.655 55.704 270.696 55.829 270.779 55.9253C270.821 55.9665 270.872 55.9984 270.928 56.0189C270.983 56.0394 271.043 56.0481 271.102 56.0444L271.431 56.0409Z" fill="white"/>
<path d="M165.221 127.15C165.221 127.15 168.3 147.114 167.075 150.033C165.849 152.953 202.735 149.118 202.735 149.118C202.735 149.118 199.808 127.901 196.127 123.101C192.446 118.301 165.221 127.15 165.221 127.15Z" fill="#490000"/>
<path d="M194.312 129.099L200.772 152.765C200.772 152.765 194.24 157.473 191.881 153.613C189.522 149.752 186.577 128.721 194.312 129.099Z" fill="#230000"/>
<path d="M181.542 158.045C174.774 157.329 173.157 156.011 172.797 152.365C172.437 148.718 175.671 144.052 175.671 144.052L189.45 137.653C189.45 137.653 189.928 142.916 191.486 143.453C191.999 143.619 192.52 143.759 193.047 143.872C193.89 144.068 194.766 144.257 195.37 144.496C195.782 144.658 196.066 144.844 196.128 145.068C196.336 145.845 188.309 158.764 181.542 158.045Z" fill="#FF7B57"/>
<path d="M191.681 149.719C190.045 151.121 188.296 152.385 186.451 153.498C184.543 154.65 182.554 155.759 180.283 155.914C178.192 156.059 176.067 155.207 174.934 153.392C173.736 151.467 173.765 149.335 174.312 147.204C174.456 146.642 176.046 146.695 176.032 147.338C175.988 149.259 176.068 151.479 177.387 153.01C179.712 155.711 183.881 152.791 186.064 151.351C187.56 150.361 188.986 149.269 190.331 148.083C190.951 147.537 191.589 146.985 192.123 146.352C192.702 145.665 192.925 145.022 192.978 144.136C192.983 144.046 193.004 143.957 193.041 143.875C193.884 144.071 194.76 144.259 195.364 144.498C195.498 146.649 193.133 148.474 191.681 149.719Z" fill="#D04719"/>
<path d="M190.304 138.274C190.079 137.589 189.416 137.265 188.723 137.275C188.68 137.275 188.636 137.275 188.593 137.281C188.31 137.23 188.018 137.263 187.752 137.376C183.314 139.384 179.187 142.017 175.498 145.195C175.208 145.447 175.076 145.842 175.264 146.152C175.223 146.226 175.199 146.308 175.194 146.393C175.122 147.634 176.25 148.582 177.371 148.839C178.86 149.18 180.392 148.528 181.737 147.952C184.23 146.883 186.777 145.375 188.607 143.343C189.477 142.375 190.18 141.206 190.333 139.896C190.393 139.372 190.474 138.79 190.304 138.274Z" fill="#D04719"/>
<path d="M235.329 228.196C234.35 229.528 231.363 230.196 227.648 230.476C218.852 231.139 205.983 229.632 205.983 229.632C205.983 229.632 198.855 226.881 192.685 226.103C188.128 225.528 169.612 225.02 159.039 223.708C155.299 223.243 152.553 222.68 151.77 221.976C148.769 219.286 151.956 208.402 151.777 206.966C151.597 205.53 155.251 185.14 156.209 179.396C157.167 173.651 162.678 152.664 164.893 149.461C167.109 146.259 176.19 143.809 175.794 145.486C175.398 147.164 174.357 151.287 177.232 154.159C180.107 157.03 190.409 150.451 192.685 147.864C194.961 145.277 193.826 144.053 193.826 144.053C194.128 142.378 208.258 148.238 215.746 155.115C223.233 161.992 232.996 187.289 235.689 198.653C238.382 210.017 238.623 223.711 235.329 228.196Z" fill="#FFB957"/>
<path opacity="0.41" d="M227.645 230.476C218.849 231.138 205.98 229.632 205.98 229.632C205.98 229.632 198.852 226.88 192.682 226.103C188.125 225.528 169.609 225.019 159.036 223.707C157.966 221.229 158.469 218.751 160.139 216.061C162.758 211.84 166.354 205.1 171.809 206.202C177.265 207.305 179.665 210.108 179.665 210.108C179.665 210.108 179.38 211.337 179.096 211.62C178.812 211.902 189.223 215.841 194.112 218.36C199.001 220.879 218.4 229.549 227.645 230.476Z" fill="#CA5303"/>
<path d="M196.125 129.632C196.124 129.794 196.114 129.956 196.096 130.117C195.558 134.961 192.264 134.725 192.264 134.725C190.287 141.663 183.399 146.029 180.764 146.626C178.129 147.222 172.798 147.224 169.085 141.184C167.317 138.315 166.079 134.176 165.267 130.633C164.372 126.729 163.993 123.541 163.993 123.541C163.993 123.541 163.156 119.715 163.274 118.099C163.392 116.484 165.071 110.982 171.36 111.341C177.649 111.7 188.19 120.488 188.91 120.61C189.603 120.723 196.175 124.974 196.125 129.632Z" fill="#FD8B66"/>
<path d="M196.125 129.632C194.979 126.317 191.192 127.414 188.078 128.34C184.636 129.365 179.794 130.807 176.458 129.673C173.123 128.538 171.156 118.977 168.794 119.158C166.211 119.352 165.11 121.784 165.833 125.332C166.476 128.479 165.496 130.269 165.268 130.636C164.374 126.732 163.995 123.544 163.995 123.544C163.995 123.544 163.157 119.718 163.276 118.102C163.394 116.487 165.073 110.985 171.362 111.344C177.651 111.703 188.19 120.487 188.91 120.609C189.603 120.722 196.175 124.973 196.125 129.632Z" fill="#D04719"/>
<path d="M189.075 126.33C189.017 127.833 189.045 129.331 189.107 130.836C189.122 131.193 189.641 131.282 189.742 130.923C189.99 130.034 190.084 129.184 190.16 128.265C190.191 127.893 190.258 127.525 190.361 127.165C190.476 126.758 190.767 126.414 190.852 126.005C190.878 125.892 190.87 125.774 190.831 125.664C190.791 125.555 190.721 125.459 190.629 125.388C190.537 125.317 190.426 125.274 190.31 125.264C190.194 125.254 190.077 125.277 189.974 125.331C189.178 125.752 188.967 127.027 188.899 127.835C188.865 128.3 188.868 128.767 188.909 129.231C188.952 129.771 189.088 130.294 189.107 130.837H189.754C189.61 129.337 189.504 127.832 189.386 126.331C189.383 126.291 189.365 126.255 189.337 126.228C189.308 126.201 189.27 126.187 189.231 126.187C189.191 126.187 189.153 126.201 189.125 126.228C189.096 126.255 189.078 126.291 189.075 126.331V126.33Z" fill="#230000"/>
<path d="M165.13 113.012C165.13 113.012 160.937 116.6 161.298 120.009C161.66 123.418 163.892 129.099 163.973 130.774C164.054 132.449 165.372 129.757 165.671 127.365C165.826 126.126 164.783 123.408 164.772 121.744C164.763 120.194 166.21 119.352 166.21 119.352L165.13 113.012Z" fill="#230000"/>
<path d="M195.699 127.463C194.883 125.944 192.922 125.093 190.347 126.408C187.772 127.723 181.899 129.818 178.368 129.34C174.836 128.863 172.794 120.967 170.222 118.754C167.65 116.54 166.209 119.353 166.209 119.353C165.865 119.062 165.545 118.744 165.251 118.401C160.345 112.599 170.573 105.738 179.028 103.868C187.954 101.895 193.283 111.104 195.021 116.427C196.378 120.587 198.102 121.645 199.476 122.504C199.847 122.723 200.199 122.971 200.53 123.246C201.967 124.496 196.516 128.981 195.699 127.463Z" fill="#5E1212"/>
<path d="M195.699 127.463C194.883 125.944 192.921 125.094 190.346 126.408C187.771 127.723 181.899 129.818 178.367 129.341C174.836 128.863 172.793 120.968 170.222 118.754C167.65 116.54 166.208 119.353 166.208 119.353L165.25 118.402C165.238 118.343 164.815 116.247 167.708 116.129C170.642 116.009 173.621 122.824 176.33 126.116C179.039 129.408 183.266 128.499 186.868 126.116C193.582 121.682 197.488 125.988 199.47 122.504C199.84 122.723 200.192 122.971 200.523 123.246C201.966 124.496 196.516 128.981 195.699 127.463Z" fill="#490000"/>
<path d="M162.975 169.049C162.975 169.049 163.814 171.745 163.873 177.901C163.932 184.056 161.777 210.733 161.777 210.733C161.777 210.733 155.488 214.201 155.071 212.886C154.654 211.57 158.605 205.53 160.222 192.911C161.839 180.292 161.657 166.119 162.975 169.049Z" fill="#CA5303"/>
<path opacity="0.46" d="M206.626 170.729C210.271 179.904 213.839 189.111 217.329 198.349C218.683 201.933 220.065 205.505 221.203 209.165C221.25 209.315 221.29 209.491 221.197 209.616C221.119 209.718 220.977 209.743 220.849 209.757C219.623 209.894 218.406 209.69 217.203 209.474C210.49 208.265 203.869 206.622 197.294 204.817C189.089 202.544 181.981 200.701 181.451 201.352C181.158 201.711 180.897 202.096 180.674 202.502C179.955 202.622 169.502 202.903 169.502 202.903C169.502 202.903 179.385 200.45 181.242 199.912C182.454 199.564 184.29 200.148 185.491 200.334C188.204 200.756 190.908 201.231 193.617 201.675C196.418 202.132 199.225 202.575 202.045 202.906C204.327 203.174 206.607 203.428 208.903 203.183C209.315 203.139 209.765 203.063 210.036 202.748C210.268 202.476 210.306 202.092 210.326 201.735C210.5 198.593 209.9 195.533 209.398 192.448C208.281 185.584 206.9 178.772 205.952 171.878C205.874 171.313 205.952 170.532 206.521 170.463L206.626 170.729Z" fill="#CA5303"/>
<path d="M180.674 202.498C180.665 202.526 180.599 202.732 180.517 203.076C180.349 203.802 180.244 204.542 180.203 205.286C180.109 206.955 179.668 210.105 179.668 210.105C179.668 210.105 178.658 209.917 176.794 210.609C174.929 211.301 171.546 211.617 169.5 211.617H167.172C167.172 211.617 164.951 214.205 164.136 215.498C164.136 215.498 164.136 215.504 164.136 215.504C164.033 215.659 163.945 215.824 163.875 215.996C163.547 216.909 161.119 218.798 160.992 218.865C160.866 218.932 157.553 220.283 156.765 219.37C155.977 218.457 155.038 211.873 155.038 211.873C155.038 211.873 161.685 204.438 163.042 203.998C164.399 203.558 172.633 202.298 174.557 202.013C176.482 201.729 180.674 202.498 180.674 202.498Z" fill="#FD8B66"/>
<path opacity="0.8" d="M163.01 212.123C163.01 212.123 159.982 217.856 158.783 218.486C157.584 219.116 158.026 217.572 158.121 217.541C158.216 217.509 162.888 211.493 163.01 212.123Z" fill="#D04719"/>
<path opacity="0.8" d="M160.486 210.549C160.486 210.549 157.521 216.281 156.953 216.407C156.385 216.533 156.543 215.147 156.953 214.612C157.363 214.077 160.472 209.698 160.486 210.549Z" fill="#D04719"/>
<path opacity="0.8" d="M180.516 203.078C180.348 203.805 180.243 204.544 180.202 205.289C180.108 206.957 179.667 210.108 179.667 210.108C179.667 210.108 178.657 209.919 176.793 210.611C174.928 211.303 171.545 211.619 169.499 211.619H167.171C167.171 211.619 164.95 214.208 164.135 215.5C164.239 215.308 166.274 211.175 167.454 211.021C168.653 210.863 174.205 210.422 176.823 209.036C178.905 207.936 180.108 204.465 180.516 203.078Z" fill="#D04719"/>
<path d="M206.67 152.262C205.685 152.814 204.896 153.885 204.336 154.84C203.748 155.872 203.323 156.988 203.076 158.15C202.433 161.019 202.815 163.981 203.25 166.851C203.32 167.313 204.662 167.286 204.619 166.851C204.349 164.114 204.016 161.301 204.532 158.572C204.742 157.448 205.124 156.363 205.664 155.355C205.938 154.839 206.265 154.353 206.639 153.905C207.008 153.47 207.459 153.133 207.851 152.725C208.349 152.192 206.955 152.099 206.67 152.262Z" fill="#CA5303"/>
<path d="M167.914 132.885C168.02 133.652 168.436 134.364 168.857 134.997C169.38 135.785 170.669 134.997 170.115 134.262C169.679 133.685 169.363 133.037 168.942 132.453C168.556 131.917 167.827 132.255 167.914 132.888V132.885Z" fill="#5E1212"/>
<path d="M178.705 130.95C178.756 131.693 178.923 132.425 179.199 133.117C179.625 134.194 181.144 133.578 180.679 132.495C180.413 131.875 180.162 131.249 179.896 130.629C179.645 130.048 178.666 130.344 178.709 130.95H178.705Z" fill="#5E1212"/>
<path opacity="0.27" d="M165.995 136.389C165.713 136.819 165.545 137.314 165.509 137.827C165.357 140.576 169.204 141.37 171.156 140.441C172.309 139.893 173.179 138.712 173.201 137.437C173.258 134.072 168.753 133.812 166.756 135.524C166.461 135.773 166.205 136.065 165.995 136.389Z" fill="white"/>
<path opacity="0.27" d="M176.337 134.565C176.054 134.995 175.887 135.49 175.851 136.003C175.698 138.752 179.545 139.546 181.497 138.617C182.651 138.069 183.52 136.887 183.541 135.613C183.599 132.248 179.095 131.988 177.097 133.7C176.802 133.949 176.546 134.241 176.337 134.565Z" fill="white"/>
<path d="M165.995 136.389C165.713 136.819 165.545 137.314 165.509 137.827C165.357 140.576 169.204 141.37 171.156 140.441C172.309 139.893 173.179 138.712 173.201 137.437C173.258 134.072 168.753 133.812 166.756 135.524C166.461 135.773 166.205 136.065 165.995 136.389Z" stroke="white" stroke-width="3.66" stroke-miterlimit="10"/>
<path d="M176.337 134.565C176.054 134.995 175.887 135.49 175.851 136.003C175.698 138.752 179.545 139.546 181.497 138.617C182.651 138.069 183.52 136.887 183.541 135.613C183.599 132.248 179.095 131.988 177.097 133.7C176.802 133.949 176.546 134.241 176.337 134.565Z" stroke="white" stroke-width="3.66" stroke-miterlimit="10"/>
<path d="M172.968 136.254C173.038 136.043 173.257 135.846 173.432 135.714C173.63 135.568 173.858 135.466 174.099 135.415C174.631 135.302 175.185 135.396 175.65 135.676C175.953 135.849 176.229 135.376 175.925 135.207C175.623 135.042 175.29 134.939 174.948 134.906C174.605 134.873 174.259 134.91 173.931 135.015C173.638 135.103 173.369 135.259 173.147 135.47C173.045 135.572 172.963 135.692 172.907 135.824C172.858 135.957 172.834 136.098 172.837 136.24C172.833 136.316 172.941 136.327 172.963 136.257L172.968 136.254Z" fill="white"/>
<path d="M168.944 138.915C169.172 138.497 169.408 138.084 169.652 137.675C169.768 137.476 169.887 137.278 170.01 137.082C170.136 136.876 170.287 136.672 170.365 136.443C170.413 136.301 170.222 136.207 170.122 136.303C169.953 136.464 169.838 136.688 169.716 136.886C169.594 137.084 169.47 137.293 169.349 137.495C169.107 137.905 168.871 138.319 168.642 138.736C168.535 138.933 168.836 139.109 168.944 138.91V138.915Z" fill="white"/>
<path d="M179.174 136.621C179.37 136.27 179.553 135.912 179.723 135.548C179.81 135.365 179.897 135.179 179.968 134.991C180.039 134.802 180.116 134.625 180.105 134.42C180.104 134.4 180.098 134.381 180.087 134.364C180.076 134.348 180.06 134.335 180.041 134.327C180.023 134.32 180.003 134.317 179.983 134.321C179.963 134.325 179.945 134.334 179.931 134.348C179.858 134.42 179.799 134.505 179.756 134.598C179.72 134.685 179.682 134.772 179.644 134.859C179.566 135.033 179.493 135.217 179.414 135.394C179.252 135.756 179.078 136.111 178.892 136.459C178.792 136.645 179.072 136.807 179.175 136.625L179.174 136.621Z" fill="white"/>
<path d="M165.966 131.675C165.868 131.321 166.141 130.96 166.356 130.707C166.581 130.445 166.828 130.202 167.094 129.981C167.359 129.764 167.643 129.571 167.942 129.404C168.095 129.317 168.253 129.242 168.412 129.164C168.57 129.087 168.745 129.039 168.882 128.937C168.986 128.859 168.963 128.676 168.811 128.676C168.657 128.689 168.508 128.729 168.369 128.796C168.229 128.85 168.092 128.912 167.958 128.98C167.692 129.118 167.438 129.276 167.198 129.454C166.704 129.809 166.278 130.251 165.943 130.758C165.757 131.052 165.637 131.395 165.775 131.734C165.822 131.849 166.002 131.808 165.966 131.681V131.675Z" fill="#5E1212"/>
<path d="M192.389 129.206C191.531 129.683 191.083 130.684 191.385 131.634C191.589 132.282 192.179 132.71 192.87 132.487C193.41 132.313 193.779 131.84 193.97 131.326C194.139 130.874 194.254 130.243 194.138 129.766C193.987 129.15 193.348 128.706 192.714 128.896C192.191 129.05 191.93 129.609 191.723 130.066C191.454 130.657 191.2 131.242 191.501 131.869C191.717 132.314 192.274 132.261 192.596 132.009C192.918 131.757 192.983 131.386 193.119 131.023C193.166 130.9 193.22 130.78 193.281 130.663C193.322 130.582 193.368 130.502 193.41 130.424C193.539 130.234 193.49 130.257 193.262 130.491H192.817L192.922 130.525L192.553 130.31C192.517 130.083 192.5 130.033 192.5 130.16C192.5 130.219 192.495 130.277 192.487 130.334C192.475 130.436 192.458 130.537 192.434 130.637C192.421 130.692 192.336 130.854 192.336 130.898C192.336 130.941 192.255 130.887 192.378 130.898L192.795 131.01C192.926 131.206 192.959 131.222 192.893 131.06C192.885 131.021 192.877 130.983 192.866 130.946C192.85 130.837 192.847 130.726 192.858 130.616C192.866 130.42 192.93 130.23 193.043 130.07C193.407 129.61 192.961 128.899 192.385 129.219L192.389 129.206Z" fill="#D04719"/>
<path d="M183.239 133.727C183.455 133.57 183.665 133.405 183.866 133.229C184.067 133.052 184.263 132.881 184.461 132.702C184.849 132.354 185.239 132.006 185.624 131.653C186.4 130.945 187.185 130.245 187.952 129.527L188.603 128.918C188.821 128.715 189.051 128.511 189.213 128.258C189.274 128.159 189.155 128.058 189.061 128.106C188.827 128.242 188.612 128.406 188.42 128.596L187.839 129.118C187.449 129.47 187.064 129.827 186.678 130.185C185.91 130.896 185.141 131.607 184.379 132.325C183.94 132.719 183.522 133.137 183.126 133.575C183.109 133.591 183.099 133.613 183.098 133.636C183.096 133.66 183.103 133.683 183.117 133.701C183.132 133.72 183.152 133.732 183.175 133.737C183.198 133.741 183.222 133.737 183.242 133.725L183.239 133.727Z" fill="white"/>
<path d="M183.384 133.486C183.425 134.356 183.434 135.234 183.462 136.109C183.49 136.983 183.52 137.856 183.553 138.73C183.619 140.478 183.701 142.225 183.791 143.972C183.881 145.719 183.981 147.482 184.091 149.236C184.146 150.106 184.204 150.978 184.265 151.854C184.321 152.686 184.367 153.521 184.463 154.349C184.629 155.787 185.007 157.248 186.03 158.328C186.466 158.801 187.017 159.154 187.63 159.351C188.37 159.575 189.163 159.511 189.9 159.31C190.638 159.109 191.332 158.788 192.001 158.429C192.635 158.091 193.246 157.712 193.83 157.294C195.001 156.443 196.094 155.488 197.094 154.442C198.111 153.399 199.061 152.287 199.993 151.164C200.945 150.016 201.978 148.876 202.665 147.543C202.834 147.217 202.977 146.878 203.094 146.53C203.142 146.383 202.91 146.32 202.861 146.466C202.386 147.903 201.396 149.084 200.449 150.236C199.541 151.341 198.628 152.442 197.662 153.495C195.746 155.574 193.587 157.501 190.98 158.661C190.266 158.979 189.5 159.234 188.707 159.249C188.013 159.265 187.333 159.054 186.77 158.649C185.612 157.824 185.063 156.441 184.824 155.084C184.685 154.295 184.635 153.495 184.578 152.696C184.52 151.842 184.462 150.986 184.404 150.13C184.294 148.419 184.192 146.707 184.099 144.995C183.914 141.569 183.775 138.142 183.64 134.716C183.624 134.304 183.61 133.893 183.605 133.482C183.605 133.346 183.388 133.346 183.394 133.482L183.384 133.486Z" fill="#FFE3C2"/>
<path d="M165.303 138.315C165.421 139.449 165.553 140.582 165.645 141.72C165.738 142.857 165.8 144.005 165.853 145.149C165.958 147.421 166.039 149.696 166.277 151.96C166.394 153.084 166.551 154.205 166.771 155.314C166.865 155.796 166.945 156.3 167.135 156.756C167.301 157.157 167.571 157.513 168.001 157.652C168.431 157.791 168.912 157.68 169.286 157.446C169.697 157.185 169.989 156.786 170.226 156.372C170.503 155.887 170.739 155.377 170.99 154.878L171.785 153.298C172.308 152.268 172.84 151.245 173.334 150.202C173.792 149.234 174.198 148.224 174.342 147.159C174.377 146.904 174.397 146.648 174.4 146.391C174.397 146.368 174.387 146.347 174.369 146.331C174.352 146.316 174.33 146.307 174.307 146.307C174.284 146.307 174.261 146.316 174.244 146.331C174.227 146.347 174.216 146.368 174.214 146.391C174.2 147.456 173.884 148.485 173.467 149.456C173.031 150.464 172.514 151.435 172.018 152.413L170.456 155.491C170.047 156.299 169.575 157.362 168.54 157.465C168.33 157.488 168.118 157.448 167.93 157.35C167.743 157.253 167.589 157.102 167.487 156.916C167.256 156.524 167.175 156.056 167.082 155.612C166.852 154.527 166.685 153.429 166.56 152.328C166.309 150.129 166.223 147.917 166.113 145.708C166.003 143.5 165.903 141.291 165.55 139.112C165.505 138.84 165.449 138.569 165.39 138.3C165.379 138.25 165.294 138.261 165.303 138.312V138.315Z" fill="#FFE3C2"/>
<g opacity="0.39">
<path d="M175.998 155.447C177.67 157.062 180.096 157.381 182.295 156.908C184.879 156.352 187.323 154.953 189.543 153.567C190.164 153.178 190.788 152.784 191.372 152.336C191.82 151.988 192.468 151.505 192.551 150.905C192.575 150.727 192.418 150.58 192.244 150.67C191.932 150.83 191.714 151.122 191.454 151.352C191.193 151.586 190.918 151.804 190.632 152.007C190.028 152.435 189.397 152.83 188.763 153.213C187.404 154.05 185.992 154.796 184.535 155.449C181.969 156.572 178.605 157.165 176.303 155.144C176.098 154.964 175.801 155.254 176 155.447H175.998Z" fill="#D04719"/>
</g>
<g opacity="0.39">
<path d="M194.207 149.288C194.747 148.695 195.289 148.096 195.693 147.399C196.028 146.822 196.44 146.008 196.239 145.329C196.228 145.295 196.207 145.266 196.179 145.245C196.15 145.224 196.116 145.213 196.081 145.213C196.045 145.213 196.011 145.224 195.983 145.245C195.954 145.266 195.933 145.295 195.922 145.329C195.789 145.671 195.768 146.05 195.661 146.402C195.552 146.74 195.408 147.065 195.232 147.374C194.872 147.992 194.471 148.586 194.03 149.149C193.951 149.253 194.123 149.383 194.209 149.288H194.207Z" fill="#D04719"/>
</g>
<path d="M178.417 211.881C184.156 214.75 190.017 217.359 195.912 219.893C201.769 222.406 207.681 224.786 213.647 227.033C215.325 227.671 217.007 228.298 218.693 228.914C220.399 229.539 222.106 230.209 223.876 230.629C224.196 230.704 224.433 230.229 224.11 230.075C222.69 229.397 221.197 228.888 219.717 228.352C218.215 227.808 216.715 227.257 215.218 226.7C212.223 225.582 209.24 224.434 206.268 223.257C200.304 220.896 194.382 218.429 188.502 215.859C185.211 214.416 181.928 212.951 178.643 211.497C178.381 211.383 178.155 211.752 178.416 211.883L178.417 211.881Z" fill="#CA5303"/>
<path d="M178.858 211.804C179.32 211.443 179.583 210.803 179.742 210.255C179.928 209.61 180.054 208.881 179.926 208.217C179.905 208.109 179.767 208.137 179.734 208.217C179.494 208.801 179.473 209.455 179.305 210.061C179.144 210.629 178.857 211.079 178.576 211.588C178.472 211.776 178.704 211.924 178.858 211.804Z" fill="#CA5303"/>
<path d="M206.694 171.786C207.423 175.169 208.779 178.35 210.187 181.5C211.646 184.764 213.037 188.056 214.359 191.376C215.682 194.697 216.921 198.05 218.077 201.437C218.652 203.118 219.207 204.805 219.74 206.498C219.98 207.263 220.159 208.036 220.379 208.805C220.553 209.434 220.844 210.029 221.524 210.208C221.886 210.304 222.277 210.295 222.645 210.367C223.139 210.458 223.628 210.573 224.111 210.71C224.975 210.953 225.817 211.268 226.628 211.651C228.257 212.423 229.639 213.51 231.086 214.565C231.451 214.832 231.768 214.285 231.532 213.987C230.567 212.775 229.211 211.872 227.856 211.147C226.455 210.396 224.956 209.844 223.402 209.507C223.03 209.423 222.654 209.359 222.276 209.315C221.977 209.284 221.68 209.315 221.51 209.029C221.166 208.453 221.122 207.643 220.923 207.006C220.401 205.322 219.851 203.645 219.275 201.975C217.005 195.336 214.448 188.776 211.524 182.399C209.912 178.886 208.214 175.386 207.1 171.676C207.022 171.415 206.641 171.524 206.697 171.786H206.694Z" fill="#CA5303"/>
<path d="M184.076 201.786C188.845 202.852 193.597 203.949 198.311 205.234C202.868 206.476 207.386 207.895 212.01 208.872C214.584 209.416 217.203 209.77 219.837 209.703C219.917 209.703 219.943 209.568 219.857 209.556C215.202 208.916 210.64 207.903 206.115 206.645C201.491 205.365 196.893 204.057 192.201 203.037C189.529 202.457 186.846 201.947 184.14 201.559C183.993 201.537 183.923 201.755 184.076 201.789V201.786Z" fill="#CA5303"/>
<path d="M228.666 214.398C229.332 215.072 229.922 215.816 230.427 216.618C230.662 216.988 230.891 217.361 231.094 217.748C231.308 218.154 231.451 218.631 231.745 218.984C231.925 219.199 232.355 219.03 232.322 218.745C232.277 218.298 232.025 217.888 231.815 217.497C231.576 217.044 231.304 216.61 231.002 216.197C230.418 215.412 229.75 214.694 229.01 214.053C228.776 213.849 228.443 214.172 228.662 214.401L228.666 214.398Z" fill="#CA5303"/>
<path d="M167.88 113.407C169.08 112.9 170.629 113.784 171.625 114.414C172.715 115.103 173.651 116.011 174.482 116.99C175.377 118.043 176.141 119.199 176.921 120.339C177.317 120.92 177.712 121.503 178.13 122.069C178.515 122.59 178.97 123.226 179.541 123.557C179.743 123.674 180.064 123.477 179.965 123.232C179.704 122.553 179.161 121.943 178.731 121.357C178.268 120.727 177.824 120.083 177.375 119.444C176.527 118.236 175.648 117.036 174.624 115.966C173.681 114.983 172.604 114.093 171.38 113.479C170.292 112.933 168.826 112.443 167.666 113.039C167.415 113.168 167.635 113.512 167.882 113.408L167.88 113.407Z" fill="#230000"/>
<path d="M177.589 116.102C178.623 117.717 179.853 119.153 181.356 120.348C182.079 120.924 182.844 121.445 183.645 121.905C184.445 122.363 185.335 122.801 186.258 122.884C186.432 122.9 186.451 122.67 186.339 122.587C185.626 122.066 184.788 121.712 184.011 121.283C183.213 120.843 182.452 120.34 181.733 119.78C180.316 118.673 179.007 117.353 177.976 115.878C177.814 115.645 177.433 115.858 177.59 116.103L177.589 116.102Z" fill="#230000"/>
<path d="M263.173 228.232H85.9526V234H263.173V228.232Z" fill="#E6560F"/>
<path d="M205.726 223.778H134.845V228.232H205.726V223.778Z" fill="#3D9BA8"/>
<path d="M167.157 228.232H111.208L78.521 178.855H134.47L167.157 228.232Z" fill="#78C1D0"/>
<path d="M164.139 228.231H108.19L100.839 217.126L75.5039 178.855H131.453L164.139 228.231Z" fill="#003347"/>
<path d="M116.69 206.205C120.36 206.205 123.336 205.013 123.336 203.544C123.336 202.074 120.36 200.883 116.69 200.883C113.019 200.883 110.043 202.074 110.043 203.544C110.043 205.013 113.019 206.205 116.69 206.205Z" fill="#78C1D0"/>
<path opacity="0.29" d="M164.14 228.232H108.19L100.839 217.131C108.227 207.44 121.908 189.448 129.958 178.86H131.449L164.14 228.232Z" fill="#78C1D0"/>
<path d="M274.45 219.466C274.703 219.449 274.956 219.427 275.21 219.409C275.451 219.391 275.679 219.366 275.922 219.335C275.854 219.343 275.653 219.37 275.967 219.329C276.618 219.242 277.273 219.155 277.918 219.053C278.173 219.012 278.427 218.969 278.68 218.925L278.985 218.87L279.137 218.843C279.346 218.803 279.339 218.805 279.116 218.849C279.167 218.783 279.781 218.836 279.858 218.833C280.27 218.815 280.679 218.751 281.077 218.643C283.138 218.136 285.177 217.499 287.185 216.817C288.312 216.431 289.417 215.934 290.511 215.466C291.508 215.039 292.509 214.604 293.472 214.107C295.31 213.159 297.11 212.139 298.871 211.05C305.264 207.101 311.149 202.386 316.394 197.01C321.629 191.63 326.216 185.657 330.061 179.212C331.945 176.067 333.645 172.815 335.151 169.473C336.756 165.908 338.209 162.274 339.344 158.535C340.398 155.072 341.244 151.548 341.878 147.984C342.251 145.881 342.549 143.764 342.795 141.642C342.899 140.741 342.887 139.846 342.924 138.941C342.96 138.016 342.982 137.091 342.99 136.165C342.995 135.469 343.05 134.681 342.839 134.023C342.561 133.2 342.122 132.44 341.549 131.787L342.324 133.114C342.237 132.745 342.075 132.386 341.942 132.031C341.553 130.988 340.643 130.076 339.441 130.13C338.985 130.149 338.538 130.27 338.135 130.483C337.51 130.813 337.19 131.411 336.942 132.031C336.8 132.388 336.624 132.744 336.519 133.114L337.293 131.787C336.975 132.118 336.736 132.495 336.49 132.875C336.036 133.581 335.867 134.267 335.781 135.106C335.728 135.613 335.694 136.121 335.64 136.628C335.537 137.665 335.378 138.696 335.281 139.733L335.417 138.723C334.999 140.233 334.961 141.865 334.755 143.419L334.894 142.381C334.003 148.997 332.333 155.466 330.115 161.759C329.484 163.548 328.799 165.316 328.06 167.063L328.44 166.166C325.959 172.035 322.896 177.642 319.295 182.902C318.272 184.394 317.207 185.856 316.099 187.288L316.631 186.601C312.894 191.422 308.732 195.905 304.129 199.915C302.832 201.044 301.503 202.134 300.142 203.186L300.741 202.724C297.745 205.041 294.598 207.156 291.32 209.055C289.538 210.084 287.756 211.11 285.912 212.025C284.994 212.481 284.099 212.963 283.159 213.374C282.951 213.466 282.742 213.571 282.527 213.647C283.148 213.429 282.353 213.716 282.208 213.777C281.682 213.989 281.153 214.193 280.622 214.39C279.975 214.629 279.304 214.815 278.714 215.173C278.627 215.225 278.54 215.273 278.453 215.322L278.192 215.469C278.366 215.406 278.392 215.395 278.269 215.437C277.999 215.517 277.733 215.61 277.464 215.697C276.341 216.054 275.2 216.367 274.067 216.669C273.737 216.763 273.451 216.973 273.263 217.261C273.075 217.548 272.997 217.894 273.044 218.234C273.131 218.892 273.736 219.519 274.448 219.47L274.45 219.466Z" fill="#FFE3C2"/>
<path d="M329.234 88.2058C329.851 89.2858 330.431 90.3853 330.975 91.5041C331.041 91.638 331.106 91.7728 331.17 91.9084C331.184 91.9389 331.387 92.391 331.246 92.0641C331.403 92.4249 331.538 92.7954 331.701 93.1528C331.969 93.7441 332.253 94.3275 332.513 94.9223C332.574 95.0588 332.633 95.1971 332.693 95.3345C332.895 95.7988 332.545 94.9701 332.735 95.4336C332.847 95.7075 332.959 95.9814 333.069 96.2562C333.289 96.8084 333.515 97.3571 333.73 97.9084C334.181 99.0637 334.593 100.234 334.964 101.418C335.693 103.744 336.285 106.111 336.737 108.507C336.848 109.094 336.95 109.682 337.043 110.273C337.089 110.567 337.13 110.863 337.174 111.16C337.252 111.692 337.105 110.598 337.174 111.131C337.199 111.328 337.224 111.525 337.248 111.722C337.388 112.905 337.489 114.091 337.552 115.282C337.618 116.524 337.714 117.765 337.76 119.008C337.782 119.604 337.795 120.2 337.798 120.797C337.798 121.232 337.758 121.704 337.876 122.132C338.05 122.767 338.489 123.385 339.063 123.713C340.123 124.322 341.282 123.73 341.862 122.773C342.333 121.997 342.293 120.947 342.345 120.052C342.418 118.817 342.487 117.561 342.432 116.325C342.314 113.742 341.927 111.139 341.431 108.604C340.965 106.211 340.328 103.855 339.523 101.554C338.577 98.8588 337.463 96.2032 336.07 93.7084C334.678 91.2136 332.985 88.9154 331.171 86.7137C330.787 86.2467 329.994 86.2693 329.556 86.618C329.321 86.7998 329.159 87.0602 329.101 87.3514C329.042 87.6426 329.091 87.945 329.238 88.2032L329.234 88.2058Z" fill="#FFE3C2"/>
<path d="M40.2236 172.804C40.2294 173.026 40.2195 173.248 40.194 173.469C40.1572 173.882 40.1892 174.298 40.2889 174.701C40.4039 175.152 40.5432 175.599 40.6791 176.045C40.9456 176.914 41.2121 177.784 41.5552 178.625C42.3251 180.519 43.1646 182.383 44.12 184.191C45.955 187.669 48.2654 190.857 50.818 193.843C55.7264 199.582 61.8914 204.364 68.6391 207.766C70.6988 208.803 72.8194 209.733 75.0115 210.442C75.9825 210.763 76.9711 211.029 77.9725 211.238C78.495 211.344 79.0228 211.446 79.5514 211.529C80.3082 211.649 80.9196 211.673 81.6677 211.464C82.0756 211.346 82.4613 211.163 82.8094 210.92C83.9416 210.149 84.357 208.799 83.6925 207.556C83.4794 207.135 83.1928 206.754 82.846 206.433C82.5948 206.2 82.3241 205.989 82.037 205.803C81.7339 205.617 81.2845 205.483 80.9257 205.349C80.3242 205.121 79.7271 204.882 79.1343 204.632L79.9372 204.97C78.7633 204.474 77.5693 204.03 76.3944 203.536L77.2314 203.883C76.2446 203.465 75.2623 203.037 74.2703 202.622L75.1203 202.98C70.7231 201.11 66.5824 198.689 62.798 195.774L63.5061 196.319C59.481 193.222 55.8648 189.628 52.7436 185.624L53.2661 186.296C51.9006 184.528 50.602 182.69 49.4072 180.803C48.2123 178.916 47.1847 176.942 46.1509 174.968C45.8574 174.407 45.5813 173.838 45.3122 173.264C45.1032 172.818 44.9256 172.431 44.5911 172.046C44.4901 171.932 44.3769 171.824 44.2733 171.711C44.1452 171.57 43.897 171.174 44.2393 171.705C43.7403 170.93 42.7353 170.417 41.8069 170.717C40.9508 170.993 40.1522 171.829 40.2254 172.791L40.2236 172.804Z" fill="#FFE3C2"/>
<path d="M275.179 206.062C271.647 189.306 271.567 172.007 274.944 155.218C277.593 142.097 282.769 128.806 293.086 120.262C294.936 118.73 297.016 117.333 299.388 116.958C301.761 116.582 304.472 117.46 305.624 119.566C306.234 120.682 306.35 121.993 306.408 123.263C306.773 131.2 305.39 139.12 302.356 146.466L275.179 206.062Z" fill="#13A497"/>
<path d="M301.034 169.044C302.028 165.029 304.206 161.441 306.278 157.902C308.168 154.676 310.15 151.127 313.453 149.227C314.181 148.794 314.972 148.477 315.798 148.287C316.163 148.19 316.538 148.136 316.915 148.124C317.028 148.117 317.141 148.117 317.253 148.124C317.111 148.11 317.318 148.137 317.333 148.14C317.548 148.193 317.46 148.184 317.397 148.146C317.441 148.172 317.468 148.233 317.512 148.328C317.587 148.502 317.686 149.038 317.698 149.24C317.742 149.717 317.734 150.198 317.674 150.673C317.536 151.516 317.262 152.332 316.864 153.088C315.128 156.353 311.638 158.348 308.604 160.334C306.81 161.509 305.026 162.694 303.336 164.016C302.521 164.645 301.751 165.329 301.032 166.065C300.675 166.434 300.329 166.816 300.001 167.211C299.608 167.685 299.445 168.234 299.158 168.762C298.681 169.632 299.817 170.549 300.547 169.833C300.895 169.493 301.315 169.303 301.657 168.963C302.022 168.601 302.366 168.221 302.741 167.869C303.455 167.198 304.204 166.555 304.968 165.941C306.362 164.823 308.091 163.671 309.689 162.61C313.086 160.356 317.012 158.041 318.962 154.312C319.974 152.376 320.455 150.076 319.877 147.932C319.529 146.636 318.61 145.821 317.253 145.752C316.255 145.701 315.179 145.95 314.244 146.287C310.095 147.785 307.501 151.385 305.425 155.081C303.016 159.373 300.613 163.784 299.738 168.684C299.589 169.52 300.823 169.892 301.034 169.04V169.044Z" fill="#56CBB8"/>
<path d="M311.223 141.978C311.598 138.146 313.447 134.538 316.286 131.942C316.628 131.629 316.982 131.326 317.354 131.049C317.513 130.922 317.681 130.808 317.858 130.709C317.97 130.651 318.173 130.545 318.233 130.602C318.375 130.735 317.927 130.494 317.96 130.482C317.886 130.51 317.953 130.339 317.933 130.608C317.917 130.821 317.954 131.051 317.957 131.265C317.962 131.748 317.941 132.231 317.894 132.712C317.704 134.506 317.155 136.242 316.28 137.82C315.799 138.706 315.216 139.534 314.544 140.286C314.176 140.695 313.774 141.069 313.391 141.459C312.999 141.865 312.656 142.317 312.372 142.804C312.055 143.326 312.576 143.886 313.117 143.774C313.679 143.657 314.15 143.493 314.612 143.146C315.103 142.774 315.557 142.353 315.965 141.891C316.717 141.056 317.375 140.141 317.93 139.164C319.049 137.185 319.71 134.98 319.864 132.712C319.897 132.231 319.904 131.748 319.885 131.265C319.858 130.593 319.868 129.8 319.398 129.265C318.486 128.23 317.11 128.904 316.251 129.619C314.538 131.06 313.125 132.823 312.093 134.809C310.928 137.03 310.25 139.473 310.103 141.977C310.062 142.703 311.154 142.681 311.223 141.977V141.978Z" fill="#56CBB8"/>
<path d="M296.352 179.205C302.459 173.839 309.571 168.829 317.693 168.373C319.506 168.273 321.362 168.411 323.055 169.069C324.748 169.727 326.271 170.941 327.038 172.586C327.92 174.477 327.72 176.717 327.049 178.692C326.389 180.627 325.31 182.393 323.888 183.865C321.313 186.526 317.802 188.038 314.361 189.418C304.766 193.254 294.933 196.527 285.592 200.973C283.228 202.098 280.899 203.297 278.625 204.594C277.979 204.963 276.355 206.372 275.604 206.008C274.493 205.47 275.77 203.931 276.137 203.278C278.556 198.979 281.419 194.938 284.585 191.155C288.176 186.86 292.15 182.897 296.352 179.205Z" fill="#56CBB8"/>
<path d="M276.22 204.905C281.505 199.593 287.042 194.526 293.004 189.977C298.96 185.44 305.272 181.388 311.877 177.86C313.744 176.861 315.633 175.905 317.544 174.99C318.477 174.543 319.415 174.107 320.358 173.681C321.341 173.237 322.355 172.841 323.275 172.274C323.768 171.973 323.45 171.196 322.882 171.342C321.949 171.582 321.071 171.99 320.194 172.386C319.34 172.77 318.49 173.161 317.644 173.561C315.931 174.373 314.235 175.221 312.557 176.106C309.227 177.868 305.973 179.765 302.796 181.798C296.431 185.873 290.423 190.479 284.837 195.566C281.694 198.406 278.722 201.431 275.939 204.624C275.773 204.815 276.038 205.089 276.22 204.905Z" fill="white"/>
<g opacity="0.52">
<path d="M276.416 200.822C276.335 194.828 277.026 188.836 278.144 182.952C279.271 177.018 280.87 171.184 282.693 165.429C284.483 159.777 286.47 154.18 288.495 148.606C290.401 143.36 292.41 138.145 294.795 133.095C297.175 128.059 299.934 123.182 303.274 118.717C303.683 118.172 304.034 117.587 304.4 117.012C304.697 116.547 304.023 116.035 303.639 116.426C301.678 118.426 300.149 120.855 298.686 123.23C297.223 125.605 295.89 128.053 294.658 130.552C292.153 135.628 290.058 140.899 288.107 146.204C286.064 151.769 284.101 157.361 282.313 163.009C280.478 168.796 278.842 174.654 277.654 180.61C276.473 186.523 275.798 192.488 275.75 198.522C275.744 199.289 275.749 200.056 275.766 200.822C275.774 201.239 276.422 201.241 276.416 200.822V200.822Z" fill="white"/>
</g>
<g opacity="0.52">
<path d="M278.163 186.514C280.748 182.39 283.867 178.601 287.623 175.49C288.164 175.042 288.718 174.61 289.278 174.186C289.791 173.799 290.415 173.418 290.789 172.888C290.969 172.633 290.673 172.328 290.407 172.391C289.836 172.528 289.302 172.949 288.839 173.29C288.34 173.655 287.852 174.036 287.374 174.427C286.407 175.217 285.478 176.051 284.587 176.93C282.839 178.664 281.262 180.564 279.88 182.602C279.087 183.775 278.379 185.004 277.761 186.278C277.631 186.544 278.002 186.768 278.162 186.512L278.163 186.514Z" fill="white"/>
</g>
<g opacity="0.52">
<path d="M282.564 168.675C286.598 164.151 291.154 160.119 296.135 156.662C296.843 156.168 297.56 155.686 298.285 155.218C298.627 154.997 298.962 154.767 299.299 154.539C299.636 154.311 300.025 154.123 300.232 153.756C300.255 153.715 300.267 153.668 300.267 153.621C300.267 153.573 300.255 153.526 300.231 153.485C300.207 153.444 300.173 153.41 300.132 153.385C300.091 153.361 300.044 153.348 299.997 153.348C299.64 153.362 299.38 153.534 299.077 153.707C298.747 153.895 298.414 154.082 298.093 154.285C297.449 154.692 296.818 155.12 296.191 155.552C294.925 156.422 293.689 157.331 292.483 158.281C290.07 160.182 287.775 162.228 285.61 164.406C284.391 165.63 283.215 166.894 282.083 168.196C281.799 168.522 282.271 169.001 282.561 168.674L282.564 168.675Z" fill="white"/>
</g>
<g opacity="0.52">
<path d="M286.678 152.789C290.992 148.668 295.824 145.126 301.053 142.25C301.779 141.851 302.518 141.478 303.249 141.092C303.997 140.697 304.792 140.354 305.489 139.875C305.796 139.664 305.616 139.156 305.228 139.257C304.516 139.444 303.851 139.784 303.187 140.096C302.505 140.416 301.84 140.767 301.184 141.127C299.842 141.86 298.526 142.639 297.237 143.464C294.692 145.089 292.273 146.901 289.998 148.885C288.715 150.007 287.479 151.178 286.288 152.397C286.037 152.658 286.423 153.038 286.682 152.79L286.678 152.789Z" fill="white"/>
</g>
<g opacity="0.52">
<path d="M293.161 135.796C295.06 133.752 297.141 131.883 299.377 130.212C300.477 129.392 301.613 128.622 302.784 127.902C303.381 127.537 303.984 127.182 304.594 126.84C305.189 126.508 305.797 126.2 306.33 125.774C306.621 125.543 306.304 125.086 305.982 125.176C304.685 125.539 303.456 126.412 302.335 127.135C301.149 127.896 300.002 128.716 298.889 129.582C296.664 131.319 294.608 133.261 292.748 135.384C292.502 135.664 292.904 136.073 293.161 135.796Z" fill="white"/>
</g>
<g opacity="0.52">
<path d="M287.395 129.474C288.3 131.095 288.989 132.826 289.445 134.625C289.671 135.497 289.852 136.379 289.985 137.269C290.113 138.164 290.072 139.141 290.32 140.01C290.397 140.288 290.842 140.313 290.908 140.01C291.092 139.141 290.908 138.159 290.766 137.293C290.618 136.328 290.398 135.375 290.108 134.442C289.531 132.63 288.735 130.894 287.738 129.273C287.712 129.228 287.668 129.195 287.617 129.181C287.566 129.168 287.512 129.175 287.466 129.202C287.421 129.229 287.388 129.272 287.374 129.323C287.361 129.374 287.369 129.428 287.395 129.474Z" fill="white"/>
</g>
<g opacity="0.52">
<path d="M279.104 141.557C279.084 141.905 279.252 142.248 279.36 142.579C279.479 142.941 279.612 143.299 279.742 143.659C280.001 144.379 280.256 145.1 280.506 145.824C280.993 147.245 281.458 148.675 281.874 150.118C282.293 151.554 282.639 153.01 282.91 154.48C283.047 155.236 283.159 155.996 283.243 156.759C283.321 157.471 283.369 158.194 283.654 158.857C283.761 159.104 284.118 159.001 284.188 158.787C284.417 158.085 284.332 157.321 284.247 156.598C284.16 155.853 284.045 155.111 283.909 154.373C283.623 152.851 283.256 151.345 282.811 149.861C282.376 148.392 281.875 146.945 281.338 145.513C281.07 144.795 280.794 144.079 280.515 143.365C280.383 143.026 280.254 142.688 280.109 142.355C279.963 142.022 279.853 141.623 279.59 141.359C279.55 141.32 279.499 141.294 279.444 141.284C279.389 141.274 279.333 141.28 279.281 141.301C279.23 141.323 279.185 141.358 279.154 141.404C279.122 141.45 279.105 141.505 279.104 141.56V141.557Z" fill="white"/>
</g>
<g opacity="0.52">
<path d="M274.124 163.664C276.171 166.642 277.431 170.088 277.787 173.683C277.841 174.247 277.874 174.813 277.908 175.379C277.944 175.976 277.908 176.581 278.008 177.17C278.064 177.499 278.571 177.471 278.647 177.17C278.799 176.57 278.76 175.921 278.746 175.305C278.727 174.726 278.673 174.148 278.587 173.575C278.416 172.353 278.142 171.149 277.768 169.973C277.033 167.637 275.922 165.436 274.479 163.457C274.326 163.247 273.973 163.443 274.124 163.664Z" fill="white"/>
</g>
<path d="M295.806 187.391C298.145 185.088 300.303 182.609 302.402 180.087C303.443 178.835 304.47 177.571 305.482 176.297C305.996 175.648 306.507 174.996 307.014 174.342C307.241 174.05 307.469 173.758 307.686 173.459C307.927 173.131 308.23 172.801 308.337 172.403C308.354 172.336 308.35 172.265 308.327 172.2C308.305 172.135 308.263 172.078 308.209 172.036C308.154 171.994 308.088 171.968 308.019 171.963C307.95 171.958 307.881 171.972 307.821 172.005C307.465 172.218 307.231 172.594 306.977 172.912C306.745 173.201 306.522 173.496 306.296 173.789C305.781 174.458 305.261 175.124 304.738 175.789C303.744 177.044 302.736 178.289 301.716 179.521C299.635 182.033 297.495 184.494 295.43 187.018C295.219 187.279 295.558 187.638 295.806 187.393V187.391Z" fill="white"/>
<path d="M309.875 177.158C311.424 175.803 312.97 174.448 314.491 173.066L316.745 171.025C317.11 170.696 317.476 170.366 317.839 170.034C318.202 169.702 318.695 169.338 318.895 168.876C319.008 168.616 318.818 168.238 318.49 168.355C318.055 168.505 317.69 168.876 317.358 169.188C316.976 169.541 316.598 169.9 316.219 170.256L313.944 172.399C312.427 173.827 310.934 175.276 309.443 176.731C309.159 177.008 309.581 177.418 309.878 177.166L309.875 177.158Z" fill="white"/>
<path d="M291.868 191.814C294.671 190.992 297.547 190.439 300.438 190.029C303.335 189.619 306.258 189.414 309.184 189.415C309.982 189.415 310.779 189.441 311.578 189.462C312.412 189.483 313.253 189.544 314.073 189.37C314.483 189.283 314.404 188.739 314.073 188.616C313.384 188.355 312.638 188.319 311.908 188.277C311.178 188.234 310.422 188.229 309.679 188.231C308.193 188.234 306.708 188.292 305.224 188.405C302.308 188.631 299.37 189.072 296.537 189.804C294.912 190.223 293.299 190.699 291.706 191.223C291.335 191.345 291.488 191.919 291.868 191.811V191.814Z" fill="white"/>
<path d="M307.108 181.853C309.872 181.745 312.657 182.114 315.401 182.398L319.513 182.828C320.197 182.9 320.883 182.967 321.568 183.034C322.239 183.099 323.083 183.323 323.731 183.092C324.051 182.979 324.143 182.539 323.828 182.354C323.257 182.017 322.47 182.065 321.825 182.006C321.112 181.941 320.399 181.874 319.684 181.814L315.488 181.458C312.683 181.221 309.914 181.034 307.108 181.337C306.785 181.372 306.768 181.867 307.108 181.854V181.853Z" fill="white"/>
<path d="M318.662 175.077C319.931 175.006 321.204 175.084 322.455 175.31C323.075 175.418 323.687 175.565 324.288 175.75C324.828 175.916 325.476 176.308 326.043 176.177C326.318 176.113 326.478 175.742 326.316 175.505C325.968 174.983 325.155 174.86 324.575 174.713C323.92 174.549 323.256 174.427 322.586 174.348C321.254 174.187 319.903 174.275 318.579 174.492C318.249 174.546 318.324 175.1 318.659 175.077H318.662Z" fill="white"/>
<path d="M271.179 90.636L271.159 90.5621L270.919 92.3986C271.223 91.9656 271.385 91.4491 271.382 90.9203L271.287 90.2134C271.075 89.5583 270.643 88.9966 270.063 88.6238L269.426 88.356C269.083 88.2453 268.716 88.2288 268.365 88.3082C268.012 88.324 267.671 88.4329 267.375 88.6238L266.835 89.0395C266.359 89.5539 266.081 90.2205 266.052 90.9203L266.147 91.6273C266.359 92.2824 266.791 92.844 267.371 93.2168C267.827 93.4576 268.336 93.5828 268.852 93.5812L267.163 92.8855L267.21 92.9429L267.69 93.3134C267.953 93.4839 268.257 93.5809 268.571 93.5942C268.777 93.6507 268.995 93.6507 269.201 93.5942C269.514 93.5809 269.819 93.4839 270.082 93.3134C270.423 93.0943 270.714 92.8046 270.933 92.4638C271.264 91.9516 271.319 91.216 271.172 90.6377L271.179 90.636Z" fill="white"/>
<path d="M305.525 104.577C306.522 104.577 306.524 103.029 305.525 103.029C304.526 103.029 304.526 104.577 305.525 104.577Z" fill="white"/>
<path d="M299.203 85.9443C299.988 85.9339 300.739 85.6226 301.301 85.0747C301.831 84.5017 302.139 83.7592 302.172 82.98C302.138 82.2139 301.885 81.4191 301.301 80.8852C300.716 80.3513 300.007 80.0156 299.203 80.0156C298.418 80.0261 297.667 80.3374 297.105 80.8852C296.575 81.4584 296.267 82.2008 296.234 82.98C296.269 83.746 296.52 84.5452 297.105 85.0747C297.689 85.6043 298.399 85.9443 299.203 85.9443Z" fill="white"/>
<path d="M317.181 120.45C318.027 120.45 318.836 119.708 318.798 118.836C318.761 117.965 318.088 117.222 317.181 117.222C316.335 117.222 315.526 117.964 315.565 118.836C315.603 119.709 316.274 120.45 317.181 120.45Z" fill="white"/>
<path d="M130.496 173.304C131.127 173.288 131.727 173.03 132.173 172.584C132.62 172.139 132.878 171.539 132.894 170.91L132.807 170.273C132.697 169.873 132.484 169.509 132.19 169.216L131.705 168.843C131.338 168.628 130.92 168.515 130.494 168.516C129.864 168.533 129.264 168.79 128.818 169.236C128.372 169.681 128.114 170.28 128.097 170.91L128.184 171.547C128.294 171.946 128.507 172.31 128.8 172.603L129.285 172.977C129.653 173.192 130.07 173.305 130.496 173.304Z" fill="white"/>
<path d="M70.5412 168.298C70.5412 168.1 70.5464 167.9 70.5412 167.702C70.5555 167.484 70.5073 167.267 70.4022 167.076C70.2971 166.885 70.1396 166.728 69.9481 166.623C69.8107 166.539 69.6526 166.494 69.4913 166.494C69.33 166.494 69.1719 166.539 69.0345 166.623C68.843 166.728 68.6855 166.885 68.5804 167.076C68.4753 167.267 68.4271 167.484 68.4414 167.702C68.4362 167.9 68.4414 168.1 68.4414 168.298C68.4414 168.847 68.9239 169.372 69.4909 169.347C70.0578 169.322 70.5412 168.886 70.5412 168.298Z" fill="white"/>
</svg>
