<svg width="381" height="268" viewBox="0 0 381 268" fill="none" xmlns="http://www.w3.org/2000/svg">
<rect width="381" height="268" rx="12" fill="white"/>
<g clip-path="url(#clip0_297_14971)">
<path d="M218.555 188.452H160.14C154.422 188.452 150.098 183.286 151.116 177.675L176.539 37.5404C176.922 35.431 178.035 33.5226 179.685 32.1484C181.334 30.7743 183.415 30.0215 185.564 30.0215H243.975C249.694 30.0215 254.018 35.1872 253 40.7988L227.579 180.932C227.197 183.042 226.084 184.95 224.434 186.325C222.785 187.699 220.704 188.452 218.555 188.452Z" fill="#1F2E5C"/>
<path d="M214.129 182.288H159.9C155.316 182.288 151.866 178.122 152.732 173.632L178.664 39.0259C178.985 37.3636 179.875 35.8646 181.184 34.7865C182.492 33.7084 184.136 33.1187 185.833 33.1187H240.063C244.647 33.1187 248.096 37.2839 247.231 41.774L221.298 176.38C220.978 178.043 220.087 179.542 218.779 180.62C217.47 181.698 215.826 182.288 214.129 182.288Z" fill="white"/>
<path opacity="0.2" d="M200.84 38.8244C200.852 39.0698 200.79 39.3133 200.664 39.5239C200.537 39.7345 200.35 39.9029 200.127 40.0077C199.904 40.1125 199.655 40.1491 199.412 40.1127C199.168 40.0764 198.941 39.9688 198.758 39.8036C198.576 39.6384 198.447 39.423 198.387 39.1845C198.328 38.9461 198.34 38.6954 198.423 38.4641C198.507 38.2328 198.657 38.0313 198.855 37.885C199.053 37.7388 199.29 37.6544 199.536 37.6426C199.699 37.6346 199.863 37.6589 200.017 37.714C200.171 37.7691 200.312 37.854 200.434 37.9637C200.555 38.0735 200.653 38.206 200.723 38.3537C200.792 38.5014 200.832 38.6613 200.84 38.8244Z" fill="black"/>
<g opacity="0.2">
<path d="M221.217 39.4682L202.95 39.8275C202.752 39.8313 202.561 39.7569 202.419 39.6204C202.277 39.484 202.195 39.2968 202.191 39.1C202.187 38.9031 202.262 38.7128 202.398 38.5709C202.535 38.429 202.723 38.3471 202.92 38.3432L221.19 37.9845C221.288 37.9806 221.387 37.9964 221.48 38.031C221.572 38.0656 221.657 38.1183 221.729 38.186C221.801 38.2537 221.859 38.335 221.899 38.4252C221.939 38.5154 221.961 38.6127 221.963 38.7114C221.965 38.81 221.947 38.9081 221.91 38.9998C221.874 39.0915 221.819 39.1751 221.75 39.2456C221.681 39.316 221.598 39.372 221.507 39.4102C221.416 39.4484 221.318 39.4681 221.219 39.4682H221.217Z" fill="#CC423B"/>
</g>
<path d="M136.898 67.1904C139.067 66.7031 141.506 67.2983 143.241 68.7728C144.417 69.7732 145.301 71.1002 145.818 72.55C148.369 79.6878 149.002 83.3193 144.988 84.0786C141.386 84.7605 136.338 80.5775 134.164 78.1869C132.005 75.8107 131.371 71.9933 133.436 69.3479C134.34 68.1954 135.571 67.4888 136.898 67.1904Z" fill="#FFA89E"/>
<path d="M138.132 77.7861C139.034 77.8613 140.385 78.9111 140.146 77.1059C139.869 75.0351 138.765 73.3752 142.845 71.9977C146.926 70.6202 148.936 67.2338 142.569 64.473C136.201 61.7123 136.063 66.9583 132.88 67.3032C129.696 67.6482 122.842 69.8597 127.617 76.5538C132.392 83.2479 135.368 85.8732 137.514 84.2856C138.722 83.3903 137.927 81.5639 137.576 80.4349C137.377 79.7961 136.92 78.2372 137.741 77.8418C137.864 77.7887 137.999 77.7695 138.132 77.7861Z" fill="#37202C"/>
<path d="M132.877 67.3027C129.693 67.6471 122.842 69.8574 127.617 76.5538C132.392 83.2503 135.368 85.8733 137.514 84.2857C138.463 83.5832 138.177 82.3084 137.84 81.2437C135.645 80.6938 131.971 73.1652 135.415 71.4197C139.682 69.2553 139.925 65.3931 139.788 63.6942C136.064 63.3785 135.513 67.0174 132.877 67.3027Z" fill="#281520"/>
<path d="M135.299 79.4534C135.299 79.4534 135.922 86.1498 134.815 89.1872C134.815 89.1872 139.936 92.1558 143.05 92.363C143.05 92.363 143.05 85.4593 144.642 82.7669C144.642 82.7669 141.043 77.1059 135.299 79.4534Z" fill="#FFA89E"/>
<path d="M134.815 89.1875C134.815 89.1875 134.93 89.2547 135.134 89.3677C136.654 89.1892 138.967 88.819 139.982 87.2544C141.605 84.7531 144.044 84.1768 144.039 84.1952C144.039 84.1889 144.042 84.1831 144.044 84.1768C143.283 83.9019 138.944 83.9409 136.532 79.064C136.111 79.16 135.699 79.2903 135.299 79.4537C135.299 79.4537 135.922 86.1501 134.815 89.1875Z" fill="#FF867F"/>
<path d="M139.742 79.3704C139.647 77.6244 138.586 75.4255 136.923 75.4594C134.477 75.5082 133.538 79.5345 137.441 81.1806C138.995 81.8372 139.812 80.6629 139.742 79.3704Z" fill="#FFA89E"/>
<path d="M138.036 79.6895C138.011 79.6894 137.986 79.6852 137.963 79.6768C137.543 79.5288 137.249 79.271 137.09 78.91C136.766 78.1719 137.143 77.2771 137.159 77.2392C137.184 77.1883 137.227 77.1487 137.281 77.1288C137.334 77.1089 137.392 77.1102 137.445 77.1323C137.497 77.1544 137.539 77.1958 137.561 77.2477C137.584 77.2997 137.585 77.3583 137.566 77.4114C137.563 77.4189 137.248 78.1719 137.496 78.7315C137.605 78.9789 137.806 79.1511 138.11 79.2578C138.159 79.2749 138.201 79.3089 138.228 79.3539C138.255 79.3989 138.264 79.4519 138.256 79.5034C138.247 79.5549 138.22 79.6017 138.18 79.6352C138.139 79.6688 138.089 79.687 138.036 79.6866V79.6895Z" fill="#E66E6E"/>
<path d="M137.218 78.7178C137.204 78.7176 137.19 78.7162 137.176 78.7138C136.359 78.5571 136.107 77.9728 136.097 77.9481C136.085 77.9215 136.079 77.8928 136.079 77.8639C136.079 77.835 136.084 77.8063 136.095 77.7794C136.106 77.7526 136.122 77.7281 136.142 77.7075C136.163 77.6869 136.187 77.6704 136.214 77.6591C136.24 77.6478 136.269 77.6419 136.298 77.6416C136.327 77.6414 136.356 77.6468 136.383 77.6577C136.41 77.6685 136.434 77.6845 136.455 77.7048C136.476 77.7251 136.492 77.7493 136.503 77.7759C136.513 77.796 136.688 78.1708 137.259 78.2799C137.314 78.2896 137.363 78.3194 137.396 78.3634C137.43 78.4075 137.446 78.4625 137.441 78.5176C137.435 78.5726 137.41 78.6237 137.368 78.6607C137.327 78.6977 137.273 78.7179 137.218 78.7172V78.7178Z" fill="#E66E6E"/>
<path d="M142.36 75.0967C142.295 75.0963 142.231 75.0817 142.173 75.0541C142.114 75.0264 142.062 74.9863 142.021 74.9365C141.979 74.8868 141.949 74.8286 141.933 74.766C141.916 74.7035 141.914 74.638 141.925 74.5744C142.063 73.8431 142.406 73.3272 142.946 73.0396C143.975 72.4909 145.314 73.0522 145.371 73.0763C145.475 73.1246 145.556 73.2112 145.597 73.3179C145.639 73.4246 145.636 73.543 145.592 73.6483C145.547 73.7535 145.463 73.8372 145.357 73.8818C145.252 73.9264 145.133 73.9284 145.026 73.8873C144.747 73.7725 143.904 73.528 143.362 73.819C143.067 73.9769 142.883 74.2782 142.796 74.7374C142.777 74.8386 142.723 74.9299 142.643 74.9955C142.564 75.0611 142.464 75.0969 142.36 75.0967Z" fill="#1A2241"/>
<path d="M145.126 75.3123C145.126 75.4421 145.088 75.5689 145.015 75.6768C144.943 75.7847 144.84 75.8688 144.72 75.9184C144.6 75.9681 144.468 75.981 144.34 75.9557C144.212 75.9303 144.095 75.8678 144.003 75.776C143.911 75.6842 143.849 75.5672 143.823 75.4399C143.798 75.3126 143.811 75.1807 143.861 75.0608C143.911 74.941 143.995 74.8386 144.104 74.7665C144.212 74.6945 144.339 74.6561 144.469 74.6563C144.555 74.6563 144.641 74.6732 144.721 74.7062C144.8 74.7392 144.873 74.7875 144.934 74.8484C144.995 74.9094 145.043 74.9817 145.076 75.0613C145.109 75.1409 145.126 75.2262 145.126 75.3123Z" fill="#1A2241"/>
<path d="M146.442 74.4136C146.718 74.758 149.21 76.83 149.002 77.5204C148.794 78.2109 147.481 78.4175 147.481 78.4175L146.442 74.4136Z" fill="#FFA89E"/>
<path d="M145.205 80.8332C145.155 80.8332 145.105 80.8332 145.054 80.8269C144.306 80.7626 143.623 80.23 143.03 79.2439C142.994 79.1837 142.983 79.1117 143 79.0436C143.017 78.9755 143.061 78.917 143.121 78.8809C143.182 78.8448 143.254 78.8341 143.322 78.8512C143.39 78.8683 143.449 78.9117 143.485 78.9719C143.985 79.8024 144.527 80.2489 145.096 80.2989C145.86 80.3677 146.443 79.7008 146.45 79.6939C146.496 79.6414 146.561 79.6092 146.63 79.6042C146.7 79.5992 146.769 79.6218 146.822 79.6672C146.875 79.7126 146.908 79.777 146.914 79.8465C146.919 79.916 146.897 79.9849 146.852 80.0383C146.821 80.0762 146.153 80.8332 145.205 80.8332Z" fill="#E66E6E"/>
<path d="M123.466 231.247C123.19 232.944 122.273 236.138 122.031 238.823C121.839 240.947 123.137 242.462 124.933 242.781C129.244 243.545 137.858 242.75 142.351 242.18C144.422 241.916 145.568 242.994 145.573 240.779C145.582 236.303 138.539 236.009 137.41 235.876C136.64 235.785 134.751 235.416 133.626 235.195C133.092 235.089 132.668 234.606 132.558 233.981L131.6 228.579C131.48 227.897 130.986 227.392 130.397 227.346L124.959 226.923C124.234 226.866 123.614 227.52 123.584 228.376C123.547 229.414 123.502 230.654 123.488 231.027C123.486 231.101 123.478 231.174 123.466 231.247Z" fill="#FFA89E"/>
<path d="M142.679 242.014C144.751 241.751 145.568 242.99 145.573 240.778C145.582 236.301 138.539 236.007 137.41 235.874C136.64 235.783 134.751 235.415 133.626 235.193C133.092 235.087 132.668 234.604 132.558 233.979L131.962 230.627L123.503 230.612C123.497 230.793 123.492 230.938 123.488 231.03C123.486 231.103 123.48 231.177 123.468 231.25C123.192 232.947 122.274 236.141 122.033 238.826C121.841 240.95 123.126 242.88 124.922 243.198C129.232 243.958 138.187 242.584 142.679 242.014Z" fill="#1A2241"/>
<path d="M123.819 232.15C125.683 232.226 129.359 232.29 131.285 231.749C131.924 231.568 132.774 231.843 133.134 232.399C133.531 233.014 134.174 233.588 135.196 233.642C137.467 233.762 145.097 234.695 146.617 236.41C147.964 237.93 148.449 242.533 144.433 243.674C144.286 243.715 144.134 243.734 143.981 243.732L124.238 243.617C123.807 243.616 123.394 243.447 123.087 243.147C122.242 242.318 120.77 240.371 121.303 237.216C121.627 235.301 121.931 234.08 122.17 233.313C122.277 232.964 122.497 232.661 122.796 232.45C123.094 232.24 123.454 232.134 123.819 232.15Z" fill="#23AA53"/>
<path d="M133.971 233.252C133.634 233.029 133.349 232.738 133.134 232.397C132.774 231.841 131.926 231.565 131.285 231.746C129.359 232.29 125.683 232.226 123.819 232.148C123.455 232.133 123.096 232.238 122.799 232.448C122.501 232.657 122.281 232.959 122.174 233.307C122.111 233.508 122.044 233.743 121.973 234.01C124.083 234.16 130.416 234.475 133.971 233.252Z" fill="#5FC37A"/>
<g opacity="0.56">
<path d="M136.291 236.169C136.237 236.174 136.184 236.159 136.141 236.126C136.098 236.093 136.07 236.046 136.061 235.993C135.884 234.918 136.96 233.649 137.006 233.595C137.043 233.552 137.095 233.526 137.151 233.521C137.207 233.517 137.262 233.535 137.305 233.571C137.348 233.607 137.374 233.659 137.379 233.715C137.383 233.771 137.365 233.826 137.328 233.869C137.318 233.881 136.334 235.043 136.479 235.925C136.488 235.98 136.475 236.036 136.443 236.081C136.411 236.127 136.362 236.158 136.307 236.167L136.291 236.169ZM138.765 236.194C138.759 235.7 139.235 234.587 139.419 234.202C139.432 234.177 139.439 234.149 139.441 234.121C139.443 234.093 139.439 234.065 139.43 234.038C139.42 234.012 139.406 233.987 139.387 233.966C139.368 233.946 139.346 233.929 139.32 233.917C139.295 233.904 139.267 233.898 139.239 233.896C139.211 233.895 139.183 233.9 139.156 233.909C139.13 233.919 139.106 233.934 139.085 233.953C139.064 233.972 139.048 233.995 139.036 234.021C139.007 234.081 138.333 235.507 138.342 236.202C138.343 236.258 138.366 236.312 138.406 236.351C138.446 236.39 138.5 236.412 138.556 236.411H138.575C138.628 236.405 138.677 236.38 138.712 236.34C138.747 236.299 138.766 236.247 138.764 236.194H138.765ZM141.078 236.705C140.977 235.737 141.643 234.654 141.65 234.643C141.678 234.595 141.687 234.539 141.674 234.485C141.661 234.431 141.627 234.385 141.58 234.355C141.533 234.326 141.477 234.316 141.422 234.328C141.368 234.34 141.321 234.373 141.291 234.419C141.26 234.468 140.543 235.634 140.658 236.749C140.664 236.805 140.691 236.856 140.735 236.891C140.779 236.927 140.835 236.943 140.89 236.938C140.946 236.932 140.998 236.904 141.033 236.861C141.069 236.817 141.085 236.761 141.079 236.705H141.078Z" fill="white"/>
</g>
<path d="M147.048 241.681C144.258 241.707 137.929 241.755 132.035 241.713C126.339 241.672 122.73 239.626 121.196 238.384C121.146 240.855 122.353 242.423 123.089 243.144C123.396 243.445 123.809 243.613 124.239 243.614L143.982 243.729C144.135 243.731 144.288 243.712 144.435 243.672C145.741 243.3 146.569 242.561 147.048 241.681Z" fill="#5FC37A"/>
<path d="M146.059 230.893C145.911 232.606 145.236 235.859 145.196 238.553C145.165 240.684 146.592 242.514 148.406 242.697C152.763 243.137 162.336 243.942 166.773 243.038C168.821 242.62 168.98 240.953 168.819 238.744C168.492 234.277 161.447 234.513 160.31 234.464C159.536 234.432 157.626 234.208 156.487 234.068C155.947 234.002 155.487 233.552 155.33 232.938L153.968 227.624C153.795 226.954 153.266 226.486 152.676 226.485L147.221 226.47C146.493 226.47 145.925 227.165 145.959 228.019C145.999 229.057 146.048 230.296 146.063 230.669C146.066 230.744 146.065 230.818 146.059 230.893Z" fill="#FFA89E"/>
<path d="M166.774 243.038C168.822 242.62 168.981 240.953 168.819 238.744C168.493 234.277 161.447 234.513 160.311 234.464C159.536 234.432 157.626 234.208 156.487 234.068C155.947 234.002 155.488 233.552 155.33 232.938L154.484 229.636L146.047 230.254C146.054 230.435 146.06 230.579 146.064 230.671C146.067 230.745 146.065 230.819 146.059 230.893C145.911 232.606 145.236 235.859 145.196 238.553C145.165 240.684 146.592 242.514 148.406 242.697C152.763 243.139 162.336 243.942 166.774 243.038Z" fill="#1A2241"/>
<path d="M146.495 231.817C148.355 231.948 152.028 232.123 153.97 231.638C154.613 231.476 155.454 231.777 155.798 232.344C156.177 232.97 156.802 233.563 157.821 233.648C160.087 233.837 167.686 234.999 169.153 236.76C170.453 238.32 170.798 242.935 166.75 243.955C166.602 243.99 166.449 244.005 166.296 243.998L146.565 243.287C146.136 243.273 145.729 243.092 145.431 242.783C144.611 241.929 143.2 239.939 143.83 236.801C144.212 234.897 144.553 233.685 144.815 232.926C144.933 232.582 145.161 232.286 145.465 232.086C145.769 231.885 146.131 231.79 146.495 231.817Z" fill="#23AA53"/>
<path d="M156.608 233.223C156.279 232.991 156.002 232.691 155.798 232.344C155.452 231.777 154.613 231.476 153.97 231.638C152.028 232.123 148.355 231.948 146.495 231.817C146.131 231.79 145.769 231.885 145.465 232.086C145.161 232.286 144.933 232.582 144.815 232.926C144.746 233.124 144.672 233.356 144.593 233.622C146.698 233.834 153.018 234.339 156.608 233.223Z" fill="#5FC37A"/>
<g opacity="0.56">
<path d="M158.839 236.21C158.785 236.213 158.732 236.197 158.69 236.163C158.648 236.129 158.621 236.08 158.614 236.026C158.47 234.946 159.584 233.71 159.631 233.658C159.67 233.619 159.722 233.596 159.777 233.594C159.831 233.593 159.885 233.612 159.926 233.649C159.966 233.686 159.991 233.737 159.995 233.791C159.998 233.846 159.98 233.9 159.945 233.942C159.935 233.953 158.916 235.086 159.034 235.971C159.041 236.026 159.026 236.083 158.992 236.127C158.958 236.172 158.907 236.201 158.852 236.208L158.839 236.21ZM161.31 236.309C161.319 235.815 161.828 234.719 162.024 234.338C162.047 234.288 162.049 234.232 162.031 234.181C162.013 234.13 161.976 234.087 161.928 234.063C161.879 234.038 161.823 234.033 161.771 234.048C161.719 234.063 161.674 234.098 161.647 234.145C161.617 234.202 160.899 235.609 160.887 236.301C160.886 236.329 160.891 236.357 160.901 236.383C160.912 236.408 160.927 236.432 160.946 236.452C160.965 236.472 160.988 236.488 161.014 236.499C161.039 236.51 161.067 236.516 161.095 236.517H161.114C161.167 236.513 161.216 236.489 161.253 236.451C161.289 236.412 161.31 236.362 161.31 236.309ZM163.606 236.89C163.534 235.919 164.233 234.856 164.239 234.845C164.27 234.799 164.282 234.742 164.271 234.687C164.259 234.632 164.227 234.583 164.18 234.552C164.133 234.521 164.076 234.51 164.021 234.521C163.966 234.532 163.918 234.564 163.886 234.611C163.854 234.659 163.099 235.803 163.182 236.921C163.186 236.977 163.212 237.029 163.255 237.066C163.297 237.103 163.353 237.121 163.409 237.117C163.465 237.113 163.517 237.086 163.554 237.044C163.59 237.002 163.609 236.946 163.605 236.89H163.606Z" fill="white"/>
</g>
<path d="M169.424 242.042C166.635 241.985 160.306 241.842 154.418 241.622C148.721 241.41 145.179 239.255 143.683 237.967C143.559 240.435 144.719 242.042 145.431 242.783C145.729 243.092 146.136 243.273 146.565 243.287L166.297 244C166.449 244.006 166.602 243.991 166.751 243.956C168.069 243.623 168.919 242.909 169.424 242.042Z" fill="#5FC37A"/>
<path d="M150.503 141.058C150.014 145.798 147.338 170.823 144.385 180.451C144.368 180.509 144.354 180.567 144.344 180.627L136.35 228.438C136.289 228.804 136.088 229.133 135.791 229.355C135.493 229.578 135.121 229.679 134.752 229.635L123.324 228.292C123.133 228.269 122.948 228.209 122.781 228.115C122.613 228.02 122.466 227.893 122.348 227.742C122.23 227.59 122.144 227.416 122.094 227.23C122.044 227.045 122.032 226.851 122.059 226.661C123.301 217.669 129.721 169.831 126.914 160.878C123.814 150.988 129.019 138.609 129.019 138.609C129.019 138.609 133.483 126.735 149.968 139.782C150.157 139.933 150.305 140.129 150.398 140.352C150.492 140.575 150.528 140.818 150.503 141.058Z" fill="#1A2241"/>
<path d="M157.818 138.753C158.088 144.248 159.167 168.427 157.749 178.127C157.736 178.215 157.729 178.304 157.728 178.394L157.103 225.945C157.096 226.502 156.869 227.034 156.471 227.426C156.073 227.817 155.536 228.037 154.978 228.037H144.777C144.219 228.037 143.684 227.819 143.286 227.429C142.889 227.039 142.661 226.508 142.651 225.952C142.482 215.521 141.506 169.175 137.447 160.807C132.866 151.366 136.138 138.493 136.138 138.493C136.138 138.493 138.723 126.341 156.774 137.033C157.077 137.211 157.33 137.462 157.513 137.762C157.695 138.062 157.799 138.402 157.818 138.753Z" fill="#1F2E5C"/>
<path d="M172.875 92.2392C172.875 92.2392 173.646 88.4986 171.494 84.1113C171.494 84.1113 170.148 82.9473 174.008 81.0693C177.867 79.1913 179.663 77.04 179.663 77.04C179.663 77.04 181.189 77.3982 179.753 79.189C178.908 80.2481 177.977 81.2363 176.97 82.1437C176.97 82.1437 181.458 84.1141 181.279 84.8304C181.099 85.5467 179.663 85.8154 179.573 87.248C179.484 88.6806 179.214 93.1598 178.496 93.7848C177.778 94.4099 172.643 92.8458 172.875 92.2392Z" fill="#FFA89E"/>
<path d="M178.495 93.7821C178.796 93.5193 179.018 92.5803 179.181 91.4731C178.502 91.0237 177.621 90.6121 176.477 90.2919C174.693 89.7931 173.551 89.0487 172.826 88.2876C173.206 90.6317 172.874 92.2393 172.874 92.2393C172.643 92.846 177.775 94.4089 178.495 93.7821Z" fill="#FF867F"/>
<path d="M128.771 136.683C128.557 136.882 112.161 129.043 115.206 121.035C118.251 113.027 125.079 106.858 125.079 106.858C125.079 106.858 132.739 133.001 128.771 136.683Z" fill="#2945BD"/>
<path d="M123.215 123.988C123.506 123.089 124.738 120.164 128.268 120.956C128.298 120.963 128.325 120.98 128.346 121.003C128.366 121.026 128.38 121.054 128.383 121.085C128.387 121.116 128.381 121.147 128.367 121.174C128.352 121.201 128.33 121.223 128.302 121.238C127.532 121.619 125.882 122.683 125.741 124.861C125.74 124.89 125.73 124.919 125.712 124.943C125.695 124.966 125.671 124.985 125.643 124.995C125.616 125.005 125.585 125.007 125.557 125C125.528 124.993 125.502 124.978 125.482 124.957C125.125 124.565 124.401 123.977 123.391 124.179C123.365 124.184 123.338 124.183 123.313 124.175C123.288 124.167 123.265 124.153 123.248 124.134C123.23 124.115 123.217 124.091 123.212 124.065C123.206 124.04 123.207 124.013 123.215 123.988Z" fill="#132B81"/>
<path d="M132.323 92.6391C132.323 92.6391 122.957 98.4838 124.895 109.99C126.833 121.496 128.954 130.792 128.954 130.792L125.909 151.684C125.909 151.684 131.733 153.89 146.152 150.814C155.486 148.824 160.697 145.977 160.697 145.977C160.697 145.977 155.253 128.212 156.084 121.677C156.084 121.677 170.201 122.69 175.277 109.803C180.353 96.9163 178.795 93.3261 178.795 93.3261C178.795 93.3261 174.169 93.2343 172.878 92.0376C172.878 92.0376 172.795 92.2632 172.639 92.6609C171.498 95.5749 166.425 107.725 161.066 108.008C154.976 108.33 148.424 98.5733 148.424 98.5733C148.424 98.5733 145.979 94.8913 143.303 93.9242C140.628 92.9571 135.322 91.5342 132.323 92.6391Z" fill="#2945BD"/>
<path d="M152.593 103.544C149.543 103.044 143.707 101.732 138.639 98.5219C138.432 98.3905 138.212 98.6694 138.391 98.837C141.149 101.415 148.006 106.622 159.365 107.856C156.929 107.307 154.525 105.452 152.593 103.544Z" fill="#132B81"/>
<path d="M160.304 107.999C160.836 108.12 161.068 108.011 161.068 108.011C160.813 108.024 160.558 108.019 160.304 107.999Z" fill="#2549D6"/>
<path d="M134.1 112.143C136.204 113.728 146.543 121.172 155.73 121.546C155.77 121.547 155.807 121.563 155.835 121.59C155.863 121.618 155.88 121.655 155.881 121.694C155.917 122.678 156.145 128.416 156.619 130.047C156.627 130.074 156.628 130.103 156.621 130.13C156.615 130.158 156.601 130.183 156.581 130.203C156.561 130.223 156.536 130.238 156.509 130.245C156.481 130.253 156.453 130.252 156.425 130.245C154.017 129.569 137.658 124.563 133.853 112.316C133.843 112.284 133.844 112.25 133.855 112.218C133.866 112.187 133.887 112.16 133.914 112.141C133.941 112.121 133.974 112.111 134.007 112.112C134.041 112.112 134.073 112.123 134.1 112.143Z" fill="#132B81"/>
<path d="M131.588 138.965C131.613 138.957 131.636 138.943 131.655 138.924C131.674 138.905 131.689 138.883 131.697 138.858C131.706 138.832 131.709 138.806 131.705 138.779C131.702 138.753 131.692 138.728 131.677 138.706C130.52 137.004 129.335 132.358 129.031 131.107C129.024 131.081 129.011 131.057 128.993 131.037C128.975 131.017 128.952 131.002 128.927 130.993L127.495 140.815C128.791 140.057 130.162 139.437 131.588 138.965Z" fill="#132B81"/>
<path d="M178.796 93.3291C178.796 93.3291 174.171 93.2372 172.879 92.0405C172.879 92.0405 172.796 92.2661 172.641 92.6639C172.468 93.0978 172.213 93.7372 171.881 94.5103C172.87 95.3448 174.916 96.7069 177.677 96.6431L178.969 94.8019L179.015 94.8214C178.979 93.7509 178.796 93.3291 178.796 93.3291Z" fill="#BBCAFF"/>
<g opacity="0.25">
<mask id="mask0_297_14971" style="mask-type:luminance" maskUnits="userSpaceOnUse" x="114" y="92" width="66" height="61">
<path d="M178.796 93.3291C178.796 93.3291 174.171 93.2372 172.879 92.0405C172.879 92.0405 172.796 92.2661 172.641 92.6639C171.5 95.5779 166.426 107.728 161.068 108.011C154.977 108.333 148.426 98.5762 148.426 98.5762C148.426 98.5762 145.98 94.8943 143.305 93.9271C140.629 92.96 135.323 91.5337 132.324 92.6386C132.324 92.6386 124.429 97.5666 124.636 107.279C123.077 108.792 117.785 114.252 115.206 121.035C112.502 128.139 125.103 135.11 128.13 136.454L125.91 151.687C125.91 151.687 136.529 154.06 150.58 149.601C157.557 147.387 160.699 145.98 160.699 145.98C160.699 145.98 155.254 128.215 156.085 121.679C156.085 121.679 170.203 122.692 175.279 109.805C180.354 96.9186 178.796 93.3291 178.796 93.3291Z" fill="white"/>
</mask>
<g mask="url(#mask0_297_14971)">
<path d="M182.66 168.587H114.559C114.544 168.587 114.53 168.581 114.519 168.57C114.508 168.559 114.502 168.545 114.502 168.53V130.47C114.502 130.455 114.508 130.44 114.519 130.43C114.53 130.419 114.544 130.413 114.559 130.413H120.256V124.271H114.559C114.547 124.268 114.537 124.261 114.529 124.251C114.521 124.241 114.517 124.229 114.517 124.216C114.517 124.203 114.521 124.191 114.529 124.181C114.537 124.171 114.547 124.164 114.559 124.161H120.256V117.927H114.559C114.548 117.924 114.537 117.917 114.53 117.907C114.522 117.897 114.518 117.885 114.518 117.872C114.518 117.86 114.522 117.848 114.53 117.838C114.537 117.828 114.548 117.821 114.559 117.817H120.256V111.587H114.559C114.548 111.583 114.537 111.576 114.53 111.566C114.522 111.556 114.518 111.544 114.518 111.532C114.518 111.519 114.522 111.507 114.53 111.497C114.537 111.487 114.548 111.48 114.559 111.477H120.256V105.243H114.559C114.551 105.245 114.542 105.246 114.533 105.244C114.524 105.242 114.516 105.239 114.509 105.234C114.502 105.228 114.496 105.221 114.492 105.213C114.488 105.205 114.486 105.197 114.486 105.188C114.486 105.179 114.488 105.17 114.492 105.162C114.496 105.154 114.502 105.147 114.509 105.142C114.516 105.136 114.524 105.133 114.533 105.131C114.542 105.13 114.551 105.13 114.559 105.132H120.256V98.9021H114.559C114.551 98.9046 114.542 98.9051 114.533 98.9035C114.524 98.9019 114.516 98.8983 114.509 98.8929C114.502 98.8876 114.496 98.8807 114.492 98.8727C114.488 98.8647 114.486 98.8559 114.486 98.847C114.486 98.8381 114.488 98.8293 114.492 98.8214C114.496 98.8134 114.502 98.8065 114.509 98.8011C114.516 98.7958 114.524 98.7922 114.533 98.7906C114.542 98.789 114.551 98.7894 114.559 98.7919H120.256V92.5007C120.259 92.4888 120.267 92.4783 120.277 92.4709C120.287 92.4634 120.299 92.4594 120.311 92.4594C120.324 92.4594 120.336 92.4634 120.346 92.4709C120.356 92.4783 120.363 92.4888 120.366 92.5007V98.7873H126.005V92.5007C126.003 92.4922 126.002 92.4831 126.004 92.4744C126.005 92.4656 126.009 92.4573 126.014 92.4502C126.02 92.4431 126.027 92.4373 126.035 92.4333C126.043 92.4293 126.052 92.4272 126.06 92.4272C126.069 92.4272 126.078 92.4293 126.086 92.4333C126.094 92.4373 126.101 92.4431 126.107 92.4502C126.112 92.4573 126.115 92.4656 126.117 92.4744C126.119 92.4831 126.118 92.4922 126.116 92.5007V98.7873H131.755V92.5007C131.758 92.4888 131.765 92.4783 131.775 92.4709C131.785 92.4634 131.797 92.4594 131.81 92.4594C131.822 92.4594 131.834 92.4634 131.844 92.4709C131.854 92.4783 131.862 92.4888 131.865 92.5007V98.7873H137.504V92.5007C137.507 92.4888 137.515 92.4783 137.525 92.4709C137.535 92.4634 137.547 92.4594 137.559 92.4594C137.572 92.4594 137.584 92.4634 137.594 92.4709C137.604 92.4783 137.611 92.4888 137.614 92.5007V98.7873H143.253V92.5007C143.257 92.4888 143.264 92.4783 143.274 92.4709C143.284 92.4634 143.296 92.4594 143.309 92.4594C143.321 92.4594 143.333 92.4634 143.343 92.4709C143.353 92.4783 143.36 92.4888 143.364 92.5007V98.7873H148.914V92.5007C148.917 92.4888 148.924 92.4783 148.934 92.4709C148.944 92.4634 148.956 92.4594 148.969 92.4594C148.981 92.4594 148.993 92.4634 149.003 92.4709C149.013 92.4783 149.02 92.4888 149.024 92.5007V98.7873H154.731V92.5007C154.735 92.4886 154.742 92.4778 154.752 92.4702C154.762 92.4625 154.774 92.4584 154.787 92.4584C154.799 92.4584 154.812 92.4625 154.822 92.4702C154.832 92.4778 154.839 92.4886 154.842 92.5007V98.7873H160.481V92.5007C160.485 92.4888 160.492 92.4783 160.502 92.4709C160.512 92.4634 160.524 92.4594 160.537 92.4594C160.549 92.4594 160.561 92.4634 160.571 92.4709C160.581 92.4783 160.588 92.4888 160.592 92.5007V98.7873H166.231V92.5007C166.228 92.4922 166.228 92.4831 166.229 92.4744C166.231 92.4656 166.234 92.4573 166.24 92.4502C166.245 92.4431 166.252 92.4373 166.26 92.4333C166.268 92.4293 166.277 92.4272 166.286 92.4272C166.295 92.4272 166.304 92.4293 166.312 92.4333C166.32 92.4373 166.327 92.4431 166.332 92.4502C166.337 92.4573 166.341 92.4656 166.342 92.4744C166.344 92.4831 166.344 92.4922 166.341 92.5007V98.7873H171.98V92.5007C171.983 92.4886 171.991 92.4778 172.001 92.4702C172.011 92.4625 172.023 92.4584 172.036 92.4584C172.048 92.4584 172.06 92.4625 172.07 92.4702C172.081 92.4778 172.088 92.4886 172.091 92.5007V98.7873H177.73V92.5007C177.733 92.4888 177.741 92.4783 177.751 92.4709C177.761 92.4634 177.773 92.4594 177.785 92.4594C177.798 92.4594 177.81 92.4634 177.82 92.4709C177.83 92.4783 177.837 92.4888 177.84 92.5007V98.7873H183.537C183.549 98.7908 183.559 98.7981 183.567 98.808C183.574 98.8179 183.578 98.83 183.578 98.8424C183.578 98.8549 183.574 98.8669 183.567 98.8769C183.559 98.8868 183.549 98.8941 183.537 98.8975H177.84V105.131H183.537C183.549 105.134 183.559 105.141 183.567 105.151C183.574 105.161 183.578 105.173 183.578 105.186C183.578 105.198 183.574 105.21 183.567 105.22C183.559 105.23 183.549 105.237 183.537 105.241H177.84V111.475H183.537C183.549 111.478 183.559 111.486 183.567 111.495C183.574 111.505 183.578 111.517 183.578 111.53C183.578 111.542 183.574 111.554 183.567 111.564C183.559 111.574 183.549 111.582 183.537 111.585H177.84V117.818H183.537C183.549 117.822 183.559 117.829 183.567 117.839C183.574 117.849 183.578 117.861 183.578 117.873C183.578 117.886 183.574 117.898 183.567 117.908C183.559 117.918 183.549 117.925 183.537 117.928H177.84V124.162H183.537C183.549 124.165 183.56 124.172 183.567 124.182C183.575 124.192 183.579 124.204 183.579 124.217C183.579 124.23 183.575 124.242 183.567 124.252C183.56 124.262 183.549 124.269 183.537 124.272H177.84V130.414H182.659C182.674 130.414 182.689 130.42 182.699 130.431C182.71 130.441 182.716 130.456 182.716 130.471V136.76H185.891C185.903 136.764 185.913 136.771 185.921 136.781C185.928 136.791 185.932 136.803 185.932 136.815C185.932 136.828 185.928 136.84 185.921 136.85C185.913 136.86 185.903 136.867 185.891 136.87H182.716V143.103H185.891C185.903 143.106 185.914 143.114 185.921 143.124C185.929 143.134 185.933 143.146 185.933 143.158C185.933 143.171 185.929 143.183 185.921 143.193C185.914 143.203 185.903 143.21 185.891 143.214H182.716V168.533C182.715 168.547 182.709 168.561 182.699 168.571C182.688 168.581 182.674 168.587 182.66 168.587ZM143.367 168.477H182.605V143.212H177.842V160.155C177.838 160.167 177.831 160.178 177.821 160.185C177.811 160.193 177.799 160.197 177.786 160.197C177.774 160.197 177.762 160.193 177.752 160.185C177.742 160.178 177.735 160.167 177.731 160.155V143.212H172.092V160.155C172.089 160.168 172.082 160.178 172.072 160.186C172.062 160.194 172.049 160.198 172.037 160.198C172.024 160.198 172.012 160.194 172.002 160.186C171.992 160.178 171.984 160.168 171.981 160.155V143.212H166.342V160.155C166.339 160.167 166.332 160.178 166.322 160.185C166.312 160.193 166.299 160.197 166.287 160.197C166.275 160.197 166.262 160.193 166.252 160.185C166.243 160.178 166.235 160.167 166.232 160.155V143.212H160.593V160.155C160.595 160.164 160.596 160.173 160.594 160.182C160.593 160.191 160.589 160.199 160.584 160.206C160.578 160.213 160.571 160.219 160.563 160.223C160.555 160.227 160.547 160.229 160.538 160.229C160.529 160.229 160.52 160.227 160.512 160.223C160.504 160.219 160.497 160.213 160.492 160.206C160.486 160.199 160.483 160.191 160.481 160.182C160.479 160.173 160.48 160.164 160.482 160.155V143.212H154.844V160.155C154.84 160.168 154.833 160.178 154.823 160.186C154.813 160.194 154.801 160.198 154.788 160.198C154.775 160.198 154.763 160.194 154.753 160.186C154.743 160.178 154.736 160.168 154.732 160.155V143.212H149.03V149.445H149.064C149.073 149.443 149.082 149.442 149.091 149.444C149.099 149.446 149.108 149.449 149.115 149.454C149.122 149.46 149.128 149.467 149.132 149.475C149.136 149.483 149.138 149.491 149.138 149.5C149.138 149.509 149.136 149.518 149.132 149.526C149.128 149.534 149.122 149.541 149.115 149.546C149.108 149.552 149.099 149.555 149.091 149.557C149.082 149.558 149.073 149.558 149.064 149.556H149.03V155.789H149.064C149.073 155.786 149.082 155.786 149.091 155.787C149.099 155.789 149.108 155.793 149.115 155.798C149.122 155.803 149.128 155.81 149.132 155.818C149.136 155.826 149.138 155.835 149.138 155.844C149.138 155.853 149.136 155.862 149.132 155.87C149.128 155.877 149.122 155.884 149.115 155.89C149.108 155.895 149.099 155.899 149.091 155.9C149.082 155.902 149.073 155.901 149.064 155.899H149.03V160.155C149.032 160.163 149.033 160.172 149.031 160.181C149.03 160.19 149.026 160.198 149.021 160.205C149.015 160.213 149.008 160.218 149 160.222C148.992 160.226 148.983 160.228 148.974 160.228C148.966 160.228 148.957 160.226 148.949 160.222C148.941 160.218 148.934 160.213 148.928 160.205C148.923 160.198 148.919 160.19 148.918 160.181C148.916 160.172 148.917 160.163 148.919 160.155V155.899H143.37V162.132H149.066C149.075 162.13 149.084 162.129 149.092 162.131C149.101 162.132 149.109 162.136 149.117 162.141C149.124 162.147 149.13 162.154 149.134 162.162C149.138 162.17 149.14 162.178 149.14 162.187C149.14 162.196 149.138 162.205 149.134 162.213C149.13 162.221 149.124 162.228 149.117 162.233C149.109 162.239 149.101 162.242 149.092 162.244C149.084 162.245 149.075 162.245 149.066 162.242H143.37L143.367 168.477ZM137.616 168.477H143.255V162.243H137.616V168.477ZM131.866 168.477H137.505V162.243H131.866V168.477ZM126.116 168.477H131.755V162.243H126.116V168.477ZM120.365 168.477H126.004V162.243H120.365V168.477ZM114.615 168.477H120.254V162.243H114.615V168.477ZM137.616 162.133H143.255V155.9H137.616V162.133ZM131.866 162.133H137.505V155.9H131.866V162.133ZM126.116 162.133H131.755V155.9H126.116V162.133ZM120.365 162.133H126.004V155.9H120.365V162.133ZM114.615 162.133H120.254V155.9H114.615V162.133ZM143.367 155.789H148.916V149.556H143.367V155.789ZM137.616 155.789H143.255V149.556H137.616V155.789ZM131.866 155.789H137.505V149.556H131.866V155.789ZM126.116 155.789H131.755V149.556H126.116V155.789ZM120.365 155.789H126.004V149.556H120.365V155.789ZM114.615 155.789H120.254V149.556H114.615V155.789ZM143.367 149.446H148.916V143.212H143.367V149.446ZM137.616 149.446H143.255V143.212H137.616V149.446ZM131.866 149.446H137.505V143.212H131.866V149.446ZM126.116 149.446H131.755V143.212H126.116V149.446ZM120.365 149.446H126.004V143.212H120.365V149.446ZM114.615 149.446H120.254V143.212H114.615V149.446ZM177.842 143.102H182.605V136.869H177.842V143.102ZM172.092 143.102H177.73V136.869H172.092V143.102ZM166.341 143.102H171.98V136.869H166.341V143.102ZM160.591 143.102H166.229V136.869H160.591V143.102ZM154.841 143.102H160.48V136.869H154.841V143.102ZM149.029 143.102H154.731V136.869H149.029L149.029 143.102ZM143.369 143.102H148.919V136.869H143.369V143.102ZM137.618 143.102H143.257V136.869H137.618V143.102ZM131.868 143.102H137.507V136.869H131.868V143.102ZM126.118 143.102H131.757V136.869H126.118V143.102ZM120.368 143.102H126.006V136.869H120.368V143.102ZM114.617 143.102H120.256V136.869H114.617V143.102ZM177.844 136.759H182.607V130.527H177.844V136.759ZM172.094 136.759H177.733V130.527H172.094V136.759ZM166.343 136.759H171.982V130.527H166.343V136.759ZM160.593 136.759H166.232V130.527H160.593V136.759ZM154.843 136.759H160.482V130.527H154.843V136.759ZM149.031 136.759H154.731V130.527H149.029L149.031 136.759ZM143.371 136.759H148.921V130.527H143.371V136.759ZM137.621 136.759H143.26V130.527H137.621V136.759ZM131.87 136.759H137.509V130.527H131.87V136.759ZM126.12 136.759H131.759V130.527H126.12V136.759ZM120.37 136.759H126.009V130.527H120.37V136.759ZM114.619 136.759H120.258V130.527H114.619V136.759ZM172.092 130.413H177.73V124.271H172.092V130.413ZM166.341 130.413H171.98V124.271H166.341V130.413ZM160.591 130.413H166.229V124.271H160.591V130.413ZM154.841 130.413H160.48V124.271H154.841V130.413ZM149.029 130.413H154.731V124.271H149.029L149.029 130.413ZM143.369 130.413H148.919V124.271H143.369V130.413ZM137.618 130.413H143.257V124.271H137.618V130.413ZM131.868 130.413H137.507V124.271H131.868V130.413ZM126.118 130.413H131.757V124.271H126.118V130.413ZM120.368 130.413H126.006V124.271H120.368V130.413ZM172.096 124.161H177.735V117.928H172.096V124.161ZM166.345 124.161H171.984V117.928H166.345V124.161ZM160.595 124.161H166.234V117.928H160.595V124.161ZM154.845 124.161H160.484V117.928H154.845V124.161ZM149.039 124.161H154.735V117.928H149.033V124.161H149.039ZM143.371 124.161H148.92V117.928H143.371V124.161ZM137.62 124.161H143.259V117.928H137.62V124.161ZM131.87 124.161H137.509V117.928H131.87V124.161ZM126.12 124.161H131.759V117.928H126.12V124.161ZM120.369 124.161H126.008V117.928H120.369V124.161ZM172.097 117.818H177.736V111.587H172.097V117.818ZM166.347 117.818H171.986V111.587H166.347V117.818ZM160.596 117.818H166.235V111.587H160.596V117.818ZM154.846 117.818H160.485V111.587H154.846V117.818ZM149.041 117.818H154.737V111.587H149.034V117.82L149.041 117.818ZM143.372 117.818H148.922V111.587H143.372V117.818ZM137.622 117.818H143.261V111.587H137.622V117.818ZM131.871 117.818H137.51V111.587H131.871V117.818ZM126.121 117.818H131.76V111.587H126.121V117.818ZM120.371 117.818H126.01V111.587H120.371V117.818ZM172.099 111.474H177.738V105.243H172.099V111.474ZM166.349 111.474H171.987V105.243H166.349V111.474ZM160.598 111.474H166.237V105.243H160.598V111.474ZM154.848 111.474H160.487V105.243H154.848V111.474ZM149.042 111.474H154.739V105.243H149.036V111.477L149.042 111.474ZM143.374 111.474H148.924V105.243H143.374V111.474ZM137.624 111.474H143.263V105.243H137.624V111.474ZM131.873 111.474H137.512V105.243H131.873V111.474ZM126.123 111.474H131.762V105.243H126.123V111.474ZM120.373 111.474H126.012V105.243H120.373V111.474ZM172.101 105.13H177.74V98.9021H172.101V105.13ZM166.35 105.13H171.989V98.9021H166.35V105.13ZM160.6 105.13H166.239V98.9021H160.6V105.13ZM154.85 105.13H160.489V98.9021H154.85V105.13ZM149.044 105.13H154.741V98.9021H149.038V105.135L149.044 105.13ZM143.376 105.13H148.926V98.9021H143.376V105.13ZM137.625 105.13H143.264V98.9021H137.625V105.13ZM131.875 105.13H137.514V98.9021H131.875V105.13ZM126.125 105.13H131.764V98.9021H126.125V105.13ZM120.374 105.13H126.013V98.9021H120.374V105.13Z" fill="#F5F0E6"/>
</g>
</g>
<path d="M131.562 89.0492C131.562 89.0492 139.728 88.221 146.303 93.5364L146.026 96.0217C146.026 96.0217 133.915 92.7082 132.323 92.6393L131.562 89.0492Z" fill="#BBCAFF"/>
<path d="M145.611 94.2958C145.611 94.3914 145.582 94.4848 145.529 94.5643C145.476 94.6437 145.4 94.7057 145.312 94.7423C145.223 94.7788 145.126 94.7884 145.032 94.7698C144.938 94.7511 144.851 94.7051 144.784 94.6375C144.716 94.5699 144.67 94.4838 144.651 94.3901C144.632 94.2963 144.642 94.1991 144.679 94.1108C144.715 94.0225 144.777 93.9471 144.857 93.8939C144.937 93.8408 145.03 93.8125 145.126 93.8125C145.255 93.8125 145.378 93.8634 145.469 93.954C145.56 94.0447 145.611 94.1676 145.611 94.2958Z" fill="#2549D6"/>
<path d="M145.749 93.84C145.725 93.8399 145.701 93.8346 145.679 93.8245C136.415 89.4756 133.135 89.6868 132.004 90.1994C131.953 90.2282 131.897 90.2456 131.839 90.2504C131.796 90.2514 131.755 90.236 131.723 90.2074C131.692 90.1788 131.672 90.1391 131.669 90.0967C131.666 90.0543 131.68 90.0123 131.707 89.9796C131.734 89.9469 131.773 89.9259 131.816 89.921C131.829 89.9164 131.845 89.9078 131.867 89.8986C133.907 88.9728 138.862 90.2602 145.82 93.5249C145.854 93.5408 145.882 93.568 145.899 93.6018C145.915 93.6356 145.92 93.6741 145.912 93.7108C145.904 93.7476 145.883 93.7805 145.853 93.804C145.824 93.8275 145.787 93.8402 145.749 93.84Z" fill="#2945BD"/>
<path d="M210.309 83.6922C215.285 78.7285 215.285 70.6807 210.309 65.717C205.333 60.7532 197.265 60.7532 192.289 65.717C187.313 70.6807 187.313 78.7285 192.289 83.6922C197.265 88.6559 205.333 88.6559 210.309 83.6922Z" fill="#F76559"/>
<path d="M194.696 71.4091C194.686 71.4078 194.677 71.4057 194.667 71.4028C194.622 71.3881 194.585 71.356 194.563 71.3137C194.541 71.2715 194.538 71.2223 194.552 71.1772C194.576 71.1014 197.069 63.625 202.985 64.7373C208.923 65.8583 207.843 72.4663 207.832 72.5329C207.823 72.5794 207.796 72.6207 207.758 72.648C207.719 72.6752 207.671 72.6862 207.624 72.6787C207.601 72.6747 207.579 72.6661 207.559 72.6535C207.539 72.6409 207.522 72.6245 207.508 72.6053C207.494 72.5861 207.485 72.5643 207.48 72.5414C207.474 72.5184 207.474 72.4947 207.478 72.4715C207.478 72.4554 207.749 70.8575 207.313 69.154C206.738 66.8989 205.259 65.5311 202.918 65.0892C197.318 64.0371 194.92 71.2145 194.894 71.288C194.881 71.3284 194.854 71.3627 194.817 71.3849C194.781 71.4071 194.738 71.4157 194.696 71.4091Z" fill="#CC423B"/>
<path d="M207.511 76.9262C207.504 76.9252 207.497 76.9237 207.489 76.9216C206.47 76.6346 206.118 75.3145 206.382 72.7689C206.67 69.972 205.886 66.5093 202.714 65.9571C199.112 65.3367 197.404 68.0005 196.609 70.3508C196.133 71.7576 195.621 72.5721 195.043 72.8413C194.647 73.0261 194.323 72.8987 194.167 72.8413C194.147 72.8324 194.126 72.8249 194.105 72.8189C194.059 72.8085 194.019 72.781 193.993 72.7421C193.967 72.7031 193.956 72.6556 193.964 72.6094C193.968 72.5869 193.975 72.5652 193.987 72.5458C193.999 72.5263 194.014 72.5093 194.033 72.4959C194.051 72.4824 194.072 72.4727 194.094 72.4674C194.117 72.4621 194.14 72.4612 194.162 72.4647C194.209 72.474 194.254 72.4882 194.297 72.5072C194.439 72.5646 194.634 72.6381 194.891 72.5181C195.22 72.3654 195.725 71.8454 196.272 70.2383C197.46 66.7274 199.782 65.0727 202.779 65.6059C206.194 66.2005 207.049 69.8572 206.743 72.8074C206.507 75.086 206.791 76.3545 207.589 76.5783C207.633 76.5907 207.67 76.6192 207.694 76.6582C207.718 76.6971 207.725 76.7436 207.716 76.7881C207.706 76.8326 207.68 76.8718 207.643 76.8978C207.605 76.9237 207.559 76.9345 207.514 76.9279L207.511 76.9262Z" fill="#CC423B"/>
<path d="M204.896 68.2556C204.853 68.2489 204.814 68.2269 204.786 68.1936C203.448 66.6169 200.88 66.8425 200.854 66.8448C200.83 66.8471 200.807 66.8447 200.784 66.8378C200.762 66.8309 200.741 66.8197 200.722 66.8047C200.704 66.7897 200.689 66.7713 200.678 66.7505C200.667 66.7297 200.66 66.7069 200.658 66.6835C200.655 66.6601 200.658 66.6364 200.665 66.6139C200.672 66.5914 200.683 66.5704 200.698 66.5522C200.713 66.5341 200.731 66.519 200.752 66.508C200.773 66.4969 200.796 66.49 200.819 66.4878C200.935 66.4775 203.602 66.2439 205.06 67.9623C205.075 67.9803 205.087 68.0011 205.094 68.0235C205.101 68.0459 205.104 68.0695 205.102 68.093C205.1 68.1164 205.093 68.1393 205.083 68.1602C205.072 68.1811 205.057 68.1997 205.039 68.2148C205.019 68.2315 204.997 68.2437 204.972 68.2508C204.947 68.2578 204.921 68.2595 204.896 68.2556Z" fill="#CC423B"/>
<path d="M205.605 72.4997H205.591C205.544 72.4887 205.504 72.46 205.479 72.4196C205.454 72.3793 205.446 72.3307 205.457 72.2844C205.477 72.1949 205.938 70.0712 203.439 68.4704C200.766 66.7577 198.256 68.7 198.151 68.7815C198.132 68.7962 198.111 68.8071 198.088 68.8136C198.066 68.8201 198.042 68.822 198.018 68.8194C197.995 68.8167 197.972 68.8095 197.952 68.798C197.931 68.7866 197.913 68.7713 197.898 68.7528C197.883 68.7344 197.873 68.7133 197.866 68.6906C197.86 68.668 197.858 68.6443 197.86 68.6209C197.863 68.5975 197.87 68.5749 197.882 68.5543C197.893 68.5337 197.908 68.5155 197.927 68.5009C197.955 68.4785 200.739 66.3141 203.634 68.1691C205.049 69.076 205.566 70.1631 205.75 70.9155C205.951 71.7374 205.812 72.3412 205.808 72.3665C205.796 72.4099 205.77 72.4476 205.732 72.4722C205.695 72.4968 205.649 72.5066 205.605 72.4997Z" fill="#CC423B"/>
<path d="M201.807 81.7544C201.784 81.7507 201.762 81.7427 201.741 81.7309C201.7 81.7062 201.671 81.6665 201.66 81.6203C201.648 81.5742 201.656 81.5254 201.68 81.4846C201.701 81.4496 203.804 77.9685 204.217 76.5262C204.389 75.9155 205.828 70.5179 202.577 69.0469C201.338 68.4867 200.208 68.5515 199.216 69.2409C198.759 69.5624 198.374 69.9754 198.086 70.4536C198.074 70.4743 198.059 70.4925 198.041 70.5073C198.022 70.522 198.001 70.533 197.979 70.5396C197.956 70.5462 197.932 70.5483 197.909 70.5458C197.885 70.5432 197.862 70.5361 197.842 70.5248C197.821 70.5135 197.803 70.4982 197.788 70.4799C197.773 70.4615 197.762 70.4405 197.756 70.4179C197.749 70.3953 197.747 70.3716 197.749 70.3482C197.752 70.3248 197.759 70.3021 197.77 70.2814C198.346 69.2271 200.125 67.5414 202.726 68.7197C204.135 69.3574 204.912 70.6947 205.034 72.6938C205.141 74.4352 204.7 76.1422 204.562 76.6237C204.137 78.112 202.076 81.5248 201.988 81.6689C201.97 81.6994 201.943 81.7238 201.911 81.7391C201.879 81.7543 201.843 81.7596 201.807 81.7544Z" fill="#CC423B"/>
<path d="M204.996 77.1965C204.969 77.1929 204.944 77.183 204.921 77.1678C204.902 77.1546 204.885 77.1377 204.872 77.118C204.859 77.0983 204.85 77.0763 204.846 77.0532C204.841 77.03 204.841 77.0062 204.846 76.9832C204.851 76.9601 204.86 76.9382 204.874 76.9187C205.541 75.9361 205.546 73.7045 205.546 73.6844C205.546 73.637 205.565 73.5914 205.599 73.5578C205.633 73.5242 205.678 73.5054 205.726 73.5054C205.773 73.5054 205.819 73.5242 205.853 73.5578C205.886 73.5914 205.905 73.637 205.905 73.6844C205.905 73.7803 205.901 76.0463 205.171 77.1208C205.152 77.1486 205.125 77.1705 205.094 77.1839C205.063 77.1973 205.029 77.2017 204.996 77.1965Z" fill="#CC423B"/>
<path d="M203.366 82.687C203.325 82.6812 203.286 82.6609 203.259 82.6296C203.227 82.5941 203.211 82.5475 203.214 82.5002C203.217 82.4528 203.238 82.4086 203.274 82.3771C204.722 81.1017 206.266 76.8194 206.281 76.7764C206.289 76.754 206.301 76.7334 206.317 76.7158C206.333 76.6981 206.352 76.6838 206.373 76.6737C206.395 76.6636 206.418 76.6579 206.442 76.6569C206.465 76.6559 206.489 76.6596 206.511 76.6679C206.556 76.684 206.593 76.7172 206.613 76.7602C206.634 76.8033 206.636 76.8526 206.62 76.8975C206.556 77.0771 205.03 81.3101 203.513 82.6463C203.493 82.6634 203.469 82.6759 203.444 82.6829C203.419 82.6899 203.392 82.6913 203.366 82.687Z" fill="#CC423B"/>
<path d="M204.757 82.7463C204.726 82.7415 204.696 82.7284 204.672 82.7085C204.647 82.6886 204.628 82.6625 204.617 82.6329C204.605 82.6032 204.602 82.5712 204.607 82.5399C204.612 82.5086 204.626 82.4792 204.646 82.4547C205.717 81.1604 207.136 77.6811 207.151 77.6461C207.159 77.6242 207.172 77.6044 207.189 77.5876C207.206 77.5708 207.225 77.5575 207.247 77.5483C207.269 77.5392 207.292 77.5344 207.316 77.5342C207.339 77.534 207.363 77.5385 207.385 77.5473C207.407 77.5562 207.426 77.5693 207.443 77.5858C207.46 77.6023 207.473 77.622 207.483 77.6437C207.492 77.6654 207.497 77.6887 207.497 77.7122C207.497 77.7358 207.493 77.7591 207.484 77.7809C207.426 77.9256 206.028 81.3464 204.923 82.6832C204.903 82.707 204.877 82.7253 204.848 82.7363C204.819 82.7474 204.788 82.7508 204.757 82.7463Z" fill="#CC423B"/>
<path d="M202.489 82.2061C202.455 82.2008 202.422 82.1856 202.396 82.1623C202.37 82.139 202.351 82.1086 202.342 82.0749C202.333 82.0411 202.334 82.0055 202.345 81.9724C202.356 81.9392 202.377 81.9099 202.404 81.8881C203.028 81.3945 204.287 78.822 204.719 77.8704C204.739 77.8271 204.775 77.7933 204.819 77.7766C204.864 77.7599 204.913 77.7615 204.957 77.7811C205 77.8008 205.034 77.8368 205.051 77.8813C205.068 77.9258 205.066 77.9752 205.046 78.0185C204.981 78.1608 203.447 81.5196 202.63 82.1671C202.61 82.1832 202.588 82.195 202.564 82.2017C202.539 82.2084 202.514 82.2099 202.489 82.2061Z" fill="#CC423B"/>
<path d="M200.627 80.6296C200.594 80.6246 200.562 80.6101 200.536 80.5879C200.511 80.5657 200.492 80.5367 200.482 80.5043C200.472 80.4718 200.472 80.4372 200.481 80.4045C200.49 80.3718 200.508 80.3424 200.533 80.3197C201.1 79.8031 201.738 78.6678 202.413 77.4636C202.604 77.1238 202.796 76.7812 202.989 76.4483C203.542 75.4949 204.158 72.9586 203.416 71.297C203.097 70.583 202.561 70.1422 201.823 69.9872C200.819 69.7783 200.062 69.8598 199.573 70.234C199.422 70.3532 199.296 70.5012 199.203 70.6694C199.109 70.8376 199.05 71.0226 199.029 71.2137C198.536 75.1534 197.053 76.8386 196.991 76.9097C196.959 76.9443 196.914 76.9649 196.867 76.9672C196.82 76.9694 196.774 76.9531 196.739 76.9217C196.704 76.8904 196.683 76.8465 196.68 76.7996C196.677 76.7527 196.692 76.7065 196.723 76.671C196.738 76.6543 198.194 74.9858 198.672 71.1827C198.696 70.943 198.768 70.7105 198.884 70.4993C199 70.2882 199.158 70.1028 199.349 69.9545C199.924 69.5091 200.783 69.3994 201.897 69.6371C202.754 69.8167 203.375 70.3258 203.744 71.1512C204.481 72.8007 203.982 75.4525 203.299 76.6279C203.107 76.9591 202.916 77.3006 202.724 77.6387C202.034 78.8687 201.382 80.031 200.772 80.5848C200.753 80.6025 200.73 80.6157 200.705 80.6234C200.68 80.6312 200.653 80.6333 200.627 80.6296Z" fill="#CC423B"/>
<path d="M195.889 83.2086C195.848 83.2026 195.81 83.1825 195.782 83.1517C195.754 83.121 195.737 83.0814 195.735 83.0398C195.733 82.9983 195.746 82.9573 195.771 82.924C195.796 82.8907 195.832 82.8671 195.872 82.8573C198.281 82.2638 200.424 79.1403 201.234 77.8254C201.964 76.6396 202.877 73.3588 202.257 71.8057C202.089 71.3815 201.826 71.1272 201.457 71.0279C201.035 70.9166 200.691 70.966 200.402 71.1818C199.553 71.8189 199.509 73.655 199.509 73.6733C199.508 73.6869 199.506 73.7004 199.503 73.7135C197.713 80.8605 194.319 80.3451 194.172 80.3055C194.125 80.2979 194.083 80.2719 194.055 80.2334C194.027 80.1949 194.016 80.1469 194.023 80.1C194.031 80.0531 194.057 80.0112 194.096 79.9834C194.134 79.9556 194.182 79.9443 194.229 79.9519H194.233C194.307 79.9628 197.459 80.3692 199.147 73.6429C199.154 73.4133 199.238 71.6031 200.183 70.8931C200.56 70.6095 201.02 70.5378 201.547 70.6795C202.027 70.8081 202.378 71.1387 202.589 71.6702C203.273 73.3864 202.283 76.798 201.537 78.0102C200.704 79.363 198.493 82.5772 195.956 83.2023C195.934 83.2088 195.911 83.211 195.889 83.2086Z" fill="#CC423B"/>
<path d="M204.179 83.6076C201.738 83.2409 199.921 81.1557 199.843 81.0661C199.812 81.03 199.796 80.9831 199.8 80.9357C199.804 80.8883 199.826 80.8443 199.862 80.8133C199.898 80.7823 199.945 80.7669 199.993 80.7705C200.041 80.7741 200.085 80.7964 200.116 80.8325C200.134 80.8532 201.968 82.9562 204.325 83.2661H204.329C204.376 83.2727 204.419 83.2978 204.447 83.3357C204.476 83.3737 204.488 83.4214 204.482 83.4684C204.475 83.5155 204.45 83.558 204.412 83.5865C204.374 83.6151 204.326 83.6274 204.279 83.6208L204.179 83.6076Z" fill="#CC423B"/>
<path d="M202.61 84.7178H202.599C200.227 84.2087 198.929 82.1349 198.875 82.0494C198.862 82.0294 198.854 82.0071 198.85 81.9838C198.847 81.9606 198.847 81.9369 198.853 81.914C198.858 81.8911 198.868 81.8695 198.882 81.8504C198.896 81.8314 198.913 81.8152 198.934 81.8029C198.954 81.7906 198.976 81.7823 198.999 81.7786C199.023 81.7749 199.046 81.7758 199.069 81.7813C199.092 81.7867 199.114 81.7966 199.133 81.8105C199.152 81.8243 199.168 81.8417 199.181 81.8617C199.193 81.8818 200.456 83.8913 202.675 84.3677C202.721 84.3762 202.763 84.4029 202.79 84.442C202.817 84.4811 202.827 84.5293 202.819 84.576C202.81 84.6227 202.784 84.6642 202.744 84.6912C202.705 84.7182 202.657 84.7286 202.61 84.7201V84.7178Z" fill="#CC423B"/>
<path d="M200.5 85.448H200.493C199.269 85.2115 197.796 83.1205 197.731 83.0316C197.717 83.0123 197.708 82.9905 197.703 82.9676C197.698 82.9446 197.697 82.9208 197.701 82.8977C197.705 82.8745 197.714 82.8524 197.727 82.8326C197.739 82.8128 197.756 82.7956 197.775 82.7822C197.795 82.7687 197.816 82.7592 197.839 82.7542C197.862 82.7491 197.886 82.7487 197.91 82.7528C197.933 82.7569 197.955 82.7656 197.975 82.7782C197.995 82.7909 198.012 82.8074 198.025 82.8267C198.04 82.8473 199.477 84.8866 200.557 85.0961C200.604 85.1042 200.646 85.1305 200.673 85.1693C200.701 85.2081 200.712 85.2562 200.703 85.303C200.695 85.3498 200.669 85.3915 200.63 85.4189C200.591 85.4463 200.543 85.4572 200.496 85.4491L200.5 85.448Z" fill="#CC423B"/>
<path d="M194.664 81.3796C194.621 81.3734 194.581 81.3517 194.553 81.3186C194.524 81.2854 194.509 81.243 194.51 81.1994C194.51 81.1558 194.527 81.114 194.556 81.0817C194.586 81.0495 194.626 81.0291 194.67 81.0243C194.872 81.0002 199.618 80.3752 199.959 74.5793C199.963 74.5265 199.964 74.4559 199.967 74.3732C199.987 73.7522 200.029 72.4602 200.613 71.9534C200.708 71.8705 200.819 71.8087 200.939 71.7724C201.059 71.7361 201.186 71.7259 201.311 71.7428C201.474 71.76 201.7 71.8575 201.825 72.226C202.271 73.5421 201.116 77.6701 200.008 78.721C199.991 78.7378 199.971 78.751 199.949 78.7599C199.927 78.7689 199.903 78.7733 199.879 78.7729C199.855 78.7726 199.832 78.7675 199.81 78.7579C199.788 78.7484 199.768 78.7346 199.752 78.7173C199.735 78.7 199.722 78.6797 199.714 78.6574C199.705 78.6351 199.701 78.6113 199.702 78.5875C199.703 78.5637 199.709 78.5403 199.719 78.5187C199.729 78.497 199.743 78.4776 199.761 78.4616C200.754 77.5185 201.882 73.5146 201.487 72.3408C201.41 72.1112 201.309 72.1049 201.275 72.0992C201.199 72.088 201.122 72.0933 201.049 72.1148C200.976 72.1363 200.909 72.1735 200.852 72.2237C200.385 72.6255 200.346 73.8595 200.329 74.3847C200.329 74.472 200.323 74.5448 200.321 74.6005C199.96 80.7023 194.766 81.3733 194.714 81.3802C194.697 81.3822 194.68 81.382 194.664 81.3796Z" fill="#CC423B"/>
<path d="M195.182 82.257C195.138 82.2508 195.098 82.2286 195.069 82.1948C195.041 82.1609 195.026 82.1178 195.028 82.0737C195.029 82.0296 195.047 81.9876 195.078 81.9557C195.108 81.9239 195.15 81.9045 195.194 81.9012C197.835 81.6831 198.934 79.3757 198.946 79.3493C198.966 79.3062 199.002 79.2727 199.047 79.2562C199.091 79.2398 199.141 79.2417 199.184 79.2615C199.227 79.2814 199.261 79.3176 199.278 79.3622C199.294 79.4067 199.292 79.456 199.272 79.4991C199.225 79.6025 198.079 82.0246 195.223 82.2588C195.209 82.2599 195.195 82.2594 195.182 82.257Z" fill="#CC423B"/>
<path d="M193.872 79.0161C193.838 79.0112 193.806 78.9965 193.78 78.9739C193.755 78.9513 193.736 78.9217 193.727 78.8887C193.713 78.843 193.719 78.794 193.742 78.7524C193.765 78.7107 193.803 78.6799 193.849 78.6666C193.867 78.6614 195.626 78.15 196.151 77.4463C196.18 77.4117 196.222 77.3896 196.267 77.3845C196.312 77.3793 196.358 77.3915 196.394 77.4186C196.431 77.4456 196.456 77.4856 196.464 77.5302C196.472 77.5749 196.463 77.621 196.438 77.6593C195.844 78.4628 194.027 78.9891 193.95 79.0109C193.925 79.0185 193.898 79.0203 193.872 79.0161Z" fill="#CC423B"/>
<path d="M193.824 78.0096C193.779 78.0036 193.738 77.9811 193.71 77.9466C193.681 77.9121 193.666 77.8681 193.668 77.8232C193.671 77.7784 193.69 77.7361 193.722 77.7046C193.754 77.6731 193.797 77.6548 193.842 77.6532C193.93 77.6486 196.001 77.5103 196.912 74.9171C196.928 74.8723 196.961 74.8356 197.004 74.815C197.047 74.7944 197.096 74.7917 197.141 74.8075C197.186 74.8233 197.223 74.8562 197.243 74.899C197.264 74.9419 197.267 74.9911 197.251 75.0359C196.258 77.8644 193.883 78.0102 193.859 78.0114C193.848 78.0119 193.836 78.0114 193.824 78.0096Z" fill="#CC423B"/>
<path d="M197.322 74.0496C197.278 74.0427 197.238 74.0201 197.21 73.9861C197.182 73.952 197.167 73.9088 197.169 73.8648C197.173 73.7701 197.268 71.5477 197.518 70.9146C197.527 70.8927 197.54 70.8727 197.556 70.8558C197.573 70.8389 197.592 70.8254 197.614 70.816C197.636 70.8067 197.659 70.8017 197.683 70.8013C197.706 70.8009 197.73 70.8052 197.752 70.8139C197.774 70.8225 197.794 70.8354 197.811 70.8518C197.828 70.8682 197.841 70.8878 197.851 70.9094C197.86 70.931 197.865 70.9542 197.865 70.9778C197.866 71.0013 197.861 71.0247 197.853 71.0466C197.663 71.5247 197.554 73.2541 197.528 73.8797C197.527 73.9033 197.522 73.9264 197.512 73.9478C197.502 73.9693 197.488 73.9885 197.471 74.0045C197.453 74.0205 197.433 74.033 197.411 74.0411C197.388 74.0492 197.365 74.0529 197.341 74.0519L197.322 74.0496Z" fill="#CC423B"/>
<path d="M193.595 76.8799C193.554 76.8739 193.517 76.8544 193.49 76.8247C193.462 76.7949 193.445 76.7566 193.442 76.716C193.439 76.6755 193.45 76.6352 193.473 76.6016C193.496 76.5681 193.53 76.5434 193.569 76.5315C193.654 76.5051 195.667 75.8428 196.133 72.4449C196.139 72.3978 196.164 72.3552 196.202 72.3264C196.24 72.2976 196.288 72.2849 196.335 72.2911H196.338C196.384 72.298 196.426 72.3231 196.455 72.3609C196.483 72.3986 196.495 72.4459 196.488 72.4926C195.99 76.1321 193.768 76.8449 193.674 76.8736C193.648 76.8818 193.621 76.8839 193.595 76.8799Z" fill="#CC423B"/>
<path d="M193.747 75.2074C193.7 75.2017 193.657 75.1775 193.627 75.1401C193.598 75.1027 193.585 75.0551 193.59 75.0079C193.596 74.9607 193.62 74.9178 193.658 74.8884C193.695 74.8591 193.743 74.8458 193.79 74.8515C193.832 74.855 194.69 74.8963 195.16 73.2697C195.173 73.224 195.204 73.1855 195.246 73.1625C195.287 73.1395 195.336 73.134 195.382 73.1472C195.428 73.1603 195.467 73.1911 195.49 73.2327C195.513 73.2743 195.518 73.3233 195.505 73.369C194.946 75.3067 193.804 75.2131 193.756 75.2085L193.747 75.2074Z" fill="#CC423B"/>
<path d="M184.908 61.8987H133.577C131.696 61.8987 130.431 59.9765 131.179 58.2552L136.944 44.9685C137.147 44.5023 137.482 44.1055 137.908 43.8268C138.334 43.5481 138.833 43.3997 139.342 43.3999H190.673C192.554 43.3999 193.819 45.3215 193.072 47.0428L187.307 60.3266C187.104 60.7934 186.769 61.191 186.343 61.4703C185.917 61.7496 185.418 61.8985 184.908 61.8987Z" fill="#5FC37A"/>
<path opacity="0.2" d="M172.506 46.9061H140.394C140.247 46.9061 140.106 46.8479 140.003 46.7444C139.899 46.6408 139.84 46.5004 139.84 46.3539C139.84 46.2814 139.854 46.2095 139.882 46.1425C139.91 46.0755 139.951 46.0146 140.002 45.9633C140.054 45.912 140.115 45.8713 140.182 45.8436C140.249 45.8159 140.321 45.8017 140.394 45.8018H172.506C172.653 45.8018 172.794 45.8599 172.898 45.9635C173.002 46.067 173.06 46.2075 173.06 46.3539C173.06 46.5004 173.002 46.6408 172.898 46.7443C172.794 46.8479 172.653 46.9061 172.506 46.9061Z" fill="black"/>
<path opacity="0.2" d="M188.444 49.8522H151.238C151.103 49.8522 150.973 49.7987 150.878 49.7036C150.782 49.6084 150.729 49.4794 150.729 49.3448C150.729 49.2102 150.782 49.0812 150.878 48.986C150.973 48.8909 151.103 48.8374 151.238 48.8374H188.444C188.579 48.8374 188.708 48.8909 188.803 48.986C188.899 49.0812 188.952 49.2102 188.952 49.3448C188.952 49.4794 188.899 49.6084 188.803 49.7036C188.708 49.7987 188.579 49.8522 188.444 49.8522Z" fill="black"/>
<path opacity="0.2" d="M164.603 53.1666H136.126C136.01 53.1665 135.898 53.1203 135.816 53.0383C135.734 52.9563 135.688 52.8452 135.688 52.7293C135.688 52.6134 135.734 52.5023 135.816 52.4204C135.898 52.3385 136.01 52.2925 136.126 52.2925H164.603C164.719 52.2925 164.83 52.3385 164.912 52.4204C164.995 52.5023 165.041 52.6134 165.041 52.7293C165.041 52.8452 164.995 52.9563 164.912 53.0383C164.83 53.1203 164.719 53.1665 164.603 53.1666Z" fill="black"/>
<path opacity="0.2" d="M187.619 53.1667H166.311C166.192 53.1667 166.078 53.1196 165.994 53.0357C165.91 52.9519 165.862 52.8382 165.862 52.7196C165.862 52.601 165.91 52.4873 165.994 52.4034C166.078 52.3196 166.192 52.2725 166.311 52.2725H187.619C187.738 52.2725 187.852 52.3196 187.936 52.4034C188.02 52.4873 188.067 52.601 188.067 52.7196C188.067 52.8382 188.02 52.9519 187.936 53.0357C187.852 53.1196 187.738 53.1667 187.619 53.1667Z" fill="black"/>
<path opacity="0.2" d="M162.942 56.2959H134.465C134.349 56.2959 134.237 56.2499 134.155 56.168C134.073 56.0861 134.027 55.975 134.027 55.8591C134.027 55.7433 134.073 55.6322 134.155 55.5503C134.237 55.4684 134.349 55.4224 134.465 55.4224H162.942C163.058 55.4224 163.169 55.4684 163.251 55.5503C163.333 55.6322 163.38 55.7433 163.38 55.8591C163.38 55.975 163.333 56.0861 163.251 56.168C163.169 56.2499 163.058 56.2959 162.942 56.2959Z" fill="black"/>
<path opacity="0.2" d="M185.775 59.1493H134.029C133.906 59.1493 133.788 59.1006 133.701 59.0139C133.614 58.9271 133.565 58.8094 133.565 58.6867C133.565 58.564 133.614 58.4464 133.701 58.3596C133.788 58.2729 133.906 58.2241 134.029 58.2241H185.775C185.898 58.2241 186.015 58.2729 186.102 58.3596C186.189 58.4464 186.238 58.564 186.238 58.6867C186.238 58.8094 186.189 58.9271 186.102 59.0139C186.015 59.1006 185.898 59.1493 185.775 59.1493Z" fill="black"/>
<path opacity="0.2" d="M185.958 56.2955H164.649C164.591 56.2956 164.532 56.2841 164.478 56.2617C164.424 56.2393 164.374 56.2064 164.333 56.1649C164.291 56.1235 164.258 56.0742 164.235 56.02C164.213 55.9658 164.201 55.9077 164.201 55.849C164.201 55.7304 164.248 55.6167 164.332 55.5328C164.417 55.449 164.531 55.4019 164.649 55.4019H185.958C186.077 55.4019 186.191 55.449 186.275 55.5328C186.359 55.6167 186.406 55.7304 186.406 55.849C186.406 55.9077 186.395 55.9658 186.372 56.02C186.35 56.0742 186.317 56.1235 186.275 56.1649C186.233 56.2064 186.184 56.2393 186.13 56.2617C186.075 56.2841 186.017 56.2956 185.958 56.2955Z" fill="black"/>
<path opacity="0.2" d="M188.866 46.9064H175.569C175.417 46.9064 175.272 46.8464 175.165 46.7396C175.058 46.6329 174.998 46.488 174.998 46.337C174.998 46.186 175.058 46.0411 175.165 45.9342C175.272 45.8274 175.417 45.7672 175.569 45.7671H188.866C189.017 45.7672 189.162 45.8274 189.269 45.9342C189.376 46.0411 189.436 46.186 189.436 46.337C189.436 46.4118 189.422 46.4858 189.393 46.5549C189.364 46.624 189.322 46.6868 189.269 46.7396C189.216 46.7925 189.153 46.8345 189.084 46.8631C189.015 46.8917 188.941 46.9064 188.866 46.9064Z" fill="black"/>
<path opacity="0.2" d="M142.286 49.8513H137.949C137.814 49.8513 137.685 49.798 137.59 49.7031C137.495 49.6081 137.441 49.4794 137.441 49.3451C137.441 49.2108 137.495 49.0821 137.59 48.9871C137.685 48.8922 137.814 48.8389 137.949 48.8389H142.286C142.42 48.8389 142.549 48.8922 142.644 48.9871C142.74 49.0821 142.793 49.2108 142.793 49.3451C142.793 49.4794 142.74 49.6081 142.644 49.7031C142.549 49.798 142.42 49.8513 142.286 49.8513Z" fill="black"/>
<path opacity="0.2" d="M149.022 49.8513H144.685C144.55 49.8513 144.421 49.798 144.326 49.7031C144.231 49.6081 144.177 49.4794 144.177 49.3451C144.177 49.2108 144.231 49.0821 144.326 48.9871C144.421 48.8922 144.55 48.8389 144.685 48.8389H149.022C149.156 48.8389 149.285 48.8922 149.381 48.9871C149.476 49.0821 149.529 49.2108 149.529 49.3451C149.529 49.4794 149.476 49.6081 149.381 49.7031C149.285 49.798 149.156 49.8513 149.022 49.8513Z" fill="black"/>
<path d="M160.778 181.098C160.74 181.229 160.733 181.366 160.758 181.5C160.782 181.634 160.837 181.76 160.919 181.869C161.001 181.977 161.107 182.066 161.229 182.127C161.351 182.188 161.485 182.219 161.621 182.22C167.922 182.235 196.761 182.317 202.059 182.21C202.302 182.205 202.536 182.121 202.726 181.971C202.916 181.821 203.052 181.614 203.113 181.38L211.875 147.924C211.968 147.565 211.98 147.19 211.907 146.826C211.835 146.463 211.681 146.12 211.457 145.825C211.232 145.529 210.944 145.288 210.613 145.119C210.282 144.951 209.917 144.859 209.545 144.852L174.286 144.141C173.445 144.124 172.622 144.387 171.948 144.889C171.273 145.39 170.785 146.101 170.561 146.91L160.778 181.098Z" fill="#FACF47"/>
<path opacity="0.54" d="M209.031 155.962H209.028L168.886 155.344C168.829 155.341 168.776 155.316 168.737 155.275C168.698 155.233 168.677 155.179 168.677 155.122C168.678 155.065 168.7 155.011 168.74 154.97C168.779 154.929 168.833 154.905 168.89 154.903H168.893L209.033 155.521C209.062 155.521 209.091 155.527 209.118 155.538C209.144 155.55 209.169 155.566 209.189 155.587C209.209 155.607 209.225 155.632 209.236 155.659C209.247 155.685 209.253 155.714 209.252 155.743C209.252 155.772 209.246 155.801 209.235 155.827C209.224 155.854 209.207 155.878 209.186 155.898C209.166 155.919 209.141 155.935 209.114 155.946C209.088 155.957 209.059 155.962 209.03 155.962H209.031Z" fill="#1A2E35"/>
<path d="M201.172 163.895L173.558 163.892C173.062 163.892 172.587 163.696 172.237 163.346C171.886 162.997 171.689 162.523 171.689 162.028C171.689 161.783 171.738 161.541 171.832 161.315C171.925 161.089 172.063 160.883 172.237 160.71C172.41 160.537 172.616 160.4 172.843 160.306C173.07 160.212 173.313 160.164 173.558 160.165H201.172C201.668 160.165 202.143 160.361 202.493 160.711C202.844 161.06 203.04 161.534 203.04 162.029C203.041 162.274 202.993 162.516 202.899 162.743C202.805 162.969 202.667 163.175 202.494 163.348C202.32 163.522 202.114 163.659 201.887 163.753C201.66 163.847 201.417 163.895 201.172 163.895Z" fill="#EDB341"/>
<path d="M197.724 173.334L170.11 173.33C169.865 173.331 169.622 173.282 169.395 173.189C169.168 173.095 168.962 172.958 168.789 172.785C168.615 172.612 168.478 172.406 168.384 172.18C168.29 171.954 168.242 171.712 168.242 171.467C168.242 170.972 168.438 170.498 168.789 170.149C169.139 169.799 169.614 169.603 170.11 169.603L197.724 169.606C198.219 169.606 198.695 169.802 199.045 170.152C199.396 170.502 199.593 170.976 199.593 171.47C199.592 171.964 199.395 172.438 199.045 172.788C198.694 173.137 198.219 173.334 197.724 173.334Z" fill="#EDB341"/>
<path d="M190.156 181.355H174.275C173.782 181.355 173.308 181.159 172.959 180.811C172.61 180.462 172.414 179.99 172.414 179.498C172.414 179.005 172.611 178.533 172.96 178.185C173.309 177.837 173.782 177.641 174.276 177.641H190.153C190.398 177.641 190.64 177.689 190.866 177.782C191.092 177.875 191.298 178.012 191.471 178.184C191.644 178.357 191.781 178.561 191.875 178.787C191.969 179.012 192.017 179.254 192.017 179.498C192.017 179.99 191.821 180.462 191.472 180.811C191.123 181.159 190.65 181.355 190.156 181.355Z" fill="#EDB341"/>
<path d="M224.48 46.8437C226.673 47.5818 232.589 48.9048 237.712 44.0536C237.844 43.927 238.018 43.8516 238.202 43.8411C238.385 43.8306 238.566 43.8856 238.713 43.9962C240.612 45.4369 247.459 49.989 255.577 47.6822C255.711 47.6436 255.852 47.6415 255.987 47.676C256.121 47.7106 256.244 47.7805 256.342 47.8786C256.44 47.9766 256.51 48.0992 256.545 48.2334C256.58 48.3677 256.577 48.5088 256.539 48.6419C254.849 54.3993 247.701 76.0486 234.799 79.7507C234.455 79.8505 234.092 79.8694 233.739 79.8059C233.385 79.7424 233.052 79.5981 232.764 79.3845C229.719 77.1225 220.531 68.427 223.461 47.4722C223.477 47.3592 223.518 47.2511 223.58 47.1556C223.643 47.0601 223.726 46.9795 223.823 46.9195C223.92 46.8596 224.03 46.8217 224.143 46.8085C224.257 46.7954 224.372 46.8074 224.48 46.8437Z" fill="#23AA53"/>
<path d="M222.979 46.2957C224.677 46.802 232.162 48.5956 237.889 42.9094C237.946 42.8505 238.025 42.8162 238.107 42.8136C238.189 42.8111 238.27 42.8404 238.331 42.8956C239.649 44.1009 246.692 50.0127 255.411 47.5636C255.465 47.5488 255.523 47.5487 255.578 47.5634C255.632 47.578 255.682 47.6068 255.722 47.6469C255.762 47.687 255.79 47.7369 255.804 47.7916C255.818 47.8462 255.818 47.9036 255.803 47.9579C254.679 51.9711 247.291 76.38 233.014 79.4008C232.936 79.418 232.853 79.4053 232.784 79.3652C231.483 78.6144 218.969 70.707 222.571 46.5569C222.577 46.5115 222.594 46.4681 222.619 46.4296C222.644 46.391 222.677 46.3583 222.715 46.3335C222.754 46.3088 222.798 46.2926 222.843 46.2861C222.889 46.2796 222.935 46.2829 222.979 46.2957Z" fill="#5FC37A"/>
<path d="M234.853 64.5752C234.762 64.5752 234.672 64.5538 234.59 64.5127C234.508 64.4716 234.438 64.412 234.383 64.3387L231.613 60.5999C231.566 60.5385 231.532 60.4684 231.513 60.3938C231.493 60.3191 231.489 60.2414 231.5 60.165C231.511 60.0887 231.537 60.0153 231.577 59.9491C231.616 59.8829 231.669 59.8252 231.731 59.7793C231.793 59.7335 231.864 59.7004 231.939 59.682C232.014 59.6636 232.092 59.6602 232.168 59.6721C232.245 59.684 232.318 59.7109 232.384 59.7512C232.45 59.7916 232.507 59.8446 232.552 59.9071L234.85 63.0065L242.692 52.2688C242.738 52.207 242.795 52.1547 242.86 52.1148C242.926 52.075 242.999 52.0484 243.075 52.0367C243.15 52.0249 243.228 52.0282 243.303 52.0463C243.377 52.0644 243.448 52.097 243.51 52.1423C243.572 52.1875 243.624 52.2445 243.664 52.3099C243.704 52.3754 243.73 52.448 243.742 52.5237C243.754 52.5994 243.751 52.6767 243.733 52.7511C243.714 52.8256 243.682 52.8957 243.636 52.9576L235.325 64.3358C235.271 64.4097 235.2 64.4699 235.118 64.5115C235.037 64.5531 234.946 64.5749 234.855 64.5752H234.853Z" fill="#CACDD0"/>
<path d="M234.578 64.2407C234.487 64.2408 234.397 64.2195 234.315 64.1785C234.233 64.1376 234.163 64.0781 234.108 64.0048L231.338 60.2654C231.251 60.141 231.216 59.9875 231.241 59.8378C231.265 59.688 231.347 59.5537 231.47 59.4635C231.592 59.3733 231.745 59.3343 231.896 59.3548C232.046 59.3753 232.183 59.4537 232.277 59.5732L234.574 62.6726L242.417 51.9344C242.509 51.8095 242.646 51.726 242.8 51.7022C242.953 51.6785 243.109 51.7165 243.234 51.8078C243.36 51.8991 243.443 52.0363 243.467 52.1892C243.491 52.3421 243.453 52.4982 243.361 52.6231L235.05 64.0014C234.996 64.0753 234.925 64.1354 234.843 64.177C234.762 64.2186 234.671 64.2404 234.58 64.2407H234.578Z" fill="white"/>
<path d="M238.645 137.42L233.478 132.184C233.409 132.114 233.319 132.066 233.222 132.047C233.125 132.027 233.024 132.038 232.932 132.076C232.841 132.114 232.763 132.179 232.709 132.262C232.654 132.345 232.626 132.442 232.628 132.541V151.088C232.628 152.207 233.523 153.114 234.627 153.114H252.786C252.903 153.113 253.018 153.089 253.126 153.044C253.233 152.998 253.33 152.932 253.412 152.849C253.494 152.767 253.559 152.668 253.602 152.561C253.646 152.453 253.668 152.338 253.667 152.221V138.575C253.669 138.34 253.577 138.114 253.412 137.947C253.247 137.779 253.022 137.684 252.786 137.682H239.268C239.152 137.682 239.037 137.659 238.93 137.614C238.823 137.569 238.726 137.503 238.645 137.42Z" fill="#1D8D80"/>
<path d="M238.137 136.822L232.971 131.586C232.901 131.515 232.812 131.467 232.714 131.448C232.617 131.429 232.516 131.439 232.425 131.477C232.333 131.516 232.255 131.581 232.201 131.663C232.147 131.746 232.119 131.844 232.12 131.943V150.49C232.12 151.608 233.016 152.516 234.12 152.516H252.278C252.395 152.515 252.51 152.491 252.618 152.446C252.725 152.4 252.823 152.334 252.904 152.251C252.986 152.168 253.051 152.07 253.095 151.962C253.139 151.854 253.161 151.739 253.16 151.623V137.977C253.161 137.861 253.139 137.745 253.095 137.638C253.051 137.53 252.986 137.431 252.904 137.349C252.823 137.266 252.725 137.2 252.618 137.154C252.51 137.109 252.395 137.085 252.278 137.084H238.76C238.644 137.084 238.529 137.061 238.423 137.016C238.316 136.971 238.219 136.905 238.137 136.822Z" fill="#5FC37A"/>
<path d="M241.563 140.927C241.756 140.934 241.906 140.99 242.01 141.095C242.059 141.138 242.097 141.191 242.122 141.251C242.147 141.31 242.158 141.375 242.155 141.439C242.155 141.556 242.109 141.668 242.028 141.752C241.919 141.857 241.781 141.926 241.632 141.949C241.493 141.957 241.348 141.961 241.197 141.961H240.773C240.773 142.641 240.775 143.319 240.778 143.995C240.782 144.671 240.784 145.349 240.784 146.03C240.791 146.44 240.677 146.842 240.458 147.189C240.241 147.521 239.938 147.79 239.582 147.966C239.221 148.154 238.82 148.252 238.414 148.253C238.141 148.254 237.871 148.205 237.617 148.108C237.362 148.009 237.137 147.847 236.961 147.639H236.972C236.949 147.615 236.904 147.561 236.839 147.476C236.773 147.391 236.705 147.298 236.636 147.198C236.566 147.097 236.501 147.005 236.443 146.92C236.404 146.872 236.374 146.817 236.356 146.758C236.284 146.669 236.243 146.559 236.241 146.444C236.241 146.38 236.254 146.315 236.28 146.256C236.306 146.197 236.344 146.143 236.392 146.1C236.443 146.052 236.504 146.014 236.569 145.989C236.635 145.964 236.706 145.953 236.776 145.955C236.94 145.961 237.099 146.018 237.229 146.118C237.34 146.233 237.43 146.366 237.496 146.511C237.541 146.593 237.589 146.672 237.642 146.749C237.691 146.822 237.748 146.89 237.81 146.952C237.987 147.116 238.22 147.207 238.461 147.207C238.616 147.207 238.769 147.175 238.912 147.115C239.055 147.056 239.186 146.969 239.296 146.86C239.37 146.794 239.434 146.718 239.487 146.634C239.536 146.558 239.569 146.473 239.586 146.385C239.625 146.083 239.65 145.786 239.662 145.492C239.673 145.198 239.679 144.905 239.679 144.611C239.679 144.201 239.673 143.764 239.662 143.301C239.65 142.837 239.636 142.397 239.621 141.981C239.342 141.996 239.06 142.002 238.773 141.998C238.486 141.994 238.207 141.992 237.936 141.992C237.781 141.992 237.63 141.992 237.483 141.998C237.335 142.004 237.184 142.004 237.029 142.004C236.869 141.986 236.719 141.914 236.605 141.801C236.561 141.758 236.526 141.707 236.503 141.65C236.48 141.593 236.469 141.532 236.472 141.47C236.472 141.262 236.622 141.096 236.924 140.972C237.118 140.972 237.316 140.972 237.518 140.966C237.72 140.961 237.92 140.961 238.122 140.961C238.377 140.961 238.65 140.959 238.941 140.954C239.232 140.95 239.528 140.948 239.83 140.949C240.132 140.949 240.431 140.947 240.725 140.943C241.019 140.939 241.298 140.934 241.563 140.927Z" fill="white"/>
<path d="M243.767 147.018C243.717 146.917 243.689 146.806 243.686 146.693C243.684 146.628 243.696 146.564 243.722 146.504C243.749 146.444 243.788 146.391 243.837 146.349C243.944 146.258 244.08 146.211 244.22 146.216C244.302 146.215 244.383 146.231 244.459 146.262C244.538 146.297 244.614 146.34 244.685 146.39C244.935 146.613 245.217 146.799 245.522 146.94C245.827 147.067 246.156 147.128 246.487 147.12C246.905 147.12 247.206 147.033 247.387 146.86C247.57 146.685 247.676 146.447 247.684 146.195C247.691 145.932 247.635 145.718 247.515 145.552C247.397 145.389 247.242 145.256 247.062 145.164C246.876 145.07 246.679 145.001 246.475 144.957C246.266 144.91 246.08 144.875 245.917 144.852C245.655 144.806 245.397 144.741 245.145 144.655C244.906 144.577 244.681 144.464 244.476 144.32C244.285 144.184 244.126 144.007 244.011 143.804C243.89 143.578 243.834 143.324 243.849 143.069C243.847 142.737 243.946 142.412 244.133 142.137C244.314 141.879 244.55 141.664 244.823 141.506C245.11 141.341 245.421 141.22 245.744 141.147C246.068 141.072 246.399 141.033 246.732 141.032C246.978 141.03 247.224 141.057 247.464 141.113C247.682 141.167 247.893 141.248 248.092 141.354C248.189 141.404 248.271 141.479 248.33 141.571C248.378 141.647 248.404 141.734 248.405 141.823C248.404 141.893 248.388 141.961 248.359 142.025C248.329 142.096 248.283 142.159 248.225 142.21C248.163 142.262 248.089 142.299 248.011 142.32C247.917 142.342 247.82 142.334 247.732 142.296C247.529 142.234 247.328 142.178 247.127 142.128C246.922 142.078 246.711 142.052 246.5 142.053C246.33 142.054 246.161 142.069 245.994 142.099C245.827 142.128 245.666 142.182 245.517 142.262C245.378 142.336 245.253 142.436 245.151 142.557C245.047 142.688 244.987 142.849 244.979 143.016C244.97 143.09 244.981 143.165 245.009 143.234C245.038 143.303 245.083 143.364 245.142 143.41C245.263 143.517 245.4 143.605 245.548 143.671C245.679 143.731 245.815 143.778 245.955 143.81C246.079 143.837 246.137 143.851 246.128 143.851C246.445 143.921 246.742 143.992 247.017 144.065C247.336 144.157 247.642 144.288 247.929 144.454C248.214 144.606 248.448 144.838 248.604 145.12C248.759 145.407 248.838 145.728 248.834 146.053C248.841 146.368 248.775 146.679 248.642 146.964C248.52 147.215 248.343 147.435 248.124 147.607C247.901 147.78 247.65 147.911 247.381 147.995C247.098 148.085 246.805 148.133 246.509 148.14C246.242 148.148 245.974 148.124 245.712 148.07C245.452 148.019 245.197 147.942 244.952 147.841C244.719 147.744 244.497 147.624 244.289 147.481C244.1 147.353 243.928 147.201 243.778 147.029L243.767 147.018Z" fill="white"/>
<path d="M119.558 24.3784H96.7072C96.164 24.3784 95.7238 24.8588 95.7238 25.4512V34.9055C95.7238 35.4978 96.164 35.9782 96.7072 35.9782H106.398C106.529 35.9783 106.658 36.0058 106.777 36.0591L113.617 39.1298C113.986 39.286 114.322 38.8503 114.082 38.5278L112.566 36.4873C112.53 36.4402 112.509 36.3843 112.504 36.3258C112.498 36.2673 112.509 36.2084 112.535 36.1557C112.561 36.103 112.602 36.0585 112.651 36.0272C112.701 35.9959 112.759 35.9789 112.818 35.9782H119.556C120.099 35.9782 120.539 35.4978 120.539 34.9055V25.4512C120.541 24.8611 120.101 24.3784 119.558 24.3784Z" fill="#FACF47"/>
<path d="M119.099 24H95.9943C95.4448 24 95 24.4879 95 25.0905V34.6952C95 35.2967 95.4448 35.7858 95.9943 35.7858H105.546L113.093 38.9879C113.466 39.1457 113.806 38.7009 113.564 38.3755L111.647 35.7858H119.099C119.648 35.7858 120.093 35.2979 120.093 34.6952V25.0905C120.092 24.4879 119.648 24 119.099 24Z" fill="#FACF47"/>
<path d="M103.77 30.6326C103.866 30.5518 103.989 30.5081 104.115 30.5092C104.221 30.5071 104.323 30.5448 104.403 30.6148C104.441 30.6488 104.472 30.691 104.493 30.7383C104.514 30.7857 104.524 30.8369 104.522 30.8885C104.517 30.9552 104.502 31.0207 104.478 31.0831C104.375 31.2397 104.262 31.3901 104.141 31.5337C104.02 31.6787 103.881 31.8091 103.729 31.9223C103.577 32.0355 103.408 32.1261 103.229 32.1914C103.036 32.2609 102.832 32.2953 102.627 32.293C102.318 32.2964 102.012 32.23 101.733 32.099C101.464 31.972 101.226 31.7897 101.034 31.5641C100.835 31.331 100.682 31.0624 100.583 30.7726C100.474 30.4587 100.421 30.1288 100.423 29.7969C100.421 29.5666 100.454 29.3373 100.52 29.1167C100.598 28.8596 100.702 28.6111 100.831 28.3752C100.944 28.1686 101.087 27.9796 101.255 27.8138C101.426 27.6479 101.616 27.5028 101.822 27.3816C102.057 27.2436 102.303 27.1238 102.557 27.0235H102.548C102.708 26.9536 102.872 26.8947 103.039 26.8473C103.188 26.8062 103.342 26.7854 103.496 26.7853C103.71 26.7819 103.92 26.8455 104.096 26.9672C104.274 27.0904 104.439 27.3024 104.592 27.6032C104.604 27.6494 104.61 27.6968 104.61 27.7444C104.612 27.796 104.602 27.8473 104.581 27.8946C104.56 27.942 104.53 27.9841 104.491 28.0182C104.412 28.0885 104.309 28.1264 104.203 28.1243C104.129 28.1229 104.057 28.1065 103.99 28.0761C103.922 28.0457 103.862 28.002 103.813 27.9476C103.755 27.8433 103.69 27.743 103.618 27.6474C103.6 27.6213 103.577 27.5998 103.549 27.5845C103.521 27.5691 103.491 27.5604 103.459 27.559C103.404 27.5628 103.351 27.5748 103.3 27.5946C103.229 27.6175 103.152 27.6445 103.069 27.6738L102.928 27.7266C102.711 27.8082 102.503 27.9119 102.308 28.0359C102.114 28.1586 101.94 28.3088 101.79 28.4819C101.637 28.6603 101.515 28.8635 101.431 29.0829C101.339 29.3327 101.293 29.5976 101.298 29.864C101.298 30.0691 101.328 30.2731 101.387 30.4696C101.442 30.66 101.531 30.8392 101.648 30.9993C101.76 31.1527 101.904 31.2806 102.069 31.3747C102.242 31.4708 102.437 31.5195 102.636 31.5159C102.757 31.5166 102.876 31.4893 102.985 31.4361C103.095 31.383 103.196 31.3148 103.286 31.2335C103.38 31.1485 103.466 31.0553 103.543 30.9551C103.62 30.8558 103.69 30.7509 103.751 30.6412L103.77 30.6326Z" fill="#1A2E35"/>
<path d="M105.362 31.4364C105.324 31.3595 105.303 31.275 105.301 31.189C105.299 31.1398 105.309 31.091 105.329 31.046C105.349 31.001 105.378 30.9611 105.416 30.929C105.497 30.8607 105.601 30.8255 105.708 30.8303C105.77 30.8297 105.832 30.8416 105.889 30.8653C105.95 30.8917 106.008 30.9244 106.062 30.9629C106.253 31.1332 106.467 31.2745 106.7 31.3818C106.932 31.4784 107.182 31.5252 107.434 31.519C107.752 31.519 107.981 31.453 108.12 31.321C108.259 31.1879 108.34 31.0057 108.346 30.8136C108.359 30.6409 108.314 30.4687 108.217 30.3246C108.128 30.1999 108.009 30.0986 107.872 30.0296C107.731 29.9578 107.58 29.9043 107.425 29.8706C107.266 29.8356 107.124 29.8086 107 29.7914C106.8 29.7561 106.603 29.706 106.411 29.6416C106.23 29.582 106.058 29.4957 105.902 29.3856C105.757 29.2824 105.636 29.1486 105.548 28.9936C105.456 28.8216 105.413 28.6279 105.424 28.4334C105.423 28.1805 105.498 27.9331 105.641 27.724C105.779 27.5273 105.959 27.3633 106.168 27.2436C106.386 27.1179 106.621 27.0258 106.867 26.9704C107.114 26.9122 107.366 26.8825 107.62 26.882C107.807 26.8799 107.995 26.9006 108.178 26.9434C108.344 26.9845 108.505 27.046 108.656 27.1265C108.73 27.1649 108.792 27.2221 108.837 27.2924C108.874 27.35 108.894 27.4165 108.895 27.4846C108.893 27.5375 108.881 27.5896 108.86 27.6379C108.837 27.692 108.802 27.7401 108.758 27.7785C108.71 27.8187 108.654 27.8474 108.594 27.8623C108.523 27.8797 108.448 27.8736 108.381 27.8451C108.228 27.7974 108.074 27.755 107.921 27.7165C107.765 27.6781 107.604 27.6588 107.443 27.6591C107.314 27.6597 107.185 27.6716 107.057 27.6947C106.931 27.7163 106.808 27.758 106.694 27.8181C106.588 27.8749 106.493 27.9515 106.416 28.0437C106.336 28.1428 106.289 28.2648 106.283 28.3921C106.276 28.4485 106.284 28.5058 106.306 28.5583C106.328 28.6109 106.362 28.6572 106.407 28.6928C106.5 28.7741 106.604 28.841 106.717 28.8914C106.818 28.936 106.923 28.9703 107.031 28.9936C107.125 29.0142 107.17 29.024 107.164 29.024C107.406 29.0772 107.632 29.1317 107.842 29.1876C108.084 29.2579 108.318 29.3573 108.536 29.4837C108.753 29.5998 108.932 29.7763 109.05 29.9917C109.169 30.2096 109.23 30.4542 109.227 30.7023C109.233 30.9415 109.183 31.1789 109.081 31.3956C108.989 31.5868 108.854 31.7544 108.687 31.8858C108.517 32.0177 108.325 32.118 108.12 32.1819C107.905 32.2501 107.682 32.2872 107.456 32.2921C107.253 32.2975 107.049 32.2798 106.85 32.2393C106.651 32.1995 106.457 32.1402 106.27 32.0626C106.092 31.9892 105.923 31.8975 105.765 31.7888C105.621 31.6913 105.49 31.5755 105.376 31.4444L105.362 31.4364Z" fill="#1A2E35"/>
<path d="M110.074 31.4364C110.036 31.3595 110.014 31.275 110.012 31.189C110.011 31.1399 110.02 31.0911 110.04 31.0461C110.06 31.0011 110.09 30.9611 110.127 30.929C110.208 30.8597 110.313 30.8235 110.419 30.8274C110.482 30.8267 110.543 30.8386 110.601 30.8624C110.662 30.8887 110.719 30.9214 110.773 30.96C110.964 31.1305 111.179 31.2717 111.411 31.379C111.643 31.4767 111.894 31.5244 112.146 31.519C112.465 31.519 112.694 31.453 112.832 31.321C112.971 31.188 113.052 31.0058 113.058 30.8136C113.071 30.6409 113.026 30.4687 112.93 30.3246C112.84 30.1999 112.722 30.0986 112.585 30.0296C112.443 29.9577 112.292 29.9043 112.137 29.8706C111.978 29.8356 111.836 29.8086 111.712 29.7914C111.513 29.7561 111.316 29.706 111.124 29.6416C110.942 29.582 110.771 29.4957 110.615 29.3856C110.469 29.2824 110.348 29.1486 110.26 28.9936C110.168 28.8218 110.125 28.6279 110.136 28.4334C110.135 28.1805 110.211 27.9331 110.353 27.724C110.492 27.5275 110.671 27.3635 110.88 27.2436C111.098 27.118 111.334 27.0259 111.579 26.9704C111.826 26.9122 112.079 26.8825 112.332 26.882C112.52 26.88 112.707 26.9006 112.89 26.9434C113.057 26.9845 113.217 27.046 113.368 27.1265C113.442 27.1651 113.505 27.2223 113.55 27.2924C113.586 27.35 113.606 27.4165 113.607 27.4846C113.606 27.5376 113.594 27.5897 113.572 27.6379C113.549 27.6919 113.514 27.7401 113.47 27.7785C113.423 27.8187 113.367 27.8474 113.306 27.8623C113.235 27.8797 113.161 27.8736 113.094 27.8451C112.94 27.7974 112.787 27.755 112.634 27.7165C112.477 27.6781 112.317 27.6588 112.155 27.6591C112.026 27.6597 111.898 27.6716 111.771 27.6947C111.644 27.7163 111.521 27.7579 111.407 27.8181C111.301 27.8749 111.206 27.9515 111.128 28.0437C111.049 28.1431 111.002 28.2649 110.995 28.3921C110.989 28.4486 110.997 28.5058 111.019 28.5583C111.041 28.6109 111.075 28.6572 111.12 28.6928C111.212 28.7741 111.317 28.841 111.429 28.8914C111.529 28.9371 111.633 28.9727 111.739 28.9976C111.834 29.0183 111.878 29.028 111.872 29.028C112.114 29.0812 112.34 29.1357 112.55 29.1916C112.793 29.2609 113.026 29.3594 113.245 29.4849C113.462 29.6011 113.641 29.7775 113.759 29.9928C113.878 30.2108 113.939 30.4554 113.936 30.7034C113.942 30.9426 113.892 31.18 113.79 31.3968C113.698 31.5878 113.563 31.7554 113.396 31.8869C113.226 32.0187 113.034 32.1191 112.829 32.1831C112.614 32.2512 112.391 32.2883 112.165 32.2933C111.962 32.2987 111.758 32.281 111.559 32.2405C111.36 32.2007 111.166 32.1415 110.979 32.0637C110.801 31.9905 110.632 31.8987 110.474 31.7899C110.33 31.6923 110.199 31.5766 110.084 31.4455L110.074 31.4364Z" fill="#1A2E35"/>
<path opacity="0.54" d="M207.433 112.046H174.214C174.154 112.048 174.095 112.038 174.039 112.017C173.984 111.996 173.933 111.964 173.891 111.923C173.848 111.882 173.814 111.832 173.79 111.778C173.767 111.723 173.755 111.664 173.755 111.605C173.755 111.546 173.767 111.487 173.79 111.432C173.814 111.378 173.848 111.328 173.891 111.287C173.933 111.246 173.984 111.214 174.039 111.193C174.095 111.172 174.154 111.162 174.214 111.164H207.433C207.492 111.162 207.552 111.172 207.607 111.193C207.663 111.214 207.713 111.246 207.756 111.287C207.799 111.328 207.833 111.378 207.856 111.432C207.879 111.487 207.891 111.546 207.891 111.605C207.891 111.664 207.879 111.723 207.856 111.778C207.833 111.832 207.799 111.882 207.756 111.923C207.713 111.964 207.663 111.996 207.607 112.017C207.552 112.038 207.492 112.048 207.433 112.046ZM207.433 105.281H174.214C174.154 105.283 174.095 105.273 174.039 105.252C173.984 105.231 173.933 105.199 173.891 105.157C173.848 105.116 173.814 105.067 173.79 105.012C173.767 104.958 173.755 104.899 173.755 104.84C173.755 104.78 173.767 104.722 173.79 104.667C173.814 104.613 173.848 104.563 173.891 104.522C173.933 104.481 173.984 104.449 174.039 104.427C174.095 104.406 174.154 104.396 174.214 104.399H207.433C207.492 104.396 207.552 104.406 207.607 104.427C207.663 104.449 207.713 104.481 207.756 104.522C207.799 104.563 207.833 104.613 207.856 104.667C207.879 104.722 207.891 104.78 207.891 104.84C207.891 104.899 207.879 104.958 207.856 105.012C207.833 105.067 207.799 105.116 207.756 105.157C207.713 105.199 207.663 105.231 207.607 105.252C207.552 105.273 207.492 105.283 207.433 105.281ZM214.077 98.5155H180.857C180.743 98.5114 180.634 98.4631 180.555 98.3808C180.475 98.2985 180.431 98.1887 180.431 98.0744C180.431 97.9601 180.475 97.8502 180.555 97.768C180.634 97.6857 180.743 97.6374 180.857 97.6333H214.077C214.192 97.6374 214.3 97.6857 214.38 97.768C214.459 97.8502 214.504 97.9601 214.504 98.0744C214.504 98.1887 214.459 98.2985 214.38 98.3808C214.3 98.4631 214.192 98.5114 214.077 98.5155Z" fill="#1A2E35"/>
<path opacity="0.3" d="M244.89 119.612H203.948C203.672 119.612 203.399 119.545 203.153 119.417C202.908 119.289 202.697 119.103 202.539 118.877C202.381 118.65 202.28 118.388 202.245 118.114C202.21 117.84 202.241 117.562 202.337 117.303L209.336 98.3667C209.458 98.0375 209.678 97.7534 209.967 97.5527C210.255 97.3521 210.599 97.2446 210.95 97.2446H251.891C252.168 97.245 252.441 97.3121 252.686 97.4402C252.931 97.5682 253.142 97.7535 253.3 97.9802C253.458 98.2069 253.559 98.4683 253.594 98.7422C253.63 99.0162 253.598 99.2945 253.502 99.5537L246.502 118.49C246.381 118.819 246.161 119.103 245.873 119.304C245.584 119.504 245.241 119.612 244.89 119.612Z" fill="black"/>
<path d="M244.243 118.968H203.302C203.025 118.968 202.753 118.901 202.507 118.772C202.262 118.644 202.051 118.459 201.893 118.232C201.735 118.006 201.634 117.744 201.599 117.47C201.564 117.196 201.595 116.918 201.691 116.659L208.691 97.7222C208.812 97.3934 209.032 97.1096 209.32 96.909C209.608 96.7084 209.951 96.6006 210.302 96.6001H251.243C251.52 96.6005 251.793 96.6676 252.038 96.7957C252.283 96.9237 252.494 97.1089 252.652 97.3356C252.81 97.5623 252.911 97.8238 252.946 98.0977C252.982 98.3716 252.95 98.65 252.854 98.9091L245.857 117.846C245.735 118.175 245.515 118.459 245.227 118.66C244.938 118.86 244.595 118.968 244.243 118.968Z" fill="#F76559"/>
<path d="M233.487 114.762C233.339 114.762 233.195 114.718 233.073 114.636C232.95 114.554 232.855 114.438 232.799 114.302C232.743 114.166 232.729 114.016 232.758 113.872C232.788 113.728 232.86 113.595 232.965 113.492L238.678 107.867L232.978 102.529C232.905 102.463 232.846 102.383 232.805 102.294C232.763 102.205 232.74 102.108 232.736 102.01C232.732 101.912 232.748 101.814 232.783 101.721C232.817 101.629 232.87 101.545 232.937 101.473C233.005 101.402 233.086 101.344 233.176 101.304C233.266 101.264 233.363 101.242 233.461 101.239C233.56 101.237 233.658 101.254 233.75 101.29C233.841 101.326 233.925 101.379 233.996 101.447L240.261 107.313C240.334 107.381 240.392 107.463 240.432 107.555C240.473 107.646 240.494 107.745 240.495 107.845C240.496 107.944 240.477 108.043 240.439 108.136C240.401 108.228 240.345 108.312 240.274 108.382L234.009 114.548C233.87 114.686 233.683 114.763 233.487 114.762Z" fill="#CC423B"/>
<path d="M220.317 114.84C220.124 114.841 219.938 114.767 219.799 114.633L213.643 108.726C213.571 108.657 213.514 108.575 213.475 108.484C213.436 108.393 213.415 108.295 213.415 108.196C213.414 108.097 213.434 107.999 213.472 107.907C213.51 107.816 213.566 107.733 213.636 107.663L219.939 101.459C220.08 101.322 220.269 101.247 220.466 101.249C220.662 101.251 220.85 101.33 220.988 101.469C221.126 101.609 221.203 101.797 221.202 101.993C221.202 102.189 221.123 102.377 220.984 102.516L215.224 108.184L220.831 113.564C220.937 113.667 221.011 113.799 221.042 113.944C221.073 114.089 221.06 114.239 221.004 114.377C220.948 114.514 220.853 114.631 220.729 114.714C220.606 114.797 220.461 114.841 220.313 114.84H220.317Z" fill="#CC423B"/>
<path d="M223.622 117.58C223.502 117.58 223.384 117.551 223.277 117.495C223.171 117.44 223.08 117.359 223.011 117.261C222.943 117.162 222.899 117.049 222.884 116.93C222.869 116.811 222.883 116.69 222.926 116.578L229.613 98.7477C229.687 98.5711 229.827 98.4299 230.003 98.3537C230.179 98.2775 230.378 98.2722 230.558 98.339C230.738 98.4057 230.885 98.5392 230.969 98.7117C231.052 98.8841 231.066 99.0822 231.006 99.2643L224.319 117.097C224.266 117.239 224.171 117.361 224.047 117.447C223.922 117.534 223.774 117.58 223.622 117.58Z" fill="#CC423B"/>
<path d="M262.179 72.1824C262.179 70.472 263.078 69.4526 264.324 69.4526C265.57 69.4526 266.477 70.472 266.477 72.1824C266.477 73.8928 265.57 74.9105 264.324 74.9105C263.078 74.9105 262.179 73.8928 262.179 72.1824ZM265.908 72.1824C265.908 70.7475 265.263 69.9583 264.324 69.9583C263.386 69.9583 262.741 70.7486 262.741 72.1824C262.741 73.6162 263.386 74.4065 264.324 74.4065C265.262 74.4065 265.908 73.6167 265.908 72.1824Z" fill="#1A2E35"/>
<path d="M267.266 72.1824C267.266 70.472 268.166 69.4526 269.411 69.4526C270.657 69.4526 271.564 70.472 271.564 72.1824C271.564 73.8928 270.657 74.9105 269.411 74.9105C268.166 74.9105 267.266 73.8928 267.266 72.1824ZM270.995 72.1824C270.995 70.7475 270.35 69.9583 269.411 69.9583C268.473 69.9583 267.828 70.7486 267.828 72.1824C267.828 73.6162 268.473 74.4065 269.411 74.4065C270.349 74.4065 270.995 73.6167 270.995 72.1824Z" fill="#1A2E35"/>
<path d="M273.83 69.498V74.8663H273.276V69.9876H272.007V69.498H273.83Z" fill="#1A2E35"/>
<path d="M275.112 72.1824C275.112 70.472 276.012 69.4526 277.257 69.4526C278.503 69.4526 279.41 70.472 279.41 72.1824C279.41 73.8928 278.503 74.9105 277.257 74.9105C276.012 74.9105 275.112 73.8928 275.112 72.1824ZM278.841 72.1824C278.841 70.7475 278.195 69.9583 277.257 69.9583C276.319 69.9583 275.673 70.7486 275.673 72.1824C275.673 73.6162 276.319 74.4065 277.257 74.4065C278.195 74.4065 278.844 73.6167 278.844 72.1824H278.841Z" fill="#1A2E35"/>
<path d="M281.676 69.498V74.8663H281.122V69.9876H279.854V69.498H281.676Z" fill="#1A2E35"/>
<path d="M256.883 79.7972C256.883 78.0873 257.783 77.0674 259.028 77.0674C260.274 77.0674 261.181 78.0873 261.181 79.7972C261.181 81.507 260.274 82.5275 259.028 82.5275C257.783 82.5275 256.883 81.5076 256.883 79.7972ZM260.612 79.7972C260.612 78.3622 259.966 77.5736 259.028 77.5736C258.09 77.5736 257.444 78.3634 257.444 79.7972C257.444 81.2309 258.09 82.0213 259.028 82.0213C259.966 82.0213 260.612 81.2315 260.612 79.7972Z" fill="#1A2E35"/>
<path d="M261.97 79.7972C261.97 78.0873 262.87 77.0674 264.115 77.0674C265.361 77.0674 266.268 78.0873 266.268 79.7972C266.268 81.507 265.361 82.5275 264.115 82.5275C262.87 82.5275 261.97 81.5076 261.97 79.7972ZM265.699 79.7972C265.699 78.3622 265.053 77.5736 264.115 77.5736C263.177 77.5736 262.531 78.3634 262.531 79.7972C262.531 81.2309 263.177 82.0213 264.115 82.0213C265.053 82.0213 265.699 81.2315 265.699 79.7972Z" fill="#1A2E35"/>
<path d="M268.534 77.1135V82.4817H267.98V77.603H266.712V77.1123L268.534 77.1135Z" fill="#1A2E35"/>
<path d="M269.816 79.7972C269.816 78.0873 270.716 77.0674 271.961 77.0674C273.207 77.0674 274.114 78.0873 274.114 79.7972C274.114 81.507 273.207 82.5275 271.961 82.5275C270.716 82.5275 269.816 81.5076 269.816 79.7972ZM273.545 79.7972C273.545 78.3622 272.899 77.5736 271.961 77.5736C271.024 77.5736 270.377 78.3634 270.377 79.7972C270.377 81.2309 271.023 82.0213 271.961 82.0213C272.9 82.0213 273.545 81.2315 273.545 79.7972Z" fill="#1A2E35"/>
<path d="M276.38 77.1135V82.4817H275.826V77.603H274.56V77.1123L276.38 77.1135Z" fill="#1A2E35"/>
<path d="M279.154 77.1135V82.4817H278.6V77.603H277.332V77.1123L279.154 77.1135Z" fill="#1A2E35"/>
<path d="M280.436 79.7972C280.436 78.0873 281.335 77.0674 282.581 77.0674C283.827 77.0674 284.734 78.0873 284.734 79.7972C284.734 81.507 283.827 82.5275 282.581 82.5275C281.335 82.5275 280.436 81.5076 280.436 79.7972ZM284.165 79.7972C284.165 78.3622 283.519 77.5736 282.581 77.5736C281.643 77.5736 280.997 78.3634 280.997 79.7972C280.997 81.2309 281.643 82.0213 282.581 82.0213C283.519 82.0213 284.165 81.2315 284.165 79.7972Z" fill="#1A2E35"/>
<path d="M287 77.1135V82.4817H286.446V77.603H285.18V77.1123L287 77.1135Z" fill="#1A2E35"/>
<path d="M262.18 87.1619C262.18 85.4521 263.08 84.4321 264.325 84.4321C265.571 84.4321 266.478 85.4521 266.478 87.1619C266.478 88.8717 265.571 89.8922 264.325 89.8922C263.08 89.8922 262.18 88.8723 262.18 87.1619ZM265.909 87.1619C265.909 85.727 265.263 84.9384 264.325 84.9384C263.387 84.9384 262.741 85.7281 262.741 87.1619C262.741 88.5957 263.387 89.386 264.325 89.386C265.263 89.386 265.909 88.5962 265.909 87.1619Z" fill="#1A2E35"/>
<path d="M268.744 84.4777V89.846H268.19V84.9673H266.922V84.4766L268.744 84.4777Z" fill="#1A2E35"/>
<path d="M271.518 84.4777V89.846H270.964V84.9673H269.696V84.4766L271.518 84.4777Z" fill="#1A2E35"/>
<path d="M274.292 84.4777V89.846H273.738V84.9673H272.472V84.4766L274.292 84.4777Z" fill="#1A2E35"/>
<path d="M275.574 87.1619C275.574 85.4521 276.474 84.4321 277.719 84.4321C278.965 84.4321 279.872 85.4521 279.872 87.1619C279.872 88.8717 278.965 89.8922 277.719 89.8922C276.474 89.8922 275.574 88.8723 275.574 87.1619ZM279.303 87.1619C279.303 85.727 278.657 84.9384 277.719 84.9384C276.782 84.9384 276.135 85.7281 276.135 87.1619C276.135 88.5957 276.781 89.386 277.719 89.386C278.658 89.386 279.305 88.5962 279.305 87.1619H279.303Z" fill="#1A2E35"/>
<path d="M282.138 84.4777V89.846H281.584V84.9673H280.318V84.4766L282.138 84.4777Z" fill="#1A2E35"/>
</g>
<defs>
<clipPath id="clip0_297_14971">
<rect width="192" height="220" fill="white" transform="translate(95 24)"/>
</clipPath>
</defs>
</svg>
