<svg width="16" height="16" viewBox="0 0 16 16" fill="none" xmlns="http://www.w3.org/2000/svg">
<g clip-path="url(#clip0_362_4698)">
<path d="M0.342199 7.90452C0.341824 9.24883 0.695779 10.5615 1.36882 11.7184L0.277832 15.6714L4.35432 14.6107C5.48182 15.2198 6.74511 15.539 8.02886 15.5391H8.03223C12.2701 15.5391 15.7199 12.1169 15.7217 7.91054C15.7225 5.87227 14.9234 3.95562 13.4714 2.51364C12.0197 1.07178 10.089 0.277297 8.03192 0.276367C3.79352 0.276367 0.344011 3.69838 0.342261 7.90452" fill="url(#paint0_linear_362_4698)"/>
<path d="M0.067538 7.90177C0.0671005 9.29445 0.433742 10.654 1.13078 11.8524L0.000671387 15.9471L4.22333 14.8484C5.38681 15.4779 6.69677 15.8098 8.02972 15.8103H8.03316C12.4231 15.8103 15.9968 12.265 15.9987 7.90809C15.9994 5.79659 15.1715 3.81104 13.6677 2.3174C12.1637 0.823938 10.164 0.000868217 8.03316 0C3.64246 0 0.0692878 3.54481 0.067538 7.90177ZM2.58222 11.646L2.42455 11.3976C1.76176 10.3518 1.41193 9.14326 1.41243 7.90226C1.41387 4.28087 4.38375 1.33457 8.03566 1.33457C9.80419 1.33532 11.4662 2.01947 12.7163 3.26078C13.9664 4.5022 14.6542 6.15243 14.6538 7.9076C14.6521 11.529 11.6822 14.4757 8.03316 14.4757H8.03054C6.84237 14.475 5.67708 14.1584 4.66083 13.56L4.41899 13.4177L1.91318 14.0696L2.58222 11.646V11.646Z" fill="url(#paint1_linear_362_4698)"/>
<path d="M6.04294 4.5988C5.89384 4.26993 5.73692 4.26329 5.59513 4.25753C5.47902 4.25256 5.34628 4.25294 5.21367 4.25294C5.08094 4.25294 4.86528 4.30249 4.68299 4.50001C4.50051 4.69771 3.98633 5.17548 3.98633 6.1472C3.98633 7.11898 4.69955 8.05808 4.79898 8.18999C4.89853 8.32165 6.17586 10.3796 8.19886 11.1713C9.88015 11.8292 10.2223 11.6983 10.5872 11.6653C10.9521 11.6325 11.7648 11.1877 11.9306 10.7265C12.0965 10.2653 12.0965 9.87005 12.0468 9.78745C11.997 9.70515 11.8643 9.65573 11.6652 9.557C11.4661 9.45821 10.4876 8.98038 10.3052 8.91446C10.1227 8.8486 9.99007 8.81573 9.85734 9.01349C9.72461 9.21095 9.34347 9.65573 9.22729 9.78745C9.11125 9.91948 8.99507 9.93591 8.7961 9.83712C8.59693 9.73802 7.95595 9.52971 7.19549 8.85691C6.60381 8.33337 6.20436 7.68686 6.08825 7.48909C5.97214 7.29163 6.07582 7.1846 6.17562 7.08618C6.26504 6.99768 6.37472 6.85554 6.47433 6.74025C6.57357 6.62491 6.60669 6.54261 6.67305 6.41089C6.73948 6.27904 6.70624 6.1637 6.65655 6.06491C6.60669 5.96611 6.21992 4.98931 6.04294 4.5988Z" fill="white"/>
</g>
<defs>
<linearGradient id="paint0_linear_362_4698" x1="772.471" y1="1539.78" x2="772.471" y2="0.276367" gradientUnits="userSpaceOnUse">
<stop stop-color="#1FAF38"/>
<stop offset="1" stop-color="#60D669"/>
</linearGradient>
<linearGradient id="paint1_linear_362_4698" x1="799.9" y1="1594.71" x2="799.9" y2="0" gradientUnits="userSpaceOnUse">
<stop stop-color="#F9F9F9"/>
<stop offset="1" stop-color="white"/>
</linearGradient>
<clipPath id="clip0_362_4698">
<rect width="16" height="16" fill="white"/>
</clipPath>
</defs>
</svg>
